M48
; DRILL file {KiCad 7.0.1} date Fri Jun 16 17:15:41 2023
; FORMAT={-:-/ absolute / metric / decimal}
; #@! TF.CreationDate,2023-06-16T17:15:41+02:00
; #@! TF.GenerationSoftware,Kicad,Pcbnew,7.0.1
; #@! TF.FileFunction,Plated,1,2,PTH
FMAT,2
METRIC
; #@! TA.AperFunction,Plated,PTH,ViaDrill
T1C0.700
; #@! TA.AperFunction,Plated,PTH,ComponentDrill
T2C0.750
; #@! TA.AperFunction,Plated,PTH,ComponentDrill
T3C0.800
; #@! TA.AperFunction,Plated,PTH,ViaDrill
T4C1.000
; #@! TA.AperFunction,Plated,PTH,ComponentDrill
T5C1.000
; #@! TA.AperFunction,Plated,PTH,ViaDrill
T6C1.200
%
G90
G05
T1
X145.99Y-92.74
X145.99Y-94.1
X145.99Y-95.47
X145.99Y-96.98
X145.99Y-98.38
X154.71Y-92.75
X154.71Y-94.11
X154.71Y-95.48
X155.87Y-117.57
X155.91Y-119.33
X156.13Y-98.63
X157.91Y-98.59
X159.35Y-117.74
X159.44Y-119.35
X163.15Y-87.21
X170.57Y-91.28
X170.67Y-125.14
X178.78Y-98.68
T2
X163.225Y-112.31
X164.82Y-112.31
X166.425Y-112.31
T3
X128.78Y-123.84
X136.4Y-123.84
X153.425Y-113.46
X155.925Y-113.46
T4
X132.77Y-123.39
X134.12Y-121.69
X134.56Y-123.44
X140.14Y-125.3
X150.58Y-121.76
X152.46Y-121.76
X154.33Y-121.77
X156.31Y-110.31
X156.4Y-106.47
X156.97Y-103.65
X157.92Y-112.24
X158.4Y-109.19
X161.62Y-109.66
X167.19Y-116.45
T5
X125.68Y-113.23
X125.68Y-115.77
X125.68Y-118.31
X128.22Y-113.23
X128.22Y-115.77
X128.22Y-118.31
X129.798Y-75.575
X130.76Y-113.23
X130.76Y-115.77
X130.76Y-118.31
X132.338Y-75.575
X134.878Y-75.575
X136.38Y-115.747
X136.38Y-118.29
X136.38Y-120.83
X137.418Y-75.575
X138.93Y-118.29
X138.93Y-120.83
X138.933Y-123.865
X139.958Y-75.575
X141.47Y-118.29
X141.47Y-120.83
X141.473Y-123.865
X142.498Y-75.575
X144.01Y-118.29
X144.01Y-120.83
X144.013Y-123.865
X145.038Y-75.575
X146.55Y-118.29
X146.55Y-120.83
X146.553Y-123.865
X147.578Y-75.575
X148.98Y-114.712
X149.09Y-118.29
X149.093Y-123.865
X150.118Y-75.575
X151.63Y-118.29
X151.633Y-123.865
X152.658Y-75.575
X154.173Y-123.865
X156.713Y-123.865
X156.718Y-75.575
X159.258Y-75.575
X160.04Y-112.567
X160.04Y-115.108
X160.588Y-107.46
X160.588Y-89.68
X160.588Y-92.22
X160.588Y-94.76
X160.588Y-97.3
X160.588Y-99.84
X160.588Y-102.38
X160.588Y-104.92
X161.798Y-75.575
X161.798Y-123.865
X163.127Y-107.46
X163.128Y-89.68
X163.128Y-92.22
X163.128Y-94.76
X163.128Y-97.3
X163.128Y-99.84
X163.128Y-102.38
X163.128Y-104.92
X164.338Y-75.575
X164.338Y-123.865
X166.878Y-75.575
X166.878Y-123.865
X169.418Y-75.575
X169.418Y-123.865
X169.625Y-112.567
X169.625Y-115.108
X171.835Y-84.605
X171.835Y-87.145
X171.958Y-75.575
X171.958Y-123.865
X174.375Y-84.605
X174.375Y-87.145
X174.498Y-75.575
X174.498Y-123.865
X175.35Y-96.22
X175.35Y-103.17
X175.35Y-106.57
X175.35Y-109.97
X175.35Y-113.37
X175.355Y-99.72
T6
X137.43Y-81.32
X173.3Y-96.72
X173.41Y-94.88
X177.21Y-95.44
X177.3Y-97.1
T0
M30
