%TF.GenerationSoftware,KiCad,Pcbnew,7.0.1*%
%TF.CreationDate,2023-06-16T17:14:34+02:00*%
%TF.ProjectId,Uno_shiefefefe - Copy,556e6f5f-7368-4696-9566-656665666520,rev?*%
%TF.SameCoordinates,Original*%
%TF.FileFunction,Copper,L1,Top*%
%TF.FilePolarity,Positive*%
%FSLAX46Y46*%
G04 Gerber Fmt 4.6, Leading zero omitted, Abs format (unit mm)*
G04 Created by KiCad (PCBNEW 7.0.1) date 2023-06-16 17:14:34*
%MOMM*%
%LPD*%
G01*
G04 APERTURE LIST*
%TA.AperFunction,ComponentPad*%
%ADD10R,1.700000X1.700000*%
%TD*%
%TA.AperFunction,ComponentPad*%
%ADD11O,1.700000X1.700000*%
%TD*%
%TA.AperFunction,ComponentPad*%
%ADD12R,1.050000X1.500000*%
%TD*%
%TA.AperFunction,ComponentPad*%
%ADD13O,1.050000X1.500000*%
%TD*%
%TA.AperFunction,ComponentPad*%
%ADD14R,1.600000X1.600000*%
%TD*%
%TA.AperFunction,ComponentPad*%
%ADD15C,1.600000*%
%TD*%
%TA.AperFunction,ComponentPad*%
%ADD16O,1.600000X1.600000*%
%TD*%
%TA.AperFunction,ViaPad*%
%ADD17C,1.000000*%
%TD*%
%TA.AperFunction,ViaPad*%
%ADD18C,1.400000*%
%TD*%
%TA.AperFunction,Conductor*%
%ADD19C,0.400000*%
%TD*%
%TA.AperFunction,Conductor*%
%ADD20C,1.000000*%
%TD*%
%TA.AperFunction,Conductor*%
%ADD21C,0.500000*%
%TD*%
%TA.AperFunction,Conductor*%
%ADD22C,1.400000*%
%TD*%
%TA.AperFunction,Conductor*%
%ADD23C,1.800000*%
%TD*%
G04 APERTURE END LIST*
D10*
X156713000Y-123865000D03*
D11*
X154173000Y-123865000D03*
X151633000Y-123865000D03*
X149093000Y-123865000D03*
X146553000Y-123865000D03*
X144013000Y-123865000D03*
X141473000Y-123865000D03*
X138933000Y-123865000D03*
D10*
X174498000Y-123865000D03*
D11*
X171958000Y-123865000D03*
X169418000Y-123865000D03*
X166878000Y-123865000D03*
X164338000Y-123865000D03*
X161798000Y-123865000D03*
D10*
X174498000Y-75575000D03*
D11*
X171958000Y-75575000D03*
X169418000Y-75575000D03*
X166878000Y-75575000D03*
X164338000Y-75575000D03*
X161798000Y-75575000D03*
X159258000Y-75575000D03*
X156718000Y-75575000D03*
D10*
X152658000Y-75575000D03*
D11*
X150118000Y-75575000D03*
X147578000Y-75575000D03*
X145038000Y-75575000D03*
X142498000Y-75575000D03*
X139958000Y-75575000D03*
X137418000Y-75575000D03*
X134878000Y-75575000D03*
X132338000Y-75575000D03*
X129798000Y-75575000D03*
X136380000Y-115747500D03*
X163127500Y-107460000D03*
X160587500Y-107460000D03*
X136380000Y-120830000D03*
X136380000Y-118290000D03*
D10*
X163128000Y-89680000D03*
D11*
X160588000Y-92220000D03*
X160588000Y-89680000D03*
X163128000Y-92220000D03*
X160588000Y-94760000D03*
X163128000Y-94760000D03*
X163128000Y-97300000D03*
X160588000Y-99840000D03*
X163128000Y-99840000D03*
X160588000Y-102380000D03*
X163128000Y-102380000D03*
X160588000Y-104920000D03*
X163128000Y-104920000D03*
X160588000Y-97300000D03*
X160040000Y-115107500D03*
X160040000Y-112567500D03*
X130760000Y-118310000D03*
X130760000Y-115770000D03*
X130760000Y-113230000D03*
D12*
X163225000Y-112310000D03*
D13*
X164820000Y-112310000D03*
X166425000Y-112310000D03*
D14*
X153424888Y-113460000D03*
D15*
X155924888Y-113460000D03*
D11*
X148980000Y-114712500D03*
X169625000Y-115107500D03*
X169625000Y-112567500D03*
D10*
X174375000Y-84605000D03*
D11*
X174375000Y-87145000D03*
X171835000Y-84605000D03*
X171835000Y-87145000D03*
X128220000Y-118310000D03*
X125680000Y-118310000D03*
X128220000Y-115770000D03*
X125680000Y-115770000D03*
X128220000Y-113230000D03*
X125680000Y-113230000D03*
D10*
X175350000Y-96220000D03*
X175355000Y-99720000D03*
X175350000Y-103170000D03*
X175350000Y-106570000D03*
X175350000Y-109970000D03*
X175350000Y-113370000D03*
X138930000Y-120830000D03*
D11*
X138930000Y-118290000D03*
X141470000Y-120830000D03*
X141470000Y-118290000D03*
X144010000Y-120830000D03*
X144010000Y-118290000D03*
X146550000Y-120830000D03*
X146550000Y-118290000D03*
D15*
X136400000Y-123840000D03*
D16*
X128780000Y-123840000D03*
D11*
X149090000Y-118290000D03*
X151630000Y-118290000D03*
D17*
X145990000Y-94100000D03*
X154710000Y-94110000D03*
X154710000Y-95480000D03*
X145990000Y-95470000D03*
D18*
X152460000Y-121760000D03*
X156310000Y-110310000D03*
X150580000Y-121760000D03*
X156400000Y-106470000D03*
X137430000Y-81320000D03*
X177210000Y-95440000D03*
X157920000Y-112240000D03*
X177300000Y-97100000D03*
X154330000Y-121770000D03*
X167190000Y-116450000D03*
X173300000Y-96720000D03*
X134120000Y-121690000D03*
X156970000Y-103650000D03*
X161620000Y-109660000D03*
X134560000Y-123440000D03*
X158400000Y-109190000D03*
X132770000Y-123390000D03*
X173410000Y-94880000D03*
D17*
X156130000Y-98630000D03*
X145990000Y-98380000D03*
X154710000Y-92750000D03*
X145990000Y-92740000D03*
X157910000Y-98590000D03*
X145990000Y-96980000D03*
X159440000Y-119350000D03*
X155910000Y-119330000D03*
X155870000Y-117570000D03*
X159350000Y-117740000D03*
X170570000Y-91280000D03*
X170670000Y-125140000D03*
X163150000Y-87210000D03*
X178780000Y-98680000D03*
D18*
X140140000Y-125300000D03*
D19*
X159750000Y-116450000D02*
X161590000Y-116450000D01*
X159170000Y-116450000D02*
X159750000Y-116450000D01*
X159750000Y-116450000D02*
X160020000Y-116720000D01*
X160540000Y-116450000D02*
X159170000Y-116450000D01*
X159170000Y-116450000D02*
X159090000Y-116370000D01*
D20*
X154710000Y-94110000D02*
X154570000Y-94110000D01*
D21*
X146000000Y-94110000D02*
X154710000Y-94110000D01*
X145990000Y-94100000D02*
X146000000Y-94110000D01*
D20*
X154570000Y-94110000D02*
X154540000Y-94140000D01*
X154710000Y-95480000D02*
X154540000Y-95480000D01*
X145990000Y-95470000D02*
X146130000Y-95470000D01*
D21*
X154700000Y-95470000D02*
X154710000Y-95480000D01*
D20*
X154540000Y-95480000D02*
X154530000Y-95490000D01*
D21*
X145990000Y-95470000D02*
X154700000Y-95470000D01*
D22*
X151633000Y-123865000D02*
X152235000Y-123865000D01*
X132000000Y-123490000D02*
X133820000Y-123490000D01*
D23*
X170140000Y-115220000D02*
X171670000Y-113690000D01*
X160588000Y-102380000D02*
X159960000Y-102380000D01*
D22*
X152888000Y-125150000D02*
X154173000Y-123865000D01*
X154173000Y-123865000D02*
X154173000Y-121927000D01*
X133870000Y-121940000D02*
X134120000Y-121690000D01*
X152235000Y-123865000D02*
X152565000Y-123535000D01*
X135210000Y-120040000D02*
X132000000Y-123250000D01*
D23*
X169625000Y-115107500D02*
X170902500Y-115107500D01*
D22*
X133870000Y-123440000D02*
X133870000Y-121940000D01*
X151633000Y-123865000D02*
X151110000Y-124388000D01*
D23*
X163780000Y-102380000D02*
X164610000Y-101550000D01*
D22*
X133870000Y-123340000D02*
X133870000Y-123510000D01*
D23*
X159960000Y-102380000D02*
X159040000Y-101460000D01*
D22*
X134120000Y-121690000D02*
X133800000Y-121690000D01*
X136380000Y-120830000D02*
X133870000Y-123340000D01*
D23*
X163750000Y-102380000D02*
X164510000Y-103140000D01*
D22*
X151633000Y-123865000D02*
X151633000Y-122587000D01*
X136000000Y-120830000D02*
X135210000Y-120040000D01*
X136380000Y-120830000D02*
X136000000Y-120830000D01*
D20*
X133870000Y-123440000D02*
X133870000Y-123220000D01*
D23*
X160588000Y-102380000D02*
X159940000Y-102380000D01*
X168997500Y-115107500D02*
X168370000Y-114480000D01*
X169350000Y-116330000D02*
X168240000Y-115220000D01*
D22*
X151633000Y-122813000D02*
X150580000Y-121760000D01*
X151110000Y-125150000D02*
X152888000Y-125150000D01*
X151633000Y-123865000D02*
X151633000Y-122813000D01*
D23*
X169625000Y-115107500D02*
X168997500Y-115107500D01*
X168240000Y-115220000D02*
X167400000Y-115220000D01*
D22*
X133820000Y-123490000D02*
X133870000Y-123440000D01*
D23*
X163128000Y-102380000D02*
X163780000Y-102380000D01*
D22*
X151633000Y-122587000D02*
X152460000Y-121760000D01*
X151110000Y-124388000D02*
X151110000Y-125150000D01*
D23*
X160588000Y-102380000D02*
X165330000Y-102380000D01*
D22*
X154173000Y-124723000D02*
X154940000Y-125490000D01*
X154190000Y-125440000D02*
X153208000Y-125440000D01*
X152565000Y-123535000D02*
X154330000Y-121770000D01*
D23*
X169680000Y-116330000D02*
X169350000Y-116330000D01*
D22*
X133800000Y-121690000D02*
X132000000Y-123490000D01*
X138930000Y-120830000D02*
X136380000Y-120830000D01*
D23*
X159940000Y-102380000D02*
X159030000Y-103290000D01*
D22*
X154173000Y-123865000D02*
X154173000Y-125423000D01*
X154173000Y-125423000D02*
X154190000Y-125440000D01*
D23*
X170902500Y-115107500D02*
X169680000Y-116330000D01*
D22*
X132000000Y-123250000D02*
X132000000Y-123490000D01*
X154173000Y-121927000D02*
X154330000Y-121770000D01*
D23*
X163128000Y-102380000D02*
X163750000Y-102380000D01*
X167400000Y-115220000D02*
X170140000Y-115220000D01*
X165330000Y-102380000D02*
X159060000Y-102380000D01*
D22*
X154173000Y-123865000D02*
X154173000Y-124723000D01*
D21*
X156130000Y-98630000D02*
X155880000Y-98380000D01*
D20*
X145990000Y-98380000D02*
X146010000Y-98400000D01*
D21*
X155880000Y-98380000D02*
X145990000Y-98380000D01*
D20*
X146010000Y-98400000D02*
X146080000Y-98400000D01*
D21*
X146000000Y-92750000D02*
X154710000Y-92750000D01*
D20*
X154710000Y-92750000D02*
X154540000Y-92750000D01*
X154540000Y-92750000D02*
X154510000Y-92780000D01*
D21*
X145990000Y-92740000D02*
X146000000Y-92750000D01*
D20*
X145990000Y-96980000D02*
X146100000Y-96980000D01*
D21*
X145990000Y-96980000D02*
X156930000Y-96980000D01*
D19*
X146000000Y-96990000D02*
X145990000Y-96980000D01*
D21*
X157910000Y-97960000D02*
X157910000Y-98590000D01*
X156930000Y-96980000D02*
X157910000Y-97960000D01*
D20*
X155910000Y-119330000D02*
X155950000Y-119370000D01*
X159440000Y-119350000D02*
X159430000Y-119340000D01*
X155950000Y-119370000D02*
X156150000Y-119370000D01*
D21*
X159420000Y-119330000D02*
X159440000Y-119350000D01*
D20*
X159430000Y-119340000D02*
X159230000Y-119340000D01*
D21*
X155910000Y-119330000D02*
X159420000Y-119330000D01*
D20*
X156080000Y-117570000D02*
X156090000Y-117560000D01*
X159200000Y-117740000D02*
X159180000Y-117720000D01*
X155870000Y-117570000D02*
X156080000Y-117570000D01*
X159350000Y-117740000D02*
X159200000Y-117740000D01*
D21*
X155870000Y-117570000D02*
X159180000Y-117570000D01*
X159180000Y-117570000D02*
X159350000Y-117740000D01*
X170880000Y-125350000D02*
X175613000Y-125350000D01*
X176020000Y-124943000D02*
X176020000Y-122420000D01*
X170070000Y-91280000D02*
X166000000Y-87210000D01*
X173640000Y-117790000D02*
X175900000Y-115530000D01*
X170570000Y-91280000D02*
X170070000Y-91280000D01*
X178590000Y-98870000D02*
X178780000Y-98680000D01*
X175900000Y-115530000D02*
X178050000Y-115530000D01*
D20*
X170450000Y-91280000D02*
X170440000Y-91270000D01*
D21*
X170670000Y-125140000D02*
X170880000Y-125350000D01*
X173640000Y-120040000D02*
X173640000Y-117790000D01*
X175613000Y-125350000D02*
X176020000Y-124943000D01*
X166000000Y-87210000D02*
X163150000Y-87210000D01*
X178590000Y-114990000D02*
X178590000Y-98870000D01*
X176020000Y-122420000D02*
X173640000Y-120040000D01*
D20*
X170570000Y-91280000D02*
X170450000Y-91280000D01*
D21*
X178050000Y-115530000D02*
X178590000Y-114990000D01*
D22*
X146553000Y-124197000D02*
X145770000Y-124980000D01*
D20*
X144200000Y-125415000D02*
X142800000Y-125415000D01*
X142800000Y-125415000D02*
X140335000Y-125415000D01*
X146553000Y-123865000D02*
X145058000Y-125360000D01*
X140225000Y-125415000D02*
X140200000Y-125390000D01*
X144200000Y-125415000D02*
X140255000Y-125415000D01*
X145058000Y-125360000D02*
X145010000Y-125360000D01*
X145875000Y-125415000D02*
X144200000Y-125415000D01*
X140255000Y-125415000D02*
X140140000Y-125300000D01*
X146553000Y-123865000D02*
X146553000Y-124737000D01*
D22*
X146553000Y-123865000D02*
X146553000Y-124197000D01*
D20*
X140335000Y-125415000D02*
X140220000Y-125300000D01*
X146553000Y-124737000D02*
X145875000Y-125415000D01*
X142800000Y-125415000D02*
X140225000Y-125415000D01*
%TA.AperFunction,Conductor*%
G36*
X161993615Y-103145195D02*
G01*
X162061969Y-103211203D01*
X162089889Y-103251077D01*
X162256923Y-103418111D01*
X162296359Y-103445724D01*
X162362368Y-103514077D01*
X162397965Y-103602180D01*
X162397966Y-103697203D01*
X162362370Y-103785307D01*
X162296363Y-103853661D01*
X162256603Y-103881501D01*
X162089504Y-104048600D01*
X162061969Y-104087925D01*
X161993615Y-104153933D01*
X161905511Y-104189529D01*
X161810489Y-104189529D01*
X161722385Y-104153933D01*
X161654031Y-104087925D01*
X161639991Y-104067874D01*
X161626495Y-104048599D01*
X161626492Y-104048596D01*
X161459403Y-103881506D01*
X161419639Y-103853663D01*
X161353631Y-103785309D01*
X161318035Y-103697204D01*
X161318035Y-103602181D01*
X161353632Y-103514077D01*
X161419641Y-103445724D01*
X161459076Y-103418111D01*
X161626110Y-103251077D01*
X161654031Y-103211203D01*
X161722385Y-103145195D01*
X161810489Y-103109599D01*
X161905511Y-103109599D01*
X161993615Y-103145195D01*
G37*
%TD.AperFunction*%
%TA.AperFunction,Conductor*%
G36*
X161993616Y-100606068D02*
G01*
X162061970Y-100672077D01*
X162089503Y-100711399D01*
X162256602Y-100878498D01*
X162296358Y-100906335D01*
X162362368Y-100974688D01*
X162397965Y-101062791D01*
X162397966Y-101157814D01*
X162362371Y-101245918D01*
X162296363Y-101314272D01*
X162256926Y-101341886D01*
X162089887Y-101508925D01*
X162061968Y-101548798D01*
X161993614Y-101614806D01*
X161905511Y-101650401D01*
X161810489Y-101650401D01*
X161722386Y-101614806D01*
X161654032Y-101548798D01*
X161626109Y-101508921D01*
X161459076Y-101341887D01*
X161419639Y-101314273D01*
X161353630Y-101245919D01*
X161318035Y-101157815D01*
X161318035Y-101062792D01*
X161353632Y-100974688D01*
X161419642Y-100906335D01*
X161459397Y-100878498D01*
X161459397Y-100878497D01*
X161459401Y-100878495D01*
X161626495Y-100711401D01*
X161654029Y-100672077D01*
X161722384Y-100606068D01*
X161810488Y-100570471D01*
X161905512Y-100570471D01*
X161993616Y-100606068D01*
G37*
%TD.AperFunction*%
%TA.AperFunction,Conductor*%
G36*
X125183036Y-73500583D02*
G01*
X125274388Y-73517985D01*
X125352985Y-73567692D01*
X125407862Y-73642769D01*
X125431366Y-73732745D01*
X125420218Y-73825070D01*
X125375973Y-73906865D01*
X125304803Y-73966722D01*
X125214222Y-74017559D01*
X124999827Y-74183108D01*
X124999823Y-74183111D01*
X124999823Y-74183112D01*
X124988316Y-74195047D01*
X124811812Y-74378121D01*
X124654199Y-74598422D01*
X124530344Y-74839324D01*
X124442881Y-75095694D01*
X124393681Y-75362064D01*
X124383788Y-75632767D01*
X124413413Y-75902019D01*
X124481926Y-76164083D01*
X124481927Y-76164087D01*
X124481928Y-76164088D01*
X124587870Y-76413390D01*
X124624172Y-76472873D01*
X124728981Y-76644609D01*
X124902254Y-76852820D01*
X125007241Y-76946888D01*
X125103998Y-77033582D01*
X125104000Y-77033583D01*
X125104002Y-77033585D01*
X125223189Y-77112438D01*
X125329910Y-77183044D01*
X125575176Y-77298020D01*
X125575178Y-77298020D01*
X125575181Y-77298022D01*
X125761372Y-77354038D01*
X125834569Y-77376060D01*
X126102561Y-77415500D01*
X126305627Y-77415500D01*
X126305631Y-77415500D01*
X126508156Y-77400677D01*
X126772553Y-77341780D01*
X126955801Y-77271693D01*
X127025556Y-77245015D01*
X127025558Y-77245014D01*
X127261777Y-77112441D01*
X127476177Y-76946888D01*
X127664186Y-76751881D01*
X127821799Y-76531579D01*
X127945656Y-76290675D01*
X128028776Y-76047032D01*
X128039003Y-76017056D01*
X128040096Y-76017429D01*
X128067771Y-75947175D01*
X128133498Y-75878099D01*
X128220369Y-75838790D01*
X128315645Y-75835014D01*
X128405354Y-75867325D01*
X128476342Y-75930983D01*
X128518200Y-76016655D01*
X128524096Y-76038660D01*
X128623966Y-76252833D01*
X128759502Y-76446398D01*
X128926601Y-76613497D01*
X129120166Y-76749033D01*
X129120169Y-76749034D01*
X129120170Y-76749035D01*
X129334337Y-76848903D01*
X129562592Y-76910063D01*
X129562593Y-76910063D01*
X129562597Y-76910064D01*
X129798000Y-76930659D01*
X130033402Y-76910064D01*
X130033404Y-76910063D01*
X130033408Y-76910063D01*
X130261663Y-76848903D01*
X130475830Y-76749035D01*
X130669401Y-76613495D01*
X130836495Y-76446401D01*
X130864029Y-76407077D01*
X130932384Y-76341068D01*
X131020488Y-76305471D01*
X131115512Y-76305471D01*
X131203616Y-76341068D01*
X131271970Y-76407077D01*
X131299503Y-76446399D01*
X131466601Y-76613497D01*
X131660166Y-76749033D01*
X131660169Y-76749034D01*
X131660170Y-76749035D01*
X131874337Y-76848903D01*
X132102592Y-76910063D01*
X132102593Y-76910063D01*
X132102597Y-76910064D01*
X132338000Y-76930659D01*
X132573402Y-76910064D01*
X132573404Y-76910063D01*
X132573408Y-76910063D01*
X132801663Y-76848903D01*
X133015830Y-76749035D01*
X133209401Y-76613495D01*
X133376495Y-76446401D01*
X133404029Y-76407077D01*
X133472384Y-76341068D01*
X133560488Y-76305471D01*
X133655512Y-76305471D01*
X133743616Y-76341068D01*
X133811970Y-76407077D01*
X133839503Y-76446399D01*
X134006601Y-76613497D01*
X134200166Y-76749033D01*
X134200169Y-76749034D01*
X134200170Y-76749035D01*
X134414337Y-76848903D01*
X134642592Y-76910063D01*
X134642593Y-76910063D01*
X134642597Y-76910064D01*
X134878000Y-76930659D01*
X135113402Y-76910064D01*
X135113404Y-76910063D01*
X135113408Y-76910063D01*
X135341663Y-76848903D01*
X135555830Y-76749035D01*
X135749401Y-76613495D01*
X135916495Y-76446401D01*
X135939610Y-76413390D01*
X135944335Y-76406642D01*
X136012688Y-76340632D01*
X136100792Y-76305035D01*
X136195815Y-76305035D01*
X136283919Y-76340630D01*
X136352273Y-76406639D01*
X136379885Y-76446073D01*
X136546922Y-76613110D01*
X136740420Y-76748599D01*
X136954513Y-76848432D01*
X137167999Y-76905636D01*
X137168000Y-76905636D01*
X137668000Y-76905636D01*
X137881486Y-76848432D01*
X138095579Y-76748599D01*
X138289077Y-76613110D01*
X138456111Y-76446076D01*
X138483724Y-76406641D01*
X138552077Y-76340632D01*
X138640181Y-76305035D01*
X138735204Y-76305035D01*
X138823309Y-76340631D01*
X138891663Y-76406639D01*
X138919504Y-76446400D01*
X139086601Y-76613497D01*
X139280166Y-76749033D01*
X139280169Y-76749034D01*
X139280170Y-76749035D01*
X139494337Y-76848903D01*
X139722592Y-76910063D01*
X139722593Y-76910063D01*
X139722597Y-76910064D01*
X139958000Y-76930659D01*
X140193402Y-76910064D01*
X140193404Y-76910063D01*
X140193408Y-76910063D01*
X140421663Y-76848903D01*
X140635830Y-76749035D01*
X140829401Y-76613495D01*
X140996495Y-76446401D01*
X141024029Y-76407077D01*
X141092384Y-76341068D01*
X141180488Y-76305471D01*
X141275512Y-76305471D01*
X141363616Y-76341068D01*
X141431970Y-76407077D01*
X141459503Y-76446399D01*
X141626601Y-76613497D01*
X141820166Y-76749033D01*
X141820169Y-76749034D01*
X141820170Y-76749035D01*
X142034337Y-76848903D01*
X142262592Y-76910063D01*
X142262593Y-76910063D01*
X142262597Y-76910064D01*
X142498000Y-76930659D01*
X142733402Y-76910064D01*
X142733404Y-76910063D01*
X142733408Y-76910063D01*
X142961663Y-76848903D01*
X143175830Y-76749035D01*
X143369401Y-76613495D01*
X143536495Y-76446401D01*
X143564029Y-76407077D01*
X143632384Y-76341068D01*
X143720488Y-76305471D01*
X143815512Y-76305471D01*
X143903616Y-76341068D01*
X143971970Y-76407077D01*
X143999503Y-76446399D01*
X144166601Y-76613497D01*
X144360166Y-76749033D01*
X144360169Y-76749034D01*
X144360170Y-76749035D01*
X144574337Y-76848903D01*
X144802592Y-76910063D01*
X144802593Y-76910063D01*
X144802597Y-76910064D01*
X145038000Y-76930659D01*
X145273402Y-76910064D01*
X145273404Y-76910063D01*
X145273408Y-76910063D01*
X145501663Y-76848903D01*
X145715830Y-76749035D01*
X145909401Y-76613495D01*
X146076495Y-76446401D01*
X146104029Y-76407077D01*
X146172384Y-76341068D01*
X146260488Y-76305471D01*
X146355512Y-76305471D01*
X146443616Y-76341068D01*
X146511970Y-76407077D01*
X146539503Y-76446399D01*
X146706601Y-76613497D01*
X146900166Y-76749033D01*
X146900169Y-76749034D01*
X146900170Y-76749035D01*
X147114337Y-76848903D01*
X147342592Y-76910063D01*
X147342593Y-76910063D01*
X147342597Y-76910064D01*
X147578000Y-76930659D01*
X147813402Y-76910064D01*
X147813404Y-76910063D01*
X147813408Y-76910063D01*
X148041663Y-76848903D01*
X148255830Y-76749035D01*
X148449401Y-76613495D01*
X148616495Y-76446401D01*
X148644029Y-76407077D01*
X148712384Y-76341068D01*
X148800488Y-76305471D01*
X148895512Y-76305471D01*
X148983616Y-76341068D01*
X149051970Y-76407077D01*
X149079503Y-76446399D01*
X149246601Y-76613497D01*
X149440166Y-76749033D01*
X149440169Y-76749034D01*
X149440170Y-76749035D01*
X149654337Y-76848903D01*
X149882592Y-76910063D01*
X149882593Y-76910063D01*
X149882597Y-76910064D01*
X150118000Y-76930659D01*
X150353402Y-76910064D01*
X150353404Y-76910063D01*
X150353408Y-76910063D01*
X150581663Y-76848903D01*
X150795830Y-76749035D01*
X150796453Y-76748599D01*
X151007247Y-76601000D01*
X151008853Y-76603293D01*
X151046886Y-76576475D01*
X151128704Y-76553706D01*
X151213415Y-76559759D01*
X151291165Y-76593928D01*
X151352909Y-76652241D01*
X151364202Y-76667327D01*
X151364204Y-76667331D01*
X151450454Y-76782546D01*
X151565669Y-76868796D01*
X151700517Y-76919091D01*
X151760127Y-76925500D01*
X153555872Y-76925499D01*
X153615483Y-76919091D01*
X153750331Y-76868796D01*
X153865546Y-76782546D01*
X153951796Y-76667331D01*
X154002091Y-76532483D01*
X154008500Y-76472873D01*
X154008499Y-75574999D01*
X155362340Y-75574999D01*
X155382935Y-75810402D01*
X155444097Y-76038663D01*
X155543966Y-76252833D01*
X155679502Y-76446398D01*
X155846601Y-76613497D01*
X156040166Y-76749033D01*
X156040169Y-76749034D01*
X156040170Y-76749035D01*
X156254337Y-76848903D01*
X156482592Y-76910063D01*
X156482593Y-76910063D01*
X156482597Y-76910064D01*
X156718000Y-76930659D01*
X156953402Y-76910064D01*
X156953404Y-76910063D01*
X156953408Y-76910063D01*
X157181663Y-76848903D01*
X157395830Y-76749035D01*
X157589401Y-76613495D01*
X157756495Y-76446401D01*
X157784029Y-76407077D01*
X157852384Y-76341068D01*
X157940488Y-76305471D01*
X158035512Y-76305471D01*
X158123616Y-76341068D01*
X158191970Y-76407077D01*
X158219503Y-76446399D01*
X158386601Y-76613497D01*
X158580166Y-76749033D01*
X158580169Y-76749034D01*
X158580170Y-76749035D01*
X158794337Y-76848903D01*
X159022592Y-76910063D01*
X159022593Y-76910063D01*
X159022597Y-76910064D01*
X159258000Y-76930659D01*
X159493402Y-76910064D01*
X159493404Y-76910063D01*
X159493408Y-76910063D01*
X159721663Y-76848903D01*
X159935830Y-76749035D01*
X160129401Y-76613495D01*
X160296495Y-76446401D01*
X160324029Y-76407077D01*
X160392384Y-76341068D01*
X160480488Y-76305471D01*
X160575512Y-76305471D01*
X160663616Y-76341068D01*
X160731970Y-76407077D01*
X160759503Y-76446399D01*
X160926601Y-76613497D01*
X161120166Y-76749033D01*
X161120169Y-76749034D01*
X161120170Y-76749035D01*
X161334337Y-76848903D01*
X161562592Y-76910063D01*
X161562593Y-76910063D01*
X161562597Y-76910064D01*
X161798000Y-76930659D01*
X162033402Y-76910064D01*
X162033404Y-76910063D01*
X162033408Y-76910063D01*
X162261663Y-76848903D01*
X162475830Y-76749035D01*
X162669401Y-76613495D01*
X162836495Y-76446401D01*
X162864029Y-76407077D01*
X162932384Y-76341068D01*
X163020488Y-76305471D01*
X163115512Y-76305471D01*
X163203616Y-76341068D01*
X163271970Y-76407077D01*
X163299503Y-76446399D01*
X163466601Y-76613497D01*
X163660166Y-76749033D01*
X163660169Y-76749034D01*
X163660170Y-76749035D01*
X163874337Y-76848903D01*
X164102592Y-76910063D01*
X164102593Y-76910063D01*
X164102597Y-76910064D01*
X164338000Y-76930659D01*
X164573402Y-76910064D01*
X164573404Y-76910063D01*
X164573408Y-76910063D01*
X164801663Y-76848903D01*
X165015830Y-76749035D01*
X165209401Y-76613495D01*
X165376495Y-76446401D01*
X165404029Y-76407077D01*
X165472384Y-76341068D01*
X165560488Y-76305471D01*
X165655512Y-76305471D01*
X165743616Y-76341068D01*
X165811970Y-76407077D01*
X165839503Y-76446399D01*
X166006601Y-76613497D01*
X166200166Y-76749033D01*
X166200169Y-76749034D01*
X166200170Y-76749035D01*
X166414337Y-76848903D01*
X166642592Y-76910063D01*
X166642593Y-76910063D01*
X166642597Y-76910064D01*
X166878000Y-76930659D01*
X167113402Y-76910064D01*
X167113404Y-76910063D01*
X167113408Y-76910063D01*
X167341663Y-76848903D01*
X167555830Y-76749035D01*
X167749401Y-76613495D01*
X167916495Y-76446401D01*
X167944029Y-76407077D01*
X168012384Y-76341068D01*
X168100488Y-76305471D01*
X168195512Y-76305471D01*
X168283616Y-76341068D01*
X168351970Y-76407077D01*
X168379503Y-76446399D01*
X168546601Y-76613497D01*
X168740166Y-76749033D01*
X168740169Y-76749034D01*
X168740170Y-76749035D01*
X168954337Y-76848903D01*
X169182592Y-76910063D01*
X169182593Y-76910063D01*
X169182597Y-76910064D01*
X169418000Y-76930659D01*
X169653402Y-76910064D01*
X169653404Y-76910063D01*
X169653408Y-76910063D01*
X169881663Y-76848903D01*
X170095830Y-76749035D01*
X170289401Y-76613495D01*
X170456495Y-76446401D01*
X170484029Y-76407077D01*
X170552384Y-76341068D01*
X170640488Y-76305471D01*
X170735512Y-76305471D01*
X170823616Y-76341068D01*
X170891970Y-76407077D01*
X170919503Y-76446399D01*
X171086601Y-76613497D01*
X171280166Y-76749033D01*
X171280169Y-76749034D01*
X171280170Y-76749035D01*
X171494337Y-76848903D01*
X171722592Y-76910063D01*
X171722593Y-76910063D01*
X171722597Y-76910064D01*
X171958000Y-76930659D01*
X172193402Y-76910064D01*
X172193404Y-76910063D01*
X172193408Y-76910063D01*
X172421663Y-76848903D01*
X172635830Y-76749035D01*
X172636453Y-76748599D01*
X172847247Y-76601000D01*
X172848853Y-76603293D01*
X172886886Y-76576475D01*
X172968704Y-76553706D01*
X173053415Y-76559759D01*
X173131165Y-76593928D01*
X173192909Y-76652241D01*
X173204202Y-76667327D01*
X173204204Y-76667331D01*
X173290454Y-76782546D01*
X173405669Y-76868796D01*
X173540517Y-76919091D01*
X173600127Y-76925500D01*
X175395872Y-76925499D01*
X175455483Y-76919091D01*
X175590331Y-76868796D01*
X175705546Y-76782546D01*
X175791796Y-76667331D01*
X175842091Y-76532483D01*
X175848500Y-76472873D01*
X175848499Y-74677128D01*
X175842091Y-74617517D01*
X175791796Y-74482669D01*
X175730633Y-74400966D01*
X175705546Y-74367453D01*
X175647938Y-74324329D01*
X175590331Y-74281204D01*
X175455483Y-74230909D01*
X175455482Y-74230908D01*
X175455480Y-74230908D01*
X175395874Y-74224500D01*
X173600130Y-74224500D01*
X173540526Y-74230908D01*
X173540517Y-74230909D01*
X173405669Y-74281204D01*
X173405667Y-74281205D01*
X173405668Y-74281205D01*
X173290453Y-74367454D01*
X173192908Y-74497759D01*
X173131170Y-74556067D01*
X173053429Y-74590237D01*
X172968725Y-74596295D01*
X172886912Y-74573536D01*
X172848852Y-74546706D01*
X172847247Y-74549000D01*
X172635833Y-74400966D01*
X172421663Y-74301097D01*
X172193402Y-74239935D01*
X171958000Y-74219340D01*
X171722597Y-74239935D01*
X171494336Y-74301097D01*
X171280167Y-74400966D01*
X171086602Y-74536502D01*
X170919504Y-74703600D01*
X170891969Y-74742925D01*
X170823615Y-74808933D01*
X170735511Y-74844529D01*
X170640489Y-74844529D01*
X170552385Y-74808933D01*
X170484031Y-74742925D01*
X170465605Y-74716610D01*
X170456495Y-74703599D01*
X170430023Y-74677127D01*
X170289401Y-74536504D01*
X170095833Y-74400966D01*
X169881663Y-74301097D01*
X169653402Y-74239935D01*
X169418000Y-74219340D01*
X169182597Y-74239935D01*
X168954336Y-74301097D01*
X168740167Y-74400966D01*
X168546602Y-74536502D01*
X168379504Y-74703600D01*
X168351969Y-74742925D01*
X168283615Y-74808933D01*
X168195511Y-74844529D01*
X168100489Y-74844529D01*
X168012385Y-74808933D01*
X167944031Y-74742925D01*
X167925605Y-74716610D01*
X167916495Y-74703599D01*
X167890023Y-74677127D01*
X167749401Y-74536504D01*
X167555833Y-74400966D01*
X167341663Y-74301097D01*
X167113402Y-74239935D01*
X166878000Y-74219340D01*
X166642597Y-74239935D01*
X166414336Y-74301097D01*
X166200167Y-74400966D01*
X166006602Y-74536502D01*
X165839504Y-74703600D01*
X165811969Y-74742925D01*
X165743615Y-74808933D01*
X165655511Y-74844529D01*
X165560489Y-74844529D01*
X165472385Y-74808933D01*
X165404031Y-74742925D01*
X165385605Y-74716610D01*
X165376495Y-74703599D01*
X165350023Y-74677127D01*
X165209401Y-74536504D01*
X165015833Y-74400966D01*
X164801663Y-74301097D01*
X164573402Y-74239935D01*
X164338000Y-74219340D01*
X164102597Y-74239935D01*
X163874336Y-74301097D01*
X163660167Y-74400966D01*
X163466602Y-74536502D01*
X163299504Y-74703600D01*
X163271969Y-74742925D01*
X163203615Y-74808933D01*
X163115511Y-74844529D01*
X163020489Y-74844529D01*
X162932385Y-74808933D01*
X162864031Y-74742925D01*
X162845605Y-74716610D01*
X162836495Y-74703599D01*
X162810023Y-74677127D01*
X162669401Y-74536504D01*
X162475833Y-74400966D01*
X162261663Y-74301097D01*
X162033402Y-74239935D01*
X161798000Y-74219340D01*
X161562597Y-74239935D01*
X161334336Y-74301097D01*
X161120167Y-74400966D01*
X160926602Y-74536502D01*
X160759504Y-74703600D01*
X160731969Y-74742925D01*
X160663615Y-74808933D01*
X160575511Y-74844529D01*
X160480489Y-74844529D01*
X160392385Y-74808933D01*
X160324031Y-74742925D01*
X160305605Y-74716610D01*
X160296495Y-74703599D01*
X160270023Y-74677127D01*
X160129401Y-74536504D01*
X159935833Y-74400966D01*
X159721663Y-74301097D01*
X159493402Y-74239935D01*
X159258000Y-74219340D01*
X159022597Y-74239935D01*
X158794336Y-74301097D01*
X158580167Y-74400966D01*
X158386602Y-74536502D01*
X158219504Y-74703600D01*
X158191969Y-74742925D01*
X158123615Y-74808933D01*
X158035511Y-74844529D01*
X157940489Y-74844529D01*
X157852385Y-74808933D01*
X157784031Y-74742925D01*
X157765605Y-74716610D01*
X157756495Y-74703599D01*
X157730023Y-74677127D01*
X157589401Y-74536504D01*
X157395833Y-74400966D01*
X157181663Y-74301097D01*
X156953402Y-74239935D01*
X156718000Y-74219340D01*
X156482597Y-74239935D01*
X156254336Y-74301097D01*
X156040167Y-74400966D01*
X155846602Y-74536502D01*
X155679502Y-74703602D01*
X155543966Y-74897167D01*
X155444097Y-75111336D01*
X155382935Y-75339597D01*
X155362340Y-75574999D01*
X154008499Y-75574999D01*
X154008499Y-74677128D01*
X154002091Y-74617517D01*
X153951796Y-74482669D01*
X153890633Y-74400966D01*
X153865546Y-74367453D01*
X153807938Y-74324329D01*
X153750331Y-74281204D01*
X153615483Y-74230909D01*
X153615482Y-74230908D01*
X153615480Y-74230908D01*
X153555874Y-74224500D01*
X151760130Y-74224500D01*
X151700526Y-74230908D01*
X151700517Y-74230909D01*
X151565669Y-74281204D01*
X151565667Y-74281205D01*
X151565668Y-74281205D01*
X151450453Y-74367454D01*
X151352908Y-74497759D01*
X151291170Y-74556067D01*
X151213429Y-74590237D01*
X151128725Y-74596295D01*
X151046912Y-74573536D01*
X151008852Y-74546706D01*
X151007247Y-74549000D01*
X150795833Y-74400966D01*
X150581663Y-74301097D01*
X150353402Y-74239935D01*
X150118000Y-74219340D01*
X149882597Y-74239935D01*
X149654336Y-74301097D01*
X149440167Y-74400966D01*
X149246602Y-74536502D01*
X149079504Y-74703600D01*
X149051969Y-74742925D01*
X148983615Y-74808933D01*
X148895511Y-74844529D01*
X148800489Y-74844529D01*
X148712385Y-74808933D01*
X148644031Y-74742925D01*
X148625605Y-74716610D01*
X148616495Y-74703599D01*
X148590023Y-74677127D01*
X148449401Y-74536504D01*
X148255833Y-74400966D01*
X148041663Y-74301097D01*
X147813402Y-74239935D01*
X147578000Y-74219340D01*
X147342597Y-74239935D01*
X147114336Y-74301097D01*
X146900167Y-74400966D01*
X146706602Y-74536502D01*
X146539504Y-74703600D01*
X146511969Y-74742925D01*
X146443615Y-74808933D01*
X146355511Y-74844529D01*
X146260489Y-74844529D01*
X146172385Y-74808933D01*
X146104031Y-74742925D01*
X146085605Y-74716610D01*
X146076495Y-74703599D01*
X146050023Y-74677127D01*
X145909401Y-74536504D01*
X145715833Y-74400966D01*
X145501663Y-74301097D01*
X145273402Y-74239935D01*
X145038000Y-74219340D01*
X144802597Y-74239935D01*
X144574336Y-74301097D01*
X144360167Y-74400966D01*
X144166602Y-74536502D01*
X143999504Y-74703600D01*
X143971969Y-74742925D01*
X143903615Y-74808933D01*
X143815511Y-74844529D01*
X143720489Y-74844529D01*
X143632385Y-74808933D01*
X143564031Y-74742925D01*
X143545605Y-74716610D01*
X143536495Y-74703599D01*
X143510023Y-74677127D01*
X143369401Y-74536504D01*
X143175833Y-74400966D01*
X142961663Y-74301097D01*
X142733402Y-74239935D01*
X142498000Y-74219340D01*
X142262597Y-74239935D01*
X142034336Y-74301097D01*
X141820167Y-74400966D01*
X141626602Y-74536502D01*
X141459504Y-74703600D01*
X141431969Y-74742925D01*
X141363615Y-74808933D01*
X141275511Y-74844529D01*
X141180489Y-74844529D01*
X141092385Y-74808933D01*
X141024031Y-74742925D01*
X141005605Y-74716610D01*
X140996495Y-74703599D01*
X140970023Y-74677127D01*
X140829401Y-74536504D01*
X140635833Y-74400966D01*
X140421663Y-74301097D01*
X140193402Y-74239935D01*
X139958000Y-74219340D01*
X139722597Y-74239935D01*
X139494336Y-74301097D01*
X139280167Y-74400966D01*
X139086602Y-74536502D01*
X138919501Y-74703603D01*
X138891661Y-74743363D01*
X138823307Y-74809370D01*
X138735204Y-74844965D01*
X138640182Y-74844965D01*
X138552078Y-74809369D01*
X138483725Y-74743361D01*
X138456108Y-74703920D01*
X138289080Y-74536891D01*
X138095579Y-74401400D01*
X137881486Y-74301567D01*
X137668000Y-74244363D01*
X137668000Y-76905636D01*
X137168000Y-76905636D01*
X137168000Y-74244364D01*
X137167999Y-74244363D01*
X136954508Y-74301568D01*
X136740426Y-74401397D01*
X136546923Y-74536889D01*
X136379886Y-74703926D01*
X136352272Y-74743363D01*
X136283918Y-74809370D01*
X136195815Y-74844966D01*
X136100792Y-74844965D01*
X136012689Y-74809368D01*
X135944336Y-74743360D01*
X135916495Y-74703599D01*
X135749401Y-74536504D01*
X135555833Y-74400966D01*
X135341663Y-74301097D01*
X135113402Y-74239935D01*
X134878000Y-74219340D01*
X134642597Y-74239935D01*
X134414336Y-74301097D01*
X134200167Y-74400966D01*
X134006602Y-74536502D01*
X133839504Y-74703600D01*
X133811969Y-74742925D01*
X133743615Y-74808933D01*
X133655511Y-74844529D01*
X133560489Y-74844529D01*
X133472385Y-74808933D01*
X133404031Y-74742925D01*
X133385605Y-74716610D01*
X133376495Y-74703599D01*
X133350023Y-74677127D01*
X133209401Y-74536504D01*
X133015833Y-74400966D01*
X132801663Y-74301097D01*
X132573402Y-74239935D01*
X132338000Y-74219340D01*
X132102597Y-74239935D01*
X131874336Y-74301097D01*
X131660167Y-74400966D01*
X131466602Y-74536502D01*
X131299504Y-74703600D01*
X131271969Y-74742925D01*
X131203615Y-74808933D01*
X131115511Y-74844529D01*
X131020489Y-74844529D01*
X130932385Y-74808933D01*
X130864031Y-74742925D01*
X130845605Y-74716610D01*
X130836495Y-74703599D01*
X130810023Y-74677127D01*
X130669401Y-74536504D01*
X130475833Y-74400966D01*
X130261663Y-74301097D01*
X130033402Y-74239935D01*
X129798000Y-74219340D01*
X129562597Y-74239935D01*
X129334336Y-74301097D01*
X129120167Y-74400966D01*
X128926602Y-74536502D01*
X128759502Y-74703602D01*
X128623966Y-74897167D01*
X128576463Y-74999038D01*
X128524098Y-75111336D01*
X128524095Y-75111342D01*
X128518544Y-75132060D01*
X128478245Y-75215650D01*
X128410138Y-75278679D01*
X128323682Y-75312393D01*
X128230886Y-75312110D01*
X128144637Y-75277870D01*
X128076915Y-75214428D01*
X128037126Y-75130594D01*
X127994073Y-74965916D01*
X127994072Y-74965912D01*
X127888130Y-74716610D01*
X127747018Y-74485390D01*
X127687416Y-74413770D01*
X127573745Y-74277179D01*
X127372002Y-74096418D01*
X127305299Y-74052288D01*
X127162921Y-73958091D01*
X127097798Y-73895301D01*
X127059404Y-73813382D01*
X127052813Y-73723153D01*
X127078895Y-73636525D01*
X127134205Y-73564933D01*
X127211444Y-73517829D01*
X127300413Y-73501429D01*
X174936605Y-73520459D01*
X174936917Y-73520501D01*
X174969895Y-73520500D01*
X174969897Y-73520501D01*
X175026894Y-73520500D01*
X175044653Y-73521133D01*
X175231434Y-73534491D01*
X175266587Y-73539545D01*
X175440854Y-73577453D01*
X175474930Y-73587459D01*
X175642021Y-73649780D01*
X175674336Y-73664538D01*
X175746667Y-73704033D01*
X175829407Y-73749212D01*
X175830858Y-73750004D01*
X175860734Y-73769204D01*
X176003506Y-73876081D01*
X176030350Y-73899341D01*
X176156450Y-74025440D01*
X176179714Y-74052288D01*
X176282288Y-74189309D01*
X176286584Y-74195047D01*
X176305790Y-74224932D01*
X176347637Y-74301568D01*
X176391258Y-74381454D01*
X176406016Y-74413770D01*
X176468333Y-74580848D01*
X176478343Y-74614936D01*
X176516251Y-74789196D01*
X176521307Y-74824361D01*
X176534652Y-75010942D01*
X176535286Y-75028706D01*
X176535286Y-75117607D01*
X176535305Y-75117757D01*
X176537482Y-85898450D01*
X176533267Y-85937706D01*
X176536870Y-85988092D01*
X176537504Y-86005786D01*
X176537506Y-86014896D01*
X176538785Y-86023779D01*
X176540690Y-86041488D01*
X176544274Y-86091600D01*
X176550732Y-86116888D01*
X176552863Y-86121553D01*
X176552864Y-86121555D01*
X176571618Y-86162599D01*
X176578437Y-86179058D01*
X176595994Y-86226132D01*
X176609318Y-86248583D01*
X176642225Y-86286545D01*
X176653404Y-86300415D01*
X176658776Y-86307590D01*
X176665222Y-86314037D01*
X176677298Y-86327005D01*
X176710383Y-86365172D01*
X176741128Y-86389942D01*
X179004570Y-88653384D01*
X179058546Y-88734166D01*
X179077500Y-88829454D01*
X179077500Y-89774176D01*
X179060603Y-89864339D01*
X179012204Y-89942265D01*
X178938873Y-89997377D01*
X178850562Y-90022197D01*
X178759256Y-90013354D01*
X178677349Y-89972050D01*
X178615955Y-89903890D01*
X178591817Y-89864339D01*
X178507018Y-89725390D01*
X178469244Y-89680000D01*
X178333745Y-89517179D01*
X178136620Y-89340556D01*
X178132002Y-89336418D01*
X178131999Y-89336416D01*
X178131997Y-89336414D01*
X177906095Y-89186959D01*
X177906093Y-89186958D01*
X177906090Y-89186956D01*
X177660824Y-89071980D01*
X177660825Y-89071980D01*
X177660818Y-89071977D01*
X177401436Y-88993941D01*
X177401432Y-88993940D01*
X177401431Y-88993940D01*
X177133439Y-88954500D01*
X176930369Y-88954500D01*
X176795352Y-88964381D01*
X176727842Y-88969323D01*
X176463445Y-89028220D01*
X176210443Y-89124984D01*
X175974219Y-89257561D01*
X175759827Y-89423108D01*
X175571812Y-89618121D01*
X175414199Y-89838422D01*
X175290344Y-90079324D01*
X175202881Y-90335694D01*
X175153681Y-90602064D01*
X175143788Y-90872767D01*
X175173413Y-91142019D01*
X175241926Y-91404083D01*
X175241927Y-91404087D01*
X175241928Y-91404088D01*
X175347870Y-91653390D01*
X175415940Y-91764926D01*
X175488981Y-91884609D01*
X175662254Y-92092820D01*
X175784392Y-92202255D01*
X175863998Y-92273582D01*
X175864000Y-92273583D01*
X175864002Y-92273585D01*
X176002589Y-92365273D01*
X176089910Y-92423044D01*
X176335176Y-92538020D01*
X176335178Y-92538020D01*
X176335181Y-92538022D01*
X176521372Y-92594038D01*
X176594569Y-92616060D01*
X176862561Y-92655500D01*
X177065627Y-92655500D01*
X177065631Y-92655500D01*
X177268156Y-92640677D01*
X177532553Y-92581780D01*
X177751785Y-92497931D01*
X177785556Y-92485015D01*
X177785558Y-92485014D01*
X178021777Y-92352441D01*
X178236177Y-92186888D01*
X178424186Y-91991881D01*
X178581799Y-91771579D01*
X178588041Y-91759439D01*
X178607054Y-91722458D01*
X178665261Y-91648284D01*
X178746874Y-91601070D01*
X178840191Y-91587586D01*
X178931831Y-91609764D01*
X179008655Y-91664424D01*
X179059649Y-91743731D01*
X179077500Y-91836311D01*
X179077500Y-97429231D01*
X179063757Y-97510811D01*
X179024044Y-97583386D01*
X178962745Y-97638943D01*
X178886627Y-97671351D01*
X178804093Y-97677031D01*
X178802007Y-97676826D01*
X178779999Y-97674658D01*
X178583867Y-97693976D01*
X178395274Y-97751185D01*
X178221458Y-97844091D01*
X178069116Y-97969116D01*
X177944091Y-98121458D01*
X177851185Y-98295274D01*
X177793976Y-98483867D01*
X177774658Y-98679999D01*
X177793976Y-98876131D01*
X177828778Y-98990858D01*
X177839500Y-99063139D01*
X177839500Y-114530500D01*
X177820546Y-114625788D01*
X177766570Y-114706570D01*
X177685788Y-114760546D01*
X177590500Y-114779500D01*
X176884126Y-114779500D01*
X176790483Y-114761221D01*
X176710589Y-114709066D01*
X176656174Y-114630694D01*
X176635228Y-114537611D01*
X176650825Y-114443484D01*
X176655977Y-114429671D01*
X176694091Y-114327483D01*
X176700500Y-114267873D01*
X176700499Y-112472128D01*
X176694091Y-112412517D01*
X176643796Y-112277669D01*
X176579293Y-112191504D01*
X176557546Y-112162453D01*
X176479472Y-112104008D01*
X176442331Y-112076204D01*
X176307483Y-112025909D01*
X176307482Y-112025908D01*
X176307480Y-112025908D01*
X176247874Y-112019500D01*
X174452130Y-112019500D01*
X174392526Y-112025908D01*
X174392517Y-112025909D01*
X174257669Y-112076204D01*
X174257667Y-112076205D01*
X174257668Y-112076205D01*
X174142453Y-112162453D01*
X174089095Y-112233732D01*
X174056204Y-112277669D01*
X174035906Y-112332092D01*
X174005908Y-112412519D01*
X173999500Y-112472125D01*
X173999500Y-114267869D01*
X174003801Y-114307872D01*
X174005909Y-114327483D01*
X174056204Y-114462331D01*
X174086148Y-114502331D01*
X174142453Y-114577546D01*
X174185578Y-114609828D01*
X174257669Y-114663796D01*
X174392517Y-114714091D01*
X174452127Y-114720500D01*
X175046995Y-114720499D01*
X175129231Y-114734472D01*
X175202241Y-114774823D01*
X175257826Y-114837023D01*
X175289749Y-114914091D01*
X175294426Y-114997378D01*
X175271333Y-115077536D01*
X175223062Y-115145569D01*
X173160793Y-117207837D01*
X173133422Y-117231491D01*
X173121469Y-117240389D01*
X173093130Y-117274162D01*
X173078476Y-117290156D01*
X173078407Y-117290224D01*
X173060312Y-117313109D01*
X173055743Y-117318717D01*
X173001575Y-117383272D01*
X172965961Y-117459645D01*
X172962809Y-117466154D01*
X172924983Y-117541474D01*
X172907945Y-117623990D01*
X172906379Y-117631055D01*
X172886943Y-117713063D01*
X172889395Y-117797310D01*
X172889500Y-117804551D01*
X172889500Y-119967189D01*
X172886871Y-120003277D01*
X172884711Y-120018022D01*
X172888553Y-120061941D01*
X172889500Y-120083640D01*
X172889500Y-120083714D01*
X172892888Y-120112709D01*
X172893623Y-120119904D01*
X172900966Y-120203834D01*
X172929788Y-120283025D01*
X172932163Y-120289858D01*
X172935884Y-120301086D01*
X172953861Y-120355337D01*
X172958673Y-120369856D01*
X172964761Y-120379113D01*
X172964763Y-120379117D01*
X173004978Y-120440263D01*
X173008848Y-120446337D01*
X173053106Y-120518089D01*
X173114364Y-120575882D01*
X173119561Y-120580929D01*
X174080493Y-121541861D01*
X174628063Y-122089430D01*
X174682039Y-122170212D01*
X174700993Y-122265500D01*
X174682039Y-122360788D01*
X174628063Y-122441569D01*
X174547281Y-122495546D01*
X174451993Y-122514500D01*
X173600130Y-122514500D01*
X173540517Y-122520908D01*
X173540517Y-122520909D01*
X173405669Y-122571204D01*
X173379099Y-122591094D01*
X173290453Y-122657454D01*
X173192908Y-122787759D01*
X173131170Y-122846067D01*
X173053429Y-122880237D01*
X172968725Y-122886295D01*
X172886912Y-122863536D01*
X172848852Y-122836706D01*
X172847247Y-122839000D01*
X172635833Y-122690966D01*
X172421663Y-122591097D01*
X172193402Y-122529935D01*
X171958000Y-122509340D01*
X171722597Y-122529935D01*
X171494336Y-122591097D01*
X171280167Y-122690966D01*
X171086602Y-122826502D01*
X170919504Y-122993600D01*
X170891969Y-123032925D01*
X170823615Y-123098933D01*
X170735511Y-123134529D01*
X170640489Y-123134529D01*
X170552385Y-123098933D01*
X170484031Y-123032925D01*
X170480570Y-123027982D01*
X170456495Y-122993599D01*
X170401436Y-122938540D01*
X170289401Y-122826504D01*
X170095833Y-122690966D01*
X169881663Y-122591097D01*
X169653402Y-122529935D01*
X169418000Y-122509340D01*
X169182597Y-122529935D01*
X168954336Y-122591097D01*
X168740167Y-122690966D01*
X168546602Y-122826502D01*
X168379504Y-122993600D01*
X168351969Y-123032925D01*
X168283615Y-123098933D01*
X168195511Y-123134529D01*
X168100489Y-123134529D01*
X168012385Y-123098933D01*
X167944031Y-123032925D01*
X167940570Y-123027982D01*
X167916495Y-122993599D01*
X167861436Y-122938540D01*
X167749401Y-122826504D01*
X167555833Y-122690966D01*
X167341663Y-122591097D01*
X167113402Y-122529935D01*
X166878000Y-122509340D01*
X166642597Y-122529935D01*
X166414336Y-122591097D01*
X166200167Y-122690966D01*
X166006602Y-122826502D01*
X165839504Y-122993600D01*
X165811969Y-123032925D01*
X165743615Y-123098933D01*
X165655511Y-123134529D01*
X165560489Y-123134529D01*
X165472385Y-123098933D01*
X165404031Y-123032925D01*
X165400570Y-123027982D01*
X165376495Y-122993599D01*
X165321436Y-122938540D01*
X165209401Y-122826504D01*
X165015833Y-122690966D01*
X164801663Y-122591097D01*
X164573402Y-122529935D01*
X164338000Y-122509340D01*
X164102597Y-122529935D01*
X163874336Y-122591097D01*
X163660167Y-122690966D01*
X163466602Y-122826502D01*
X163299504Y-122993600D01*
X163271969Y-123032925D01*
X163203615Y-123098933D01*
X163115511Y-123134529D01*
X163020489Y-123134529D01*
X162932385Y-123098933D01*
X162864031Y-123032925D01*
X162860570Y-123027982D01*
X162836495Y-122993599D01*
X162781436Y-122938540D01*
X162669401Y-122826504D01*
X162475833Y-122690966D01*
X162261663Y-122591097D01*
X162033402Y-122529935D01*
X161798000Y-122509340D01*
X161562597Y-122529935D01*
X161334336Y-122591097D01*
X161120167Y-122690966D01*
X160926602Y-122826502D01*
X160759502Y-122993602D01*
X160623966Y-123187167D01*
X160524097Y-123401336D01*
X160462935Y-123629597D01*
X160442340Y-123864999D01*
X160462935Y-124100402D01*
X160524097Y-124328663D01*
X160623966Y-124542833D01*
X160759502Y-124736398D01*
X160926601Y-124903497D01*
X161120166Y-125039033D01*
X161120169Y-125039034D01*
X161120170Y-125039035D01*
X161334337Y-125138903D01*
X161562592Y-125200063D01*
X161562593Y-125200063D01*
X161562597Y-125200064D01*
X161798000Y-125220659D01*
X162033402Y-125200064D01*
X162033404Y-125200063D01*
X162033408Y-125200063D01*
X162261663Y-125138903D01*
X162475830Y-125039035D01*
X162669401Y-124903495D01*
X162836495Y-124736401D01*
X162864029Y-124697077D01*
X162932384Y-124631068D01*
X163020488Y-124595471D01*
X163115512Y-124595471D01*
X163203616Y-124631068D01*
X163271970Y-124697077D01*
X163299503Y-124736399D01*
X163466601Y-124903497D01*
X163660166Y-125039033D01*
X163660169Y-125039034D01*
X163660170Y-125039035D01*
X163874337Y-125138903D01*
X164102592Y-125200063D01*
X164102593Y-125200063D01*
X164102597Y-125200064D01*
X164338000Y-125220659D01*
X164573402Y-125200064D01*
X164573404Y-125200063D01*
X164573408Y-125200063D01*
X164801663Y-125138903D01*
X165015830Y-125039035D01*
X165209401Y-124903495D01*
X165376495Y-124736401D01*
X165404029Y-124697077D01*
X165472384Y-124631068D01*
X165560488Y-124595471D01*
X165655512Y-124595471D01*
X165743616Y-124631068D01*
X165811970Y-124697077D01*
X165839503Y-124736399D01*
X166006601Y-124903497D01*
X166200166Y-125039033D01*
X166200169Y-125039034D01*
X166200170Y-125039035D01*
X166414337Y-125138903D01*
X166642592Y-125200063D01*
X166642593Y-125200063D01*
X166642597Y-125200064D01*
X166878000Y-125220659D01*
X167113402Y-125200064D01*
X167113404Y-125200063D01*
X167113408Y-125200063D01*
X167341663Y-125138903D01*
X167555830Y-125039035D01*
X167749401Y-124903495D01*
X167916495Y-124736401D01*
X167944029Y-124697077D01*
X168012384Y-124631068D01*
X168100488Y-124595471D01*
X168195512Y-124595471D01*
X168283616Y-124631068D01*
X168351970Y-124697077D01*
X168379503Y-124736399D01*
X168546601Y-124903497D01*
X168740166Y-125039033D01*
X168740169Y-125039034D01*
X168740170Y-125039035D01*
X168954337Y-125138903D01*
X169182592Y-125200063D01*
X169182593Y-125200063D01*
X169182597Y-125200064D01*
X169417997Y-125220659D01*
X169417998Y-125220658D01*
X169418000Y-125220659D01*
X169441658Y-125218589D01*
X169525835Y-125225606D01*
X169602824Y-125260362D01*
X169663763Y-125318857D01*
X169701639Y-125394360D01*
X169745534Y-125539062D01*
X169755485Y-125630924D01*
X169731255Y-125720089D01*
X169676179Y-125794280D01*
X169597843Y-125843280D01*
X169507033Y-125860343D01*
X147467278Y-125840642D01*
X147384231Y-125826306D01*
X147310723Y-125785088D01*
X147255173Y-125721711D01*
X147223947Y-125643434D01*
X147220620Y-125559224D01*
X147245574Y-125478728D01*
X147295947Y-125411170D01*
X147316053Y-125392059D01*
X147347039Y-125347537D01*
X147358413Y-125332452D01*
X147392698Y-125290407D01*
X147403111Y-125270470D01*
X147419450Y-125243503D01*
X147432295Y-125225049D01*
X147453685Y-125175201D01*
X147461799Y-125158118D01*
X147468407Y-125145468D01*
X147486909Y-125110049D01*
X147493095Y-125088425D01*
X147503666Y-125058735D01*
X147512540Y-125038058D01*
X147523458Y-124984924D01*
X147527966Y-124966561D01*
X147530260Y-124958545D01*
X147542887Y-124914418D01*
X147542887Y-124914415D01*
X147546792Y-124900769D01*
X147570319Y-124853616D01*
X147567771Y-124852348D01*
X147578058Y-124831689D01*
X147612722Y-124762072D01*
X147618057Y-124751950D01*
X147622793Y-124743448D01*
X147675111Y-124678327D01*
X147746023Y-124634173D01*
X147827548Y-124615956D01*
X147910511Y-124625727D01*
X147985573Y-124662386D01*
X148044286Y-124721808D01*
X148054502Y-124736398D01*
X148221601Y-124903497D01*
X148415166Y-125039033D01*
X148415169Y-125039034D01*
X148415170Y-125039035D01*
X148629337Y-125138903D01*
X148857592Y-125200063D01*
X148857593Y-125200063D01*
X148857597Y-125200064D01*
X149093000Y-125220659D01*
X149328402Y-125200064D01*
X149328404Y-125200063D01*
X149328408Y-125200063D01*
X149556663Y-125138903D01*
X149770830Y-125039035D01*
X149964401Y-124903495D01*
X150131495Y-124736401D01*
X150159335Y-124696642D01*
X150227688Y-124630632D01*
X150315792Y-124595035D01*
X150410815Y-124595035D01*
X150498919Y-124630630D01*
X150567273Y-124696639D01*
X150594885Y-124736073D01*
X150761922Y-124903110D01*
X150955420Y-125038599D01*
X151169513Y-125138432D01*
X151382999Y-125195636D01*
X151383000Y-125195636D01*
X151883000Y-125195636D01*
X152096486Y-125138432D01*
X152310579Y-125038599D01*
X152504077Y-124903110D01*
X152671110Y-124736077D01*
X152699031Y-124696203D01*
X152767385Y-124630195D01*
X152855489Y-124594599D01*
X152950511Y-124594599D01*
X153038615Y-124630195D01*
X153106969Y-124696203D01*
X153134889Y-124736077D01*
X153301922Y-124903110D01*
X153495420Y-125038599D01*
X153709513Y-125138432D01*
X153922999Y-125195636D01*
X153923000Y-125195636D01*
X154423000Y-125195636D01*
X154636486Y-125138432D01*
X154850579Y-125038599D01*
X155061923Y-124890615D01*
X155063526Y-124892904D01*
X155101583Y-124866070D01*
X155183401Y-124843301D01*
X155268112Y-124849354D01*
X155345862Y-124883524D01*
X155407606Y-124941836D01*
X155419202Y-124957327D01*
X155419204Y-124957331D01*
X155505454Y-125072546D01*
X155620669Y-125158796D01*
X155755517Y-125209091D01*
X155815127Y-125215500D01*
X157610872Y-125215499D01*
X157670483Y-125209091D01*
X157805331Y-125158796D01*
X157920546Y-125072546D01*
X158006796Y-124957331D01*
X158057091Y-124822483D01*
X158063500Y-124762873D01*
X158063499Y-122967128D01*
X158057091Y-122907517D01*
X158006796Y-122772669D01*
X157945633Y-122690966D01*
X157920546Y-122657453D01*
X157862938Y-122614329D01*
X157805331Y-122571204D01*
X157670483Y-122520909D01*
X157670482Y-122520908D01*
X157670480Y-122520908D01*
X157610874Y-122514500D01*
X155815130Y-122514500D01*
X155755517Y-122520908D01*
X155755517Y-122520909D01*
X155620669Y-122571204D01*
X155620667Y-122571205D01*
X155620668Y-122571205D01*
X155505453Y-122657453D01*
X155407605Y-122788164D01*
X155345867Y-122846472D01*
X155268126Y-122880642D01*
X155183422Y-122886700D01*
X155101609Y-122863941D01*
X155063526Y-122837095D01*
X155061923Y-122839385D01*
X154850579Y-122691400D01*
X154636486Y-122591567D01*
X154423000Y-122534363D01*
X154423000Y-125195636D01*
X153923000Y-125195636D01*
X153923000Y-124115001D01*
X153922999Y-124115000D01*
X151883001Y-124115000D01*
X151883000Y-124115001D01*
X151883000Y-125195636D01*
X151383000Y-125195636D01*
X151383000Y-123614999D01*
X151883000Y-123614999D01*
X151883001Y-123615000D01*
X153922999Y-123615000D01*
X153923000Y-123614999D01*
X153923000Y-122534364D01*
X153922999Y-122534363D01*
X153709508Y-122591568D01*
X153495426Y-122691397D01*
X153301923Y-122826889D01*
X153134887Y-122993925D01*
X153106968Y-123033798D01*
X153038614Y-123099806D01*
X152950511Y-123135401D01*
X152855489Y-123135401D01*
X152767386Y-123099806D01*
X152699032Y-123033798D01*
X152671109Y-122993921D01*
X152504080Y-122826891D01*
X152310579Y-122691400D01*
X152096486Y-122591567D01*
X151883000Y-122534363D01*
X151883000Y-123614999D01*
X151383000Y-123614999D01*
X151383000Y-122534364D01*
X151382999Y-122534363D01*
X151169508Y-122591568D01*
X150955426Y-122691397D01*
X150761923Y-122826889D01*
X150594886Y-122993926D01*
X150567272Y-123033363D01*
X150498918Y-123099370D01*
X150410815Y-123134966D01*
X150315792Y-123134965D01*
X150227689Y-123099368D01*
X150159336Y-123033360D01*
X150131495Y-122993599D01*
X149964401Y-122826504D01*
X149770833Y-122690966D01*
X149556663Y-122591097D01*
X149328402Y-122529935D01*
X149093000Y-122509340D01*
X148857597Y-122529935D01*
X148629336Y-122591097D01*
X148415167Y-122690966D01*
X148221602Y-122826502D01*
X148054504Y-122993600D01*
X148026969Y-123032925D01*
X147958615Y-123098933D01*
X147870511Y-123134529D01*
X147775489Y-123134529D01*
X147687385Y-123098933D01*
X147619031Y-123032925D01*
X147615570Y-123027982D01*
X147591495Y-122993599D01*
X147536436Y-122938540D01*
X147424401Y-122826504D01*
X147230833Y-122690966D01*
X147016663Y-122591097D01*
X147016652Y-122591094D01*
X147003657Y-122587612D01*
X146920246Y-122547443D01*
X146857273Y-122479574D01*
X146823448Y-122393390D01*
X146823448Y-122300805D01*
X146857273Y-122214621D01*
X146920247Y-122146752D01*
X147003660Y-122106583D01*
X147013663Y-122103903D01*
X147227830Y-122004035D01*
X147303081Y-121951344D01*
X147381523Y-121896418D01*
X147421401Y-121868495D01*
X147588495Y-121701401D01*
X147688644Y-121558373D01*
X147724033Y-121507833D01*
X147724033Y-121507832D01*
X147724035Y-121507830D01*
X147823903Y-121293663D01*
X147885063Y-121065408D01*
X147888604Y-121024945D01*
X147905659Y-120830000D01*
X147885064Y-120594597D01*
X147881402Y-120580929D01*
X147823903Y-120366337D01*
X147724035Y-120152171D01*
X147724034Y-120152170D01*
X147724033Y-120152167D01*
X147588495Y-119958599D01*
X147421401Y-119791505D01*
X147382074Y-119763967D01*
X147316066Y-119695612D01*
X147280470Y-119607508D01*
X147280471Y-119512484D01*
X147316069Y-119424381D01*
X147382077Y-119356029D01*
X147421401Y-119328495D01*
X147588495Y-119161401D01*
X147616029Y-119122077D01*
X147684384Y-119056068D01*
X147772488Y-119020471D01*
X147867512Y-119020471D01*
X147955616Y-119056068D01*
X148023970Y-119122077D01*
X148051503Y-119161399D01*
X148218601Y-119328497D01*
X148412166Y-119464033D01*
X148412169Y-119464034D01*
X148412170Y-119464035D01*
X148626337Y-119563903D01*
X148854592Y-119625063D01*
X148854593Y-119625063D01*
X148854597Y-119625064D01*
X149090000Y-119645659D01*
X149325402Y-119625064D01*
X149325404Y-119625063D01*
X149325408Y-119625063D01*
X149553663Y-119563903D01*
X149767830Y-119464035D01*
X149768566Y-119463520D01*
X149921641Y-119356335D01*
X149961401Y-119328495D01*
X150128495Y-119161401D01*
X150156029Y-119122077D01*
X150224384Y-119056068D01*
X150312488Y-119020471D01*
X150407512Y-119020471D01*
X150495616Y-119056068D01*
X150563970Y-119122077D01*
X150591503Y-119161399D01*
X150758601Y-119328497D01*
X150952166Y-119464033D01*
X150952169Y-119464034D01*
X150952170Y-119464035D01*
X151166337Y-119563903D01*
X151394592Y-119625063D01*
X151394593Y-119625063D01*
X151394597Y-119625064D01*
X151630000Y-119645659D01*
X151865402Y-119625064D01*
X151865404Y-119625063D01*
X151865408Y-119625063D01*
X152093663Y-119563903D01*
X152307830Y-119464035D01*
X152308566Y-119463520D01*
X152461641Y-119356335D01*
X152501401Y-119328495D01*
X152668495Y-119161401D01*
X152804035Y-118967830D01*
X152903903Y-118753663D01*
X152965063Y-118525408D01*
X152966652Y-118507256D01*
X152985659Y-118290000D01*
X152965064Y-118054597D01*
X152955613Y-118019324D01*
X152903903Y-117826337D01*
X152804035Y-117612171D01*
X152804034Y-117612170D01*
X152804033Y-117612167D01*
X152774506Y-117569998D01*
X154864659Y-117569998D01*
X154865187Y-117575365D01*
X154866065Y-117612352D01*
X154865630Y-117620931D01*
X154875942Y-117688246D01*
X154877614Y-117701540D01*
X154883976Y-117766137D01*
X154886693Y-117775092D01*
X154894540Y-117809647D01*
X154896443Y-117822068D01*
X154918718Y-117882212D01*
X154923495Y-117896408D01*
X154941186Y-117954728D01*
X154947470Y-117966484D01*
X154961370Y-117997380D01*
X154967113Y-118012887D01*
X154998951Y-118063968D01*
X155007232Y-118078294D01*
X155034089Y-118128537D01*
X155045068Y-118141916D01*
X155063896Y-118168162D01*
X155074746Y-118185570D01*
X155113483Y-118226320D01*
X155125491Y-118239910D01*
X155174673Y-118299838D01*
X155174521Y-118299962D01*
X155211181Y-118342473D01*
X155241813Y-118421991D01*
X155243840Y-118507181D01*
X155217023Y-118588065D01*
X155164505Y-118655171D01*
X155163787Y-118655819D01*
X155123476Y-118710714D01*
X155115261Y-118721293D01*
X155074088Y-118771463D01*
X155069674Y-118779722D01*
X155050788Y-118809703D01*
X155043350Y-118819832D01*
X155016563Y-118878128D01*
X155009909Y-118891532D01*
X154981185Y-118945272D01*
X154977313Y-118958038D01*
X154965303Y-118989694D01*
X154958396Y-119004727D01*
X154944790Y-119063356D01*
X154940516Y-119079339D01*
X154923975Y-119133868D01*
X154922279Y-119151090D01*
X154917037Y-119182947D01*
X154912397Y-119202946D01*
X154910971Y-119259168D01*
X154909852Y-119277256D01*
X154904658Y-119329996D01*
X154906744Y-119351171D01*
X154907863Y-119381882D01*
X154907242Y-119406362D01*
X154916461Y-119457798D01*
X154919167Y-119477313D01*
X154923976Y-119526132D01*
X154931307Y-119550300D01*
X154938122Y-119578646D01*
X154943142Y-119606654D01*
X154961052Y-119651492D01*
X154968092Y-119671567D01*
X154981185Y-119714725D01*
X154994962Y-119740501D01*
X155006595Y-119765507D01*
X155018622Y-119795616D01*
X155024401Y-119804384D01*
X155040561Y-119828904D01*
X155043012Y-119832622D01*
X155054706Y-119852273D01*
X155071991Y-119884612D01*
X155074090Y-119888538D01*
X155095140Y-119914187D01*
X155110566Y-119935126D01*
X155130596Y-119965517D01*
X155159142Y-119994064D01*
X155175549Y-120012166D01*
X155199117Y-120040883D01*
X155224552Y-120061757D01*
X155247049Y-120082671D01*
X155294941Y-120133053D01*
X155294944Y-120133055D01*
X155339452Y-120164034D01*
X155354556Y-120175422D01*
X155396593Y-120209698D01*
X155416533Y-120220114D01*
X155443483Y-120236441D01*
X155461951Y-120249295D01*
X155490931Y-120261731D01*
X155511795Y-120270685D01*
X155528884Y-120278801D01*
X155528909Y-120278814D01*
X155576951Y-120303909D01*
X155598586Y-120310099D01*
X155628255Y-120320662D01*
X155648942Y-120329540D01*
X155702085Y-120340461D01*
X155720415Y-120344959D01*
X155772582Y-120359887D01*
X155795022Y-120361595D01*
X155826226Y-120365972D01*
X155848259Y-120370500D01*
X155902491Y-120370500D01*
X155921398Y-120371219D01*
X155975476Y-120375337D01*
X155975476Y-120375336D01*
X155975477Y-120375337D01*
X155988690Y-120373654D01*
X155997793Y-120372495D01*
X156029251Y-120370500D01*
X156200747Y-120370500D01*
X156295551Y-120360858D01*
X156352438Y-120355074D01*
X156546588Y-120294159D01*
X156724502Y-120195409D01*
X156788382Y-120140569D01*
X156864094Y-120096000D01*
X156950574Y-120080500D01*
X158464413Y-120080500D01*
X158538954Y-120091919D01*
X158606658Y-120125129D01*
X158741952Y-120219296D01*
X158928941Y-120299540D01*
X159128258Y-120340500D01*
X159128259Y-120340500D01*
X159261183Y-120340500D01*
X159280086Y-120341219D01*
X159311956Y-120343645D01*
X159350198Y-120346557D01*
X159355661Y-120347033D01*
X159440000Y-120355341D01*
X159440000Y-120355340D01*
X159448397Y-120356168D01*
X159459956Y-120356039D01*
X159465471Y-120355336D01*
X159465476Y-120355337D01*
X159548775Y-120344727D01*
X159555783Y-120343937D01*
X159636132Y-120336024D01*
X159636134Y-120336023D01*
X159641020Y-120335542D01*
X159665075Y-120330400D01*
X159743041Y-120303750D01*
X159751215Y-120301113D01*
X159824727Y-120278814D01*
X159824733Y-120278810D01*
X159826469Y-120278284D01*
X159859289Y-120264014D01*
X159859872Y-120263816D01*
X159925401Y-120225239D01*
X159934297Y-120220246D01*
X159998538Y-120185910D01*
X159999614Y-120185026D01*
X160031265Y-120162921D01*
X160035227Y-120160590D01*
X160088709Y-120112268D01*
X160097633Y-120104582D01*
X160150883Y-120060883D01*
X160154293Y-120056727D01*
X160179845Y-120029931D01*
X160186213Y-120024179D01*
X160226552Y-119969243D01*
X160234722Y-119958724D01*
X160275910Y-119908538D01*
X160280323Y-119900280D01*
X160299221Y-119870281D01*
X160306649Y-119860167D01*
X160333437Y-119801862D01*
X160340086Y-119788471D01*
X160368814Y-119734727D01*
X160372684Y-119721966D01*
X160384701Y-119690292D01*
X160391605Y-119675268D01*
X160405211Y-119616630D01*
X160409477Y-119600676D01*
X160426024Y-119546132D01*
X160427720Y-119528906D01*
X160432966Y-119497025D01*
X160437602Y-119477054D01*
X160439026Y-119420849D01*
X160440145Y-119402752D01*
X160445341Y-119350000D01*
X160443254Y-119328820D01*
X160442136Y-119298112D01*
X160442757Y-119273637D01*
X160433536Y-119222191D01*
X160430831Y-119202678D01*
X160426024Y-119153868D01*
X160422447Y-119142077D01*
X160418692Y-119129701D01*
X160411877Y-119101356D01*
X160406858Y-119073347D01*
X160406089Y-119071423D01*
X160397103Y-119048927D01*
X160388942Y-119028496D01*
X160381901Y-119008416D01*
X160368814Y-118965273D01*
X160355036Y-118939497D01*
X160343411Y-118914510D01*
X160331377Y-118884383D01*
X160306981Y-118847367D01*
X160295293Y-118827727D01*
X160291074Y-118819833D01*
X160275910Y-118791462D01*
X160254857Y-118765809D01*
X160239430Y-118744869D01*
X160219404Y-118714483D01*
X160190858Y-118685937D01*
X160174456Y-118667841D01*
X160158280Y-118648131D01*
X160116316Y-118574055D01*
X160101760Y-118490168D01*
X160116316Y-118406280D01*
X160158281Y-118332202D01*
X160185910Y-118298538D01*
X160185913Y-118298532D01*
X160189031Y-118294733D01*
X160202394Y-118274104D01*
X160203444Y-118271962D01*
X160203448Y-118271958D01*
X160238696Y-118200096D01*
X160242605Y-118192466D01*
X160278814Y-118124727D01*
X160278815Y-118124720D01*
X160279671Y-118123121D01*
X160292791Y-118089818D01*
X160293060Y-118089271D01*
X160312119Y-118015658D01*
X160314878Y-118005838D01*
X160336024Y-117936132D01*
X160336160Y-117934742D01*
X160342911Y-117896733D01*
X160344063Y-117892285D01*
X160347715Y-117820261D01*
X160348586Y-117808578D01*
X160355341Y-117740000D01*
X160354813Y-117734648D01*
X160353934Y-117697632D01*
X160354369Y-117689064D01*
X160344056Y-117621750D01*
X160342385Y-117608459D01*
X160338597Y-117570000D01*
X160336024Y-117543868D01*
X160336023Y-117543867D01*
X160333620Y-117519460D01*
X160336161Y-117519209D01*
X160331316Y-117481970D01*
X160347669Y-117401719D01*
X160389174Y-117331115D01*
X160451337Y-117277797D01*
X160455185Y-117275472D01*
X160507229Y-117223427D01*
X160588008Y-117169454D01*
X160683296Y-117150500D01*
X161632376Y-117150500D01*
X161733571Y-117138212D01*
X161758872Y-117135140D01*
X161917930Y-117074818D01*
X162057929Y-116978183D01*
X162170734Y-116850852D01*
X162249790Y-116700225D01*
X162290500Y-116535056D01*
X162290500Y-116364944D01*
X162249790Y-116199775D01*
X162170734Y-116049148D01*
X162069573Y-115934960D01*
X162057928Y-115921815D01*
X161917929Y-115825181D01*
X161758871Y-115764859D01*
X161632376Y-115749500D01*
X161632372Y-115749500D01*
X161590620Y-115749500D01*
X161501386Y-115732962D01*
X161424006Y-115685543D01*
X161368759Y-115613543D01*
X161342984Y-115526527D01*
X161350105Y-115436054D01*
X161371153Y-115357500D01*
X168294363Y-115357500D01*
X168351567Y-115570986D01*
X168451400Y-115785079D01*
X168586889Y-115978577D01*
X168753922Y-116145610D01*
X168947420Y-116281099D01*
X169161513Y-116380932D01*
X169374999Y-116438136D01*
X169375000Y-116438136D01*
X169875000Y-116438136D01*
X170088486Y-116380932D01*
X170302579Y-116281099D01*
X170496077Y-116145610D01*
X170663110Y-115978577D01*
X170798599Y-115785079D01*
X170898432Y-115570986D01*
X170955636Y-115357500D01*
X169875001Y-115357500D01*
X169875000Y-115357501D01*
X169875000Y-116438136D01*
X169375000Y-116438136D01*
X169375000Y-115357501D01*
X169374999Y-115357500D01*
X168294363Y-115357500D01*
X161371153Y-115357500D01*
X161375063Y-115342907D01*
X161395659Y-115107499D01*
X161375064Y-114872097D01*
X161371153Y-114857499D01*
X161313903Y-114643837D01*
X161214035Y-114429671D01*
X161214034Y-114429670D01*
X161214033Y-114429667D01*
X161078495Y-114236099D01*
X160911403Y-114069006D01*
X160871639Y-114041163D01*
X160805631Y-113972809D01*
X160770035Y-113884704D01*
X160770035Y-113789681D01*
X160805632Y-113701577D01*
X160871641Y-113633224D01*
X160911076Y-113605611D01*
X161078110Y-113438577D01*
X161213599Y-113245079D01*
X161277599Y-113107831D01*
X162200000Y-113107831D01*
X162206401Y-113167373D01*
X162256647Y-113302090D01*
X162342810Y-113417189D01*
X162457909Y-113503352D01*
X162592626Y-113553598D01*
X162652169Y-113560000D01*
X162974999Y-113560000D01*
X162975000Y-113559999D01*
X163475000Y-113559999D01*
X163475001Y-113560000D01*
X163797831Y-113560000D01*
X163857373Y-113553598D01*
X163992090Y-113503351D01*
X164058576Y-113453580D01*
X164142635Y-113412590D01*
X164235887Y-113405501D01*
X164325176Y-113433313D01*
X164425659Y-113487023D01*
X164618967Y-113545662D01*
X164820000Y-113565462D01*
X165021033Y-113545662D01*
X165214341Y-113487023D01*
X165392494Y-113391798D01*
X165464535Y-113332675D01*
X165538614Y-113290710D01*
X165622500Y-113276154D01*
X165706386Y-113290710D01*
X165780464Y-113332675D01*
X165852505Y-113391798D01*
X165990209Y-113465402D01*
X166030659Y-113487023D01*
X166223967Y-113545662D01*
X166425000Y-113565462D01*
X166626033Y-113545662D01*
X166819341Y-113487023D01*
X166997494Y-113391798D01*
X167153647Y-113263647D01*
X167281798Y-113107494D01*
X167377023Y-112929341D01*
X167435662Y-112736033D01*
X167450500Y-112585380D01*
X167450500Y-112567500D01*
X168269340Y-112567500D01*
X168289935Y-112802902D01*
X168351097Y-113031163D01*
X168450966Y-113245333D01*
X168586502Y-113438898D01*
X168753602Y-113605998D01*
X168793358Y-113633835D01*
X168859368Y-113702188D01*
X168894965Y-113790291D01*
X168894966Y-113885314D01*
X168859371Y-113973418D01*
X168793363Y-114041772D01*
X168753926Y-114069386D01*
X168586889Y-114236423D01*
X168451397Y-114429926D01*
X168351568Y-114644008D01*
X168294363Y-114857499D01*
X168294364Y-114857500D01*
X170955636Y-114857500D01*
X170955636Y-114857499D01*
X170898431Y-114644008D01*
X170798602Y-114429926D01*
X170663108Y-114236420D01*
X170496076Y-114069387D01*
X170456639Y-114041773D01*
X170390630Y-113973419D01*
X170355035Y-113885315D01*
X170355035Y-113790292D01*
X170390632Y-113702188D01*
X170456642Y-113633835D01*
X170496397Y-113605998D01*
X170496397Y-113605997D01*
X170496401Y-113605995D01*
X170663495Y-113438901D01*
X170799035Y-113245330D01*
X170898903Y-113031163D01*
X170960063Y-112802908D01*
X170976755Y-112612128D01*
X170980659Y-112567500D01*
X170960064Y-112332097D01*
X170960063Y-112332092D01*
X170898903Y-112103837D01*
X170799035Y-111889671D01*
X170799034Y-111889670D01*
X170799033Y-111889667D01*
X170663495Y-111696099D01*
X170496401Y-111529004D01*
X170302833Y-111393466D01*
X170088663Y-111293597D01*
X169860402Y-111232435D01*
X169625000Y-111211840D01*
X169389597Y-111232435D01*
X169161336Y-111293597D01*
X168947167Y-111393466D01*
X168753602Y-111529002D01*
X168586502Y-111696102D01*
X168450966Y-111889667D01*
X168351097Y-112103836D01*
X168289935Y-112332097D01*
X168269340Y-112567500D01*
X167450500Y-112567500D01*
X167450500Y-112034620D01*
X167435662Y-111883967D01*
X167377023Y-111690659D01*
X167377022Y-111690658D01*
X167281798Y-111512505D01*
X167153647Y-111356352D01*
X166997494Y-111228201D01*
X166819340Y-111132976D01*
X166626034Y-111074338D01*
X166425000Y-111054537D01*
X166223965Y-111074338D01*
X166030659Y-111132976D01*
X165852505Y-111228201D01*
X165780461Y-111287326D01*
X165706383Y-111329290D01*
X165622498Y-111343845D01*
X165538613Y-111329289D01*
X165464537Y-111287326D01*
X165392494Y-111228202D01*
X165392492Y-111228201D01*
X165392491Y-111228200D01*
X165214340Y-111132976D01*
X165021034Y-111074338D01*
X164820000Y-111054537D01*
X164618965Y-111074338D01*
X164425663Y-111132975D01*
X164425659Y-111132976D01*
X164425659Y-111132977D01*
X164325175Y-111186686D01*
X164235889Y-111214498D01*
X164142638Y-111207410D01*
X164058579Y-111166421D01*
X163992090Y-111116648D01*
X163857373Y-111066401D01*
X163797831Y-111060000D01*
X163475001Y-111060000D01*
X163475000Y-111060001D01*
X163475000Y-113559999D01*
X162975000Y-113559999D01*
X162975000Y-112560001D01*
X162974999Y-112560000D01*
X162200001Y-112560000D01*
X162200000Y-112560001D01*
X162200000Y-113107831D01*
X161277599Y-113107831D01*
X161313432Y-113030986D01*
X161370636Y-112817500D01*
X158709363Y-112817500D01*
X158766567Y-113030986D01*
X158866400Y-113245079D01*
X159001889Y-113438577D01*
X159168923Y-113605611D01*
X159208359Y-113633224D01*
X159274368Y-113701577D01*
X159309965Y-113789680D01*
X159309966Y-113884703D01*
X159274370Y-113972807D01*
X159208363Y-114041161D01*
X159168603Y-114069001D01*
X159001502Y-114236102D01*
X158865966Y-114429667D01*
X158766097Y-114643836D01*
X158704935Y-114872097D01*
X158684340Y-115107499D01*
X158704936Y-115342903D01*
X158704936Y-115342906D01*
X158704937Y-115342908D01*
X158756299Y-115534597D01*
X158758276Y-115541973D01*
X158766306Y-115621451D01*
X158748755Y-115699382D01*
X158707430Y-115767745D01*
X158668389Y-115800954D01*
X158534526Y-115934817D01*
X158446522Y-116080393D01*
X158396154Y-116242032D01*
X158395914Y-116242804D01*
X158385642Y-116412606D01*
X158401743Y-116500470D01*
X158406352Y-116525618D01*
X158406876Y-116612422D01*
X158377570Y-116694131D01*
X158321995Y-116760815D01*
X158246907Y-116804369D01*
X158161430Y-116819500D01*
X156853562Y-116819500D01*
X156776017Y-116807117D01*
X156706185Y-116771201D01*
X156600166Y-116693350D01*
X156415271Y-116608396D01*
X156415269Y-116608395D01*
X156415268Y-116608395D01*
X156316161Y-116585396D01*
X156217051Y-116562397D01*
X156013635Y-116557242D01*
X155969975Y-116565068D01*
X155901640Y-116567775D01*
X155870000Y-116564658D01*
X155833022Y-116568301D01*
X155829205Y-116568488D01*
X155770765Y-116574430D01*
X155769990Y-116574508D01*
X155669084Y-116584447D01*
X155576133Y-116613611D01*
X155573876Y-116614308D01*
X155477611Y-116643510D01*
X155393089Y-116690422D01*
X155389635Y-116692303D01*
X155301573Y-116739375D01*
X155228799Y-116801849D01*
X155224577Y-116805393D01*
X155152623Y-116864445D01*
X155144485Y-116872766D01*
X155089727Y-116943506D01*
X155085310Y-116949048D01*
X155030977Y-117015254D01*
X155017599Y-117035907D01*
X154981334Y-117109839D01*
X154977381Y-117117555D01*
X154940334Y-117186865D01*
X154927219Y-117220159D01*
X154926940Y-117220726D01*
X154907879Y-117294340D01*
X154905109Y-117304198D01*
X154883975Y-117373869D01*
X154883838Y-117375268D01*
X154877091Y-117413255D01*
X154875936Y-117417714D01*
X154872286Y-117489684D01*
X154871407Y-117501472D01*
X154864659Y-117569998D01*
X152774506Y-117569998D01*
X152668495Y-117418599D01*
X152501401Y-117251504D01*
X152307833Y-117115966D01*
X152093663Y-117016097D01*
X151865402Y-116954935D01*
X151630000Y-116934340D01*
X151394597Y-116954935D01*
X151166336Y-117016097D01*
X150952167Y-117115966D01*
X150758602Y-117251502D01*
X150758599Y-117251504D01*
X150758599Y-117251505D01*
X150591505Y-117418599D01*
X150564491Y-117457180D01*
X150563969Y-117457925D01*
X150495615Y-117523933D01*
X150407511Y-117559529D01*
X150312489Y-117559529D01*
X150224385Y-117523933D01*
X150156031Y-117457925D01*
X150128495Y-117418599D01*
X150073008Y-117363112D01*
X149961401Y-117251504D01*
X149767833Y-117115966D01*
X149553663Y-117016097D01*
X149325402Y-116954935D01*
X149090000Y-116934340D01*
X148854597Y-116954935D01*
X148626336Y-117016097D01*
X148412167Y-117115966D01*
X148218602Y-117251502D01*
X148218599Y-117251504D01*
X148218599Y-117251505D01*
X148051505Y-117418599D01*
X148024491Y-117457180D01*
X148023969Y-117457925D01*
X147955615Y-117523933D01*
X147867511Y-117559529D01*
X147772489Y-117559529D01*
X147684385Y-117523933D01*
X147616031Y-117457925D01*
X147588495Y-117418599D01*
X147533008Y-117363112D01*
X147421401Y-117251504D01*
X147227833Y-117115966D01*
X147013663Y-117016097D01*
X146785402Y-116954935D01*
X146550000Y-116934340D01*
X146314597Y-116954935D01*
X146086336Y-117016097D01*
X145872167Y-117115966D01*
X145678602Y-117251502D01*
X145678599Y-117251504D01*
X145678599Y-117251505D01*
X145511505Y-117418599D01*
X145484491Y-117457180D01*
X145483969Y-117457925D01*
X145415615Y-117523933D01*
X145327511Y-117559529D01*
X145232489Y-117559529D01*
X145144385Y-117523933D01*
X145076031Y-117457925D01*
X145048495Y-117418599D01*
X144993008Y-117363112D01*
X144881401Y-117251504D01*
X144687833Y-117115966D01*
X144473663Y-117016097D01*
X144245402Y-116954935D01*
X144010000Y-116934340D01*
X143774597Y-116954935D01*
X143546336Y-117016097D01*
X143332167Y-117115966D01*
X143138602Y-117251502D01*
X143138599Y-117251504D01*
X143138599Y-117251505D01*
X142971505Y-117418599D01*
X142944491Y-117457180D01*
X142943969Y-117457925D01*
X142875615Y-117523933D01*
X142787511Y-117559529D01*
X142692489Y-117559529D01*
X142604385Y-117523933D01*
X142536031Y-117457925D01*
X142508495Y-117418599D01*
X142453008Y-117363112D01*
X142341401Y-117251504D01*
X142147833Y-117115966D01*
X141933663Y-117016097D01*
X141705402Y-116954935D01*
X141470000Y-116934340D01*
X141234597Y-116954935D01*
X141006336Y-117016097D01*
X140792167Y-117115966D01*
X140598602Y-117251502D01*
X140598599Y-117251504D01*
X140598599Y-117251505D01*
X140431505Y-117418599D01*
X140404491Y-117457180D01*
X140403969Y-117457925D01*
X140335615Y-117523933D01*
X140247511Y-117559529D01*
X140152489Y-117559529D01*
X140064385Y-117523933D01*
X139996031Y-117457925D01*
X139968495Y-117418599D01*
X139913008Y-117363112D01*
X139801401Y-117251504D01*
X139607833Y-117115966D01*
X139393663Y-117016097D01*
X139165402Y-116954935D01*
X138930000Y-116934340D01*
X138694597Y-116954935D01*
X138466336Y-117016097D01*
X138252167Y-117115966D01*
X138058602Y-117251502D01*
X137891502Y-117418602D01*
X137858969Y-117465065D01*
X137790615Y-117531074D01*
X137702511Y-117566670D01*
X137607489Y-117566670D01*
X137519385Y-117531074D01*
X137451031Y-117465065D01*
X137418495Y-117418599D01*
X137251401Y-117251504D01*
X137210289Y-117222717D01*
X137144281Y-117154362D01*
X137108685Y-117066258D01*
X137108686Y-116971235D01*
X137144284Y-116883131D01*
X137210292Y-116814779D01*
X137251401Y-116785995D01*
X137418495Y-116618901D01*
X137554035Y-116425330D01*
X137653903Y-116211163D01*
X137715063Y-115982908D01*
X137720917Y-115916007D01*
X137735659Y-115747499D01*
X137715064Y-115512097D01*
X137715063Y-115512092D01*
X137653903Y-115283837D01*
X137554035Y-115069671D01*
X137554034Y-115069670D01*
X137554033Y-115069667D01*
X137418495Y-114876099D01*
X137254897Y-114712500D01*
X147624340Y-114712500D01*
X147644935Y-114947902D01*
X147706097Y-115176163D01*
X147805966Y-115390333D01*
X147941502Y-115583898D01*
X148108601Y-115750997D01*
X148302166Y-115886533D01*
X148302169Y-115886534D01*
X148302170Y-115886535D01*
X148516337Y-115986403D01*
X148744592Y-116047563D01*
X148744593Y-116047563D01*
X148744597Y-116047564D01*
X148980000Y-116068159D01*
X149215402Y-116047564D01*
X149215404Y-116047563D01*
X149215408Y-116047563D01*
X149443663Y-115986403D01*
X149657830Y-115886535D01*
X149851401Y-115750995D01*
X150018495Y-115583901D01*
X150154035Y-115390330D01*
X150253903Y-115176163D01*
X150315063Y-114947908D01*
X150315937Y-114937925D01*
X150335659Y-114712500D01*
X150315064Y-114477097D01*
X150315063Y-114477092D01*
X150269720Y-114307869D01*
X152124388Y-114307869D01*
X152126497Y-114327482D01*
X152130797Y-114367483D01*
X152181092Y-114502331D01*
X152208563Y-114539027D01*
X152267341Y-114617546D01*
X152310465Y-114649828D01*
X152382557Y-114703796D01*
X152517405Y-114754091D01*
X152577015Y-114760500D01*
X154272760Y-114760499D01*
X154332371Y-114754091D01*
X154467219Y-114703796D01*
X154582434Y-114617546D01*
X154641215Y-114539025D01*
X155199414Y-114539025D01*
X155272402Y-114590132D01*
X155478568Y-114686268D01*
X155698278Y-114745140D01*
X155924888Y-114764965D01*
X156151497Y-114745140D01*
X156371210Y-114686267D01*
X156577373Y-114590133D01*
X156650359Y-114539027D01*
X156650359Y-114539025D01*
X155924888Y-113813553D01*
X155199414Y-114539025D01*
X154641215Y-114539025D01*
X154668684Y-114502331D01*
X154710709Y-114389655D01*
X154722794Y-114369928D01*
X154739188Y-114312200D01*
X154787734Y-114243598D01*
X155571333Y-113460000D01*
X156278441Y-113460000D01*
X157003913Y-114185471D01*
X157003915Y-114185471D01*
X157055021Y-114112485D01*
X157151155Y-113906322D01*
X157210028Y-113686609D01*
X157229853Y-113459999D01*
X157210028Y-113233390D01*
X157151156Y-113013680D01*
X157055020Y-112807514D01*
X157003914Y-112734527D01*
X156278441Y-113460000D01*
X155571333Y-113460000D01*
X154787733Y-112676400D01*
X154739173Y-112607766D01*
X154722807Y-112550090D01*
X154710708Y-112530340D01*
X154668684Y-112417670D01*
X154668684Y-112417669D01*
X154641213Y-112380972D01*
X155199415Y-112380972D01*
X155924888Y-113106445D01*
X156650360Y-112380973D01*
X156577373Y-112329867D01*
X156550850Y-112317499D01*
X158709363Y-112317499D01*
X158709364Y-112317500D01*
X159789999Y-112317500D01*
X159790000Y-112317499D01*
X159790000Y-111236864D01*
X159789999Y-111236863D01*
X160290000Y-111236863D01*
X160290000Y-112317499D01*
X160290001Y-112317500D01*
X161370636Y-112317500D01*
X161370636Y-112317499D01*
X161313431Y-112104008D01*
X161292909Y-112059999D01*
X162200000Y-112059999D01*
X162200001Y-112060000D01*
X162974999Y-112060000D01*
X162975000Y-112059999D01*
X162975000Y-111060001D01*
X162974999Y-111060000D01*
X162652169Y-111060000D01*
X162592626Y-111066401D01*
X162457909Y-111116647D01*
X162342810Y-111202810D01*
X162256647Y-111317909D01*
X162206401Y-111452626D01*
X162200000Y-111512169D01*
X162200000Y-112059999D01*
X161292909Y-112059999D01*
X161213602Y-111889926D01*
X161078108Y-111696420D01*
X160911080Y-111529391D01*
X160717579Y-111393900D01*
X160503486Y-111294067D01*
X160290000Y-111236863D01*
X159789999Y-111236863D01*
X159576508Y-111294068D01*
X159362426Y-111393897D01*
X159168923Y-111529389D01*
X159001889Y-111696423D01*
X158866397Y-111889926D01*
X158766568Y-112104008D01*
X158709363Y-112317499D01*
X156550850Y-112317499D01*
X156371207Y-112233731D01*
X156151497Y-112174859D01*
X155924888Y-112155034D01*
X155698278Y-112174859D01*
X155478565Y-112233732D01*
X155272406Y-112329864D01*
X155199415Y-112380972D01*
X154641213Y-112380972D01*
X154604621Y-112332092D01*
X154582434Y-112302453D01*
X154490633Y-112233732D01*
X154467219Y-112216204D01*
X154332371Y-112165909D01*
X154332370Y-112165908D01*
X154332368Y-112165908D01*
X154272762Y-112159500D01*
X152577018Y-112159500D01*
X152517405Y-112165908D01*
X152517405Y-112165909D01*
X152382557Y-112216204D01*
X152382555Y-112216205D01*
X152382556Y-112216205D01*
X152267341Y-112302453D01*
X152195872Y-112397925D01*
X152181092Y-112417669D01*
X152150560Y-112499529D01*
X152130796Y-112552519D01*
X152124388Y-112612125D01*
X152124388Y-114307869D01*
X150269720Y-114307869D01*
X150253903Y-114248837D01*
X150154035Y-114034671D01*
X150154034Y-114034670D01*
X150154033Y-114034667D01*
X150018495Y-113841099D01*
X149851401Y-113674004D01*
X149657833Y-113538466D01*
X149443663Y-113438597D01*
X149215402Y-113377435D01*
X148980000Y-113356840D01*
X148744597Y-113377435D01*
X148516336Y-113438597D01*
X148302167Y-113538466D01*
X148108602Y-113674002D01*
X147941502Y-113841102D01*
X147805966Y-114034667D01*
X147706097Y-114248836D01*
X147644935Y-114477097D01*
X147624340Y-114712500D01*
X137254897Y-114712500D01*
X137251401Y-114709004D01*
X137057833Y-114573466D01*
X136843663Y-114473597D01*
X136615402Y-114412435D01*
X136380000Y-114391840D01*
X136144597Y-114412435D01*
X135916336Y-114473597D01*
X135702167Y-114573466D01*
X135508602Y-114709002D01*
X135341502Y-114876102D01*
X135205966Y-115069667D01*
X135106097Y-115283836D01*
X135044935Y-115512097D01*
X135024340Y-115747499D01*
X135044935Y-115982902D01*
X135106097Y-116211163D01*
X135205966Y-116425333D01*
X135341502Y-116618898D01*
X135508603Y-116785999D01*
X135549709Y-116814782D01*
X135615717Y-116883135D01*
X135651313Y-116971238D01*
X135651313Y-117066260D01*
X135615718Y-117154363D01*
X135549711Y-117222717D01*
X135508603Y-117251501D01*
X135341502Y-117418602D01*
X135205966Y-117612167D01*
X135106097Y-117826336D01*
X135044935Y-118054597D01*
X135024340Y-118290000D01*
X135044935Y-118525402D01*
X135106097Y-118753663D01*
X135205966Y-118967833D01*
X135341502Y-119161398D01*
X135508602Y-119328498D01*
X135548358Y-119356335D01*
X135614368Y-119424688D01*
X135649965Y-119512791D01*
X135649966Y-119607814D01*
X135614371Y-119695918D01*
X135548363Y-119764272D01*
X135508926Y-119791886D01*
X135341889Y-119958923D01*
X135206397Y-120152426D01*
X135106568Y-120366508D01*
X135049363Y-120579999D01*
X135049364Y-120580000D01*
X138931000Y-120580000D01*
X139026288Y-120598954D01*
X139107070Y-120652930D01*
X139161046Y-120733712D01*
X139180000Y-120829000D01*
X139180000Y-120831000D01*
X139161046Y-120926288D01*
X139107070Y-121007070D01*
X139026288Y-121061046D01*
X138931000Y-121080000D01*
X135049363Y-121080000D01*
X135106567Y-121293486D01*
X135206400Y-121507579D01*
X135341889Y-121701077D01*
X135508922Y-121868110D01*
X135702420Y-122003599D01*
X135916508Y-122103430D01*
X135988746Y-122122786D01*
X136072161Y-122162957D01*
X136135134Y-122230825D01*
X136168959Y-122317009D01*
X136168959Y-122409592D01*
X136135136Y-122495776D01*
X136072163Y-122563645D01*
X135988749Y-122603817D01*
X135971906Y-122608330D01*
X135953504Y-122613261D01*
X135953503Y-122613261D01*
X135953501Y-122613262D01*
X135747272Y-122709428D01*
X135747266Y-122709431D01*
X135747266Y-122709432D01*
X135560861Y-122839953D01*
X135399953Y-123000861D01*
X135269502Y-123187167D01*
X135269428Y-123187272D01*
X135218152Y-123297235D01*
X135173261Y-123393504D01*
X135156855Y-123454734D01*
X135114363Y-123613313D01*
X135094531Y-123839999D01*
X135114363Y-124066686D01*
X135123399Y-124100408D01*
X135173261Y-124286496D01*
X135184789Y-124311217D01*
X135269428Y-124492727D01*
X135269430Y-124492730D01*
X135269432Y-124492734D01*
X135399953Y-124679139D01*
X135560861Y-124840047D01*
X135747266Y-124970568D01*
X135747271Y-124970570D01*
X135747272Y-124970571D01*
X135778095Y-124984944D01*
X135953504Y-125066739D01*
X136173308Y-125125635D01*
X136173309Y-125125635D01*
X136173313Y-125125636D01*
X136400000Y-125145468D01*
X136626686Y-125125636D01*
X136626688Y-125125635D01*
X136626692Y-125125635D01*
X136846496Y-125066739D01*
X137052734Y-124970568D01*
X137239139Y-124840047D01*
X137400047Y-124679139D01*
X137423259Y-124645987D01*
X137491608Y-124579982D01*
X137579712Y-124544384D01*
X137674736Y-124544382D01*
X137762841Y-124579978D01*
X137831196Y-124645987D01*
X137894504Y-124736400D01*
X138061601Y-124903497D01*
X138255166Y-125039033D01*
X138255169Y-125039034D01*
X138255170Y-125039035D01*
X138469337Y-125138903D01*
X138697592Y-125200063D01*
X138697593Y-125200063D01*
X138697597Y-125200064D01*
X138719897Y-125202015D01*
X138803137Y-125224261D01*
X138873812Y-125273546D01*
X138923458Y-125343966D01*
X138946133Y-125427091D01*
X138957014Y-125544509D01*
X138955896Y-125544612D01*
X138961655Y-125606846D01*
X138936575Y-125694892D01*
X138881370Y-125767923D01*
X138803503Y-125816068D01*
X138713499Y-125832817D01*
X123912733Y-125819586D01*
X123912064Y-125819499D01*
X123880103Y-125819499D01*
X123823099Y-125819499D01*
X123805338Y-125818865D01*
X123618572Y-125805509D01*
X123583405Y-125800453D01*
X123409151Y-125762547D01*
X123375063Y-125752538D01*
X123207978Y-125690219D01*
X123175663Y-125675461D01*
X123019141Y-125589995D01*
X122989261Y-125570793D01*
X122846494Y-125463919D01*
X122819649Y-125440658D01*
X122693549Y-125314559D01*
X122670285Y-125287711D01*
X122605131Y-125200677D01*
X122563411Y-125144946D01*
X122544211Y-125115071D01*
X122458738Y-124958539D01*
X122443986Y-124926236D01*
X122381664Y-124759145D01*
X122371656Y-124725063D01*
X122365473Y-124696642D01*
X122333747Y-124550797D01*
X122328692Y-124515638D01*
X122327053Y-124492727D01*
X122315654Y-124333354D01*
X122315174Y-124324325D01*
X122314867Y-124315574D01*
X122314714Y-124306844D01*
X122314714Y-124239235D01*
X122311410Y-124217150D01*
X122310653Y-124195578D01*
X122310500Y-124186846D01*
X122310500Y-124048744D01*
X122274038Y-123748455D01*
X122262592Y-123702018D01*
X122201643Y-123454734D01*
X122193312Y-123432767D01*
X123143788Y-123432767D01*
X123173413Y-123702019D01*
X123241926Y-123964083D01*
X123241927Y-123964087D01*
X123241928Y-123964088D01*
X123347870Y-124213390D01*
X123407573Y-124311217D01*
X123488981Y-124444609D01*
X123662254Y-124652820D01*
X123755533Y-124736397D01*
X123863998Y-124833582D01*
X123864000Y-124833583D01*
X123864002Y-124833585D01*
X124004034Y-124926229D01*
X124089910Y-124983044D01*
X124335176Y-125098020D01*
X124335178Y-125098020D01*
X124335181Y-125098022D01*
X124491171Y-125144952D01*
X124594569Y-125176060D01*
X124862561Y-125215500D01*
X125065627Y-125215500D01*
X125065631Y-125215500D01*
X125268156Y-125200677D01*
X125532553Y-125141780D01*
X125749733Y-125058716D01*
X125785556Y-125045015D01*
X125797959Y-125038054D01*
X126021777Y-124912441D01*
X126236177Y-124746888D01*
X126424186Y-124551881D01*
X126581799Y-124331579D01*
X126705656Y-124090675D01*
X126791175Y-123839999D01*
X127474531Y-123839999D01*
X127494363Y-124066686D01*
X127503399Y-124100408D01*
X127553261Y-124286496D01*
X127564789Y-124311217D01*
X127649428Y-124492727D01*
X127649430Y-124492730D01*
X127649432Y-124492734D01*
X127779953Y-124679139D01*
X127940861Y-124840047D01*
X128127266Y-124970568D01*
X128127271Y-124970570D01*
X128127272Y-124970571D01*
X128158095Y-124984944D01*
X128333504Y-125066739D01*
X128553308Y-125125635D01*
X128553309Y-125125635D01*
X128553313Y-125125636D01*
X128780000Y-125145468D01*
X129006686Y-125125636D01*
X129006688Y-125125635D01*
X129006692Y-125125635D01*
X129226496Y-125066739D01*
X129432734Y-124970568D01*
X129619139Y-124840047D01*
X129780047Y-124679139D01*
X129910568Y-124492734D01*
X130006739Y-124286496D01*
X130065635Y-124066692D01*
X130067206Y-124048744D01*
X130085468Y-123840000D01*
X130065636Y-123613313D01*
X130053477Y-123567935D01*
X130006739Y-123393504D01*
X129910568Y-123187266D01*
X129780047Y-123000861D01*
X129619139Y-122839953D01*
X129432734Y-122709432D01*
X129432730Y-122709430D01*
X129432727Y-122709428D01*
X129226500Y-122613263D01*
X129226496Y-122613261D01*
X129041326Y-122563645D01*
X129006686Y-122554363D01*
X128780000Y-122534531D01*
X128553313Y-122554363D01*
X128443405Y-122583813D01*
X128333504Y-122613261D01*
X128333500Y-122613262D01*
X128333499Y-122613263D01*
X128127272Y-122709428D01*
X128127266Y-122709431D01*
X128127266Y-122709432D01*
X127940861Y-122839953D01*
X127779953Y-123000861D01*
X127649502Y-123187167D01*
X127649428Y-123187272D01*
X127598152Y-123297235D01*
X127553261Y-123393504D01*
X127536855Y-123454734D01*
X127494363Y-123613313D01*
X127474531Y-123839999D01*
X126791175Y-123839999D01*
X126793118Y-123834305D01*
X126842319Y-123567933D01*
X126852212Y-123297235D01*
X126822586Y-123027982D01*
X126822586Y-123027980D01*
X126758682Y-122783546D01*
X126754072Y-122765912D01*
X126648130Y-122516610D01*
X126507018Y-122285390D01*
X126491883Y-122267203D01*
X126333745Y-122077179D01*
X126174285Y-121934304D01*
X126132002Y-121896418D01*
X126131999Y-121896416D01*
X126131997Y-121896414D01*
X125906095Y-121746959D01*
X125906093Y-121746958D01*
X125906090Y-121746956D01*
X125660824Y-121631980D01*
X125660825Y-121631980D01*
X125660818Y-121631977D01*
X125401436Y-121553941D01*
X125401432Y-121553940D01*
X125401431Y-121553940D01*
X125133439Y-121514500D01*
X124930369Y-121514500D01*
X124795352Y-121524382D01*
X124727842Y-121529323D01*
X124463445Y-121588220D01*
X124210443Y-121684984D01*
X123974219Y-121817561D01*
X123759827Y-121983108D01*
X123759823Y-121983111D01*
X123759823Y-121983112D01*
X123643823Y-122103430D01*
X123571812Y-122178121D01*
X123414199Y-122398422D01*
X123290344Y-122639324D01*
X123202881Y-122895694D01*
X123153681Y-123162064D01*
X123148741Y-123297232D01*
X123145243Y-123392967D01*
X123143788Y-123432767D01*
X122193312Y-123432767D01*
X122178421Y-123393504D01*
X122100208Y-123187272D01*
X122094373Y-123171887D01*
X121953792Y-122904033D01*
X121900544Y-122826889D01*
X121781954Y-122655080D01*
X121671086Y-122529937D01*
X121581352Y-122428648D01*
X121437047Y-122300805D01*
X121354919Y-122228045D01*
X121105970Y-122056210D01*
X121105969Y-122056209D01*
X121105967Y-122056208D01*
X120891278Y-121943530D01*
X120838114Y-121915627D01*
X120555268Y-121808357D01*
X120261544Y-121735961D01*
X119961256Y-121699500D01*
X119961252Y-121699500D01*
X119845799Y-121699500D01*
X113055893Y-121699499D01*
X112998901Y-121699499D01*
X112981137Y-121698865D01*
X112794361Y-121685506D01*
X112759196Y-121680450D01*
X112584940Y-121642543D01*
X112550851Y-121632533D01*
X112383772Y-121570215D01*
X112351458Y-121555458D01*
X112242507Y-121495967D01*
X112194938Y-121469992D01*
X112165054Y-121450787D01*
X112022296Y-121343920D01*
X111995446Y-121320655D01*
X111869344Y-121194553D01*
X111846079Y-121167703D01*
X111778693Y-121077686D01*
X111739211Y-121024943D01*
X111720009Y-120995065D01*
X111634541Y-120838541D01*
X111619784Y-120806227D01*
X111592737Y-120733712D01*
X111557464Y-120639142D01*
X111547456Y-120605059D01*
X111545377Y-120595500D01*
X111509547Y-120430792D01*
X111504494Y-120395644D01*
X111491473Y-120213585D01*
X111491135Y-120208862D01*
X111490501Y-120191099D01*
X111490501Y-120084585D01*
X111490500Y-120084576D01*
X111490500Y-118310000D01*
X124324340Y-118310000D01*
X124344935Y-118545402D01*
X124406097Y-118773663D01*
X124505966Y-118987833D01*
X124641502Y-119181398D01*
X124808601Y-119348497D01*
X125002166Y-119484033D01*
X125002169Y-119484034D01*
X125002170Y-119484035D01*
X125216337Y-119583903D01*
X125444592Y-119645063D01*
X125444593Y-119645063D01*
X125444597Y-119645064D01*
X125680000Y-119665659D01*
X125915402Y-119645064D01*
X125915404Y-119645063D01*
X125915408Y-119645063D01*
X126143663Y-119583903D01*
X126357830Y-119484035D01*
X126387129Y-119463520D01*
X126549250Y-119350001D01*
X126551401Y-119348495D01*
X126718495Y-119181401D01*
X126746029Y-119142077D01*
X126814384Y-119076068D01*
X126902488Y-119040471D01*
X126997512Y-119040471D01*
X127085616Y-119076068D01*
X127153970Y-119142077D01*
X127181503Y-119181399D01*
X127348601Y-119348497D01*
X127542166Y-119484033D01*
X127542169Y-119484034D01*
X127542170Y-119484035D01*
X127756337Y-119583903D01*
X127984592Y-119645063D01*
X127984593Y-119645063D01*
X127984597Y-119645064D01*
X128220000Y-119665659D01*
X128455402Y-119645064D01*
X128455404Y-119645063D01*
X128455408Y-119645063D01*
X128683663Y-119583903D01*
X128897830Y-119484035D01*
X128927129Y-119463520D01*
X129089250Y-119350001D01*
X129091401Y-119348495D01*
X129258495Y-119181401D01*
X129286029Y-119142077D01*
X129354384Y-119076068D01*
X129442488Y-119040471D01*
X129537512Y-119040471D01*
X129625616Y-119076068D01*
X129693970Y-119142077D01*
X129721503Y-119181399D01*
X129888601Y-119348497D01*
X130082166Y-119484033D01*
X130082169Y-119484034D01*
X130082170Y-119484035D01*
X130296337Y-119583903D01*
X130524592Y-119645063D01*
X130524593Y-119645063D01*
X130524597Y-119645064D01*
X130760000Y-119665659D01*
X130995402Y-119645064D01*
X130995404Y-119645063D01*
X130995408Y-119645063D01*
X131223663Y-119583903D01*
X131437830Y-119484035D01*
X131467129Y-119463520D01*
X131629250Y-119350001D01*
X131631401Y-119348495D01*
X131798495Y-119181401D01*
X131874157Y-119073344D01*
X131934033Y-118987833D01*
X131934033Y-118987832D01*
X131934035Y-118987830D01*
X132033903Y-118773663D01*
X132095063Y-118545408D01*
X132095356Y-118542067D01*
X132115659Y-118309999D01*
X132095064Y-118074597D01*
X132095063Y-118074592D01*
X132033903Y-117846337D01*
X131934035Y-117632171D01*
X131934034Y-117632170D01*
X131934033Y-117632167D01*
X131798495Y-117438599D01*
X131631402Y-117271505D01*
X131592077Y-117243970D01*
X131526068Y-117175616D01*
X131490471Y-117087512D01*
X131490471Y-116992488D01*
X131526068Y-116904384D01*
X131592077Y-116836030D01*
X131623843Y-116813787D01*
X131631401Y-116808495D01*
X131798495Y-116641401D01*
X131934035Y-116447830D01*
X132033903Y-116233663D01*
X132095063Y-116005408D01*
X132096505Y-115988936D01*
X132115659Y-115769999D01*
X132095064Y-115534597D01*
X132092902Y-115526527D01*
X132033903Y-115306337D01*
X131934035Y-115092171D01*
X131934034Y-115092170D01*
X131934033Y-115092167D01*
X131798495Y-114898599D01*
X131631402Y-114731505D01*
X131592077Y-114703970D01*
X131526068Y-114635616D01*
X131490471Y-114547512D01*
X131490471Y-114452488D01*
X131526068Y-114364384D01*
X131592077Y-114296030D01*
X131593317Y-114295161D01*
X131631401Y-114268495D01*
X131798495Y-114101401D01*
X131934035Y-113907830D01*
X132033903Y-113693663D01*
X132095063Y-113465408D01*
X132095537Y-113460000D01*
X132115659Y-113230000D01*
X132095064Y-112994597D01*
X132077579Y-112929340D01*
X132033903Y-112766337D01*
X131934035Y-112552171D01*
X131934034Y-112552170D01*
X131934033Y-112552167D01*
X131798495Y-112358599D01*
X131631401Y-112191504D01*
X131437833Y-112055966D01*
X131223663Y-111956097D01*
X130995402Y-111894935D01*
X130760000Y-111874340D01*
X130524597Y-111894935D01*
X130296336Y-111956097D01*
X130082167Y-112055966D01*
X129888602Y-112191502D01*
X129721504Y-112358600D01*
X129693969Y-112397925D01*
X129625615Y-112463933D01*
X129537511Y-112499529D01*
X129442489Y-112499529D01*
X129354385Y-112463933D01*
X129286031Y-112397925D01*
X129274161Y-112380973D01*
X129258495Y-112358599D01*
X129177564Y-112277668D01*
X129091401Y-112191504D01*
X128897833Y-112055966D01*
X128683663Y-111956097D01*
X128455402Y-111894935D01*
X128220000Y-111874340D01*
X127984597Y-111894935D01*
X127756336Y-111956097D01*
X127542167Y-112055966D01*
X127348602Y-112191502D01*
X127181504Y-112358600D01*
X127153969Y-112397925D01*
X127085615Y-112463933D01*
X126997511Y-112499529D01*
X126902489Y-112499529D01*
X126814385Y-112463933D01*
X126746031Y-112397925D01*
X126734161Y-112380973D01*
X126718495Y-112358599D01*
X126637564Y-112277668D01*
X126551401Y-112191504D01*
X126357833Y-112055966D01*
X126143663Y-111956097D01*
X125915402Y-111894935D01*
X125680000Y-111874340D01*
X125444597Y-111894935D01*
X125216336Y-111956097D01*
X125002167Y-112055966D01*
X124808602Y-112191502D01*
X124641502Y-112358602D01*
X124505966Y-112552167D01*
X124406097Y-112766336D01*
X124344935Y-112994597D01*
X124324340Y-113229999D01*
X124344935Y-113465402D01*
X124406097Y-113693663D01*
X124505966Y-113907833D01*
X124641502Y-114101398D01*
X124808599Y-114268495D01*
X124847924Y-114296031D01*
X124913932Y-114364385D01*
X124949528Y-114452488D01*
X124949528Y-114547510D01*
X124913933Y-114635614D01*
X124847926Y-114703967D01*
X124808603Y-114731501D01*
X124641502Y-114898602D01*
X124505966Y-115092167D01*
X124406097Y-115306336D01*
X124344935Y-115534597D01*
X124324340Y-115770000D01*
X124344935Y-116005402D01*
X124406097Y-116233663D01*
X124505966Y-116447833D01*
X124641502Y-116641398D01*
X124808599Y-116808495D01*
X124847924Y-116836031D01*
X124913932Y-116904385D01*
X124949528Y-116992488D01*
X124949528Y-117087510D01*
X124913933Y-117175614D01*
X124847926Y-117243967D01*
X124808603Y-117271501D01*
X124641502Y-117438602D01*
X124505966Y-117632167D01*
X124406097Y-117846336D01*
X124344935Y-118074597D01*
X124324340Y-118310000D01*
X111490500Y-118310000D01*
X111490500Y-110867869D01*
X173999500Y-110867869D01*
X173999501Y-110867874D01*
X174005909Y-110927483D01*
X174056204Y-111062331D01*
X174096865Y-111116647D01*
X174142453Y-111177546D01*
X174154663Y-111186686D01*
X174257669Y-111263796D01*
X174392517Y-111314091D01*
X174452127Y-111320500D01*
X176247872Y-111320499D01*
X176307483Y-111314091D01*
X176442331Y-111263796D01*
X176557546Y-111177546D01*
X176643796Y-111062331D01*
X176694091Y-110927483D01*
X176700500Y-110867873D01*
X176700499Y-109072128D01*
X176694091Y-109012517D01*
X176643796Y-108877669D01*
X176562675Y-108769305D01*
X176557546Y-108762453D01*
X176499938Y-108719328D01*
X176442331Y-108676204D01*
X176307483Y-108625909D01*
X176307482Y-108625908D01*
X176307480Y-108625908D01*
X176247874Y-108619500D01*
X174452130Y-108619500D01*
X174392526Y-108625908D01*
X174392517Y-108625909D01*
X174257669Y-108676204D01*
X174257667Y-108676205D01*
X174257668Y-108676205D01*
X174142453Y-108762453D01*
X174067046Y-108863185D01*
X174056204Y-108877669D01*
X174020410Y-108973636D01*
X174005908Y-109012519D01*
X173999500Y-109072125D01*
X173999500Y-110867869D01*
X111490500Y-110867869D01*
X111490500Y-106699500D01*
X111509454Y-106604212D01*
X111563430Y-106523430D01*
X111644212Y-106469454D01*
X111739500Y-106450500D01*
X113637523Y-106450500D01*
X113724042Y-106466014D01*
X113799779Y-106510624D01*
X113855297Y-106578770D01*
X113883677Y-106661961D01*
X113881383Y-106749830D01*
X113848702Y-106831426D01*
X113789706Y-106896581D01*
X113761822Y-106918112D01*
X113761823Y-106918112D01*
X113573812Y-107113121D01*
X113416199Y-107333422D01*
X113292344Y-107574324D01*
X113204881Y-107830694D01*
X113155681Y-108097064D01*
X113145788Y-108367767D01*
X113175413Y-108637019D01*
X113243926Y-108899083D01*
X113243927Y-108899087D01*
X113243928Y-108899088D01*
X113349870Y-109148390D01*
X113421999Y-109266577D01*
X113490981Y-109379609D01*
X113664254Y-109587820D01*
X113769241Y-109681888D01*
X113865998Y-109768582D01*
X113866000Y-109768583D01*
X113866002Y-109768585D01*
X113985189Y-109847438D01*
X114091910Y-109918044D01*
X114337176Y-110033020D01*
X114337178Y-110033020D01*
X114337181Y-110033022D01*
X114523372Y-110089038D01*
X114596569Y-110111060D01*
X114864561Y-110150500D01*
X115067627Y-110150500D01*
X115067631Y-110150500D01*
X115270156Y-110135677D01*
X115534553Y-110076780D01*
X115717801Y-110006693D01*
X115787556Y-109980015D01*
X115787558Y-109980014D01*
X116023777Y-109847441D01*
X116238177Y-109681888D01*
X116426186Y-109486881D01*
X116583799Y-109266579D01*
X116707656Y-109025675D01*
X116795118Y-108769305D01*
X116844319Y-108502933D01*
X116854212Y-108232235D01*
X116824586Y-107962982D01*
X116824586Y-107962980D01*
X116758448Y-107710000D01*
X159256863Y-107710000D01*
X159314067Y-107923486D01*
X159413900Y-108137579D01*
X159549389Y-108331077D01*
X159716422Y-108498110D01*
X159909920Y-108633599D01*
X160124013Y-108733432D01*
X160337499Y-108790636D01*
X160337500Y-108790636D01*
X160337500Y-107710001D01*
X160337499Y-107710000D01*
X159256863Y-107710000D01*
X116758448Y-107710000D01*
X116756073Y-107700916D01*
X116756072Y-107700912D01*
X116650130Y-107451610D01*
X116509018Y-107220390D01*
X116500371Y-107209999D01*
X116335745Y-107012179D01*
X116193746Y-106884949D01*
X116140887Y-106817951D01*
X116113754Y-106737040D01*
X116115535Y-106651720D01*
X116146021Y-106572012D01*
X116201630Y-106507278D01*
X116275831Y-106465124D01*
X116359908Y-106450500D01*
X134046959Y-106450500D01*
X134046961Y-106450500D01*
X134064576Y-106445327D01*
X134099275Y-106437779D01*
X134117457Y-106435165D01*
X134134166Y-106427533D01*
X134167438Y-106415124D01*
X134185053Y-106409953D01*
X134200500Y-106400025D01*
X134231672Y-106383003D01*
X134248373Y-106375377D01*
X134262240Y-106363359D01*
X134290682Y-106342068D01*
X134306128Y-106332143D01*
X134318147Y-106318271D01*
X134343272Y-106293147D01*
X134357143Y-106281128D01*
X134367068Y-106265682D01*
X134388362Y-106237238D01*
X134400377Y-106223373D01*
X134408003Y-106206672D01*
X134425025Y-106175500D01*
X134434953Y-106160053D01*
X134440124Y-106142438D01*
X134452533Y-106109166D01*
X134460165Y-106092457D01*
X134462779Y-106074275D01*
X134470327Y-106039576D01*
X134475500Y-106021961D01*
X134475500Y-105878039D01*
X134475500Y-104919999D01*
X159232340Y-104919999D01*
X159252935Y-105155402D01*
X159314097Y-105383663D01*
X159413966Y-105597833D01*
X159549502Y-105791398D01*
X159716600Y-105958496D01*
X159756109Y-105986160D01*
X159822118Y-106054513D01*
X159857715Y-106142616D01*
X159857716Y-106237639D01*
X159822120Y-106325743D01*
X159756113Y-106394097D01*
X159716426Y-106421886D01*
X159549389Y-106588923D01*
X159413897Y-106782426D01*
X159314068Y-106996508D01*
X159256863Y-107209999D01*
X159256864Y-107210000D01*
X160588500Y-107210000D01*
X160683788Y-107228954D01*
X160764570Y-107282930D01*
X160818546Y-107363712D01*
X160837500Y-107459000D01*
X160837500Y-108790636D01*
X161050986Y-108733432D01*
X161265079Y-108633599D01*
X161458577Y-108498110D01*
X161625611Y-108331076D01*
X161653224Y-108291641D01*
X161721577Y-108225632D01*
X161809681Y-108190035D01*
X161904704Y-108190035D01*
X161992809Y-108225631D01*
X162061163Y-108291639D01*
X162089004Y-108331400D01*
X162256101Y-108498497D01*
X162449666Y-108634033D01*
X162449669Y-108634034D01*
X162449670Y-108634035D01*
X162663837Y-108733903D01*
X162892092Y-108795063D01*
X162892093Y-108795063D01*
X162892097Y-108795064D01*
X163127500Y-108815659D01*
X163362902Y-108795064D01*
X163362904Y-108795063D01*
X163362908Y-108795063D01*
X163591163Y-108733903D01*
X163805330Y-108634035D01*
X163998901Y-108498495D01*
X164165995Y-108331401D01*
X164301535Y-108137830D01*
X164401403Y-107923663D01*
X164462563Y-107695408D01*
X164482471Y-107467869D01*
X173999500Y-107467869D01*
X173999501Y-107467874D01*
X174005909Y-107527483D01*
X174056204Y-107662331D01*
X174085086Y-107700912D01*
X174142453Y-107777546D01*
X174185577Y-107809828D01*
X174257669Y-107863796D01*
X174392517Y-107914091D01*
X174452127Y-107920500D01*
X176247872Y-107920499D01*
X176307483Y-107914091D01*
X176442331Y-107863796D01*
X176557546Y-107777546D01*
X176643796Y-107662331D01*
X176694091Y-107527483D01*
X176700500Y-107467873D01*
X176700499Y-105672128D01*
X176694091Y-105612517D01*
X176643796Y-105477669D01*
X176573423Y-105383663D01*
X176557546Y-105362453D01*
X176499938Y-105319328D01*
X176442331Y-105276204D01*
X176307483Y-105225909D01*
X176307482Y-105225908D01*
X176307480Y-105225908D01*
X176247874Y-105219500D01*
X174452130Y-105219500D01*
X174392526Y-105225908D01*
X174392517Y-105225909D01*
X174257669Y-105276204D01*
X174257667Y-105276205D01*
X174257668Y-105276205D01*
X174142453Y-105362453D01*
X174077291Y-105449500D01*
X174056204Y-105477669D01*
X174029859Y-105548303D01*
X174005908Y-105612519D01*
X173999500Y-105672125D01*
X173999500Y-107467869D01*
X164482471Y-107467869D01*
X164483159Y-107460000D01*
X164462945Y-107228954D01*
X164462564Y-107224597D01*
X164458653Y-107209999D01*
X164401403Y-106996337D01*
X164301535Y-106782171D01*
X164301534Y-106782170D01*
X164301533Y-106782167D01*
X164165995Y-106588599D01*
X163998901Y-106421504D01*
X163959824Y-106394142D01*
X163893816Y-106325787D01*
X163858220Y-106237683D01*
X163858221Y-106142659D01*
X163893819Y-106054555D01*
X163959824Y-105986207D01*
X163999401Y-105958495D01*
X164166495Y-105791401D01*
X164302035Y-105597830D01*
X164401903Y-105383663D01*
X164463063Y-105155408D01*
X164483659Y-104920000D01*
X164483659Y-104919999D01*
X164463064Y-104684597D01*
X164419095Y-104520500D01*
X164401903Y-104456337D01*
X164302035Y-104242171D01*
X164302034Y-104242170D01*
X164302033Y-104242167D01*
X164179988Y-104067869D01*
X173999500Y-104067869D01*
X174005031Y-104119318D01*
X174005909Y-104127483D01*
X174056204Y-104262331D01*
X174099328Y-104319938D01*
X174142453Y-104377546D01*
X174185577Y-104409828D01*
X174257669Y-104463796D01*
X174392517Y-104514091D01*
X174452127Y-104520500D01*
X176247872Y-104520499D01*
X176307483Y-104514091D01*
X176442331Y-104463796D01*
X176557546Y-104377546D01*
X176643796Y-104262331D01*
X176694091Y-104127483D01*
X176700500Y-104067873D01*
X176700499Y-102272128D01*
X176694091Y-102212517D01*
X176643796Y-102077669D01*
X176589828Y-102005577D01*
X176557546Y-101962453D01*
X176496170Y-101916508D01*
X176442331Y-101876204D01*
X176307483Y-101825909D01*
X176307482Y-101825908D01*
X176307480Y-101825908D01*
X176247874Y-101819500D01*
X174452130Y-101819500D01*
X174392526Y-101825908D01*
X174392517Y-101825909D01*
X174257669Y-101876204D01*
X174257667Y-101876205D01*
X174257668Y-101876205D01*
X174142453Y-101962453D01*
X174067046Y-102063185D01*
X174056204Y-102077669D01*
X174036686Y-102129999D01*
X174005908Y-102212519D01*
X173999500Y-102272125D01*
X173999500Y-104067869D01*
X164179988Y-104067869D01*
X164166495Y-104048599D01*
X163999403Y-103881506D01*
X163959639Y-103853663D01*
X163893631Y-103785309D01*
X163858035Y-103697204D01*
X163858035Y-103602181D01*
X163893632Y-103514077D01*
X163959641Y-103445724D01*
X163999076Y-103418111D01*
X164166110Y-103251077D01*
X164301599Y-103057579D01*
X164401432Y-102843486D01*
X164458636Y-102630000D01*
X159257363Y-102630000D01*
X159314567Y-102843486D01*
X159414400Y-103057579D01*
X159549889Y-103251077D01*
X159716923Y-103418111D01*
X159756359Y-103445724D01*
X159822368Y-103514077D01*
X159857965Y-103602180D01*
X159857966Y-103697203D01*
X159822370Y-103785307D01*
X159756363Y-103853661D01*
X159716603Y-103881501D01*
X159549502Y-104048602D01*
X159413966Y-104242167D01*
X159314097Y-104456336D01*
X159252935Y-104684597D01*
X159232340Y-104919999D01*
X134475500Y-104919999D01*
X134475500Y-99840000D01*
X159232340Y-99840000D01*
X159252935Y-100075402D01*
X159314097Y-100303663D01*
X159413966Y-100517833D01*
X159549502Y-100711398D01*
X159716602Y-100878498D01*
X159756358Y-100906335D01*
X159822368Y-100974688D01*
X159857965Y-101062791D01*
X159857966Y-101157814D01*
X159822371Y-101245918D01*
X159756363Y-101314272D01*
X159716926Y-101341886D01*
X159549889Y-101508923D01*
X159414397Y-101702426D01*
X159314568Y-101916508D01*
X159257363Y-102129999D01*
X159257364Y-102130000D01*
X164458636Y-102130000D01*
X164458636Y-102129999D01*
X164401431Y-101916508D01*
X164301602Y-101702426D01*
X164166108Y-101508920D01*
X163999076Y-101341887D01*
X163959639Y-101314273D01*
X163893630Y-101245919D01*
X163858035Y-101157815D01*
X163858035Y-101062792D01*
X163893632Y-100974688D01*
X163959642Y-100906335D01*
X163999397Y-100878498D01*
X163999397Y-100878497D01*
X163999401Y-100878495D01*
X164166495Y-100711401D01*
X164231987Y-100617869D01*
X174004500Y-100617869D01*
X174004501Y-100617874D01*
X174010909Y-100677483D01*
X174061204Y-100812331D01*
X174104328Y-100869938D01*
X174147453Y-100927546D01*
X174190577Y-100959828D01*
X174262669Y-101013796D01*
X174397517Y-101064091D01*
X174457127Y-101070500D01*
X176252872Y-101070499D01*
X176312483Y-101064091D01*
X176447331Y-101013796D01*
X176562546Y-100927546D01*
X176648796Y-100812331D01*
X176699091Y-100677483D01*
X176705500Y-100617873D01*
X176705499Y-98822128D01*
X176699091Y-98762517D01*
X176648796Y-98627669D01*
X176594828Y-98555578D01*
X176562546Y-98512453D01*
X176487618Y-98456363D01*
X176447331Y-98426204D01*
X176312483Y-98375909D01*
X176312482Y-98375908D01*
X176312480Y-98375908D01*
X176252874Y-98369500D01*
X174457130Y-98369500D01*
X174397526Y-98375908D01*
X174397517Y-98375909D01*
X174262669Y-98426204D01*
X174262667Y-98426205D01*
X174262668Y-98426205D01*
X174147453Y-98512453D01*
X174089403Y-98590000D01*
X174061204Y-98627669D01*
X174032132Y-98705616D01*
X174010908Y-98762519D01*
X174004500Y-98822125D01*
X174004500Y-100617869D01*
X164231987Y-100617869D01*
X164302035Y-100517830D01*
X164401903Y-100303663D01*
X164463063Y-100075408D01*
X164483659Y-99840000D01*
X164463064Y-99604597D01*
X164440079Y-99518814D01*
X164401903Y-99376337D01*
X164302035Y-99162171D01*
X164302034Y-99162170D01*
X164302033Y-99162167D01*
X164166495Y-98968599D01*
X163999402Y-98801505D01*
X163960077Y-98773970D01*
X163894068Y-98705616D01*
X163858471Y-98617512D01*
X163858471Y-98522488D01*
X163894068Y-98434384D01*
X163960077Y-98366030D01*
X163961317Y-98365161D01*
X163999401Y-98338495D01*
X164166495Y-98171401D01*
X164302035Y-97977830D01*
X164401903Y-97763663D01*
X164463063Y-97535408D01*
X164466919Y-97491344D01*
X164483659Y-97300000D01*
X164467721Y-97117831D01*
X174000000Y-97117831D01*
X174006401Y-97177373D01*
X174056647Y-97312090D01*
X174142810Y-97427189D01*
X174257909Y-97513352D01*
X174392626Y-97563598D01*
X174452169Y-97570000D01*
X175099999Y-97570000D01*
X175100000Y-97569999D01*
X175600000Y-97569999D01*
X175600001Y-97570000D01*
X176247831Y-97570000D01*
X176307373Y-97563598D01*
X176442090Y-97513352D01*
X176557189Y-97427189D01*
X176643352Y-97312090D01*
X176693598Y-97177373D01*
X176700000Y-97117831D01*
X176700000Y-96470001D01*
X176699999Y-96470000D01*
X175600001Y-96470000D01*
X175600000Y-96470001D01*
X175600000Y-97569999D01*
X175100000Y-97569999D01*
X175100000Y-96470001D01*
X175099999Y-96470000D01*
X174000001Y-96470000D01*
X174000000Y-96470001D01*
X174000000Y-97117831D01*
X164467721Y-97117831D01*
X164463064Y-97064597D01*
X164454045Y-97030936D01*
X164401903Y-96836337D01*
X164302035Y-96622171D01*
X164302034Y-96622170D01*
X164302033Y-96622167D01*
X164166495Y-96428599D01*
X163999402Y-96261505D01*
X163960077Y-96233970D01*
X163894068Y-96165616D01*
X163858471Y-96077512D01*
X163858471Y-95982488D01*
X163863517Y-95969999D01*
X174000000Y-95969999D01*
X174000001Y-95970000D01*
X175099999Y-95970000D01*
X175100000Y-95969999D01*
X175600000Y-95969999D01*
X175600001Y-95970000D01*
X176699999Y-95970000D01*
X176700000Y-95969999D01*
X176700000Y-95322169D01*
X176693598Y-95262626D01*
X176643352Y-95127909D01*
X176557189Y-95012810D01*
X176442090Y-94926647D01*
X176307373Y-94876401D01*
X176247831Y-94870000D01*
X175600001Y-94870000D01*
X175600000Y-94870001D01*
X175600000Y-95969999D01*
X175100000Y-95969999D01*
X175100000Y-94870001D01*
X175099999Y-94870000D01*
X174452169Y-94870000D01*
X174392626Y-94876401D01*
X174257909Y-94926647D01*
X174142810Y-95012810D01*
X174056647Y-95127909D01*
X174006401Y-95262626D01*
X174000000Y-95322169D01*
X174000000Y-95969999D01*
X163863517Y-95969999D01*
X163894068Y-95894384D01*
X163960077Y-95826030D01*
X163961317Y-95825161D01*
X163999401Y-95798495D01*
X164166495Y-95631401D01*
X164240250Y-95526068D01*
X164302033Y-95437833D01*
X164302033Y-95437832D01*
X164302035Y-95437830D01*
X164401903Y-95223663D01*
X164463063Y-94995408D01*
X164463884Y-94986033D01*
X164483659Y-94760000D01*
X164463064Y-94524597D01*
X164463063Y-94524592D01*
X164401903Y-94296337D01*
X164302035Y-94082171D01*
X164302034Y-94082170D01*
X164302033Y-94082167D01*
X164166495Y-93888599D01*
X163999402Y-93721505D01*
X163960077Y-93693970D01*
X163894068Y-93625616D01*
X163858471Y-93537512D01*
X163858471Y-93442488D01*
X163894068Y-93354384D01*
X163960077Y-93286030D01*
X163965892Y-93281958D01*
X163999401Y-93258495D01*
X164166495Y-93091401D01*
X164302035Y-92897830D01*
X164401903Y-92683663D01*
X164463063Y-92455408D01*
X164465848Y-92423582D01*
X164481949Y-92239540D01*
X164483659Y-92220000D01*
X164482273Y-92204159D01*
X164463064Y-91984597D01*
X164461099Y-91977264D01*
X164401903Y-91756337D01*
X164302035Y-91542171D01*
X164302034Y-91542170D01*
X164302033Y-91542167D01*
X164154000Y-91330754D01*
X164156293Y-91329148D01*
X164129463Y-91291088D01*
X164106704Y-91209275D01*
X164112762Y-91124571D01*
X164146932Y-91046829D01*
X164205241Y-90985091D01*
X164220327Y-90973797D01*
X164220331Y-90973796D01*
X164335546Y-90887546D01*
X164421796Y-90772331D01*
X164472091Y-90637483D01*
X164478500Y-90577873D01*
X164478499Y-88782128D01*
X164472091Y-88722517D01*
X164421796Y-88587669D01*
X164335546Y-88472454D01*
X164250558Y-88408832D01*
X164190309Y-88344119D01*
X164156471Y-88262428D01*
X164153316Y-88174063D01*
X164181239Y-88090167D01*
X164236721Y-88021318D01*
X164312764Y-87976199D01*
X164399781Y-87960500D01*
X165585992Y-87960500D01*
X165681280Y-87979454D01*
X165762062Y-88033430D01*
X169487831Y-91759198D01*
X169511485Y-91786568D01*
X169520390Y-91798530D01*
X169552938Y-91825841D01*
X169554150Y-91826858D01*
X169570166Y-91841533D01*
X169570226Y-91841593D01*
X169593094Y-91859674D01*
X169598715Y-91864253D01*
X169663378Y-91918512D01*
X169684654Y-91932070D01*
X169685233Y-91932528D01*
X169706826Y-91951747D01*
X169731344Y-91976265D01*
X169735746Y-91980781D01*
X169740257Y-91985527D01*
X169794941Y-92043053D01*
X169839455Y-92074035D01*
X169854561Y-92085425D01*
X169896593Y-92119698D01*
X169916533Y-92130114D01*
X169943483Y-92146441D01*
X169961951Y-92159295D01*
X169990931Y-92171731D01*
X170011795Y-92180685D01*
X170028884Y-92188801D01*
X170067197Y-92208814D01*
X170076951Y-92213909D01*
X170098578Y-92220096D01*
X170128269Y-92230668D01*
X170148942Y-92239540D01*
X170202079Y-92250459D01*
X170220428Y-92254962D01*
X170272582Y-92269886D01*
X170295011Y-92271594D01*
X170326223Y-92275971D01*
X170335156Y-92277807D01*
X170348258Y-92280500D01*
X170348259Y-92280500D01*
X170402493Y-92280500D01*
X170421401Y-92281219D01*
X170475474Y-92285337D01*
X170475474Y-92285336D01*
X170475476Y-92285337D01*
X170488793Y-92283640D01*
X170544657Y-92282845D01*
X170569999Y-92285341D01*
X170569999Y-92285340D01*
X170570000Y-92285341D01*
X170606978Y-92281698D01*
X170610797Y-92281511D01*
X170620738Y-92280500D01*
X170620742Y-92280500D01*
X170669445Y-92275547D01*
X170669870Y-92275504D01*
X170766132Y-92266024D01*
X170766134Y-92266023D01*
X170770909Y-92265553D01*
X170772434Y-92265074D01*
X170772438Y-92265074D01*
X170863894Y-92236378D01*
X170866111Y-92235695D01*
X170917551Y-92220091D01*
X170954727Y-92208814D01*
X170954728Y-92208813D01*
X170962387Y-92206490D01*
X170966584Y-92204160D01*
X170966588Y-92204159D01*
X171047013Y-92159519D01*
X171050332Y-92157712D01*
X171061323Y-92151837D01*
X171128538Y-92115910D01*
X171128541Y-92115906D01*
X171138427Y-92110623D01*
X171144497Y-92105411D01*
X171144502Y-92105409D01*
X171211260Y-92048097D01*
X171215336Y-92044675D01*
X171280883Y-91990883D01*
X171280887Y-91990877D01*
X171287407Y-91985527D01*
X171295489Y-91977264D01*
X171298889Y-91972870D01*
X171298895Y-91972866D01*
X171350328Y-91906419D01*
X171354679Y-91900961D01*
X171405910Y-91838538D01*
X171405913Y-91838532D01*
X171409031Y-91834733D01*
X171422394Y-91814104D01*
X171423444Y-91811962D01*
X171423448Y-91811958D01*
X171458696Y-91740096D01*
X171462605Y-91732466D01*
X171498814Y-91664727D01*
X171498815Y-91664720D01*
X171499671Y-91663121D01*
X171512791Y-91629818D01*
X171513060Y-91629271D01*
X171532119Y-91555658D01*
X171534878Y-91545838D01*
X171556024Y-91476132D01*
X171556160Y-91474742D01*
X171562911Y-91436733D01*
X171564063Y-91432285D01*
X171567715Y-91360261D01*
X171568586Y-91348578D01*
X171575341Y-91280000D01*
X171574813Y-91274648D01*
X171573934Y-91237632D01*
X171574369Y-91229064D01*
X171564056Y-91161750D01*
X171562385Y-91148459D01*
X171561751Y-91142018D01*
X171556024Y-91083868D01*
X171553306Y-91074908D01*
X171545457Y-91040336D01*
X171543556Y-91027931D01*
X171543556Y-91027929D01*
X171521277Y-90967777D01*
X171516501Y-90953582D01*
X171498814Y-90895273D01*
X171492530Y-90883518D01*
X171478625Y-90852610D01*
X171472885Y-90837111D01*
X171441048Y-90786033D01*
X171432761Y-90771697D01*
X171405911Y-90721464D01*
X171405910Y-90721462D01*
X171394933Y-90708086D01*
X171376102Y-90681837D01*
X171375876Y-90681475D01*
X171365252Y-90664429D01*
X171365251Y-90664427D01*
X171326514Y-90623677D01*
X171314508Y-90610088D01*
X171280886Y-90569120D01*
X171280884Y-90569118D01*
X171280883Y-90569117D01*
X171264433Y-90555616D01*
X171241938Y-90534702D01*
X171225059Y-90516946D01*
X171182158Y-90487085D01*
X171166449Y-90475201D01*
X171128540Y-90444091D01*
X171106271Y-90432188D01*
X171081405Y-90416961D01*
X171058050Y-90400705D01*
X171029068Y-90388268D01*
X171013667Y-90381658D01*
X170994501Y-90372445D01*
X170954727Y-90351186D01*
X170954724Y-90351185D01*
X170954722Y-90351184D01*
X170926768Y-90342704D01*
X170900859Y-90333248D01*
X170871059Y-90320460D01*
X170827637Y-90311536D01*
X170805487Y-90305913D01*
X170766130Y-90293975D01*
X170733090Y-90290720D01*
X170707382Y-90286824D01*
X170688539Y-90282952D01*
X170671741Y-90279500D01*
X170671740Y-90279500D01*
X170631384Y-90279500D01*
X170606978Y-90278301D01*
X170561168Y-90273789D01*
X170537775Y-90274047D01*
X170414525Y-90264662D01*
X170270912Y-90282952D01*
X170195525Y-90281041D01*
X170124168Y-90256650D01*
X170063385Y-90212017D01*
X166996367Y-87144999D01*
X170479340Y-87144999D01*
X170499935Y-87380402D01*
X170561097Y-87608663D01*
X170660966Y-87822833D01*
X170796502Y-88016398D01*
X170963601Y-88183497D01*
X171157166Y-88319033D01*
X171157169Y-88319034D01*
X171157170Y-88319035D01*
X171371337Y-88418903D01*
X171599592Y-88480063D01*
X171599593Y-88480063D01*
X171599597Y-88480064D01*
X171834999Y-88500659D01*
X171834999Y-88500658D01*
X171835000Y-88500659D01*
X171871610Y-88497455D01*
X172070402Y-88480064D01*
X172070404Y-88480063D01*
X172070408Y-88480063D01*
X172298663Y-88418903D01*
X172512830Y-88319035D01*
X172706401Y-88183495D01*
X172873495Y-88016401D01*
X172901029Y-87977077D01*
X172969384Y-87911068D01*
X173057488Y-87875471D01*
X173152512Y-87875471D01*
X173240616Y-87911068D01*
X173308970Y-87977077D01*
X173336503Y-88016399D01*
X173503601Y-88183497D01*
X173697166Y-88319033D01*
X173697169Y-88319034D01*
X173697170Y-88319035D01*
X173911337Y-88418903D01*
X174139592Y-88480063D01*
X174139593Y-88480063D01*
X174139597Y-88480064D01*
X174374999Y-88500659D01*
X174374999Y-88500658D01*
X174375000Y-88500659D01*
X174411610Y-88497455D01*
X174610402Y-88480064D01*
X174610404Y-88480063D01*
X174610408Y-88480063D01*
X174838663Y-88418903D01*
X175052830Y-88319035D01*
X175246401Y-88183495D01*
X175413495Y-88016401D01*
X175549035Y-87822830D01*
X175648903Y-87608663D01*
X175710063Y-87380408D01*
X175712804Y-87349088D01*
X175730659Y-87144999D01*
X175710064Y-86909597D01*
X175687470Y-86825273D01*
X175648903Y-86681337D01*
X175549035Y-86467171D01*
X175549034Y-86467170D01*
X175549033Y-86467167D01*
X175401000Y-86255754D01*
X175403293Y-86254148D01*
X175376463Y-86216088D01*
X175353704Y-86134275D01*
X175359762Y-86049571D01*
X175393932Y-85971829D01*
X175452241Y-85910091D01*
X175467327Y-85898797D01*
X175467331Y-85898796D01*
X175582546Y-85812546D01*
X175668796Y-85697331D01*
X175719091Y-85562483D01*
X175725500Y-85502873D01*
X175725499Y-83707128D01*
X175719091Y-83647517D01*
X175668796Y-83512669D01*
X175607633Y-83430966D01*
X175582546Y-83397453D01*
X175517483Y-83348748D01*
X175467331Y-83311204D01*
X175332483Y-83260909D01*
X175332482Y-83260908D01*
X175332480Y-83260908D01*
X175272874Y-83254500D01*
X173477130Y-83254500D01*
X173417526Y-83260908D01*
X173417517Y-83260909D01*
X173282669Y-83311204D01*
X173282667Y-83311205D01*
X173282668Y-83311205D01*
X173167453Y-83397454D01*
X173069908Y-83527759D01*
X173008170Y-83586067D01*
X172930429Y-83620237D01*
X172845725Y-83626295D01*
X172763912Y-83603536D01*
X172725852Y-83576706D01*
X172724247Y-83579000D01*
X172512833Y-83430966D01*
X172298663Y-83331097D01*
X172070402Y-83269935D01*
X171835000Y-83249340D01*
X171599597Y-83269935D01*
X171371336Y-83331097D01*
X171157167Y-83430966D01*
X170963602Y-83566502D01*
X170796502Y-83733602D01*
X170660966Y-83927167D01*
X170561097Y-84141336D01*
X170499935Y-84369597D01*
X170479340Y-84605000D01*
X170499935Y-84840402D01*
X170561097Y-85068663D01*
X170660966Y-85282833D01*
X170796502Y-85476398D01*
X170963599Y-85643495D01*
X171002924Y-85671031D01*
X171068932Y-85739385D01*
X171104528Y-85827488D01*
X171104528Y-85922510D01*
X171068933Y-86010614D01*
X171002926Y-86078967D01*
X170963603Y-86106501D01*
X170796502Y-86273602D01*
X170660966Y-86467167D01*
X170561097Y-86681336D01*
X170499935Y-86909597D01*
X170479340Y-87144999D01*
X166996367Y-87144999D01*
X166582163Y-86730795D01*
X166558505Y-86703418D01*
X166549611Y-86691471D01*
X166538604Y-86682235D01*
X166515847Y-86663139D01*
X166499846Y-86648477D01*
X166499782Y-86648413D01*
X166476878Y-86630303D01*
X166471261Y-86625727D01*
X166406726Y-86571575D01*
X166330326Y-86535948D01*
X166323813Y-86532795D01*
X166258433Y-86499960D01*
X166258429Y-86499959D01*
X166248521Y-86494983D01*
X166165950Y-86477932D01*
X166158906Y-86476371D01*
X166087721Y-86459500D01*
X166087719Y-86459500D01*
X166076934Y-86456944D01*
X166065857Y-86457266D01*
X166001334Y-86459143D01*
X165992690Y-86459395D01*
X165985449Y-86459500D01*
X163901704Y-86459500D01*
X163817817Y-86444944D01*
X163743738Y-86402978D01*
X163708538Y-86374089D01*
X163534725Y-86281185D01*
X163346132Y-86223976D01*
X163150000Y-86204658D01*
X162953867Y-86223976D01*
X162765274Y-86281185D01*
X162591458Y-86374091D01*
X162439116Y-86499116D01*
X162314091Y-86651458D01*
X162221185Y-86825274D01*
X162163976Y-87013867D01*
X162144658Y-87210000D01*
X162163976Y-87406132D01*
X162221185Y-87594725D01*
X162314089Y-87768538D01*
X162358649Y-87822833D01*
X162439117Y-87920883D01*
X162439120Y-87920885D01*
X162440473Y-87922534D01*
X162485058Y-88004327D01*
X162496462Y-88096781D01*
X162473090Y-88186957D01*
X162418214Y-88262232D01*
X162339513Y-88312072D01*
X162248003Y-88329500D01*
X162230134Y-88329500D01*
X162170516Y-88335909D01*
X162170517Y-88335909D01*
X162035669Y-88386204D01*
X162035667Y-88386205D01*
X162035668Y-88386205D01*
X161920453Y-88472454D01*
X161822908Y-88602759D01*
X161761170Y-88661067D01*
X161683429Y-88695237D01*
X161598725Y-88701295D01*
X161516912Y-88678536D01*
X161478852Y-88651706D01*
X161477247Y-88654000D01*
X161265833Y-88505966D01*
X161051663Y-88406097D01*
X160823402Y-88344935D01*
X160588000Y-88324340D01*
X160352597Y-88344935D01*
X160124336Y-88406097D01*
X159910167Y-88505966D01*
X159716602Y-88641502D01*
X159549502Y-88808602D01*
X159413966Y-89002167D01*
X159314097Y-89216336D01*
X159252935Y-89444597D01*
X159232340Y-89680000D01*
X159252935Y-89915402D01*
X159314097Y-90143663D01*
X159413966Y-90357833D01*
X159549502Y-90551398D01*
X159716599Y-90718495D01*
X159755924Y-90746031D01*
X159821932Y-90814385D01*
X159857528Y-90902488D01*
X159857528Y-90997510D01*
X159821933Y-91085614D01*
X159755926Y-91153967D01*
X159716603Y-91181501D01*
X159549502Y-91348602D01*
X159413966Y-91542167D01*
X159314097Y-91756336D01*
X159252935Y-91984597D01*
X159232340Y-92219999D01*
X159252935Y-92455402D01*
X159314097Y-92683663D01*
X159413966Y-92897833D01*
X159549502Y-93091398D01*
X159716599Y-93258495D01*
X159755924Y-93286031D01*
X159821932Y-93354385D01*
X159857528Y-93442488D01*
X159857528Y-93537510D01*
X159821933Y-93625614D01*
X159755926Y-93693967D01*
X159716603Y-93721501D01*
X159549502Y-93888602D01*
X159413966Y-94082167D01*
X159314097Y-94296336D01*
X159252935Y-94524597D01*
X159232340Y-94760000D01*
X159252935Y-94995402D01*
X159314097Y-95223663D01*
X159413966Y-95437833D01*
X159549502Y-95631398D01*
X159716599Y-95798495D01*
X159755924Y-95826031D01*
X159821932Y-95894385D01*
X159857528Y-95982488D01*
X159857528Y-96077510D01*
X159821933Y-96165614D01*
X159755926Y-96233967D01*
X159716603Y-96261501D01*
X159549502Y-96428602D01*
X159413966Y-96622167D01*
X159314097Y-96836336D01*
X159252935Y-97064597D01*
X159232340Y-97300000D01*
X159252935Y-97535402D01*
X159314097Y-97763663D01*
X159413966Y-97977833D01*
X159549502Y-98171398D01*
X159716599Y-98338495D01*
X159755924Y-98366031D01*
X159821932Y-98434385D01*
X159857528Y-98522488D01*
X159857528Y-98617510D01*
X159821933Y-98705614D01*
X159755926Y-98773967D01*
X159716603Y-98801501D01*
X159549502Y-98968602D01*
X159413966Y-99162167D01*
X159314097Y-99376336D01*
X159252935Y-99604597D01*
X159232340Y-99840000D01*
X134475500Y-99840000D01*
X134475500Y-98379996D01*
X144984658Y-98379996D01*
X144986744Y-98401171D01*
X144987863Y-98431882D01*
X144987242Y-98456362D01*
X144996461Y-98507798D01*
X144999167Y-98527313D01*
X145003976Y-98576132D01*
X145011307Y-98600300D01*
X145018122Y-98628646D01*
X145023142Y-98656654D01*
X145041052Y-98701492D01*
X145048092Y-98721567D01*
X145061185Y-98764725D01*
X145074962Y-98790501D01*
X145086595Y-98815507D01*
X145098622Y-98845616D01*
X145098623Y-98845617D01*
X145118734Y-98876132D01*
X145123012Y-98882622D01*
X145134706Y-98902273D01*
X145154088Y-98938535D01*
X145175140Y-98964187D01*
X145190566Y-98985126D01*
X145210596Y-99015517D01*
X145239142Y-99044064D01*
X145255549Y-99062166D01*
X145279116Y-99090882D01*
X145300058Y-99108069D01*
X145322567Y-99128996D01*
X145354942Y-99163055D01*
X145399451Y-99194034D01*
X145414559Y-99205424D01*
X145456593Y-99239698D01*
X145476535Y-99250115D01*
X145503485Y-99266442D01*
X145521950Y-99279294D01*
X145521951Y-99279295D01*
X145571795Y-99300685D01*
X145588884Y-99308801D01*
X145636717Y-99333787D01*
X145636951Y-99333909D01*
X145658578Y-99340096D01*
X145688269Y-99350668D01*
X145708942Y-99359540D01*
X145762079Y-99370459D01*
X145780428Y-99374962D01*
X145832582Y-99389886D01*
X145855011Y-99391594D01*
X145886223Y-99395971D01*
X145895156Y-99397807D01*
X145908258Y-99400500D01*
X145908259Y-99400500D01*
X145962493Y-99400500D01*
X145981401Y-99401219D01*
X146035475Y-99405337D01*
X146035475Y-99405336D01*
X146035476Y-99405337D01*
X146057791Y-99402494D01*
X146089249Y-99400500D01*
X146130747Y-99400500D01*
X146225552Y-99390858D01*
X146282438Y-99385074D01*
X146476588Y-99324159D01*
X146512158Y-99304416D01*
X146654499Y-99225411D01*
X146654500Y-99225410D01*
X146654502Y-99225409D01*
X146695084Y-99190569D01*
X146770797Y-99146000D01*
X146857277Y-99130500D01*
X155128692Y-99130500D01*
X155200973Y-99141222D01*
X155267028Y-99172464D01*
X155321167Y-99221531D01*
X155419117Y-99340883D01*
X155452119Y-99367967D01*
X155571458Y-99465908D01*
X155571462Y-99465910D01*
X155745273Y-99558814D01*
X155933868Y-99616024D01*
X156130000Y-99635341D01*
X156326132Y-99616024D01*
X156514727Y-99558814D01*
X156688538Y-99465910D01*
X156688539Y-99465908D01*
X156688541Y-99465908D01*
X156765809Y-99402495D01*
X156840883Y-99340883D01*
X156846710Y-99333781D01*
X156904940Y-99282037D01*
X156976315Y-99250816D01*
X157053846Y-99243180D01*
X157129941Y-99259876D01*
X157197153Y-99299270D01*
X157199114Y-99300879D01*
X157199117Y-99300883D01*
X157286215Y-99372363D01*
X157351461Y-99425910D01*
X157426293Y-99465908D01*
X157525273Y-99518814D01*
X157713868Y-99576024D01*
X157910000Y-99595341D01*
X158106132Y-99576024D01*
X158294727Y-99518814D01*
X158468538Y-99425910D01*
X158468539Y-99425908D01*
X158468541Y-99425908D01*
X158620883Y-99300883D01*
X158745908Y-99148541D01*
X158745910Y-99148538D01*
X158838814Y-98974727D01*
X158896024Y-98786132D01*
X158915341Y-98590000D01*
X158896024Y-98393868D01*
X158838814Y-98205273D01*
X158745910Y-98031462D01*
X158709374Y-97986943D01*
X158671291Y-97923011D01*
X158653801Y-97850683D01*
X158649998Y-97807203D01*
X158649996Y-97807199D01*
X158649031Y-97796162D01*
X158645241Y-97785750D01*
X158645241Y-97785745D01*
X158620197Y-97716938D01*
X158617830Y-97710125D01*
X158591328Y-97630143D01*
X158545037Y-97559762D01*
X158541144Y-97553652D01*
X158496897Y-97481916D01*
X158488831Y-97474306D01*
X158488830Y-97474304D01*
X158435600Y-97424084D01*
X158430438Y-97419070D01*
X157512163Y-96500795D01*
X157488505Y-96473418D01*
X157479611Y-96461471D01*
X157445851Y-96433143D01*
X157429846Y-96418477D01*
X157429782Y-96418413D01*
X157406878Y-96400303D01*
X157401261Y-96395727D01*
X157336726Y-96341575D01*
X157260326Y-96305948D01*
X157253813Y-96302795D01*
X157188433Y-96269960D01*
X157188429Y-96269959D01*
X157178521Y-96264983D01*
X157095950Y-96247932D01*
X157088906Y-96246371D01*
X157017721Y-96229500D01*
X157017719Y-96229500D01*
X157006934Y-96226944D01*
X156995857Y-96227266D01*
X156931334Y-96229143D01*
X156922690Y-96229395D01*
X156915449Y-96229500D01*
X155859270Y-96229500D01*
X155775383Y-96214944D01*
X155701304Y-96172978D01*
X155645693Y-96108508D01*
X155615053Y-96029072D01*
X155612966Y-95943957D01*
X155635124Y-95876891D01*
X155638058Y-95867218D01*
X155652791Y-95829818D01*
X155653060Y-95829271D01*
X155672119Y-95755658D01*
X155674878Y-95745838D01*
X155696024Y-95676132D01*
X155696160Y-95674742D01*
X155702911Y-95636733D01*
X155704063Y-95632285D01*
X155707715Y-95560261D01*
X155708586Y-95548578D01*
X155715341Y-95480000D01*
X155714813Y-95474648D01*
X155713934Y-95437632D01*
X155714369Y-95429064D01*
X155704056Y-95361750D01*
X155702385Y-95348459D01*
X155697073Y-95294523D01*
X155696024Y-95283868D01*
X155693306Y-95274908D01*
X155685457Y-95240336D01*
X155684402Y-95233457D01*
X155683556Y-95227929D01*
X155661277Y-95167777D01*
X155656501Y-95153582D01*
X155638814Y-95095273D01*
X155632530Y-95083518D01*
X155618625Y-95052610D01*
X155612885Y-95037111D01*
X155581048Y-94986033D01*
X155572776Y-94971725D01*
X155545910Y-94921462D01*
X155545908Y-94921460D01*
X155541053Y-94912376D01*
X155514980Y-94835570D01*
X155514975Y-94754459D01*
X155541040Y-94677650D01*
X155542798Y-94674360D01*
X155562393Y-94644106D01*
X155563444Y-94641962D01*
X155563448Y-94641958D01*
X155598696Y-94570096D01*
X155602605Y-94562466D01*
X155638814Y-94494727D01*
X155638815Y-94494720D01*
X155639671Y-94493121D01*
X155652791Y-94459818D01*
X155653060Y-94459271D01*
X155672119Y-94385658D01*
X155674878Y-94375838D01*
X155696024Y-94306132D01*
X155696160Y-94304742D01*
X155702911Y-94266733D01*
X155704063Y-94262285D01*
X155707715Y-94190261D01*
X155708586Y-94178578D01*
X155715341Y-94110000D01*
X155714813Y-94104648D01*
X155713934Y-94067632D01*
X155714369Y-94059064D01*
X155704056Y-93991750D01*
X155702385Y-93978459D01*
X155697408Y-93927925D01*
X155696024Y-93913868D01*
X155693306Y-93904908D01*
X155685457Y-93870336D01*
X155683556Y-93857931D01*
X155683556Y-93857929D01*
X155661277Y-93797777D01*
X155656501Y-93783582D01*
X155638814Y-93725273D01*
X155632530Y-93713518D01*
X155618625Y-93682610D01*
X155612885Y-93667111D01*
X155581048Y-93616033D01*
X155572769Y-93601712D01*
X155545910Y-93551462D01*
X155543893Y-93547688D01*
X155515934Y-93457064D01*
X155523888Y-93362560D01*
X155552918Y-93305008D01*
X155552292Y-93304701D01*
X155563446Y-93281960D01*
X155563448Y-93281958D01*
X155598696Y-93210096D01*
X155602605Y-93202466D01*
X155638814Y-93134727D01*
X155638815Y-93134720D01*
X155639671Y-93133121D01*
X155652791Y-93099818D01*
X155653060Y-93099271D01*
X155672119Y-93025658D01*
X155674878Y-93015838D01*
X155696024Y-92946132D01*
X155696160Y-92944742D01*
X155702911Y-92906733D01*
X155704063Y-92902285D01*
X155707715Y-92830261D01*
X155708586Y-92818578D01*
X155715341Y-92750000D01*
X155714813Y-92744648D01*
X155713934Y-92707632D01*
X155714369Y-92699064D01*
X155704056Y-92631750D01*
X155702385Y-92618459D01*
X155702149Y-92616058D01*
X155696024Y-92553868D01*
X155693306Y-92544908D01*
X155685457Y-92510336D01*
X155683556Y-92497931D01*
X155683556Y-92497929D01*
X155661277Y-92437777D01*
X155656501Y-92423582D01*
X155656337Y-92423040D01*
X155638814Y-92365273D01*
X155632530Y-92353518D01*
X155618625Y-92322610D01*
X155612885Y-92307111D01*
X155581048Y-92256033D01*
X155572761Y-92241697D01*
X155566866Y-92230669D01*
X155545910Y-92191462D01*
X155534933Y-92178086D01*
X155516102Y-92151837D01*
X155505251Y-92134427D01*
X155466514Y-92093677D01*
X155454508Y-92080088D01*
X155420886Y-92039120D01*
X155420884Y-92039118D01*
X155420883Y-92039117D01*
X155404433Y-92025616D01*
X155381938Y-92004702D01*
X155365059Y-91986946D01*
X155322158Y-91957085D01*
X155306449Y-91945201D01*
X155268540Y-91914091D01*
X155246271Y-91902188D01*
X155221405Y-91886961D01*
X155198050Y-91870705D01*
X155169068Y-91858268D01*
X155153667Y-91851658D01*
X155134501Y-91842445D01*
X155094727Y-91821186D01*
X155094724Y-91821185D01*
X155094722Y-91821184D01*
X155066768Y-91812704D01*
X155040859Y-91803248D01*
X155011059Y-91790460D01*
X154967637Y-91781536D01*
X154945487Y-91775913D01*
X154906130Y-91763975D01*
X154873090Y-91760720D01*
X154847382Y-91756824D01*
X154833522Y-91753976D01*
X154811741Y-91749500D01*
X154811740Y-91749500D01*
X154771385Y-91749500D01*
X154746978Y-91748301D01*
X154710000Y-91744658D01*
X154673022Y-91748301D01*
X154648615Y-91749500D01*
X154555824Y-91749500D01*
X154549518Y-91749420D01*
X154541509Y-91749217D01*
X154463635Y-91747244D01*
X154463632Y-91747244D01*
X154410243Y-91756812D01*
X154391512Y-91759439D01*
X154337566Y-91764924D01*
X154321253Y-91770042D01*
X154316089Y-91771662D01*
X154285487Y-91779173D01*
X154272307Y-91781536D01*
X154263347Y-91783142D01*
X154212980Y-91803260D01*
X154195166Y-91809602D01*
X154143411Y-91825841D01*
X154123740Y-91836759D01*
X154095281Y-91850274D01*
X154074383Y-91858622D01*
X154029095Y-91888468D01*
X154012925Y-91898264D01*
X153965499Y-91924589D01*
X153948423Y-91939248D01*
X153924190Y-91957604D01*
X153923906Y-91957793D01*
X153858013Y-91988845D01*
X153785954Y-91999500D01*
X146753889Y-91999500D01*
X146670002Y-91984944D01*
X146595924Y-91942978D01*
X146548541Y-91904091D01*
X146374725Y-91811185D01*
X146186132Y-91753976D01*
X145990000Y-91734658D01*
X145793867Y-91753976D01*
X145605274Y-91811185D01*
X145431458Y-91904091D01*
X145279116Y-92029116D01*
X145154091Y-92181458D01*
X145061185Y-92355274D01*
X145003976Y-92543867D01*
X144984658Y-92740000D01*
X145003976Y-92936132D01*
X145061185Y-93124725D01*
X145156273Y-93302623D01*
X145182348Y-93379439D01*
X145182348Y-93460561D01*
X145156273Y-93537377D01*
X145061185Y-93715274D01*
X145003976Y-93903867D01*
X144984658Y-94099999D01*
X145003976Y-94296132D01*
X145061185Y-94484725D01*
X145158946Y-94667623D01*
X145185023Y-94744451D01*
X145185017Y-94825584D01*
X145158929Y-94902409D01*
X145157172Y-94905695D01*
X145137598Y-94935909D01*
X145101334Y-95009839D01*
X145097381Y-95017555D01*
X145060334Y-95086865D01*
X145047219Y-95120159D01*
X145046940Y-95120726D01*
X145027879Y-95194340D01*
X145025109Y-95204198D01*
X145003975Y-95273869D01*
X145003838Y-95275268D01*
X144997091Y-95313255D01*
X144995936Y-95317714D01*
X144992286Y-95389684D01*
X144991407Y-95401472D01*
X144984659Y-95469998D01*
X144985187Y-95475365D01*
X144986065Y-95512352D01*
X144985630Y-95520931D01*
X144995942Y-95588246D01*
X144997614Y-95601540D01*
X145003976Y-95666137D01*
X145006693Y-95675092D01*
X145014540Y-95709647D01*
X145016443Y-95722068D01*
X145016443Y-95722070D01*
X145016444Y-95722071D01*
X145028894Y-95755688D01*
X145038718Y-95782212D01*
X145043495Y-95796408D01*
X145061186Y-95854728D01*
X145067470Y-95866484D01*
X145081370Y-95897380D01*
X145087113Y-95912887D01*
X145118951Y-95963968D01*
X145127232Y-95978294D01*
X145154089Y-96028537D01*
X145165068Y-96041916D01*
X145183898Y-96068165D01*
X145201699Y-96096725D01*
X145231875Y-96167742D01*
X145238861Y-96244587D01*
X145221985Y-96319881D01*
X145182869Y-96386393D01*
X145150977Y-96425254D01*
X145137599Y-96445907D01*
X145101334Y-96519839D01*
X145097381Y-96527555D01*
X145060334Y-96596865D01*
X145047219Y-96630159D01*
X145046940Y-96630726D01*
X145027879Y-96704340D01*
X145025109Y-96714198D01*
X145003975Y-96783869D01*
X145003838Y-96785268D01*
X144997091Y-96823255D01*
X144995936Y-96827714D01*
X144992286Y-96899684D01*
X144991407Y-96911472D01*
X144984659Y-96979998D01*
X144985187Y-96985365D01*
X144986065Y-97022352D01*
X144985630Y-97030931D01*
X144995942Y-97098246D01*
X144997614Y-97111540D01*
X145003976Y-97176137D01*
X145006693Y-97185092D01*
X145014540Y-97219647D01*
X145016443Y-97232068D01*
X145038718Y-97292212D01*
X145043495Y-97306408D01*
X145061186Y-97364728D01*
X145067470Y-97376484D01*
X145081370Y-97407380D01*
X145087113Y-97422887D01*
X145118951Y-97473968D01*
X145127232Y-97488294D01*
X145165648Y-97560161D01*
X145162960Y-97561597D01*
X145182505Y-97596092D01*
X145197068Y-97679969D01*
X145182525Y-97763848D01*
X145162957Y-97798404D01*
X145165647Y-97799842D01*
X145149674Y-97829722D01*
X145130788Y-97859703D01*
X145123350Y-97869832D01*
X145096563Y-97928128D01*
X145089909Y-97941532D01*
X145061185Y-97995272D01*
X145057313Y-98008038D01*
X145045303Y-98039694D01*
X145038396Y-98054727D01*
X145024790Y-98113356D01*
X145020516Y-98129339D01*
X145003975Y-98183868D01*
X145002279Y-98201090D01*
X144997037Y-98232947D01*
X144992397Y-98252946D01*
X144990971Y-98309168D01*
X144989852Y-98327256D01*
X144984658Y-98379996D01*
X134475500Y-98379996D01*
X134475500Y-89064201D01*
X134475500Y-89028039D01*
X134470328Y-89010425D01*
X134462779Y-88975728D01*
X134460165Y-88957543D01*
X134452538Y-88940844D01*
X134440124Y-88907561D01*
X134434953Y-88889947D01*
X134425028Y-88874503D01*
X134408001Y-88843322D01*
X134401668Y-88829454D01*
X134400377Y-88826627D01*
X134388358Y-88812757D01*
X134367068Y-88784316D01*
X134357143Y-88768872D01*
X134343268Y-88756849D01*
X134318156Y-88731737D01*
X134310166Y-88722517D01*
X134306128Y-88717857D01*
X134290675Y-88707926D01*
X134262242Y-88686641D01*
X134248373Y-88674623D01*
X134231672Y-88666995D01*
X134200505Y-88649976D01*
X134185054Y-88640047D01*
X134167446Y-88634877D01*
X134134165Y-88622465D01*
X134117457Y-88614835D01*
X134117454Y-88614834D01*
X134117453Y-88614834D01*
X134099277Y-88612220D01*
X134064580Y-88604672D01*
X134046963Y-88599500D01*
X134046961Y-88599500D01*
X134010799Y-88599500D01*
X116362477Y-88599500D01*
X116275958Y-88583986D01*
X116200221Y-88539376D01*
X116144703Y-88471230D01*
X116116323Y-88388039D01*
X116118617Y-88300170D01*
X116151298Y-88218574D01*
X116210293Y-88153418D01*
X116238177Y-88131888D01*
X116426186Y-87936881D01*
X116583799Y-87716579D01*
X116707656Y-87475675D01*
X116795118Y-87219305D01*
X116844319Y-86952933D01*
X116854212Y-86682235D01*
X116824586Y-86412982D01*
X116824586Y-86412980D01*
X116756073Y-86150916D01*
X116756072Y-86150912D01*
X116650130Y-85901610D01*
X116509018Y-85670390D01*
X116441917Y-85589759D01*
X116335745Y-85462179D01*
X116135581Y-85282833D01*
X116134002Y-85281418D01*
X116133999Y-85281416D01*
X116133997Y-85281414D01*
X115908095Y-85131959D01*
X115908093Y-85131958D01*
X115908090Y-85131956D01*
X115662824Y-85016980D01*
X115662825Y-85016980D01*
X115662818Y-85016977D01*
X115403436Y-84938941D01*
X115403432Y-84938940D01*
X115403431Y-84938940D01*
X115135439Y-84899500D01*
X114932369Y-84899500D01*
X114797352Y-84909381D01*
X114729842Y-84914323D01*
X114465445Y-84973220D01*
X114212443Y-85069984D01*
X113976219Y-85202561D01*
X113761827Y-85368108D01*
X113573812Y-85563121D01*
X113416199Y-85783422D01*
X113292344Y-86024324D01*
X113204881Y-86280694D01*
X113155681Y-86547064D01*
X113145788Y-86817767D01*
X113175413Y-87087019D01*
X113243926Y-87349083D01*
X113243927Y-87349087D01*
X113243928Y-87349088D01*
X113349870Y-87598390D01*
X113421999Y-87716577D01*
X113490981Y-87829609D01*
X113664254Y-88037820D01*
X113806254Y-88165051D01*
X113859113Y-88232049D01*
X113886246Y-88312960D01*
X113884465Y-88398280D01*
X113853979Y-88477988D01*
X113798370Y-88542722D01*
X113724169Y-88584876D01*
X113640092Y-88599500D01*
X111739232Y-88599500D01*
X111643964Y-88580555D01*
X111563194Y-88526601D01*
X111509212Y-88445850D01*
X111490232Y-88350589D01*
X111490227Y-88335909D01*
X111488503Y-83508938D01*
X111489137Y-83491092D01*
X111502493Y-83304352D01*
X111507546Y-83269208D01*
X111545457Y-83094931D01*
X111555461Y-83060860D01*
X111617785Y-82893766D01*
X111632540Y-82861457D01*
X111690815Y-82754734D01*
X111718009Y-82704931D01*
X111737207Y-82675058D01*
X111844085Y-82532287D01*
X111867336Y-82505453D01*
X111993453Y-82379336D01*
X112020287Y-82356085D01*
X112163058Y-82249207D01*
X112192931Y-82230009D01*
X112349462Y-82144537D01*
X112381766Y-82129785D01*
X112548860Y-82067461D01*
X112582931Y-82057457D01*
X112757208Y-82019546D01*
X112792353Y-82014493D01*
X112956743Y-82002735D01*
X112979130Y-82001134D01*
X112996893Y-82000500D01*
X113084468Y-82000500D01*
X113087228Y-82000128D01*
X120959995Y-81970487D01*
X120960931Y-81970486D01*
X121107035Y-81970487D01*
X121407334Y-81934026D01*
X121701048Y-81861633D01*
X121983895Y-81754365D01*
X122251750Y-81613786D01*
X122500707Y-81441945D01*
X122727136Y-81241348D01*
X122927734Y-81014921D01*
X123099577Y-80765965D01*
X123240158Y-80498111D01*
X123347428Y-80215265D01*
X123419823Y-79921551D01*
X123456286Y-79621252D01*
X123456286Y-79471567D01*
X123456288Y-79470497D01*
X123468921Y-76531577D01*
X123475078Y-75099270D01*
X123475501Y-75096120D01*
X123475501Y-75008892D01*
X123476135Y-74991128D01*
X123477938Y-74965916D01*
X123489494Y-74804351D01*
X123494547Y-74769208D01*
X123532458Y-74594931D01*
X123542462Y-74560860D01*
X123604786Y-74393766D01*
X123619541Y-74361457D01*
X123705012Y-74204927D01*
X123724208Y-74175058D01*
X123831084Y-74032290D01*
X123854337Y-74005453D01*
X123980453Y-73879337D01*
X124007288Y-73856085D01*
X124150062Y-73749206D01*
X124179928Y-73730012D01*
X124336463Y-73644538D01*
X124368767Y-73629786D01*
X124535861Y-73567462D01*
X124569932Y-73557458D01*
X124744209Y-73519547D01*
X124779351Y-73514494D01*
X124966124Y-73501135D01*
X124983940Y-73500503D01*
X125183036Y-73500583D01*
G37*
%TD.AperFunction*%
M02*
