%TF.GenerationSoftware,KiCad,Pcbnew,7.0.1*%
%TF.CreationDate,2023-06-16T17:14:34+02:00*%
%TF.ProjectId,Uno_shiefefefe - Copy,556e6f5f-7368-4696-9566-656665666520,rev?*%
%TF.SameCoordinates,Original*%
%TF.FileFunction,Copper,L2,Bot*%
%TF.FilePolarity,Positive*%
%FSLAX46Y46*%
G04 Gerber Fmt 4.6, Leading zero omitted, Abs format (unit mm)*
G04 Created by KiCad (PCBNEW 7.0.1) date 2023-06-16 17:14:34*
%MOMM*%
%LPD*%
G01*
G04 APERTURE LIST*
%TA.AperFunction,ComponentPad*%
%ADD10R,1.700000X1.700000*%
%TD*%
%TA.AperFunction,ComponentPad*%
%ADD11O,1.700000X1.700000*%
%TD*%
%TA.AperFunction,ComponentPad*%
%ADD12R,1.050000X1.500000*%
%TD*%
%TA.AperFunction,ComponentPad*%
%ADD13O,1.050000X1.500000*%
%TD*%
%TA.AperFunction,ComponentPad*%
%ADD14R,1.600000X1.600000*%
%TD*%
%TA.AperFunction,ComponentPad*%
%ADD15C,1.600000*%
%TD*%
%TA.AperFunction,ComponentPad*%
%ADD16O,1.600000X1.600000*%
%TD*%
%TA.AperFunction,ViaPad*%
%ADD17C,1.000000*%
%TD*%
%TA.AperFunction,ViaPad*%
%ADD18C,1.400000*%
%TD*%
%TA.AperFunction,Conductor*%
%ADD19C,0.500000*%
%TD*%
%TA.AperFunction,Conductor*%
%ADD20C,0.400000*%
%TD*%
%TA.AperFunction,Conductor*%
%ADD21C,1.000000*%
%TD*%
%TA.AperFunction,Conductor*%
%ADD22C,1.800000*%
%TD*%
%TA.AperFunction,Conductor*%
%ADD23C,1.400000*%
%TD*%
G04 APERTURE END LIST*
D10*
X156713000Y-123865000D03*
D11*
X154173000Y-123865000D03*
X151633000Y-123865000D03*
X149093000Y-123865000D03*
X146553000Y-123865000D03*
X144013000Y-123865000D03*
X141473000Y-123865000D03*
X138933000Y-123865000D03*
D10*
X174498000Y-123865000D03*
D11*
X171958000Y-123865000D03*
X169418000Y-123865000D03*
X166878000Y-123865000D03*
X164338000Y-123865000D03*
X161798000Y-123865000D03*
D10*
X174498000Y-75575000D03*
D11*
X171958000Y-75575000D03*
X169418000Y-75575000D03*
X166878000Y-75575000D03*
X164338000Y-75575000D03*
X161798000Y-75575000D03*
X159258000Y-75575000D03*
X156718000Y-75575000D03*
D10*
X152658000Y-75575000D03*
D11*
X150118000Y-75575000D03*
X147578000Y-75575000D03*
X145038000Y-75575000D03*
X142498000Y-75575000D03*
X139958000Y-75575000D03*
X137418000Y-75575000D03*
X134878000Y-75575000D03*
X132338000Y-75575000D03*
X129798000Y-75575000D03*
X136380000Y-115747500D03*
X163127500Y-107460000D03*
X160587500Y-107460000D03*
X136380000Y-120830000D03*
X136380000Y-118290000D03*
D10*
X163128000Y-89680000D03*
D11*
X160588000Y-92220000D03*
X160588000Y-89680000D03*
X163128000Y-92220000D03*
X160588000Y-94760000D03*
X163128000Y-94760000D03*
X163128000Y-97300000D03*
X160588000Y-99840000D03*
X163128000Y-99840000D03*
X160588000Y-102380000D03*
X163128000Y-102380000D03*
X160588000Y-104920000D03*
X163128000Y-104920000D03*
X160588000Y-97300000D03*
X160040000Y-115107500D03*
X160040000Y-112567500D03*
X130760000Y-118310000D03*
X130760000Y-115770000D03*
X130760000Y-113230000D03*
D12*
X163225000Y-112310000D03*
D13*
X164820000Y-112310000D03*
X166425000Y-112310000D03*
D14*
X153424888Y-113460000D03*
D15*
X155924888Y-113460000D03*
D11*
X148980000Y-114712500D03*
X169625000Y-115107500D03*
X169625000Y-112567500D03*
D10*
X174375000Y-84605000D03*
D11*
X174375000Y-87145000D03*
X171835000Y-84605000D03*
X171835000Y-87145000D03*
X128220000Y-118310000D03*
X125680000Y-118310000D03*
X128220000Y-115770000D03*
X125680000Y-115770000D03*
X128220000Y-113230000D03*
X125680000Y-113230000D03*
D10*
X175350000Y-96220000D03*
X175355000Y-99720000D03*
X175350000Y-103170000D03*
X175350000Y-106570000D03*
X175350000Y-109970000D03*
X175350000Y-113370000D03*
X138930000Y-120830000D03*
D11*
X138930000Y-118290000D03*
X141470000Y-120830000D03*
X141470000Y-118290000D03*
X144010000Y-120830000D03*
X144010000Y-118290000D03*
X146550000Y-120830000D03*
X146550000Y-118290000D03*
D15*
X136400000Y-123840000D03*
D16*
X128780000Y-123840000D03*
D11*
X149090000Y-118290000D03*
X151630000Y-118290000D03*
D17*
X145990000Y-94100000D03*
X154710000Y-94110000D03*
X154710000Y-95480000D03*
X145990000Y-95470000D03*
D18*
X152460000Y-121760000D03*
X156310000Y-110310000D03*
X150580000Y-121760000D03*
X156400000Y-106470000D03*
X137430000Y-81320000D03*
X177210000Y-95440000D03*
X157920000Y-112240000D03*
X177300000Y-97100000D03*
X154330000Y-121770000D03*
X167190000Y-116450000D03*
X173300000Y-96720000D03*
X134120000Y-121690000D03*
X156970000Y-103650000D03*
X161620000Y-109660000D03*
X134560000Y-123440000D03*
X158400000Y-109190000D03*
X132770000Y-123390000D03*
X173410000Y-94880000D03*
D17*
X156130000Y-98630000D03*
X145990000Y-98380000D03*
X154710000Y-92750000D03*
X145990000Y-92740000D03*
X157910000Y-98590000D03*
X145990000Y-96980000D03*
X159440000Y-119350000D03*
X155910000Y-119330000D03*
X155870000Y-117570000D03*
X159350000Y-117740000D03*
X170570000Y-91280000D03*
X170670000Y-125140000D03*
X163150000Y-87210000D03*
X178780000Y-98680000D03*
D18*
X140140000Y-125300000D03*
D19*
X132950000Y-73910000D02*
X131463000Y-73910000D01*
X133890000Y-80760000D02*
X133890000Y-76700000D01*
D20*
X133890000Y-76700000D02*
X133890000Y-77700000D01*
D21*
X160510000Y-89680000D02*
X160430000Y-89760000D01*
D20*
X160140000Y-89540000D02*
X160630000Y-89540000D01*
D19*
X144700000Y-94100000D02*
X141530000Y-90930000D01*
X156300000Y-94110000D02*
X154710000Y-94110000D01*
D20*
X133628000Y-76092767D02*
X133628000Y-74588000D01*
X160588000Y-89680000D02*
X160000000Y-89680000D01*
X133890000Y-76354767D02*
X133890000Y-76700000D01*
X133890000Y-77700000D02*
X133890000Y-80760000D01*
D19*
X130146500Y-75226500D02*
X130426500Y-74946500D01*
X133628000Y-74588000D02*
X132950000Y-73910000D01*
D21*
X160450000Y-89680000D02*
X160310000Y-89820000D01*
D19*
X141530000Y-90930000D02*
X141530000Y-88400000D01*
D21*
X160588000Y-89680000D02*
X160510000Y-89680000D01*
D20*
X131463000Y-73910000D02*
X130426500Y-74946500D01*
D19*
X157670000Y-92740000D02*
X157670000Y-92010000D01*
D20*
X157670000Y-92010000D02*
X160140000Y-89540000D01*
D19*
X157670000Y-92010000D02*
X160280000Y-89400000D01*
D20*
X133890000Y-77700000D02*
X133890000Y-78560000D01*
D19*
X160280000Y-89400000D02*
X160900000Y-89400000D01*
D20*
X133890000Y-76354767D02*
X133628000Y-76092767D01*
D21*
X160588000Y-89680000D02*
X160450000Y-89680000D01*
D19*
X157410000Y-93000000D02*
X157670000Y-92740000D01*
X141530000Y-88400000D02*
X133890000Y-80760000D01*
D21*
X129798000Y-75575000D02*
X130146500Y-75226500D01*
D19*
X157410000Y-93000000D02*
X156300000Y-94110000D01*
X131463000Y-73910000D02*
X129798000Y-75575000D01*
X145990000Y-94100000D02*
X144700000Y-94100000D01*
X131510000Y-81310000D02*
X131510000Y-76403000D01*
D21*
X160588000Y-92220000D02*
X160280000Y-92220000D01*
D20*
X155810000Y-95490000D02*
X156490000Y-95490000D01*
X159990000Y-92220000D02*
X160588000Y-92220000D01*
D19*
X139390000Y-89190000D02*
X131510000Y-81310000D01*
X131510000Y-76403000D02*
X132106500Y-75806500D01*
D20*
X154710000Y-95480000D02*
X156410000Y-95480000D01*
D19*
X145990000Y-95470000D02*
X143240000Y-95470000D01*
D20*
X159310000Y-92900000D02*
X159990000Y-92220000D01*
D19*
X156720000Y-95490000D02*
X154720000Y-95490000D01*
X158825000Y-93385000D02*
X160280000Y-91930000D01*
X139390000Y-91620000D02*
X139390000Y-89190000D01*
X159310000Y-92900000D02*
X158825000Y-93385000D01*
X154720000Y-95490000D02*
X154710000Y-95480000D01*
D21*
X160280000Y-92220000D02*
X160140000Y-92360000D01*
X132338000Y-75575000D02*
X132106500Y-75806500D01*
D19*
X143240000Y-95470000D02*
X139390000Y-91620000D01*
D20*
X155810000Y-95490000D02*
X156720000Y-95490000D01*
D19*
X158825000Y-93385000D02*
X156720000Y-95490000D01*
X160280000Y-91930000D02*
X160590000Y-91930000D01*
D22*
X160587500Y-107460000D02*
X160587500Y-108797388D01*
X132770000Y-123390000D02*
X132770000Y-122770000D01*
X158790000Y-108860000D02*
X158790000Y-109150000D01*
X134120000Y-121690000D02*
X133800000Y-121690000D01*
X160040000Y-112567500D02*
X158477444Y-111004944D01*
D23*
X176430000Y-96220000D02*
X177210000Y-95440000D01*
D22*
X154330000Y-121770000D02*
X150590000Y-121770000D01*
X160040000Y-112567500D02*
X162510000Y-112567500D01*
X161320000Y-109980000D02*
X160655000Y-110645000D01*
D23*
X173970000Y-95440000D02*
X173410000Y-94880000D01*
D22*
X161320000Y-109980000D02*
X161380000Y-109980000D01*
D23*
X132770000Y-123040000D02*
X134120000Y-121690000D01*
X177210000Y-97010000D02*
X177300000Y-97100000D01*
D22*
X132840000Y-123460000D02*
X134360000Y-123460000D01*
X156400000Y-106470000D02*
X158790000Y-108860000D01*
X158477444Y-110907444D02*
X155924888Y-113460000D01*
D23*
X177210000Y-95440000D02*
X177210000Y-97010000D01*
X132820000Y-123440000D02*
X132770000Y-123390000D01*
D22*
X157440000Y-103650000D02*
X156970000Y-103650000D01*
X158710000Y-102380000D02*
X157560000Y-103530000D01*
X156400000Y-112984888D02*
X155924888Y-113460000D01*
D23*
X173300000Y-96720000D02*
X174850000Y-96720000D01*
D22*
X160587500Y-110645000D02*
X160587500Y-107460000D01*
X156817388Y-112567500D02*
X160040000Y-112567500D01*
X151633000Y-122043000D02*
X151633000Y-123865000D01*
D23*
X174850000Y-96720000D02*
X175350000Y-96220000D01*
X137418000Y-75575000D02*
X137418000Y-81308000D01*
X134560000Y-123440000D02*
X132820000Y-123440000D01*
D22*
X150590000Y-121770000D02*
X150580000Y-121760000D01*
D23*
X168532500Y-115107500D02*
X167190000Y-116450000D01*
D22*
X161320000Y-109980000D02*
X160587500Y-109247500D01*
X158477444Y-111004944D02*
X158477444Y-110907444D01*
D23*
X173300000Y-96720000D02*
X173300000Y-94990000D01*
D21*
X154173000Y-123865000D02*
X154173000Y-123305000D01*
D22*
X158710000Y-102380000D02*
X157440000Y-103650000D01*
X160587500Y-109247500D02*
X160587500Y-107460000D01*
D23*
X177210000Y-95440000D02*
X173970000Y-95440000D01*
D22*
X157560000Y-103530000D02*
X157560000Y-106440000D01*
X154173000Y-123865000D02*
X153095000Y-123865000D01*
X160655000Y-110645000D02*
X160587500Y-110645000D01*
D23*
X177070000Y-97330000D02*
X173250000Y-97330000D01*
D22*
X160040000Y-108007500D02*
X160587500Y-107460000D01*
X132770000Y-122770000D02*
X134690000Y-120850000D01*
D23*
X134120000Y-121690000D02*
X135520000Y-121690000D01*
X173300000Y-94990000D02*
X173410000Y-94880000D01*
D22*
X158000000Y-111630000D02*
X158000000Y-108940000D01*
D23*
X174010000Y-94880000D02*
X175350000Y-96220000D01*
X173410000Y-94880000D02*
X173250000Y-95040000D01*
D22*
X138930000Y-120830000D02*
X136480000Y-120830000D01*
X161380000Y-109980000D02*
X162820000Y-111420000D01*
X157840000Y-107910000D02*
X157840000Y-108780000D01*
D23*
X137418000Y-81308000D02*
X137430000Y-81320000D01*
D22*
X160587500Y-108797388D02*
X158477444Y-110907444D01*
D23*
X173410000Y-94880000D02*
X174010000Y-94880000D01*
D22*
X156400000Y-106470000D02*
X156400000Y-112984888D01*
D21*
X162510000Y-112567500D02*
X162967500Y-112567500D01*
D22*
X156400000Y-106470000D02*
X156400000Y-109430000D01*
D23*
X133640000Y-123440000D02*
X132890000Y-122690000D01*
D22*
X159267500Y-108780000D02*
X160587500Y-107460000D01*
D23*
X135520000Y-121690000D02*
X136380000Y-120830000D01*
X173250000Y-97330000D02*
X173250000Y-95420000D01*
D22*
X158580000Y-107460000D02*
X160587500Y-107460000D01*
X138930000Y-120830000D02*
X134660000Y-120830000D01*
X158240000Y-102380000D02*
X156970000Y-103650000D01*
X160040000Y-112567500D02*
X160040000Y-108007500D01*
D23*
X175350000Y-96220000D02*
X174050000Y-96220000D01*
D21*
X162967500Y-112567500D02*
X163225000Y-112310000D01*
D23*
X177300000Y-97100000D02*
X177070000Y-97330000D01*
D22*
X157560000Y-106440000D02*
X158580000Y-107460000D01*
X152340000Y-122032000D02*
X154173000Y-123865000D01*
X158000000Y-108070000D02*
X158000000Y-111630000D01*
D23*
X174360000Y-96220000D02*
X173250000Y-97330000D01*
D22*
X158000000Y-108940000D02*
X157840000Y-108780000D01*
D23*
X175350000Y-96220000D02*
X176910000Y-96220000D01*
X173250000Y-95040000D02*
X173250000Y-97330000D01*
D22*
X163128000Y-102380000D02*
X160588000Y-102380000D01*
X157840000Y-108780000D02*
X159267500Y-108780000D01*
X156400000Y-104220000D02*
X156970000Y-103650000D01*
X151633000Y-122403000D02*
X151633000Y-123865000D01*
D23*
X169625000Y-115107500D02*
X168532500Y-115107500D01*
D22*
X157754888Y-111630000D02*
X155924888Y-113460000D01*
X162510000Y-112567500D02*
X160587500Y-110645000D01*
X132770000Y-123390000D02*
X132840000Y-123460000D01*
X158000000Y-111630000D02*
X157754888Y-111630000D01*
D23*
X175350000Y-96220000D02*
X177130000Y-96220000D01*
X175350000Y-96220000D02*
X174360000Y-96220000D01*
D22*
X156400000Y-106470000D02*
X157840000Y-107910000D01*
X136480000Y-120830000D02*
X133870000Y-123440000D01*
D21*
X138930000Y-120830000D02*
X137940000Y-120830000D01*
D23*
X132770000Y-123390000D02*
X132770000Y-123040000D01*
D22*
X162820000Y-111420000D02*
X162820000Y-112530000D01*
X156400000Y-106470000D02*
X156400000Y-104220000D01*
X156400000Y-109430000D02*
X156550000Y-109580000D01*
X134660000Y-120830000D02*
X133800000Y-121690000D01*
X160588000Y-102380000D02*
X158710000Y-102380000D01*
D23*
X175350000Y-96220000D02*
X176430000Y-96220000D01*
D22*
X155924888Y-113460000D02*
X156817388Y-112567500D01*
D23*
X133640000Y-123440000D02*
X133870000Y-123440000D01*
D22*
X156400000Y-106470000D02*
X158000000Y-108070000D01*
X160588000Y-102380000D02*
X158240000Y-102380000D01*
D21*
X139958000Y-75575000D02*
X139958000Y-76190000D01*
D19*
X156130000Y-98900000D02*
X156130000Y-98630000D01*
D20*
X139958000Y-75575000D02*
X139958000Y-74402000D01*
X139958000Y-74402000D02*
X140660000Y-73700000D01*
X143748000Y-79138000D02*
X147300000Y-82690000D01*
D19*
X160588000Y-99840000D02*
X157070000Y-99840000D01*
D20*
X140660000Y-73700000D02*
X143090000Y-73700000D01*
X147300000Y-97470000D02*
X146390000Y-98380000D01*
X143090000Y-73700000D02*
X143748000Y-74358000D01*
D19*
X157070000Y-99840000D02*
X156130000Y-98900000D01*
D20*
X143748000Y-74358000D02*
X143748000Y-79138000D01*
X147300000Y-82690000D02*
X147300000Y-97470000D01*
X146390000Y-98380000D02*
X145990000Y-98380000D01*
D21*
X160588000Y-99840000D02*
X159880000Y-99840000D01*
D20*
X141770000Y-83900000D02*
X141770000Y-76303000D01*
D21*
X163390000Y-92220000D02*
X163550000Y-92060000D01*
D19*
X143830000Y-87050000D02*
X141800000Y-85020000D01*
D20*
X141770000Y-84290000D02*
X141770000Y-83900000D01*
D19*
X163820000Y-92220000D02*
X163440000Y-92220000D01*
X145990000Y-92740000D02*
X145990000Y-92320000D01*
X154710000Y-92750000D02*
X154970000Y-92750000D01*
X143830000Y-90160000D02*
X143830000Y-87050000D01*
X163468000Y-91880000D02*
X163128000Y-92220000D01*
X164150000Y-85960000D02*
X165040000Y-86850000D01*
X157200000Y-89590000D02*
X160830000Y-85960000D01*
X157200000Y-90520000D02*
X157200000Y-89590000D01*
X160830000Y-85960000D02*
X164150000Y-85960000D01*
D21*
X142498000Y-75575000D02*
X142131500Y-75941500D01*
D20*
X163128000Y-92220000D02*
X163730000Y-92220000D01*
D19*
X164160000Y-91880000D02*
X163820000Y-92220000D01*
X141800000Y-85020000D02*
X141800000Y-76273000D01*
X163610000Y-92340000D02*
X163010000Y-92340000D01*
D21*
X163128000Y-92220000D02*
X163390000Y-92220000D01*
D19*
X154970000Y-92750000D02*
X157200000Y-90520000D01*
D20*
X141770000Y-76303000D02*
X142131500Y-75941500D01*
D19*
X141800000Y-76273000D02*
X142131500Y-75941500D01*
X165040000Y-86850000D02*
X165040000Y-91000000D01*
X165040000Y-91000000D02*
X164160000Y-91880000D01*
X145990000Y-92320000D02*
X143830000Y-90160000D01*
D21*
X163440000Y-92220000D02*
X163580000Y-92080000D01*
D19*
X163440000Y-92220000D02*
X163128000Y-92220000D01*
X164160000Y-91880000D02*
X163468000Y-91880000D01*
D20*
X148370000Y-81380000D02*
X148370000Y-97980000D01*
D21*
X163128000Y-99818000D02*
X162830000Y-99520000D01*
D20*
X158180000Y-98570000D02*
X158160000Y-98590000D01*
D21*
X163128000Y-99840000D02*
X163128000Y-99818000D01*
D20*
X148370000Y-97980000D02*
X146650000Y-99700000D01*
X145038000Y-75575000D02*
X145038000Y-78068000D01*
D19*
X157910000Y-98590000D02*
X159030000Y-98590000D01*
D20*
X145660000Y-78690000D02*
X145680000Y-78690000D01*
D19*
X157910000Y-98590000D02*
X157740000Y-98590000D01*
D20*
X158160000Y-98590000D02*
X157740000Y-98590000D01*
X159030000Y-98590000D02*
X158160000Y-98590000D01*
X145038000Y-78068000D02*
X145660000Y-78690000D01*
X161858000Y-98570000D02*
X158180000Y-98570000D01*
X145300000Y-99700000D02*
X144570000Y-98970000D01*
X145260000Y-96980000D02*
X145990000Y-96980000D01*
X159050000Y-98570000D02*
X159030000Y-98590000D01*
X144570000Y-98970000D02*
X144570000Y-97670000D01*
D21*
X145038000Y-75575000D02*
X145038000Y-75588000D01*
D20*
X145680000Y-78690000D02*
X148370000Y-81380000D01*
X144570000Y-97670000D02*
X145260000Y-96980000D01*
X163128000Y-99840000D02*
X161858000Y-98570000D01*
D21*
X145038000Y-75588000D02*
X145060000Y-75610000D01*
D20*
X146650000Y-99700000D02*
X145300000Y-99700000D01*
X141990000Y-117770000D02*
X141990000Y-107930000D01*
D21*
X141470000Y-118290000D02*
X141890000Y-117870000D01*
D20*
X141890000Y-117870000D02*
X141990000Y-117770000D01*
X150420000Y-99500000D02*
X150420000Y-79380000D01*
X150420000Y-79380000D02*
X147921500Y-76881500D01*
D21*
X147578000Y-75575000D02*
X147921500Y-75918500D01*
D20*
X141990000Y-107930000D02*
X150420000Y-99500000D01*
X147921500Y-76881500D02*
X147921500Y-75918500D01*
D22*
X166770000Y-112310000D02*
X166760000Y-112300000D01*
X163128000Y-106160000D02*
X163128000Y-106041499D01*
X167110000Y-112310000D02*
X168261264Y-112310000D01*
X165638750Y-107430750D02*
X163128000Y-104920000D01*
X163128000Y-107459500D02*
X163127500Y-107460000D01*
X169367500Y-112310000D02*
X169625000Y-112567500D01*
D21*
X166425000Y-112310000D02*
X167110000Y-112310000D01*
D22*
X167977500Y-112310000D02*
X163127500Y-107460000D01*
X165549250Y-108581250D02*
X163128000Y-106160000D01*
X165638750Y-108581250D02*
X165638750Y-107430750D01*
X163128000Y-104920000D02*
X163128000Y-106160000D01*
X168261264Y-112310000D02*
X169367500Y-112310000D01*
X168261264Y-112310000D02*
X167977500Y-112310000D01*
X160588000Y-104920000D02*
X162006501Y-104920000D01*
X163128000Y-106041499D02*
X162006501Y-104920000D01*
X163128000Y-106160000D02*
X163128000Y-107459500D01*
X165638750Y-108581250D02*
X169625000Y-112567500D01*
X162006501Y-104920000D02*
X163128000Y-104920000D01*
X165638750Y-108581250D02*
X165549250Y-108581250D01*
X167110000Y-112310000D02*
X166770000Y-112310000D01*
D20*
X149420000Y-80370000D02*
X149420000Y-98870000D01*
D21*
X141470000Y-120830000D02*
X141025000Y-120385000D01*
D20*
X146328000Y-74482000D02*
X146328000Y-77278000D01*
D21*
X161798000Y-75575000D02*
X161798000Y-74938000D01*
D20*
X147170000Y-73640000D02*
X146328000Y-74482000D01*
X160500000Y-73640000D02*
X147170000Y-73640000D01*
X146328000Y-77278000D02*
X149420000Y-80370000D01*
X140220000Y-108070000D02*
X140220000Y-119580000D01*
D21*
X161798000Y-74938000D02*
X161115000Y-74255000D01*
D20*
X140220000Y-119580000D02*
X141025000Y-120385000D01*
X149420000Y-98870000D02*
X140220000Y-108070000D01*
X161115000Y-74255000D02*
X160500000Y-73640000D01*
X153570000Y-81170000D02*
X155991500Y-78748500D01*
X147000000Y-108370000D02*
X153570000Y-101800000D01*
X148210000Y-121940000D02*
X148210000Y-120110000D01*
X148210000Y-120110000D02*
X147800000Y-119700000D01*
X147800000Y-117090000D02*
X147000000Y-116290000D01*
X153570000Y-101800000D02*
X153570000Y-81170000D01*
X144010000Y-121590000D02*
X144820000Y-122400000D01*
X147000000Y-116290000D02*
X147000000Y-108370000D01*
D21*
X144010000Y-120830000D02*
X144010000Y-121370000D01*
D20*
X144820000Y-122400000D02*
X147750000Y-122400000D01*
X147800000Y-119700000D02*
X147800000Y-117090000D01*
D21*
X156718000Y-75575000D02*
X155991500Y-76301500D01*
D20*
X155991500Y-78748500D02*
X155991500Y-76301500D01*
X144010000Y-121370000D02*
X144010000Y-121590000D01*
X147750000Y-122400000D02*
X148210000Y-121940000D01*
X151430000Y-100230000D02*
X143640000Y-108020000D01*
X149656500Y-76676500D02*
X151430000Y-78450000D01*
X149656500Y-76036500D02*
X149656500Y-76676500D01*
D21*
X144080000Y-118220000D02*
X144080000Y-117760000D01*
X144010000Y-118290000D02*
X144080000Y-118220000D01*
D20*
X151430000Y-78450000D02*
X151430000Y-100230000D01*
X143640000Y-108020000D02*
X143640000Y-117320000D01*
X143640000Y-117320000D02*
X144080000Y-117760000D01*
D21*
X150118000Y-75575000D02*
X149656500Y-76036500D01*
D20*
X146550000Y-120090000D02*
X145300000Y-118840000D01*
X152800000Y-79890000D02*
X152800000Y-75717000D01*
X146550000Y-120320000D02*
X146550000Y-120090000D01*
X152480000Y-80210000D02*
X152800000Y-79890000D01*
D21*
X152665000Y-75575000D02*
X152770000Y-75680000D01*
D20*
X145300000Y-108328000D02*
X152480000Y-101148000D01*
X145300000Y-118840000D02*
X145300000Y-108328000D01*
X146550000Y-120830000D02*
X146570000Y-120830000D01*
D21*
X146550000Y-120830000D02*
X146550000Y-120320000D01*
D20*
X152800000Y-75717000D02*
X152658000Y-75575000D01*
D21*
X152658000Y-75575000D02*
X152665000Y-75575000D01*
D20*
X152480000Y-101148000D02*
X152480000Y-80210000D01*
D19*
X169050000Y-93200000D02*
X169050000Y-82980000D01*
D20*
X165588000Y-74722000D02*
X165588000Y-76092767D01*
D19*
X170220000Y-73690000D02*
X166620000Y-73690000D01*
X169050000Y-82980000D02*
X170710000Y-81320000D01*
D20*
X170710000Y-75055233D02*
X170710000Y-74180000D01*
D19*
X159258000Y-77108000D02*
X159258000Y-75575000D01*
D21*
X159258000Y-75618000D02*
X159280000Y-75640000D01*
D19*
X164860384Y-76820384D02*
X163650768Y-78030000D01*
D21*
X163128000Y-97300000D02*
X163750000Y-97300000D01*
D19*
X170710000Y-81320000D02*
X170710000Y-76910000D01*
X166620000Y-73690000D02*
X166245000Y-74065000D01*
X170710000Y-74180000D02*
X170220000Y-73690000D01*
X160180000Y-78030000D02*
X159258000Y-77108000D01*
D20*
X170708000Y-75057233D02*
X170710000Y-75055233D01*
X165588000Y-76092767D02*
X164860384Y-76820384D01*
X170710000Y-76094767D02*
X170708000Y-76092767D01*
D19*
X163650767Y-78030000D02*
X160180000Y-78030000D01*
D21*
X163750000Y-97300000D02*
X163770000Y-97280000D01*
D20*
X170710000Y-76910000D02*
X170710000Y-76094767D01*
D21*
X159258000Y-75575000D02*
X159258000Y-75618000D01*
D20*
X166245000Y-74065000D02*
X165588000Y-74722000D01*
X170708000Y-76092767D02*
X170708000Y-75057233D01*
D19*
X164950000Y-97300000D02*
X169050000Y-93200000D01*
X163650768Y-78030000D02*
X163650767Y-78030000D01*
X163128000Y-97300000D02*
X164950000Y-97300000D01*
X166400000Y-79460000D02*
X166400000Y-91760000D01*
D21*
X160588000Y-94760000D02*
X160610000Y-94760000D01*
D20*
X164200000Y-93510000D02*
X161838000Y-93510000D01*
D19*
X166400000Y-91760000D02*
X164650000Y-93510000D01*
D21*
X166878000Y-75575000D02*
X166878000Y-76032000D01*
D19*
X164650000Y-93510000D02*
X164200000Y-93510000D01*
D21*
X166835000Y-75575000D02*
X166810000Y-75600000D01*
D20*
X161838000Y-93510000D02*
X160588000Y-94760000D01*
D19*
X166878000Y-75575000D02*
X166878000Y-78982000D01*
X166878000Y-78982000D02*
X166400000Y-79460000D01*
D21*
X166878000Y-75575000D02*
X166835000Y-75575000D01*
X160610000Y-94760000D02*
X160950000Y-94420000D01*
X166878000Y-76032000D02*
X166870000Y-76040000D01*
D19*
X167740000Y-81260000D02*
X169418000Y-79582000D01*
D21*
X163128000Y-94760000D02*
X163660000Y-94760000D01*
X169418000Y-75748000D02*
X169420000Y-75750000D01*
X163660000Y-94760000D02*
X163690000Y-94790000D01*
D19*
X163128000Y-94760000D02*
X165310000Y-94760000D01*
D21*
X169418000Y-75575000D02*
X169418000Y-75748000D01*
D19*
X167740000Y-92330000D02*
X167740000Y-81260000D01*
X165310000Y-94760000D02*
X167740000Y-92330000D01*
X169418000Y-79582000D02*
X169418000Y-75575000D01*
D23*
X161920000Y-115107500D02*
X164142500Y-115107500D01*
X160040000Y-115107500D02*
X161920000Y-115107500D01*
X157580000Y-116540000D02*
X157580000Y-117300000D01*
D21*
X178270000Y-101770000D02*
X178270000Y-114090000D01*
D23*
X160990000Y-116220000D02*
X159060000Y-116220000D01*
X178230000Y-101520000D02*
X176430000Y-99720000D01*
D21*
X161640000Y-121550000D02*
X160580000Y-121550000D01*
D23*
X161920000Y-115290000D02*
X160990000Y-116220000D01*
X176430000Y-99720000D02*
X175355000Y-99720000D01*
D21*
X178270000Y-114090000D02*
X177130000Y-115230000D01*
X176090000Y-115230000D02*
X173360000Y-117960000D01*
X141473000Y-123873000D02*
X143015000Y-125415000D01*
X160580000Y-121550000D02*
X159270000Y-122860000D01*
D23*
X159270000Y-122860000D02*
X159270000Y-124710000D01*
X178230000Y-101730000D02*
X178230000Y-101520000D01*
D21*
X147543000Y-125415000D02*
X148208000Y-124750000D01*
D23*
X160040000Y-115107500D02*
X159012500Y-115107500D01*
D21*
X158870000Y-121550000D02*
X157780000Y-120460000D01*
D23*
X164142500Y-115107500D02*
X164820000Y-114430000D01*
D21*
X147543000Y-125415000D02*
X149093000Y-123865000D01*
X141473000Y-123865000D02*
X141473000Y-123873000D01*
D23*
X157580000Y-117300000D02*
X157580000Y-120960000D01*
X160040000Y-115107500D02*
X160040000Y-115590000D01*
D21*
X150075000Y-125415000D02*
X149093000Y-124433000D01*
D23*
X158660000Y-116220000D02*
X157580000Y-117300000D01*
D21*
X173360000Y-119230000D02*
X171040000Y-121550000D01*
X177130000Y-115230000D02*
X176090000Y-115230000D01*
X162410000Y-121550000D02*
X161640000Y-121550000D01*
X164820000Y-112310000D02*
X164820000Y-114430000D01*
X148208000Y-124750000D02*
X149410000Y-124750000D01*
D23*
X159012500Y-115107500D02*
X157580000Y-116540000D01*
D21*
X150075000Y-125415000D02*
X147543000Y-125415000D01*
X149093000Y-124433000D02*
X149410000Y-124750000D01*
X162410000Y-121550000D02*
X158870000Y-121550000D01*
D23*
X159060000Y-116220000D02*
X158660000Y-116220000D01*
D21*
X158210702Y-125769298D02*
X150997304Y-125769298D01*
D23*
X157580000Y-120960000D02*
X159270000Y-122650000D01*
D21*
X149093000Y-123865000D02*
X149093000Y-124433000D01*
D23*
X159060000Y-116220000D02*
X157900000Y-116220000D01*
D21*
X178230000Y-101730000D02*
X178270000Y-101770000D01*
X150428790Y-125768790D02*
X150075000Y-125415000D01*
X143015000Y-125415000D02*
X147543000Y-125415000D01*
D23*
X161920000Y-115107500D02*
X161920000Y-115290000D01*
D21*
X171040000Y-121550000D02*
X162410000Y-121550000D01*
X159270000Y-124710000D02*
X158210702Y-125769298D01*
D23*
X159253000Y-124693000D02*
X159270000Y-124710000D01*
X157900000Y-116220000D02*
X157580000Y-116540000D01*
D21*
X149410000Y-124750000D02*
X150428790Y-125768790D01*
X150997304Y-125769298D02*
X150428790Y-125768790D01*
X173360000Y-117960000D02*
X173360000Y-119230000D01*
D23*
X159270000Y-122650000D02*
X159270000Y-122860000D01*
D19*
X169930000Y-119350000D02*
X172830000Y-116450000D01*
D21*
X151630000Y-118290000D02*
X151990000Y-118650000D01*
D19*
X172830000Y-115820000D02*
X173230000Y-115420000D01*
X159440000Y-119350000D02*
X169930000Y-119350000D01*
D21*
X175350000Y-106590000D02*
X175110000Y-106830000D01*
X159680000Y-119350000D02*
X159690000Y-119360000D01*
D19*
X173230000Y-108690000D02*
X175350000Y-106570000D01*
X172830000Y-116450000D02*
X172830000Y-115820000D01*
X152670000Y-119330000D02*
X151990000Y-118650000D01*
X173230000Y-115420000D02*
X173230000Y-108690000D01*
D21*
X175350000Y-106570000D02*
X175350000Y-106590000D01*
D19*
X155910000Y-119330000D02*
X152670000Y-119330000D01*
D21*
X159440000Y-119350000D02*
X159680000Y-119350000D01*
X155910000Y-119330000D02*
X155700000Y-119330000D01*
D19*
X154250000Y-117570000D02*
X155870000Y-117570000D01*
D21*
X149090000Y-118290000D02*
X149090000Y-118000000D01*
D19*
X149090000Y-118000000D02*
X149090000Y-117710000D01*
D21*
X175350000Y-103210000D02*
X175130000Y-103430000D01*
D19*
X150420000Y-116380000D02*
X153060000Y-116380000D01*
D21*
X175350000Y-103170000D02*
X175350000Y-103210000D01*
D19*
X155690000Y-117390000D02*
X155870000Y-117570000D01*
X153060000Y-116380000D02*
X154250000Y-117570000D01*
X159350000Y-117740000D02*
X169730000Y-117740000D01*
D21*
X155870000Y-117570000D02*
X155730000Y-117570000D01*
D19*
X169730000Y-117740000D02*
X171710000Y-115760000D01*
X149090000Y-117710000D02*
X150420000Y-116380000D01*
X171710000Y-106810000D02*
X175350000Y-103170000D01*
X171710000Y-115760000D02*
X171710000Y-106810000D01*
D21*
X159370000Y-117760000D02*
X159470000Y-117760000D01*
X159350000Y-117740000D02*
X159370000Y-117760000D01*
D19*
X178910000Y-98550000D02*
X178780000Y-98680000D01*
D21*
X161798000Y-123865000D02*
X161798000Y-124048000D01*
X170570000Y-91280000D02*
X170710000Y-91280000D01*
D19*
X170670000Y-125140000D02*
X170330000Y-125480000D01*
X170710000Y-91280000D02*
X172980000Y-91280000D01*
X167470000Y-125480000D02*
X169430000Y-125480000D01*
D21*
X161798000Y-124048000D02*
X161810000Y-124060000D01*
D19*
X177740000Y-93420000D02*
X178910000Y-94590000D01*
D21*
X163128000Y-89680000D02*
X163128000Y-89462000D01*
D19*
X162570000Y-125480000D02*
X167470000Y-125480000D01*
D21*
X163220000Y-89680000D02*
X163320000Y-89580000D01*
D19*
X178910000Y-94590000D02*
X178910000Y-98550000D01*
X172980000Y-91280000D02*
X175120000Y-93420000D01*
X161798000Y-123865000D02*
X161798000Y-124708000D01*
D21*
X163128000Y-89462000D02*
X163150000Y-89440000D01*
D19*
X163128000Y-89680000D02*
X163128000Y-87232000D01*
X175120000Y-93420000D02*
X177740000Y-93420000D01*
X170320000Y-91280000D02*
X170710000Y-91280000D01*
X161798000Y-124708000D02*
X162570000Y-125480000D01*
X170330000Y-125480000D02*
X167470000Y-125480000D01*
X163128000Y-87232000D02*
X163150000Y-87210000D01*
D21*
X163220000Y-89680000D02*
X163128000Y-89680000D01*
D20*
X155320000Y-97300000D02*
X154670000Y-97950000D01*
X149160000Y-108210000D02*
X149160000Y-111750000D01*
D21*
X138933000Y-123865000D02*
X136425000Y-123865000D01*
D20*
X149160000Y-112300000D02*
X148980000Y-112480000D01*
D19*
X149160000Y-114710000D02*
X149050000Y-114820000D01*
D20*
X160588000Y-97300000D02*
X155320000Y-97300000D01*
X149285000Y-108085000D02*
X149160000Y-108210000D01*
D21*
X160588000Y-97300000D02*
X160200000Y-97300000D01*
D20*
X154670000Y-102750000D02*
X149335000Y-108085000D01*
D21*
X148980000Y-113870000D02*
X149010000Y-113840000D01*
D19*
X149160000Y-112300000D02*
X149160000Y-114710000D01*
D20*
X154670000Y-97950000D02*
X154670000Y-102750000D01*
X149160000Y-111750000D02*
X149160000Y-112300000D01*
D22*
X148980000Y-114712500D02*
X148980000Y-114230000D01*
D21*
X148980000Y-114712500D02*
X148980000Y-113870000D01*
D22*
X148980000Y-114230000D02*
X149030000Y-114180000D01*
D19*
X148980000Y-108390000D02*
X149285000Y-108085000D01*
X149160000Y-114780000D02*
X149270000Y-114890000D01*
D20*
X148980000Y-112480000D02*
X148980000Y-114712500D01*
X149160000Y-112300000D02*
X149160000Y-112660000D01*
X149335000Y-108085000D02*
X149285000Y-108085000D01*
D21*
X136425000Y-123865000D02*
X136400000Y-123840000D01*
D19*
X148980000Y-114712500D02*
X148980000Y-108390000D01*
D21*
X128780000Y-123840000D02*
X129830000Y-124890000D01*
X130360000Y-125420000D02*
X128780000Y-123840000D01*
D23*
X136380000Y-118290000D02*
X133837500Y-118290000D01*
D21*
X140100000Y-125420000D02*
X140220000Y-125300000D01*
X131350000Y-125420000D02*
X130360000Y-125420000D01*
D23*
X135148750Y-117058750D02*
X135148750Y-116978750D01*
X128780000Y-123840000D02*
X129020000Y-123840000D01*
X135148750Y-116978750D02*
X134538750Y-117588750D01*
X134538750Y-117588750D02*
X128700000Y-123427500D01*
X134538750Y-117588750D02*
X133658750Y-118468750D01*
X136380000Y-118290000D02*
X136380000Y-115747500D01*
D21*
X128780000Y-123840000D02*
X128780000Y-122690000D01*
D23*
X133837500Y-118290000D02*
X133658750Y-118468750D01*
X136380000Y-115747500D02*
X135148750Y-116978750D01*
D22*
X136380000Y-115747500D02*
X138840000Y-118207500D01*
D23*
X136380000Y-118290000D02*
X135148750Y-117058750D01*
X138930000Y-118290000D02*
X138922500Y-118290000D01*
X138922500Y-118290000D02*
X136380000Y-115747500D01*
D21*
X130690000Y-125420000D02*
X129810000Y-124540000D01*
D22*
X138710000Y-118290000D02*
X138770000Y-118230000D01*
D21*
X129830000Y-124890000D02*
X129830000Y-122710000D01*
D23*
X138930000Y-118290000D02*
X136380000Y-118290000D01*
D22*
X136380000Y-118290000D02*
X138710000Y-118290000D01*
D21*
X128780000Y-122690000D02*
X136130000Y-115340000D01*
D23*
X128700000Y-123427500D02*
X128700000Y-123820000D01*
D21*
X131350000Y-125420000D02*
X130690000Y-125420000D01*
X131350000Y-125420000D02*
X140020000Y-125420000D01*
D23*
X129893750Y-122233750D02*
X128700000Y-123427500D01*
D21*
X131350000Y-125420000D02*
X140100000Y-125420000D01*
D22*
X138840000Y-118207500D02*
X138840000Y-118240000D01*
D21*
X140020000Y-125420000D02*
X140140000Y-125300000D01*
M02*
