%TF.GenerationSoftware,KiCad,Pcbnew,7.0.1*%
%TF.CreationDate,2023-06-16T17:14:34+02:00*%
%TF.ProjectId,Uno_shiefefefe - Copy,556e6f5f-7368-4696-9566-656665666520,rev?*%
%TF.SameCoordinates,Original*%
%TF.FileFunction,Legend,Top*%
%TF.FilePolarity,Positive*%
%FSLAX46Y46*%
G04 Gerber Fmt 4.6, Leading zero omitted, Abs format (unit mm)*
G04 Created by KiCad (PCBNEW 7.0.1) date 2023-06-16 17:14:34*
%MOMM*%
%LPD*%
G01*
G04 APERTURE LIST*
%ADD10C,0.120000*%
%ADD11C,0.150000*%
%ADD12C,0.300000*%
%ADD13R,1.700000X1.700000*%
%ADD14O,1.700000X1.700000*%
%ADD15C,3.200000*%
%ADD16R,1.050000X1.500000*%
%ADD17O,1.050000X1.500000*%
%ADD18R,1.600000X1.600000*%
%ADD19C,1.600000*%
%ADD20O,1.600000X1.600000*%
G04 APERTURE END LIST*
D10*
X135050000Y-122160000D02*
X137600000Y-122160000D01*
D11*
X138750000Y-113660000D02*
X140330000Y-112080000D01*
X146710000Y-113680000D02*
X145130000Y-112100000D01*
X115018001Y-108290000D02*
G75*
G03*
X115018001Y-108290000I-1J0D01*
G01*
X128468000Y-74245000D02*
X153988000Y-74245000D01*
X153988000Y-76905000D01*
X128468000Y-76905000D01*
X128468000Y-74245000D01*
D10*
X147880000Y-116960000D02*
X152960000Y-116960000D01*
X152960000Y-119660000D01*
X147880000Y-119660000D01*
X147880000Y-116960000D01*
X135050000Y-116960000D02*
X137600000Y-116960000D01*
X137600000Y-116960000D02*
X147880000Y-116960000D01*
X147880000Y-122160000D01*
X137600000Y-122160000D01*
X137600000Y-116960000D01*
X168330000Y-111312500D02*
X170960000Y-111312500D01*
X170960000Y-116332500D01*
X168330000Y-116332500D01*
X168330000Y-111312500D01*
X158745000Y-111312500D02*
X161375000Y-111312500D01*
X161375000Y-116332500D01*
X158745000Y-116332500D01*
X158745000Y-111312500D01*
D11*
X164439000Y-106230000D02*
X159277000Y-106230000D01*
D10*
X137890000Y-99635000D02*
X147910000Y-99635000D01*
X147910000Y-108225000D01*
X137890000Y-108225000D01*
X137890000Y-99635000D01*
X135024600Y-114410000D02*
X137600000Y-114410000D01*
X137600000Y-116960000D01*
X135024600Y-116960000D01*
X135024600Y-114410000D01*
D11*
X159279000Y-88360000D02*
X164441000Y-88360000D01*
X164441000Y-108820000D01*
X159279000Y-108820000D01*
X159279000Y-88360000D01*
X111040000Y-89000000D02*
X134080000Y-89000000D01*
X134080000Y-106050000D01*
X111040000Y-106050000D01*
X111040000Y-89000000D01*
D10*
X135024600Y-114410000D02*
X137600000Y-114410000D01*
X137600000Y-122155400D01*
X135024600Y-122155400D01*
X135024600Y-114410000D01*
X150264445Y-114705555D02*
G75*
G03*
X150264445Y-114705555I-1284445J0D01*
G01*
X172020000Y-94050000D02*
X178690000Y-94050000D01*
X178690000Y-115540000D01*
X172020000Y-115540000D01*
X172020000Y-94050000D01*
D11*
X115038001Y-86760000D02*
G75*
G03*
X115038001Y-86760000I-1J0D01*
G01*
X123860000Y-111330000D02*
X132600000Y-111330000D01*
X132600000Y-120070000D01*
X123860000Y-120070000D01*
X123860000Y-111330000D01*
D10*
X124350000Y-111900000D02*
X132090000Y-111900000D01*
X132090000Y-119640000D01*
X124350000Y-119640000D01*
X124350000Y-111900000D01*
X141090000Y-110180000D02*
X144310000Y-110180000D01*
X144310000Y-113670000D01*
X141090000Y-113670000D01*
X141090000Y-110180000D01*
D11*
X115038001Y-86760000D02*
G75*
G03*
X115038001Y-86760000I-1J0D01*
G01*
X160468000Y-122535000D02*
X175828000Y-122535000D01*
X175828000Y-125195000D01*
X160468000Y-125195000D01*
X160468000Y-122535000D01*
X155388000Y-74245000D02*
X175828000Y-74245000D01*
X175828000Y-76905000D01*
X155388000Y-76905000D01*
X155388000Y-74245000D01*
X137603000Y-122535000D02*
X158038000Y-122535000D01*
X158038000Y-125195000D01*
X137603000Y-125195000D01*
X137603000Y-122535000D01*
X120870000Y-83785000D02*
X124170000Y-83785000D01*
X124170000Y-86960000D01*
X120870000Y-86960000D01*
X120870000Y-83785000D01*
X161407619Y-78109523D02*
X161360000Y-78061904D01*
X161360000Y-78061904D02*
X161312380Y-77919047D01*
X161312380Y-77919047D02*
X161312380Y-77823809D01*
X161312380Y-77823809D02*
X161360000Y-77680952D01*
X161360000Y-77680952D02*
X161455238Y-77585714D01*
X161455238Y-77585714D02*
X161550476Y-77538095D01*
X161550476Y-77538095D02*
X161740952Y-77490476D01*
X161740952Y-77490476D02*
X161883809Y-77490476D01*
X161883809Y-77490476D02*
X162074285Y-77538095D01*
X162074285Y-77538095D02*
X162169523Y-77585714D01*
X162169523Y-77585714D02*
X162264761Y-77680952D01*
X162264761Y-77680952D02*
X162312380Y-77823809D01*
X162312380Y-77823809D02*
X162312380Y-77919047D01*
X162312380Y-77919047D02*
X162264761Y-78061904D01*
X162264761Y-78061904D02*
X162217142Y-78109523D01*
X161836190Y-78538095D02*
X161836190Y-78871428D01*
X161312380Y-79014285D02*
X161312380Y-78538095D01*
X161312380Y-78538095D02*
X162312380Y-78538095D01*
X162312380Y-78538095D02*
X162312380Y-79014285D01*
X160931428Y-79728571D02*
X160979047Y-79680952D01*
X160979047Y-79680952D02*
X161121904Y-79585714D01*
X161121904Y-79585714D02*
X161217142Y-79538095D01*
X161217142Y-79538095D02*
X161360000Y-79490476D01*
X161360000Y-79490476D02*
X161598095Y-79442857D01*
X161598095Y-79442857D02*
X161788571Y-79442857D01*
X161788571Y-79442857D02*
X162026666Y-79490476D01*
X162026666Y-79490476D02*
X162169523Y-79538095D01*
X162169523Y-79538095D02*
X162264761Y-79585714D01*
X162264761Y-79585714D02*
X162407619Y-79680952D01*
X162407619Y-79680952D02*
X162455238Y-79728571D01*
X161312380Y-80109524D02*
X161979047Y-80109524D01*
X161788571Y-80109524D02*
X161883809Y-80157143D01*
X161883809Y-80157143D02*
X161931428Y-80204762D01*
X161931428Y-80204762D02*
X161979047Y-80300000D01*
X161979047Y-80300000D02*
X161979047Y-80395238D01*
X160931428Y-80633334D02*
X160979047Y-80680953D01*
X160979047Y-80680953D02*
X161121904Y-80776191D01*
X161121904Y-80776191D02*
X161217142Y-80823810D01*
X161217142Y-80823810D02*
X161360000Y-80871429D01*
X161360000Y-80871429D02*
X161598095Y-80919048D01*
X161598095Y-80919048D02*
X161788571Y-80919048D01*
X161788571Y-80919048D02*
X162026666Y-80871429D01*
X162026666Y-80871429D02*
X162169523Y-80823810D01*
X162169523Y-80823810D02*
X162264761Y-80776191D01*
X162264761Y-80776191D02*
X162407619Y-80680953D01*
X162407619Y-80680953D02*
X162455238Y-80633334D01*
X165045238Y-91707619D02*
X165616666Y-91707619D01*
X165330952Y-92707619D02*
X165330952Y-91707619D01*
X165854762Y-91707619D02*
X166521428Y-92707619D01*
X166521428Y-91707619D02*
X165854762Y-92707619D01*
X167092857Y-91707619D02*
X167188095Y-91707619D01*
X167188095Y-91707619D02*
X167283333Y-91755238D01*
X167283333Y-91755238D02*
X167330952Y-91802857D01*
X167330952Y-91802857D02*
X167378571Y-91898095D01*
X167378571Y-91898095D02*
X167426190Y-92088571D01*
X167426190Y-92088571D02*
X167426190Y-92326666D01*
X167426190Y-92326666D02*
X167378571Y-92517142D01*
X167378571Y-92517142D02*
X167330952Y-92612380D01*
X167330952Y-92612380D02*
X167283333Y-92660000D01*
X167283333Y-92660000D02*
X167188095Y-92707619D01*
X167188095Y-92707619D02*
X167092857Y-92707619D01*
X167092857Y-92707619D02*
X166997619Y-92660000D01*
X166997619Y-92660000D02*
X166950000Y-92612380D01*
X166950000Y-92612380D02*
X166902381Y-92517142D01*
X166902381Y-92517142D02*
X166854762Y-92326666D01*
X166854762Y-92326666D02*
X166854762Y-92088571D01*
X166854762Y-92088571D02*
X166902381Y-91898095D01*
X166902381Y-91898095D02*
X166950000Y-91802857D01*
X166950000Y-91802857D02*
X166997619Y-91755238D01*
X166997619Y-91755238D02*
X167092857Y-91707619D01*
X164098095Y-119530476D02*
X164098095Y-120006666D01*
X163812380Y-119435238D02*
X164812380Y-119768571D01*
X164812380Y-119768571D02*
X163812380Y-120101904D01*
X164812380Y-120625714D02*
X164812380Y-120720952D01*
X164812380Y-120720952D02*
X164764761Y-120816190D01*
X164764761Y-120816190D02*
X164717142Y-120863809D01*
X164717142Y-120863809D02*
X164621904Y-120911428D01*
X164621904Y-120911428D02*
X164431428Y-120959047D01*
X164431428Y-120959047D02*
X164193333Y-120959047D01*
X164193333Y-120959047D02*
X164002857Y-120911428D01*
X164002857Y-120911428D02*
X163907619Y-120863809D01*
X163907619Y-120863809D02*
X163860000Y-120816190D01*
X163860000Y-120816190D02*
X163812380Y-120720952D01*
X163812380Y-120720952D02*
X163812380Y-120625714D01*
X163812380Y-120625714D02*
X163860000Y-120530476D01*
X163860000Y-120530476D02*
X163907619Y-120482857D01*
X163907619Y-120482857D02*
X164002857Y-120435238D01*
X164002857Y-120435238D02*
X164193333Y-120387619D01*
X164193333Y-120387619D02*
X164431428Y-120387619D01*
X164431428Y-120387619D02*
X164621904Y-120435238D01*
X164621904Y-120435238D02*
X164717142Y-120482857D01*
X164717142Y-120482857D02*
X164764761Y-120530476D01*
X164764761Y-120530476D02*
X164812380Y-120625714D01*
X164479047Y-121816190D02*
X163812380Y-121816190D01*
X164860000Y-121578095D02*
X164145714Y-121340000D01*
X164145714Y-121340000D02*
X164145714Y-121959047D01*
X138168333Y-116009048D02*
X138168333Y-116770953D01*
X137787380Y-116390000D02*
X138549285Y-116390000D01*
X172442380Y-77495238D02*
X172442380Y-78066666D01*
X171442380Y-77780952D02*
X172442380Y-77780952D01*
X172442380Y-78304762D02*
X171442380Y-78971428D01*
X172442380Y-78971428D02*
X171442380Y-78304762D01*
X172442380Y-79542857D02*
X172442380Y-79638095D01*
X172442380Y-79638095D02*
X172394761Y-79733333D01*
X172394761Y-79733333D02*
X172347142Y-79780952D01*
X172347142Y-79780952D02*
X172251904Y-79828571D01*
X172251904Y-79828571D02*
X172061428Y-79876190D01*
X172061428Y-79876190D02*
X171823333Y-79876190D01*
X171823333Y-79876190D02*
X171632857Y-79828571D01*
X171632857Y-79828571D02*
X171537619Y-79780952D01*
X171537619Y-79780952D02*
X171490000Y-79733333D01*
X171490000Y-79733333D02*
X171442380Y-79638095D01*
X171442380Y-79638095D02*
X171442380Y-79542857D01*
X171442380Y-79542857D02*
X171490000Y-79447619D01*
X171490000Y-79447619D02*
X171537619Y-79400000D01*
X171537619Y-79400000D02*
X171632857Y-79352381D01*
X171632857Y-79352381D02*
X171823333Y-79304762D01*
X171823333Y-79304762D02*
X172061428Y-79304762D01*
X172061428Y-79304762D02*
X172251904Y-79352381D01*
X172251904Y-79352381D02*
X172347142Y-79400000D01*
X172347142Y-79400000D02*
X172394761Y-79447619D01*
X172394761Y-79447619D02*
X172442380Y-79542857D01*
X139462380Y-77498095D02*
X140462380Y-77498095D01*
X140462380Y-77498095D02*
X139748095Y-77831428D01*
X139748095Y-77831428D02*
X140462380Y-78164761D01*
X140462380Y-78164761D02*
X139462380Y-78164761D01*
X139462380Y-78640952D02*
X140462380Y-78640952D01*
X140462380Y-78640952D02*
X140462380Y-78879047D01*
X140462380Y-78879047D02*
X140414761Y-79021904D01*
X140414761Y-79021904D02*
X140319523Y-79117142D01*
X140319523Y-79117142D02*
X140224285Y-79164761D01*
X140224285Y-79164761D02*
X140033809Y-79212380D01*
X140033809Y-79212380D02*
X139890952Y-79212380D01*
X139890952Y-79212380D02*
X139700476Y-79164761D01*
X139700476Y-79164761D02*
X139605238Y-79117142D01*
X139605238Y-79117142D02*
X139510000Y-79021904D01*
X139510000Y-79021904D02*
X139462380Y-78879047D01*
X139462380Y-78879047D02*
X139462380Y-78640952D01*
X139462380Y-79640952D02*
X140462380Y-79640952D01*
X140462380Y-80307618D02*
X140462380Y-80498094D01*
X140462380Y-80498094D02*
X140414761Y-80593332D01*
X140414761Y-80593332D02*
X140319523Y-80688570D01*
X140319523Y-80688570D02*
X140129047Y-80736189D01*
X140129047Y-80736189D02*
X139795714Y-80736189D01*
X139795714Y-80736189D02*
X139605238Y-80688570D01*
X139605238Y-80688570D02*
X139510000Y-80593332D01*
X139510000Y-80593332D02*
X139462380Y-80498094D01*
X139462380Y-80498094D02*
X139462380Y-80307618D01*
X139462380Y-80307618D02*
X139510000Y-80212380D01*
X139510000Y-80212380D02*
X139605238Y-80117142D01*
X139605238Y-80117142D02*
X139795714Y-80069523D01*
X139795714Y-80069523D02*
X140129047Y-80069523D01*
X140129047Y-80069523D02*
X140319523Y-80117142D01*
X140319523Y-80117142D02*
X140414761Y-80212380D01*
X140414761Y-80212380D02*
X140462380Y-80307618D01*
X139081428Y-81450475D02*
X139129047Y-81402856D01*
X139129047Y-81402856D02*
X139271904Y-81307618D01*
X139271904Y-81307618D02*
X139367142Y-81259999D01*
X139367142Y-81259999D02*
X139510000Y-81212380D01*
X139510000Y-81212380D02*
X139748095Y-81164761D01*
X139748095Y-81164761D02*
X139938571Y-81164761D01*
X139938571Y-81164761D02*
X140176666Y-81212380D01*
X140176666Y-81212380D02*
X140319523Y-81259999D01*
X140319523Y-81259999D02*
X140414761Y-81307618D01*
X140414761Y-81307618D02*
X140557619Y-81402856D01*
X140557619Y-81402856D02*
X140605238Y-81450475D01*
X139510000Y-82212380D02*
X139462380Y-82117142D01*
X139462380Y-82117142D02*
X139462380Y-81926666D01*
X139462380Y-81926666D02*
X139510000Y-81831428D01*
X139510000Y-81831428D02*
X139605238Y-81783809D01*
X139605238Y-81783809D02*
X139986190Y-81783809D01*
X139986190Y-81783809D02*
X140081428Y-81831428D01*
X140081428Y-81831428D02*
X140129047Y-81926666D01*
X140129047Y-81926666D02*
X140129047Y-82117142D01*
X140129047Y-82117142D02*
X140081428Y-82212380D01*
X140081428Y-82212380D02*
X139986190Y-82259999D01*
X139986190Y-82259999D02*
X139890952Y-82259999D01*
X139890952Y-82259999D02*
X139795714Y-81783809D01*
X139081428Y-82593333D02*
X139129047Y-82640952D01*
X139129047Y-82640952D02*
X139271904Y-82736190D01*
X139271904Y-82736190D02*
X139367142Y-82783809D01*
X139367142Y-82783809D02*
X139510000Y-82831428D01*
X139510000Y-82831428D02*
X139748095Y-82879047D01*
X139748095Y-82879047D02*
X139938571Y-82879047D01*
X139938571Y-82879047D02*
X140176666Y-82831428D01*
X140176666Y-82831428D02*
X140319523Y-82783809D01*
X140319523Y-82783809D02*
X140414761Y-82736190D01*
X140414761Y-82736190D02*
X140557619Y-82640952D01*
X140557619Y-82640952D02*
X140605238Y-82593333D01*
X156759523Y-95237619D02*
X156426190Y-94761428D01*
X156188095Y-95237619D02*
X156188095Y-94237619D01*
X156188095Y-94237619D02*
X156569047Y-94237619D01*
X156569047Y-94237619D02*
X156664285Y-94285238D01*
X156664285Y-94285238D02*
X156711904Y-94332857D01*
X156711904Y-94332857D02*
X156759523Y-94428095D01*
X156759523Y-94428095D02*
X156759523Y-94570952D01*
X156759523Y-94570952D02*
X156711904Y-94666190D01*
X156711904Y-94666190D02*
X156664285Y-94713809D01*
X156664285Y-94713809D02*
X156569047Y-94761428D01*
X156569047Y-94761428D02*
X156188095Y-94761428D01*
X157092857Y-94237619D02*
X157759523Y-95237619D01*
X157759523Y-94237619D02*
X157092857Y-95237619D01*
X158330952Y-94237619D02*
X158426190Y-94237619D01*
X158426190Y-94237619D02*
X158521428Y-94285238D01*
X158521428Y-94285238D02*
X158569047Y-94332857D01*
X158569047Y-94332857D02*
X158616666Y-94428095D01*
X158616666Y-94428095D02*
X158664285Y-94618571D01*
X158664285Y-94618571D02*
X158664285Y-94856666D01*
X158664285Y-94856666D02*
X158616666Y-95047142D01*
X158616666Y-95047142D02*
X158569047Y-95142380D01*
X158569047Y-95142380D02*
X158521428Y-95190000D01*
X158521428Y-95190000D02*
X158426190Y-95237619D01*
X158426190Y-95237619D02*
X158330952Y-95237619D01*
X158330952Y-95237619D02*
X158235714Y-95190000D01*
X158235714Y-95190000D02*
X158188095Y-95142380D01*
X158188095Y-95142380D02*
X158140476Y-95047142D01*
X158140476Y-95047142D02*
X158092857Y-94856666D01*
X158092857Y-94856666D02*
X158092857Y-94618571D01*
X158092857Y-94618571D02*
X158140476Y-94428095D01*
X158140476Y-94428095D02*
X158188095Y-94332857D01*
X158188095Y-94332857D02*
X158235714Y-94285238D01*
X158235714Y-94285238D02*
X158330952Y-94237619D01*
X162058095Y-115612619D02*
X162058095Y-114612619D01*
X162058095Y-114612619D02*
X162391428Y-115326904D01*
X162391428Y-115326904D02*
X162724761Y-114612619D01*
X162724761Y-114612619D02*
X162724761Y-115612619D01*
X163772380Y-115517380D02*
X163724761Y-115565000D01*
X163724761Y-115565000D02*
X163581904Y-115612619D01*
X163581904Y-115612619D02*
X163486666Y-115612619D01*
X163486666Y-115612619D02*
X163343809Y-115565000D01*
X163343809Y-115565000D02*
X163248571Y-115469761D01*
X163248571Y-115469761D02*
X163200952Y-115374523D01*
X163200952Y-115374523D02*
X163153333Y-115184047D01*
X163153333Y-115184047D02*
X163153333Y-115041190D01*
X163153333Y-115041190D02*
X163200952Y-114850714D01*
X163200952Y-114850714D02*
X163248571Y-114755476D01*
X163248571Y-114755476D02*
X163343809Y-114660238D01*
X163343809Y-114660238D02*
X163486666Y-114612619D01*
X163486666Y-114612619D02*
X163581904Y-114612619D01*
X163581904Y-114612619D02*
X163724761Y-114660238D01*
X163724761Y-114660238D02*
X163772380Y-114707857D01*
X164200952Y-115612619D02*
X164200952Y-114612619D01*
X164200952Y-114612619D02*
X164581904Y-114612619D01*
X164581904Y-114612619D02*
X164677142Y-114660238D01*
X164677142Y-114660238D02*
X164724761Y-114707857D01*
X164724761Y-114707857D02*
X164772380Y-114803095D01*
X164772380Y-114803095D02*
X164772380Y-114945952D01*
X164772380Y-114945952D02*
X164724761Y-115041190D01*
X164724761Y-115041190D02*
X164677142Y-115088809D01*
X164677142Y-115088809D02*
X164581904Y-115136428D01*
X164581904Y-115136428D02*
X164200952Y-115136428D01*
X165724761Y-115612619D02*
X165153333Y-115612619D01*
X165439047Y-115612619D02*
X165439047Y-114612619D01*
X165439047Y-114612619D02*
X165343809Y-114755476D01*
X165343809Y-114755476D02*
X165248571Y-114850714D01*
X165248571Y-114850714D02*
X165153333Y-114898333D01*
X166058095Y-114612619D02*
X166724761Y-114612619D01*
X166724761Y-114612619D02*
X166296190Y-115612619D01*
X167296190Y-114612619D02*
X167391428Y-114612619D01*
X167391428Y-114612619D02*
X167486666Y-114660238D01*
X167486666Y-114660238D02*
X167534285Y-114707857D01*
X167534285Y-114707857D02*
X167581904Y-114803095D01*
X167581904Y-114803095D02*
X167629523Y-114993571D01*
X167629523Y-114993571D02*
X167629523Y-115231666D01*
X167629523Y-115231666D02*
X167581904Y-115422142D01*
X167581904Y-115422142D02*
X167534285Y-115517380D01*
X167534285Y-115517380D02*
X167486666Y-115565000D01*
X167486666Y-115565000D02*
X167391428Y-115612619D01*
X167391428Y-115612619D02*
X167296190Y-115612619D01*
X167296190Y-115612619D02*
X167200952Y-115565000D01*
X167200952Y-115565000D02*
X167153333Y-115517380D01*
X167153333Y-115517380D02*
X167105714Y-115422142D01*
X167105714Y-115422142D02*
X167058095Y-115231666D01*
X167058095Y-115231666D02*
X167058095Y-114993571D01*
X167058095Y-114993571D02*
X167105714Y-114803095D01*
X167105714Y-114803095D02*
X167153333Y-114707857D01*
X167153333Y-114707857D02*
X167200952Y-114660238D01*
X167200952Y-114660238D02*
X167296190Y-114612619D01*
X130302380Y-77485238D02*
X130302380Y-78056666D01*
X129302380Y-77770952D02*
X130302380Y-77770952D01*
X130302380Y-78294762D02*
X129302380Y-78961428D01*
X130302380Y-78961428D02*
X129302380Y-78294762D01*
X129302380Y-79866190D02*
X129302380Y-79294762D01*
X129302380Y-79580476D02*
X130302380Y-79580476D01*
X130302380Y-79580476D02*
X130159523Y-79485238D01*
X130159523Y-79485238D02*
X130064285Y-79390000D01*
X130064285Y-79390000D02*
X130016666Y-79294762D01*
X128921428Y-80580476D02*
X128969047Y-80532857D01*
X128969047Y-80532857D02*
X129111904Y-80437619D01*
X129111904Y-80437619D02*
X129207142Y-80390000D01*
X129207142Y-80390000D02*
X129350000Y-80342381D01*
X129350000Y-80342381D02*
X129588095Y-80294762D01*
X129588095Y-80294762D02*
X129778571Y-80294762D01*
X129778571Y-80294762D02*
X130016666Y-80342381D01*
X130016666Y-80342381D02*
X130159523Y-80390000D01*
X130159523Y-80390000D02*
X130254761Y-80437619D01*
X130254761Y-80437619D02*
X130397619Y-80532857D01*
X130397619Y-80532857D02*
X130445238Y-80580476D01*
X129350000Y-81342381D02*
X129302380Y-81247143D01*
X129302380Y-81247143D02*
X129302380Y-81056667D01*
X129302380Y-81056667D02*
X129350000Y-80961429D01*
X129350000Y-80961429D02*
X129445238Y-80913810D01*
X129445238Y-80913810D02*
X129826190Y-80913810D01*
X129826190Y-80913810D02*
X129921428Y-80961429D01*
X129921428Y-80961429D02*
X129969047Y-81056667D01*
X129969047Y-81056667D02*
X129969047Y-81247143D01*
X129969047Y-81247143D02*
X129921428Y-81342381D01*
X129921428Y-81342381D02*
X129826190Y-81390000D01*
X129826190Y-81390000D02*
X129730952Y-81390000D01*
X129730952Y-81390000D02*
X129635714Y-80913810D01*
X128921428Y-81723334D02*
X128969047Y-81770953D01*
X128969047Y-81770953D02*
X129111904Y-81866191D01*
X129111904Y-81866191D02*
X129207142Y-81913810D01*
X129207142Y-81913810D02*
X129350000Y-81961429D01*
X129350000Y-81961429D02*
X129588095Y-82009048D01*
X129588095Y-82009048D02*
X129778571Y-82009048D01*
X129778571Y-82009048D02*
X130016666Y-81961429D01*
X130016666Y-81961429D02*
X130159523Y-81913810D01*
X130159523Y-81913810D02*
X130254761Y-81866191D01*
X130254761Y-81866191D02*
X130397619Y-81770953D01*
X130397619Y-81770953D02*
X130445238Y-81723334D01*
X169972380Y-106309523D02*
X170448571Y-105976190D01*
X169972380Y-105738095D02*
X170972380Y-105738095D01*
X170972380Y-105738095D02*
X170972380Y-106119047D01*
X170972380Y-106119047D02*
X170924761Y-106214285D01*
X170924761Y-106214285D02*
X170877142Y-106261904D01*
X170877142Y-106261904D02*
X170781904Y-106309523D01*
X170781904Y-106309523D02*
X170639047Y-106309523D01*
X170639047Y-106309523D02*
X170543809Y-106261904D01*
X170543809Y-106261904D02*
X170496190Y-106214285D01*
X170496190Y-106214285D02*
X170448571Y-106119047D01*
X170448571Y-106119047D02*
X170448571Y-105738095D01*
X170972380Y-106642857D02*
X169972380Y-107309523D01*
X170972380Y-107309523D02*
X169972380Y-106642857D01*
X133672619Y-119323333D02*
X133625000Y-119275714D01*
X133625000Y-119275714D02*
X133577380Y-119132857D01*
X133577380Y-119132857D02*
X133577380Y-119037619D01*
X133577380Y-119037619D02*
X133625000Y-118894762D01*
X133625000Y-118894762D02*
X133720238Y-118799524D01*
X133720238Y-118799524D02*
X133815476Y-118751905D01*
X133815476Y-118751905D02*
X134005952Y-118704286D01*
X134005952Y-118704286D02*
X134148809Y-118704286D01*
X134148809Y-118704286D02*
X134339285Y-118751905D01*
X134339285Y-118751905D02*
X134434523Y-118799524D01*
X134434523Y-118799524D02*
X134529761Y-118894762D01*
X134529761Y-118894762D02*
X134577380Y-119037619D01*
X134577380Y-119037619D02*
X134577380Y-119132857D01*
X134577380Y-119132857D02*
X134529761Y-119275714D01*
X134529761Y-119275714D02*
X134482142Y-119323333D01*
X133577380Y-120275714D02*
X133577380Y-119704286D01*
X133577380Y-119990000D02*
X134577380Y-119990000D01*
X134577380Y-119990000D02*
X134434523Y-119894762D01*
X134434523Y-119894762D02*
X134339285Y-119799524D01*
X134339285Y-119799524D02*
X134291666Y-119704286D01*
X170972380Y-102395238D02*
X170972380Y-102966666D01*
X169972380Y-102680952D02*
X170972380Y-102680952D01*
X170972380Y-103204762D02*
X169972380Y-103871428D01*
X170972380Y-103871428D02*
X169972380Y-103204762D01*
X157719523Y-107962380D02*
X157671904Y-108010000D01*
X157671904Y-108010000D02*
X157529047Y-108057619D01*
X157529047Y-108057619D02*
X157433809Y-108057619D01*
X157433809Y-108057619D02*
X157290952Y-108010000D01*
X157290952Y-108010000D02*
X157195714Y-107914761D01*
X157195714Y-107914761D02*
X157148095Y-107819523D01*
X157148095Y-107819523D02*
X157100476Y-107629047D01*
X157100476Y-107629047D02*
X157100476Y-107486190D01*
X157100476Y-107486190D02*
X157148095Y-107295714D01*
X157148095Y-107295714D02*
X157195714Y-107200476D01*
X157195714Y-107200476D02*
X157290952Y-107105238D01*
X157290952Y-107105238D02*
X157433809Y-107057619D01*
X157433809Y-107057619D02*
X157529047Y-107057619D01*
X157529047Y-107057619D02*
X157671904Y-107105238D01*
X157671904Y-107105238D02*
X157719523Y-107152857D01*
X158100476Y-107152857D02*
X158148095Y-107105238D01*
X158148095Y-107105238D02*
X158243333Y-107057619D01*
X158243333Y-107057619D02*
X158481428Y-107057619D01*
X158481428Y-107057619D02*
X158576666Y-107105238D01*
X158576666Y-107105238D02*
X158624285Y-107152857D01*
X158624285Y-107152857D02*
X158671904Y-107248095D01*
X158671904Y-107248095D02*
X158671904Y-107343333D01*
X158671904Y-107343333D02*
X158624285Y-107486190D01*
X158624285Y-107486190D02*
X158052857Y-108057619D01*
X158052857Y-108057619D02*
X158671904Y-108057619D01*
X138587380Y-125578095D02*
X139254047Y-126101904D01*
X139254047Y-125578095D02*
X138587380Y-126101904D01*
X161292380Y-118178095D02*
X162292380Y-118178095D01*
X162292380Y-118178095D02*
X161292380Y-118749523D01*
X161292380Y-118749523D02*
X162292380Y-118749523D01*
X161387619Y-119797142D02*
X161340000Y-119749523D01*
X161340000Y-119749523D02*
X161292380Y-119606666D01*
X161292380Y-119606666D02*
X161292380Y-119511428D01*
X161292380Y-119511428D02*
X161340000Y-119368571D01*
X161340000Y-119368571D02*
X161435238Y-119273333D01*
X161435238Y-119273333D02*
X161530476Y-119225714D01*
X161530476Y-119225714D02*
X161720952Y-119178095D01*
X161720952Y-119178095D02*
X161863809Y-119178095D01*
X161863809Y-119178095D02*
X162054285Y-119225714D01*
X162054285Y-119225714D02*
X162149523Y-119273333D01*
X162149523Y-119273333D02*
X162244761Y-119368571D01*
X162244761Y-119368571D02*
X162292380Y-119511428D01*
X162292380Y-119511428D02*
X162292380Y-119606666D01*
X162292380Y-119606666D02*
X162244761Y-119749523D01*
X162244761Y-119749523D02*
X162197142Y-119797142D01*
X160911428Y-120511428D02*
X160959047Y-120463809D01*
X160959047Y-120463809D02*
X161101904Y-120368571D01*
X161101904Y-120368571D02*
X161197142Y-120320952D01*
X161197142Y-120320952D02*
X161340000Y-120273333D01*
X161340000Y-120273333D02*
X161578095Y-120225714D01*
X161578095Y-120225714D02*
X161768571Y-120225714D01*
X161768571Y-120225714D02*
X162006666Y-120273333D01*
X162006666Y-120273333D02*
X162149523Y-120320952D01*
X162149523Y-120320952D02*
X162244761Y-120368571D01*
X162244761Y-120368571D02*
X162387619Y-120463809D01*
X162387619Y-120463809D02*
X162435238Y-120511428D01*
X161340000Y-121273333D02*
X161292380Y-121178095D01*
X161292380Y-121178095D02*
X161292380Y-120987619D01*
X161292380Y-120987619D02*
X161340000Y-120892381D01*
X161340000Y-120892381D02*
X161435238Y-120844762D01*
X161435238Y-120844762D02*
X161816190Y-120844762D01*
X161816190Y-120844762D02*
X161911428Y-120892381D01*
X161911428Y-120892381D02*
X161959047Y-120987619D01*
X161959047Y-120987619D02*
X161959047Y-121178095D01*
X161959047Y-121178095D02*
X161911428Y-121273333D01*
X161911428Y-121273333D02*
X161816190Y-121320952D01*
X161816190Y-121320952D02*
X161720952Y-121320952D01*
X161720952Y-121320952D02*
X161625714Y-120844762D01*
X160911428Y-121654286D02*
X160959047Y-121701905D01*
X160959047Y-121701905D02*
X161101904Y-121797143D01*
X161101904Y-121797143D02*
X161197142Y-121844762D01*
X161197142Y-121844762D02*
X161340000Y-121892381D01*
X161340000Y-121892381D02*
X161578095Y-121940000D01*
X161578095Y-121940000D02*
X161768571Y-121940000D01*
X161768571Y-121940000D02*
X162006666Y-121892381D01*
X162006666Y-121892381D02*
X162149523Y-121844762D01*
X162149523Y-121844762D02*
X162244761Y-121797143D01*
X162244761Y-121797143D02*
X162387619Y-121701905D01*
X162387619Y-121701905D02*
X162435238Y-121654286D01*
X165065238Y-104427619D02*
X165398571Y-105427619D01*
X165398571Y-105427619D02*
X165731904Y-104427619D01*
X166636666Y-105332380D02*
X166589047Y-105380000D01*
X166589047Y-105380000D02*
X166446190Y-105427619D01*
X166446190Y-105427619D02*
X166350952Y-105427619D01*
X166350952Y-105427619D02*
X166208095Y-105380000D01*
X166208095Y-105380000D02*
X166112857Y-105284761D01*
X166112857Y-105284761D02*
X166065238Y-105189523D01*
X166065238Y-105189523D02*
X166017619Y-104999047D01*
X166017619Y-104999047D02*
X166017619Y-104856190D01*
X166017619Y-104856190D02*
X166065238Y-104665714D01*
X166065238Y-104665714D02*
X166112857Y-104570476D01*
X166112857Y-104570476D02*
X166208095Y-104475238D01*
X166208095Y-104475238D02*
X166350952Y-104427619D01*
X166350952Y-104427619D02*
X166446190Y-104427619D01*
X166446190Y-104427619D02*
X166589047Y-104475238D01*
X166589047Y-104475238D02*
X166636666Y-104522857D01*
X167636666Y-105332380D02*
X167589047Y-105380000D01*
X167589047Y-105380000D02*
X167446190Y-105427619D01*
X167446190Y-105427619D02*
X167350952Y-105427619D01*
X167350952Y-105427619D02*
X167208095Y-105380000D01*
X167208095Y-105380000D02*
X167112857Y-105284761D01*
X167112857Y-105284761D02*
X167065238Y-105189523D01*
X167065238Y-105189523D02*
X167017619Y-104999047D01*
X167017619Y-104999047D02*
X167017619Y-104856190D01*
X167017619Y-104856190D02*
X167065238Y-104665714D01*
X167065238Y-104665714D02*
X167112857Y-104570476D01*
X167112857Y-104570476D02*
X167208095Y-104475238D01*
X167208095Y-104475238D02*
X167350952Y-104427619D01*
X167350952Y-104427619D02*
X167446190Y-104427619D01*
X167446190Y-104427619D02*
X167589047Y-104475238D01*
X167589047Y-104475238D02*
X167636666Y-104522857D01*
X165611904Y-101885238D02*
X165516666Y-101837619D01*
X165516666Y-101837619D02*
X165373809Y-101837619D01*
X165373809Y-101837619D02*
X165230952Y-101885238D01*
X165230952Y-101885238D02*
X165135714Y-101980476D01*
X165135714Y-101980476D02*
X165088095Y-102075714D01*
X165088095Y-102075714D02*
X165040476Y-102266190D01*
X165040476Y-102266190D02*
X165040476Y-102409047D01*
X165040476Y-102409047D02*
X165088095Y-102599523D01*
X165088095Y-102599523D02*
X165135714Y-102694761D01*
X165135714Y-102694761D02*
X165230952Y-102790000D01*
X165230952Y-102790000D02*
X165373809Y-102837619D01*
X165373809Y-102837619D02*
X165469047Y-102837619D01*
X165469047Y-102837619D02*
X165611904Y-102790000D01*
X165611904Y-102790000D02*
X165659523Y-102742380D01*
X165659523Y-102742380D02*
X165659523Y-102409047D01*
X165659523Y-102409047D02*
X165469047Y-102409047D01*
X166088095Y-102837619D02*
X166088095Y-101837619D01*
X166088095Y-101837619D02*
X166659523Y-102837619D01*
X166659523Y-102837619D02*
X166659523Y-101837619D01*
X167135714Y-102837619D02*
X167135714Y-101837619D01*
X167135714Y-101837619D02*
X167373809Y-101837619D01*
X167373809Y-101837619D02*
X167516666Y-101885238D01*
X167516666Y-101885238D02*
X167611904Y-101980476D01*
X167611904Y-101980476D02*
X167659523Y-102075714D01*
X167659523Y-102075714D02*
X167707142Y-102266190D01*
X167707142Y-102266190D02*
X167707142Y-102409047D01*
X167707142Y-102409047D02*
X167659523Y-102599523D01*
X167659523Y-102599523D02*
X167611904Y-102694761D01*
X167611904Y-102694761D02*
X167516666Y-102790000D01*
X167516666Y-102790000D02*
X167373809Y-102837619D01*
X167373809Y-102837619D02*
X167135714Y-102837619D01*
X174268095Y-119570476D02*
X174268095Y-120046666D01*
X173982380Y-119475238D02*
X174982380Y-119808571D01*
X174982380Y-119808571D02*
X173982380Y-120141904D01*
X174982380Y-120380000D02*
X174982380Y-120999047D01*
X174982380Y-120999047D02*
X174601428Y-120665714D01*
X174601428Y-120665714D02*
X174601428Y-120808571D01*
X174601428Y-120808571D02*
X174553809Y-120903809D01*
X174553809Y-120903809D02*
X174506190Y-120951428D01*
X174506190Y-120951428D02*
X174410952Y-120999047D01*
X174410952Y-120999047D02*
X174172857Y-120999047D01*
X174172857Y-120999047D02*
X174077619Y-120951428D01*
X174077619Y-120951428D02*
X174030000Y-120903809D01*
X174030000Y-120903809D02*
X173982380Y-120808571D01*
X173982380Y-120808571D02*
X173982380Y-120522857D01*
X173982380Y-120522857D02*
X174030000Y-120427619D01*
X174030000Y-120427619D02*
X174077619Y-120380000D01*
X173982380Y-121475238D02*
X173982380Y-121665714D01*
X173982380Y-121665714D02*
X174030000Y-121760952D01*
X174030000Y-121760952D02*
X174077619Y-121808571D01*
X174077619Y-121808571D02*
X174220476Y-121903809D01*
X174220476Y-121903809D02*
X174410952Y-121951428D01*
X174410952Y-121951428D02*
X174791904Y-121951428D01*
X174791904Y-121951428D02*
X174887142Y-121903809D01*
X174887142Y-121903809D02*
X174934761Y-121856190D01*
X174934761Y-121856190D02*
X174982380Y-121760952D01*
X174982380Y-121760952D02*
X174982380Y-121570476D01*
X174982380Y-121570476D02*
X174934761Y-121475238D01*
X174934761Y-121475238D02*
X174887142Y-121427619D01*
X174887142Y-121427619D02*
X174791904Y-121380000D01*
X174791904Y-121380000D02*
X174553809Y-121380000D01*
X174553809Y-121380000D02*
X174458571Y-121427619D01*
X174458571Y-121427619D02*
X174410952Y-121475238D01*
X174410952Y-121475238D02*
X174363333Y-121570476D01*
X174363333Y-121570476D02*
X174363333Y-121760952D01*
X174363333Y-121760952D02*
X174410952Y-121856190D01*
X174410952Y-121856190D02*
X174458571Y-121903809D01*
X174458571Y-121903809D02*
X174553809Y-121951428D01*
X166678095Y-119570476D02*
X166678095Y-120046666D01*
X166392380Y-119475238D02*
X167392380Y-119808571D01*
X167392380Y-119808571D02*
X166392380Y-120141904D01*
X167392380Y-120380000D02*
X167392380Y-120999047D01*
X167392380Y-120999047D02*
X167011428Y-120665714D01*
X167011428Y-120665714D02*
X167011428Y-120808571D01*
X167011428Y-120808571D02*
X166963809Y-120903809D01*
X166963809Y-120903809D02*
X166916190Y-120951428D01*
X166916190Y-120951428D02*
X166820952Y-120999047D01*
X166820952Y-120999047D02*
X166582857Y-120999047D01*
X166582857Y-120999047D02*
X166487619Y-120951428D01*
X166487619Y-120951428D02*
X166440000Y-120903809D01*
X166440000Y-120903809D02*
X166392380Y-120808571D01*
X166392380Y-120808571D02*
X166392380Y-120522857D01*
X166392380Y-120522857D02*
X166440000Y-120427619D01*
X166440000Y-120427619D02*
X166487619Y-120380000D01*
X167392380Y-121856190D02*
X167392380Y-121665714D01*
X167392380Y-121665714D02*
X167344761Y-121570476D01*
X167344761Y-121570476D02*
X167297142Y-121522857D01*
X167297142Y-121522857D02*
X167154285Y-121427619D01*
X167154285Y-121427619D02*
X166963809Y-121380000D01*
X166963809Y-121380000D02*
X166582857Y-121380000D01*
X166582857Y-121380000D02*
X166487619Y-121427619D01*
X166487619Y-121427619D02*
X166440000Y-121475238D01*
X166440000Y-121475238D02*
X166392380Y-121570476D01*
X166392380Y-121570476D02*
X166392380Y-121760952D01*
X166392380Y-121760952D02*
X166440000Y-121856190D01*
X166440000Y-121856190D02*
X166487619Y-121903809D01*
X166487619Y-121903809D02*
X166582857Y-121951428D01*
X166582857Y-121951428D02*
X166820952Y-121951428D01*
X166820952Y-121951428D02*
X166916190Y-121903809D01*
X166916190Y-121903809D02*
X166963809Y-121856190D01*
X166963809Y-121856190D02*
X167011428Y-121760952D01*
X167011428Y-121760952D02*
X167011428Y-121570476D01*
X167011428Y-121570476D02*
X166963809Y-121475238D01*
X166963809Y-121475238D02*
X166916190Y-121427619D01*
X166916190Y-121427619D02*
X166820952Y-121380000D01*
X158218333Y-116479048D02*
X158218333Y-117240953D01*
X157837380Y-116860000D02*
X158599285Y-116860000D01*
X133737380Y-115468095D02*
X134404047Y-115991904D01*
X134404047Y-115468095D02*
X133737380Y-115991904D01*
X170934761Y-95401904D02*
X170982380Y-95306666D01*
X170982380Y-95306666D02*
X170982380Y-95163809D01*
X170982380Y-95163809D02*
X170934761Y-95020952D01*
X170934761Y-95020952D02*
X170839523Y-94925714D01*
X170839523Y-94925714D02*
X170744285Y-94878095D01*
X170744285Y-94878095D02*
X170553809Y-94830476D01*
X170553809Y-94830476D02*
X170410952Y-94830476D01*
X170410952Y-94830476D02*
X170220476Y-94878095D01*
X170220476Y-94878095D02*
X170125238Y-94925714D01*
X170125238Y-94925714D02*
X170030000Y-95020952D01*
X170030000Y-95020952D02*
X169982380Y-95163809D01*
X169982380Y-95163809D02*
X169982380Y-95259047D01*
X169982380Y-95259047D02*
X170030000Y-95401904D01*
X170030000Y-95401904D02*
X170077619Y-95449523D01*
X170077619Y-95449523D02*
X170410952Y-95449523D01*
X170410952Y-95449523D02*
X170410952Y-95259047D01*
X169982380Y-95878095D02*
X170982380Y-95878095D01*
X170982380Y-95878095D02*
X169982380Y-96449523D01*
X169982380Y-96449523D02*
X170982380Y-96449523D01*
X169982380Y-96925714D02*
X170982380Y-96925714D01*
X170982380Y-96925714D02*
X170982380Y-97163809D01*
X170982380Y-97163809D02*
X170934761Y-97306666D01*
X170934761Y-97306666D02*
X170839523Y-97401904D01*
X170839523Y-97401904D02*
X170744285Y-97449523D01*
X170744285Y-97449523D02*
X170553809Y-97497142D01*
X170553809Y-97497142D02*
X170410952Y-97497142D01*
X170410952Y-97497142D02*
X170220476Y-97449523D01*
X170220476Y-97449523D02*
X170125238Y-97401904D01*
X170125238Y-97401904D02*
X170030000Y-97306666D01*
X170030000Y-97306666D02*
X169982380Y-97163809D01*
X169982380Y-97163809D02*
X169982380Y-96925714D01*
X156561904Y-101875238D02*
X156466666Y-101827619D01*
X156466666Y-101827619D02*
X156323809Y-101827619D01*
X156323809Y-101827619D02*
X156180952Y-101875238D01*
X156180952Y-101875238D02*
X156085714Y-101970476D01*
X156085714Y-101970476D02*
X156038095Y-102065714D01*
X156038095Y-102065714D02*
X155990476Y-102256190D01*
X155990476Y-102256190D02*
X155990476Y-102399047D01*
X155990476Y-102399047D02*
X156038095Y-102589523D01*
X156038095Y-102589523D02*
X156085714Y-102684761D01*
X156085714Y-102684761D02*
X156180952Y-102780000D01*
X156180952Y-102780000D02*
X156323809Y-102827619D01*
X156323809Y-102827619D02*
X156419047Y-102827619D01*
X156419047Y-102827619D02*
X156561904Y-102780000D01*
X156561904Y-102780000D02*
X156609523Y-102732380D01*
X156609523Y-102732380D02*
X156609523Y-102399047D01*
X156609523Y-102399047D02*
X156419047Y-102399047D01*
X157038095Y-102827619D02*
X157038095Y-101827619D01*
X157038095Y-101827619D02*
X157609523Y-102827619D01*
X157609523Y-102827619D02*
X157609523Y-101827619D01*
X158085714Y-102827619D02*
X158085714Y-101827619D01*
X158085714Y-101827619D02*
X158323809Y-101827619D01*
X158323809Y-101827619D02*
X158466666Y-101875238D01*
X158466666Y-101875238D02*
X158561904Y-101970476D01*
X158561904Y-101970476D02*
X158609523Y-102065714D01*
X158609523Y-102065714D02*
X158657142Y-102256190D01*
X158657142Y-102256190D02*
X158657142Y-102399047D01*
X158657142Y-102399047D02*
X158609523Y-102589523D01*
X158609523Y-102589523D02*
X158561904Y-102684761D01*
X158561904Y-102684761D02*
X158466666Y-102780000D01*
X158466666Y-102780000D02*
X158323809Y-102827619D01*
X158323809Y-102827619D02*
X158085714Y-102827619D01*
X165198333Y-107089048D02*
X165198333Y-107850953D01*
X164817380Y-107470000D02*
X165579285Y-107470000D01*
X142972380Y-77495238D02*
X142972380Y-78066666D01*
X141972380Y-77780952D02*
X142972380Y-77780952D01*
X142972380Y-78304762D02*
X141972380Y-78971428D01*
X142972380Y-78971428D02*
X141972380Y-78304762D01*
X142972380Y-79542857D02*
X142972380Y-79638095D01*
X142972380Y-79638095D02*
X142924761Y-79733333D01*
X142924761Y-79733333D02*
X142877142Y-79780952D01*
X142877142Y-79780952D02*
X142781904Y-79828571D01*
X142781904Y-79828571D02*
X142591428Y-79876190D01*
X142591428Y-79876190D02*
X142353333Y-79876190D01*
X142353333Y-79876190D02*
X142162857Y-79828571D01*
X142162857Y-79828571D02*
X142067619Y-79780952D01*
X142067619Y-79780952D02*
X142020000Y-79733333D01*
X142020000Y-79733333D02*
X141972380Y-79638095D01*
X141972380Y-79638095D02*
X141972380Y-79542857D01*
X141972380Y-79542857D02*
X142020000Y-79447619D01*
X142020000Y-79447619D02*
X142067619Y-79400000D01*
X142067619Y-79400000D02*
X142162857Y-79352381D01*
X142162857Y-79352381D02*
X142353333Y-79304762D01*
X142353333Y-79304762D02*
X142591428Y-79304762D01*
X142591428Y-79304762D02*
X142781904Y-79352381D01*
X142781904Y-79352381D02*
X142877142Y-79400000D01*
X142877142Y-79400000D02*
X142924761Y-79447619D01*
X142924761Y-79447619D02*
X142972380Y-79542857D01*
X141591428Y-80590476D02*
X141639047Y-80542857D01*
X141639047Y-80542857D02*
X141781904Y-80447619D01*
X141781904Y-80447619D02*
X141877142Y-80400000D01*
X141877142Y-80400000D02*
X142020000Y-80352381D01*
X142020000Y-80352381D02*
X142258095Y-80304762D01*
X142258095Y-80304762D02*
X142448571Y-80304762D01*
X142448571Y-80304762D02*
X142686666Y-80352381D01*
X142686666Y-80352381D02*
X142829523Y-80400000D01*
X142829523Y-80400000D02*
X142924761Y-80447619D01*
X142924761Y-80447619D02*
X143067619Y-80542857D01*
X143067619Y-80542857D02*
X143115238Y-80590476D01*
X142020000Y-81352381D02*
X141972380Y-81257143D01*
X141972380Y-81257143D02*
X141972380Y-81066667D01*
X141972380Y-81066667D02*
X142020000Y-80971429D01*
X142020000Y-80971429D02*
X142115238Y-80923810D01*
X142115238Y-80923810D02*
X142496190Y-80923810D01*
X142496190Y-80923810D02*
X142591428Y-80971429D01*
X142591428Y-80971429D02*
X142639047Y-81066667D01*
X142639047Y-81066667D02*
X142639047Y-81257143D01*
X142639047Y-81257143D02*
X142591428Y-81352381D01*
X142591428Y-81352381D02*
X142496190Y-81400000D01*
X142496190Y-81400000D02*
X142400952Y-81400000D01*
X142400952Y-81400000D02*
X142305714Y-80923810D01*
X141591428Y-81733334D02*
X141639047Y-81780953D01*
X141639047Y-81780953D02*
X141781904Y-81876191D01*
X141781904Y-81876191D02*
X141877142Y-81923810D01*
X141877142Y-81923810D02*
X142020000Y-81971429D01*
X142020000Y-81971429D02*
X142258095Y-82019048D01*
X142258095Y-82019048D02*
X142448571Y-82019048D01*
X142448571Y-82019048D02*
X142686666Y-81971429D01*
X142686666Y-81971429D02*
X142829523Y-81923810D01*
X142829523Y-81923810D02*
X142924761Y-81876191D01*
X142924761Y-81876191D02*
X143067619Y-81780953D01*
X143067619Y-81780953D02*
X143115238Y-81733334D01*
X171738095Y-119570476D02*
X171738095Y-120046666D01*
X171452380Y-119475238D02*
X172452380Y-119808571D01*
X172452380Y-119808571D02*
X171452380Y-120141904D01*
X172452380Y-120380000D02*
X172452380Y-120999047D01*
X172452380Y-120999047D02*
X172071428Y-120665714D01*
X172071428Y-120665714D02*
X172071428Y-120808571D01*
X172071428Y-120808571D02*
X172023809Y-120903809D01*
X172023809Y-120903809D02*
X171976190Y-120951428D01*
X171976190Y-120951428D02*
X171880952Y-120999047D01*
X171880952Y-120999047D02*
X171642857Y-120999047D01*
X171642857Y-120999047D02*
X171547619Y-120951428D01*
X171547619Y-120951428D02*
X171500000Y-120903809D01*
X171500000Y-120903809D02*
X171452380Y-120808571D01*
X171452380Y-120808571D02*
X171452380Y-120522857D01*
X171452380Y-120522857D02*
X171500000Y-120427619D01*
X171500000Y-120427619D02*
X171547619Y-120380000D01*
X172023809Y-121570476D02*
X172071428Y-121475238D01*
X172071428Y-121475238D02*
X172119047Y-121427619D01*
X172119047Y-121427619D02*
X172214285Y-121380000D01*
X172214285Y-121380000D02*
X172261904Y-121380000D01*
X172261904Y-121380000D02*
X172357142Y-121427619D01*
X172357142Y-121427619D02*
X172404761Y-121475238D01*
X172404761Y-121475238D02*
X172452380Y-121570476D01*
X172452380Y-121570476D02*
X172452380Y-121760952D01*
X172452380Y-121760952D02*
X172404761Y-121856190D01*
X172404761Y-121856190D02*
X172357142Y-121903809D01*
X172357142Y-121903809D02*
X172261904Y-121951428D01*
X172261904Y-121951428D02*
X172214285Y-121951428D01*
X172214285Y-121951428D02*
X172119047Y-121903809D01*
X172119047Y-121903809D02*
X172071428Y-121856190D01*
X172071428Y-121856190D02*
X172023809Y-121760952D01*
X172023809Y-121760952D02*
X172023809Y-121570476D01*
X172023809Y-121570476D02*
X171976190Y-121475238D01*
X171976190Y-121475238D02*
X171928571Y-121427619D01*
X171928571Y-121427619D02*
X171833333Y-121380000D01*
X171833333Y-121380000D02*
X171642857Y-121380000D01*
X171642857Y-121380000D02*
X171547619Y-121427619D01*
X171547619Y-121427619D02*
X171500000Y-121475238D01*
X171500000Y-121475238D02*
X171452380Y-121570476D01*
X171452380Y-121570476D02*
X171452380Y-121760952D01*
X171452380Y-121760952D02*
X171500000Y-121856190D01*
X171500000Y-121856190D02*
X171547619Y-121903809D01*
X171547619Y-121903809D02*
X171642857Y-121951428D01*
X171642857Y-121951428D02*
X171833333Y-121951428D01*
X171833333Y-121951428D02*
X171928571Y-121903809D01*
X171928571Y-121903809D02*
X171976190Y-121856190D01*
X171976190Y-121856190D02*
X172023809Y-121760952D01*
X149632380Y-77498095D02*
X150632380Y-77498095D01*
X150632380Y-77498095D02*
X149918095Y-77831428D01*
X149918095Y-77831428D02*
X150632380Y-78164761D01*
X150632380Y-78164761D02*
X149632380Y-78164761D01*
X150632380Y-78831428D02*
X150632380Y-79021904D01*
X150632380Y-79021904D02*
X150584761Y-79117142D01*
X150584761Y-79117142D02*
X150489523Y-79212380D01*
X150489523Y-79212380D02*
X150299047Y-79259999D01*
X150299047Y-79259999D02*
X149965714Y-79259999D01*
X149965714Y-79259999D02*
X149775238Y-79212380D01*
X149775238Y-79212380D02*
X149680000Y-79117142D01*
X149680000Y-79117142D02*
X149632380Y-79021904D01*
X149632380Y-79021904D02*
X149632380Y-78831428D01*
X149632380Y-78831428D02*
X149680000Y-78736190D01*
X149680000Y-78736190D02*
X149775238Y-78640952D01*
X149775238Y-78640952D02*
X149965714Y-78593333D01*
X149965714Y-78593333D02*
X150299047Y-78593333D01*
X150299047Y-78593333D02*
X150489523Y-78640952D01*
X150489523Y-78640952D02*
X150584761Y-78736190D01*
X150584761Y-78736190D02*
X150632380Y-78831428D01*
X149680000Y-79640952D02*
X149632380Y-79783809D01*
X149632380Y-79783809D02*
X149632380Y-80021904D01*
X149632380Y-80021904D02*
X149680000Y-80117142D01*
X149680000Y-80117142D02*
X149727619Y-80164761D01*
X149727619Y-80164761D02*
X149822857Y-80212380D01*
X149822857Y-80212380D02*
X149918095Y-80212380D01*
X149918095Y-80212380D02*
X150013333Y-80164761D01*
X150013333Y-80164761D02*
X150060952Y-80117142D01*
X150060952Y-80117142D02*
X150108571Y-80021904D01*
X150108571Y-80021904D02*
X150156190Y-79831428D01*
X150156190Y-79831428D02*
X150203809Y-79736190D01*
X150203809Y-79736190D02*
X150251428Y-79688571D01*
X150251428Y-79688571D02*
X150346666Y-79640952D01*
X150346666Y-79640952D02*
X150441904Y-79640952D01*
X150441904Y-79640952D02*
X150537142Y-79688571D01*
X150537142Y-79688571D02*
X150584761Y-79736190D01*
X150584761Y-79736190D02*
X150632380Y-79831428D01*
X150632380Y-79831428D02*
X150632380Y-80069523D01*
X150632380Y-80069523D02*
X150584761Y-80212380D01*
X149632380Y-80640952D02*
X150632380Y-80640952D01*
X149251428Y-81402856D02*
X149299047Y-81355237D01*
X149299047Y-81355237D02*
X149441904Y-81259999D01*
X149441904Y-81259999D02*
X149537142Y-81212380D01*
X149537142Y-81212380D02*
X149680000Y-81164761D01*
X149680000Y-81164761D02*
X149918095Y-81117142D01*
X149918095Y-81117142D02*
X150108571Y-81117142D01*
X150108571Y-81117142D02*
X150346666Y-81164761D01*
X150346666Y-81164761D02*
X150489523Y-81212380D01*
X150489523Y-81212380D02*
X150584761Y-81259999D01*
X150584761Y-81259999D02*
X150727619Y-81355237D01*
X150727619Y-81355237D02*
X150775238Y-81402856D01*
X149632380Y-81783809D02*
X150299047Y-81783809D01*
X150108571Y-81783809D02*
X150203809Y-81831428D01*
X150203809Y-81831428D02*
X150251428Y-81879047D01*
X150251428Y-81879047D02*
X150299047Y-81974285D01*
X150299047Y-81974285D02*
X150299047Y-82069523D01*
X149251428Y-82307619D02*
X149299047Y-82355238D01*
X149299047Y-82355238D02*
X149441904Y-82450476D01*
X149441904Y-82450476D02*
X149537142Y-82498095D01*
X149537142Y-82498095D02*
X149680000Y-82545714D01*
X149680000Y-82545714D02*
X149918095Y-82593333D01*
X149918095Y-82593333D02*
X150108571Y-82593333D01*
X150108571Y-82593333D02*
X150346666Y-82545714D01*
X150346666Y-82545714D02*
X150489523Y-82498095D01*
X150489523Y-82498095D02*
X150584761Y-82450476D01*
X150584761Y-82450476D02*
X150727619Y-82355238D01*
X150727619Y-82355238D02*
X150775238Y-82307619D01*
X156285238Y-89127619D02*
X156856666Y-89127619D01*
X156570952Y-90127619D02*
X156570952Y-89127619D01*
X157094762Y-89127619D02*
X157761428Y-90127619D01*
X157761428Y-89127619D02*
X157094762Y-90127619D01*
X158666190Y-90127619D02*
X158094762Y-90127619D01*
X158380476Y-90127619D02*
X158380476Y-89127619D01*
X158380476Y-89127619D02*
X158285238Y-89270476D01*
X158285238Y-89270476D02*
X158190000Y-89365714D01*
X158190000Y-89365714D02*
X158094762Y-89413333D01*
X158827619Y-78109523D02*
X158780000Y-78061904D01*
X158780000Y-78061904D02*
X158732380Y-77919047D01*
X158732380Y-77919047D02*
X158732380Y-77823809D01*
X158732380Y-77823809D02*
X158780000Y-77680952D01*
X158780000Y-77680952D02*
X158875238Y-77585714D01*
X158875238Y-77585714D02*
X158970476Y-77538095D01*
X158970476Y-77538095D02*
X159160952Y-77490476D01*
X159160952Y-77490476D02*
X159303809Y-77490476D01*
X159303809Y-77490476D02*
X159494285Y-77538095D01*
X159494285Y-77538095D02*
X159589523Y-77585714D01*
X159589523Y-77585714D02*
X159684761Y-77680952D01*
X159684761Y-77680952D02*
X159732380Y-77823809D01*
X159732380Y-77823809D02*
X159732380Y-77919047D01*
X159732380Y-77919047D02*
X159684761Y-78061904D01*
X159684761Y-78061904D02*
X159637142Y-78109523D01*
X158732380Y-79109523D02*
X159208571Y-78776190D01*
X158732380Y-78538095D02*
X159732380Y-78538095D01*
X159732380Y-78538095D02*
X159732380Y-78919047D01*
X159732380Y-78919047D02*
X159684761Y-79014285D01*
X159684761Y-79014285D02*
X159637142Y-79061904D01*
X159637142Y-79061904D02*
X159541904Y-79109523D01*
X159541904Y-79109523D02*
X159399047Y-79109523D01*
X159399047Y-79109523D02*
X159303809Y-79061904D01*
X159303809Y-79061904D02*
X159256190Y-79014285D01*
X159256190Y-79014285D02*
X159208571Y-78919047D01*
X159208571Y-78919047D02*
X159208571Y-78538095D01*
X158780000Y-79490476D02*
X158732380Y-79633333D01*
X158732380Y-79633333D02*
X158732380Y-79871428D01*
X158732380Y-79871428D02*
X158780000Y-79966666D01*
X158780000Y-79966666D02*
X158827619Y-80014285D01*
X158827619Y-80014285D02*
X158922857Y-80061904D01*
X158922857Y-80061904D02*
X159018095Y-80061904D01*
X159018095Y-80061904D02*
X159113333Y-80014285D01*
X159113333Y-80014285D02*
X159160952Y-79966666D01*
X159160952Y-79966666D02*
X159208571Y-79871428D01*
X159208571Y-79871428D02*
X159256190Y-79680952D01*
X159256190Y-79680952D02*
X159303809Y-79585714D01*
X159303809Y-79585714D02*
X159351428Y-79538095D01*
X159351428Y-79538095D02*
X159446666Y-79490476D01*
X159446666Y-79490476D02*
X159541904Y-79490476D01*
X159541904Y-79490476D02*
X159637142Y-79538095D01*
X159637142Y-79538095D02*
X159684761Y-79585714D01*
X159684761Y-79585714D02*
X159732380Y-79680952D01*
X159732380Y-79680952D02*
X159732380Y-79919047D01*
X159732380Y-79919047D02*
X159684761Y-80061904D01*
X158351428Y-80776190D02*
X158399047Y-80728571D01*
X158399047Y-80728571D02*
X158541904Y-80633333D01*
X158541904Y-80633333D02*
X158637142Y-80585714D01*
X158637142Y-80585714D02*
X158780000Y-80538095D01*
X158780000Y-80538095D02*
X159018095Y-80490476D01*
X159018095Y-80490476D02*
X159208571Y-80490476D01*
X159208571Y-80490476D02*
X159446666Y-80538095D01*
X159446666Y-80538095D02*
X159589523Y-80585714D01*
X159589523Y-80585714D02*
X159684761Y-80633333D01*
X159684761Y-80633333D02*
X159827619Y-80728571D01*
X159827619Y-80728571D02*
X159875238Y-80776190D01*
X158780000Y-81538095D02*
X158732380Y-81442857D01*
X158732380Y-81442857D02*
X158732380Y-81252381D01*
X158732380Y-81252381D02*
X158780000Y-81157143D01*
X158780000Y-81157143D02*
X158875238Y-81109524D01*
X158875238Y-81109524D02*
X159256190Y-81109524D01*
X159256190Y-81109524D02*
X159351428Y-81157143D01*
X159351428Y-81157143D02*
X159399047Y-81252381D01*
X159399047Y-81252381D02*
X159399047Y-81442857D01*
X159399047Y-81442857D02*
X159351428Y-81538095D01*
X159351428Y-81538095D02*
X159256190Y-81585714D01*
X159256190Y-81585714D02*
X159160952Y-81585714D01*
X159160952Y-81585714D02*
X159065714Y-81109524D01*
X158351428Y-81919048D02*
X158399047Y-81966667D01*
X158399047Y-81966667D02*
X158541904Y-82061905D01*
X158541904Y-82061905D02*
X158637142Y-82109524D01*
X158637142Y-82109524D02*
X158780000Y-82157143D01*
X158780000Y-82157143D02*
X159018095Y-82204762D01*
X159018095Y-82204762D02*
X159208571Y-82204762D01*
X159208571Y-82204762D02*
X159446666Y-82157143D01*
X159446666Y-82157143D02*
X159589523Y-82109524D01*
X159589523Y-82109524D02*
X159684761Y-82061905D01*
X159684761Y-82061905D02*
X159827619Y-81966667D01*
X159827619Y-81966667D02*
X159875238Y-81919048D01*
X143684047Y-110568095D02*
X143017380Y-110568095D01*
X143588809Y-110568095D02*
X143636428Y-110615714D01*
X143636428Y-110615714D02*
X143684047Y-110710952D01*
X143684047Y-110710952D02*
X143684047Y-110853809D01*
X143684047Y-110853809D02*
X143636428Y-110949047D01*
X143636428Y-110949047D02*
X143541190Y-110996666D01*
X143541190Y-110996666D02*
X143017380Y-110996666D01*
X143017380Y-111472857D02*
X144017380Y-111472857D01*
X143017380Y-111949047D02*
X144017380Y-111949047D01*
X144017380Y-111949047D02*
X143017380Y-112520475D01*
X143017380Y-112520475D02*
X144017380Y-112520475D01*
X144017380Y-112853809D02*
X144017380Y-113425237D01*
X143017380Y-113139523D02*
X144017380Y-113139523D01*
X141492619Y-111139523D02*
X141445000Y-111091904D01*
X141445000Y-111091904D02*
X141397380Y-110949047D01*
X141397380Y-110949047D02*
X141397380Y-110853809D01*
X141397380Y-110853809D02*
X141445000Y-110710952D01*
X141445000Y-110710952D02*
X141540238Y-110615714D01*
X141540238Y-110615714D02*
X141635476Y-110568095D01*
X141635476Y-110568095D02*
X141825952Y-110520476D01*
X141825952Y-110520476D02*
X141968809Y-110520476D01*
X141968809Y-110520476D02*
X142159285Y-110568095D01*
X142159285Y-110568095D02*
X142254523Y-110615714D01*
X142254523Y-110615714D02*
X142349761Y-110710952D01*
X142349761Y-110710952D02*
X142397380Y-110853809D01*
X142397380Y-110853809D02*
X142397380Y-110949047D01*
X142397380Y-110949047D02*
X142349761Y-111091904D01*
X142349761Y-111091904D02*
X142302142Y-111139523D01*
X142397380Y-111472857D02*
X142397380Y-112091904D01*
X142397380Y-112091904D02*
X142016428Y-111758571D01*
X142016428Y-111758571D02*
X142016428Y-111901428D01*
X142016428Y-111901428D02*
X141968809Y-111996666D01*
X141968809Y-111996666D02*
X141921190Y-112044285D01*
X141921190Y-112044285D02*
X141825952Y-112091904D01*
X141825952Y-112091904D02*
X141587857Y-112091904D01*
X141587857Y-112091904D02*
X141492619Y-112044285D01*
X141492619Y-112044285D02*
X141445000Y-111996666D01*
X141445000Y-111996666D02*
X141397380Y-111901428D01*
X141397380Y-111901428D02*
X141397380Y-111615714D01*
X141397380Y-111615714D02*
X141445000Y-111520476D01*
X141445000Y-111520476D02*
X141492619Y-111472857D01*
X122837380Y-84123095D02*
X123837380Y-84123095D01*
X123837380Y-84123095D02*
X123837380Y-84361190D01*
X123837380Y-84361190D02*
X123789761Y-84504047D01*
X123789761Y-84504047D02*
X123694523Y-84599285D01*
X123694523Y-84599285D02*
X123599285Y-84646904D01*
X123599285Y-84646904D02*
X123408809Y-84694523D01*
X123408809Y-84694523D02*
X123265952Y-84694523D01*
X123265952Y-84694523D02*
X123075476Y-84646904D01*
X123075476Y-84646904D02*
X122980238Y-84599285D01*
X122980238Y-84599285D02*
X122885000Y-84504047D01*
X122885000Y-84504047D02*
X122837380Y-84361190D01*
X122837380Y-84361190D02*
X122837380Y-84123095D01*
X123837380Y-85027857D02*
X123837380Y-85646904D01*
X123837380Y-85646904D02*
X123456428Y-85313571D01*
X123456428Y-85313571D02*
X123456428Y-85456428D01*
X123456428Y-85456428D02*
X123408809Y-85551666D01*
X123408809Y-85551666D02*
X123361190Y-85599285D01*
X123361190Y-85599285D02*
X123265952Y-85646904D01*
X123265952Y-85646904D02*
X123027857Y-85646904D01*
X123027857Y-85646904D02*
X122932619Y-85599285D01*
X122932619Y-85599285D02*
X122885000Y-85551666D01*
X122885000Y-85551666D02*
X122837380Y-85456428D01*
X122837380Y-85456428D02*
X122837380Y-85170714D01*
X122837380Y-85170714D02*
X122885000Y-85075476D01*
X122885000Y-85075476D02*
X122932619Y-85027857D01*
X123742142Y-86027857D02*
X123789761Y-86075476D01*
X123789761Y-86075476D02*
X123837380Y-86170714D01*
X123837380Y-86170714D02*
X123837380Y-86408809D01*
X123837380Y-86408809D02*
X123789761Y-86504047D01*
X123789761Y-86504047D02*
X123742142Y-86551666D01*
X123742142Y-86551666D02*
X123646904Y-86599285D01*
X123646904Y-86599285D02*
X123551666Y-86599285D01*
X123551666Y-86599285D02*
X123408809Y-86551666D01*
X123408809Y-86551666D02*
X122837380Y-85980238D01*
X122837380Y-85980238D02*
X122837380Y-86599285D01*
X121217380Y-84123095D02*
X122217380Y-84123095D01*
X122217380Y-84123095D02*
X122217380Y-84361190D01*
X122217380Y-84361190D02*
X122169761Y-84504047D01*
X122169761Y-84504047D02*
X122074523Y-84599285D01*
X122074523Y-84599285D02*
X121979285Y-84646904D01*
X121979285Y-84646904D02*
X121788809Y-84694523D01*
X121788809Y-84694523D02*
X121645952Y-84694523D01*
X121645952Y-84694523D02*
X121455476Y-84646904D01*
X121455476Y-84646904D02*
X121360238Y-84599285D01*
X121360238Y-84599285D02*
X121265000Y-84504047D01*
X121265000Y-84504047D02*
X121217380Y-84361190D01*
X121217380Y-84361190D02*
X121217380Y-84123095D01*
X122217380Y-85027857D02*
X122217380Y-85646904D01*
X122217380Y-85646904D02*
X121836428Y-85313571D01*
X121836428Y-85313571D02*
X121836428Y-85456428D01*
X121836428Y-85456428D02*
X121788809Y-85551666D01*
X121788809Y-85551666D02*
X121741190Y-85599285D01*
X121741190Y-85599285D02*
X121645952Y-85646904D01*
X121645952Y-85646904D02*
X121407857Y-85646904D01*
X121407857Y-85646904D02*
X121312619Y-85599285D01*
X121312619Y-85599285D02*
X121265000Y-85551666D01*
X121265000Y-85551666D02*
X121217380Y-85456428D01*
X121217380Y-85456428D02*
X121217380Y-85170714D01*
X121217380Y-85170714D02*
X121265000Y-85075476D01*
X121265000Y-85075476D02*
X121312619Y-85027857D01*
X122217380Y-85980238D02*
X122217380Y-86599285D01*
X122217380Y-86599285D02*
X121836428Y-86265952D01*
X121836428Y-86265952D02*
X121836428Y-86408809D01*
X121836428Y-86408809D02*
X121788809Y-86504047D01*
X121788809Y-86504047D02*
X121741190Y-86551666D01*
X121741190Y-86551666D02*
X121645952Y-86599285D01*
X121645952Y-86599285D02*
X121407857Y-86599285D01*
X121407857Y-86599285D02*
X121312619Y-86551666D01*
X121312619Y-86551666D02*
X121265000Y-86504047D01*
X121265000Y-86504047D02*
X121217380Y-86408809D01*
X121217380Y-86408809D02*
X121217380Y-86123095D01*
X121217380Y-86123095D02*
X121265000Y-86027857D01*
X121265000Y-86027857D02*
X121312619Y-85980238D01*
X156260000Y-77500476D02*
X156212380Y-77643333D01*
X156212380Y-77643333D02*
X156212380Y-77881428D01*
X156212380Y-77881428D02*
X156260000Y-77976666D01*
X156260000Y-77976666D02*
X156307619Y-78024285D01*
X156307619Y-78024285D02*
X156402857Y-78071904D01*
X156402857Y-78071904D02*
X156498095Y-78071904D01*
X156498095Y-78071904D02*
X156593333Y-78024285D01*
X156593333Y-78024285D02*
X156640952Y-77976666D01*
X156640952Y-77976666D02*
X156688571Y-77881428D01*
X156688571Y-77881428D02*
X156736190Y-77690952D01*
X156736190Y-77690952D02*
X156783809Y-77595714D01*
X156783809Y-77595714D02*
X156831428Y-77548095D01*
X156831428Y-77548095D02*
X156926666Y-77500476D01*
X156926666Y-77500476D02*
X157021904Y-77500476D01*
X157021904Y-77500476D02*
X157117142Y-77548095D01*
X157117142Y-77548095D02*
X157164761Y-77595714D01*
X157164761Y-77595714D02*
X157212380Y-77690952D01*
X157212380Y-77690952D02*
X157212380Y-77929047D01*
X157212380Y-77929047D02*
X157164761Y-78071904D01*
X156307619Y-79071904D02*
X156260000Y-79024285D01*
X156260000Y-79024285D02*
X156212380Y-78881428D01*
X156212380Y-78881428D02*
X156212380Y-78786190D01*
X156212380Y-78786190D02*
X156260000Y-78643333D01*
X156260000Y-78643333D02*
X156355238Y-78548095D01*
X156355238Y-78548095D02*
X156450476Y-78500476D01*
X156450476Y-78500476D02*
X156640952Y-78452857D01*
X156640952Y-78452857D02*
X156783809Y-78452857D01*
X156783809Y-78452857D02*
X156974285Y-78500476D01*
X156974285Y-78500476D02*
X157069523Y-78548095D01*
X157069523Y-78548095D02*
X157164761Y-78643333D01*
X157164761Y-78643333D02*
X157212380Y-78786190D01*
X157212380Y-78786190D02*
X157212380Y-78881428D01*
X157212380Y-78881428D02*
X157164761Y-79024285D01*
X157164761Y-79024285D02*
X157117142Y-79071904D01*
X156212380Y-79500476D02*
X157212380Y-79500476D01*
X156212380Y-80071904D02*
X156783809Y-79643333D01*
X157212380Y-80071904D02*
X156640952Y-79500476D01*
X155831428Y-80786190D02*
X155879047Y-80738571D01*
X155879047Y-80738571D02*
X156021904Y-80643333D01*
X156021904Y-80643333D02*
X156117142Y-80595714D01*
X156117142Y-80595714D02*
X156260000Y-80548095D01*
X156260000Y-80548095D02*
X156498095Y-80500476D01*
X156498095Y-80500476D02*
X156688571Y-80500476D01*
X156688571Y-80500476D02*
X156926666Y-80548095D01*
X156926666Y-80548095D02*
X157069523Y-80595714D01*
X157069523Y-80595714D02*
X157164761Y-80643333D01*
X157164761Y-80643333D02*
X157307619Y-80738571D01*
X157307619Y-80738571D02*
X157355238Y-80786190D01*
X156212380Y-81167143D02*
X156879047Y-81167143D01*
X156688571Y-81167143D02*
X156783809Y-81214762D01*
X156783809Y-81214762D02*
X156831428Y-81262381D01*
X156831428Y-81262381D02*
X156879047Y-81357619D01*
X156879047Y-81357619D02*
X156879047Y-81452857D01*
X155831428Y-81690953D02*
X155879047Y-81738572D01*
X155879047Y-81738572D02*
X156021904Y-81833810D01*
X156021904Y-81833810D02*
X156117142Y-81881429D01*
X156117142Y-81881429D02*
X156260000Y-81929048D01*
X156260000Y-81929048D02*
X156498095Y-81976667D01*
X156498095Y-81976667D02*
X156688571Y-81976667D01*
X156688571Y-81976667D02*
X156926666Y-81929048D01*
X156926666Y-81929048D02*
X157069523Y-81881429D01*
X157069523Y-81881429D02*
X157164761Y-81833810D01*
X157164761Y-81833810D02*
X157307619Y-81738572D01*
X157307619Y-81738572D02*
X157355238Y-81690953D01*
X165639523Y-95237619D02*
X165306190Y-94761428D01*
X165068095Y-95237619D02*
X165068095Y-94237619D01*
X165068095Y-94237619D02*
X165449047Y-94237619D01*
X165449047Y-94237619D02*
X165544285Y-94285238D01*
X165544285Y-94285238D02*
X165591904Y-94332857D01*
X165591904Y-94332857D02*
X165639523Y-94428095D01*
X165639523Y-94428095D02*
X165639523Y-94570952D01*
X165639523Y-94570952D02*
X165591904Y-94666190D01*
X165591904Y-94666190D02*
X165544285Y-94713809D01*
X165544285Y-94713809D02*
X165449047Y-94761428D01*
X165449047Y-94761428D02*
X165068095Y-94761428D01*
X165972857Y-94237619D02*
X166639523Y-95237619D01*
X166639523Y-94237619D02*
X165972857Y-95237619D01*
X167544285Y-95237619D02*
X166972857Y-95237619D01*
X167258571Y-95237619D02*
X167258571Y-94237619D01*
X167258571Y-94237619D02*
X167163333Y-94380476D01*
X167163333Y-94380476D02*
X167068095Y-94475714D01*
X167068095Y-94475714D02*
X166972857Y-94523333D01*
X134402380Y-78069523D02*
X134878571Y-77736190D01*
X134402380Y-77498095D02*
X135402380Y-77498095D01*
X135402380Y-77498095D02*
X135402380Y-77879047D01*
X135402380Y-77879047D02*
X135354761Y-77974285D01*
X135354761Y-77974285D02*
X135307142Y-78021904D01*
X135307142Y-78021904D02*
X135211904Y-78069523D01*
X135211904Y-78069523D02*
X135069047Y-78069523D01*
X135069047Y-78069523D02*
X134973809Y-78021904D01*
X134973809Y-78021904D02*
X134926190Y-77974285D01*
X134926190Y-77974285D02*
X134878571Y-77879047D01*
X134878571Y-77879047D02*
X134878571Y-77498095D01*
X134450000Y-78450476D02*
X134402380Y-78593333D01*
X134402380Y-78593333D02*
X134402380Y-78831428D01*
X134402380Y-78831428D02*
X134450000Y-78926666D01*
X134450000Y-78926666D02*
X134497619Y-78974285D01*
X134497619Y-78974285D02*
X134592857Y-79021904D01*
X134592857Y-79021904D02*
X134688095Y-79021904D01*
X134688095Y-79021904D02*
X134783333Y-78974285D01*
X134783333Y-78974285D02*
X134830952Y-78926666D01*
X134830952Y-78926666D02*
X134878571Y-78831428D01*
X134878571Y-78831428D02*
X134926190Y-78640952D01*
X134926190Y-78640952D02*
X134973809Y-78545714D01*
X134973809Y-78545714D02*
X135021428Y-78498095D01*
X135021428Y-78498095D02*
X135116666Y-78450476D01*
X135116666Y-78450476D02*
X135211904Y-78450476D01*
X135211904Y-78450476D02*
X135307142Y-78498095D01*
X135307142Y-78498095D02*
X135354761Y-78545714D01*
X135354761Y-78545714D02*
X135402380Y-78640952D01*
X135402380Y-78640952D02*
X135402380Y-78879047D01*
X135402380Y-78879047D02*
X135354761Y-79021904D01*
X135402380Y-79307619D02*
X135402380Y-79879047D01*
X134402380Y-79593333D02*
X135402380Y-79593333D01*
X132822380Y-77485238D02*
X132822380Y-78056666D01*
X131822380Y-77770952D02*
X132822380Y-77770952D01*
X132822380Y-78294762D02*
X131822380Y-78961428D01*
X132822380Y-78961428D02*
X131822380Y-78294762D01*
X131917619Y-79342381D02*
X131870000Y-79390000D01*
X131870000Y-79390000D02*
X131822380Y-79342381D01*
X131822380Y-79342381D02*
X131870000Y-79294762D01*
X131870000Y-79294762D02*
X131917619Y-79342381D01*
X131917619Y-79342381D02*
X131822380Y-79342381D01*
X132346190Y-79818571D02*
X132346190Y-80151904D01*
X131822380Y-80294761D02*
X131822380Y-79818571D01*
X131822380Y-79818571D02*
X132822380Y-79818571D01*
X132822380Y-79818571D02*
X132822380Y-80294761D01*
X131822380Y-80723333D02*
X132822380Y-80723333D01*
X132822380Y-80723333D02*
X131822380Y-81294761D01*
X131822380Y-81294761D02*
X132822380Y-81294761D01*
X131441428Y-82056666D02*
X131489047Y-82009047D01*
X131489047Y-82009047D02*
X131631904Y-81913809D01*
X131631904Y-81913809D02*
X131727142Y-81866190D01*
X131727142Y-81866190D02*
X131870000Y-81818571D01*
X131870000Y-81818571D02*
X132108095Y-81770952D01*
X132108095Y-81770952D02*
X132298571Y-81770952D01*
X132298571Y-81770952D02*
X132536666Y-81818571D01*
X132536666Y-81818571D02*
X132679523Y-81866190D01*
X132679523Y-81866190D02*
X132774761Y-81913809D01*
X132774761Y-81913809D02*
X132917619Y-82009047D01*
X132917619Y-82009047D02*
X132965238Y-82056666D01*
X131870000Y-82818571D02*
X131822380Y-82723333D01*
X131822380Y-82723333D02*
X131822380Y-82532857D01*
X131822380Y-82532857D02*
X131870000Y-82437619D01*
X131870000Y-82437619D02*
X131965238Y-82390000D01*
X131965238Y-82390000D02*
X132346190Y-82390000D01*
X132346190Y-82390000D02*
X132441428Y-82437619D01*
X132441428Y-82437619D02*
X132489047Y-82532857D01*
X132489047Y-82532857D02*
X132489047Y-82723333D01*
X132489047Y-82723333D02*
X132441428Y-82818571D01*
X132441428Y-82818571D02*
X132346190Y-82866190D01*
X132346190Y-82866190D02*
X132250952Y-82866190D01*
X132250952Y-82866190D02*
X132155714Y-82390000D01*
X131441428Y-83199524D02*
X131489047Y-83247143D01*
X131489047Y-83247143D02*
X131631904Y-83342381D01*
X131631904Y-83342381D02*
X131727142Y-83390000D01*
X131727142Y-83390000D02*
X131870000Y-83437619D01*
X131870000Y-83437619D02*
X132108095Y-83485238D01*
X132108095Y-83485238D02*
X132298571Y-83485238D01*
X132298571Y-83485238D02*
X132536666Y-83437619D01*
X132536666Y-83437619D02*
X132679523Y-83390000D01*
X132679523Y-83390000D02*
X132774761Y-83342381D01*
X132774761Y-83342381D02*
X132917619Y-83247143D01*
X132917619Y-83247143D02*
X132965238Y-83199524D01*
X118858095Y-107383809D02*
X119191428Y-107383809D01*
X119334285Y-107907619D02*
X118858095Y-107907619D01*
X118858095Y-107907619D02*
X118858095Y-106907619D01*
X118858095Y-106907619D02*
X119334285Y-106907619D01*
X119620000Y-106907619D02*
X120191428Y-106907619D01*
X119905714Y-107907619D02*
X119905714Y-106907619D01*
X120524762Y-107907619D02*
X120524762Y-106907619D01*
X120524762Y-107383809D02*
X121096190Y-107383809D01*
X121096190Y-107907619D02*
X121096190Y-106907619D01*
X122810476Y-107907619D02*
X122334286Y-107907619D01*
X122334286Y-107907619D02*
X122334286Y-106907619D01*
X123096191Y-107621904D02*
X123572381Y-107621904D01*
X123000953Y-107907619D02*
X123334286Y-106907619D01*
X123334286Y-106907619D02*
X123667619Y-107907619D01*
X124000953Y-107907619D02*
X124000953Y-106907619D01*
X124000953Y-106907619D02*
X124572381Y-107907619D01*
X124572381Y-107907619D02*
X124572381Y-106907619D01*
X125191429Y-107336190D02*
X125096191Y-107288571D01*
X125096191Y-107288571D02*
X125048572Y-107240952D01*
X125048572Y-107240952D02*
X125000953Y-107145714D01*
X125000953Y-107145714D02*
X125000953Y-107098095D01*
X125000953Y-107098095D02*
X125048572Y-107002857D01*
X125048572Y-107002857D02*
X125096191Y-106955238D01*
X125096191Y-106955238D02*
X125191429Y-106907619D01*
X125191429Y-106907619D02*
X125381905Y-106907619D01*
X125381905Y-106907619D02*
X125477143Y-106955238D01*
X125477143Y-106955238D02*
X125524762Y-107002857D01*
X125524762Y-107002857D02*
X125572381Y-107098095D01*
X125572381Y-107098095D02*
X125572381Y-107145714D01*
X125572381Y-107145714D02*
X125524762Y-107240952D01*
X125524762Y-107240952D02*
X125477143Y-107288571D01*
X125477143Y-107288571D02*
X125381905Y-107336190D01*
X125381905Y-107336190D02*
X125191429Y-107336190D01*
X125191429Y-107336190D02*
X125096191Y-107383809D01*
X125096191Y-107383809D02*
X125048572Y-107431428D01*
X125048572Y-107431428D02*
X125000953Y-107526666D01*
X125000953Y-107526666D02*
X125000953Y-107717142D01*
X125000953Y-107717142D02*
X125048572Y-107812380D01*
X125048572Y-107812380D02*
X125096191Y-107860000D01*
X125096191Y-107860000D02*
X125191429Y-107907619D01*
X125191429Y-107907619D02*
X125381905Y-107907619D01*
X125381905Y-107907619D02*
X125477143Y-107860000D01*
X125477143Y-107860000D02*
X125524762Y-107812380D01*
X125524762Y-107812380D02*
X125572381Y-107717142D01*
X125572381Y-107717142D02*
X125572381Y-107526666D01*
X125572381Y-107526666D02*
X125524762Y-107431428D01*
X125524762Y-107431428D02*
X125477143Y-107383809D01*
X125477143Y-107383809D02*
X125381905Y-107336190D01*
X125905715Y-106907619D02*
X126572381Y-106907619D01*
X126572381Y-106907619D02*
X126143810Y-107907619D01*
X126905715Y-107002857D02*
X126953334Y-106955238D01*
X126953334Y-106955238D02*
X127048572Y-106907619D01*
X127048572Y-106907619D02*
X127286667Y-106907619D01*
X127286667Y-106907619D02*
X127381905Y-106955238D01*
X127381905Y-106955238D02*
X127429524Y-107002857D01*
X127429524Y-107002857D02*
X127477143Y-107098095D01*
X127477143Y-107098095D02*
X127477143Y-107193333D01*
X127477143Y-107193333D02*
X127429524Y-107336190D01*
X127429524Y-107336190D02*
X126858096Y-107907619D01*
X126858096Y-107907619D02*
X127477143Y-107907619D01*
X128096191Y-106907619D02*
X128191429Y-106907619D01*
X128191429Y-106907619D02*
X128286667Y-106955238D01*
X128286667Y-106955238D02*
X128334286Y-107002857D01*
X128334286Y-107002857D02*
X128381905Y-107098095D01*
X128381905Y-107098095D02*
X128429524Y-107288571D01*
X128429524Y-107288571D02*
X128429524Y-107526666D01*
X128429524Y-107526666D02*
X128381905Y-107717142D01*
X128381905Y-107717142D02*
X128334286Y-107812380D01*
X128334286Y-107812380D02*
X128286667Y-107860000D01*
X128286667Y-107860000D02*
X128191429Y-107907619D01*
X128191429Y-107907619D02*
X128096191Y-107907619D01*
X128096191Y-107907619D02*
X128000953Y-107860000D01*
X128000953Y-107860000D02*
X127953334Y-107812380D01*
X127953334Y-107812380D02*
X127905715Y-107717142D01*
X127905715Y-107717142D02*
X127858096Y-107526666D01*
X127858096Y-107526666D02*
X127858096Y-107288571D01*
X127858096Y-107288571D02*
X127905715Y-107098095D01*
X127905715Y-107098095D02*
X127953334Y-107002857D01*
X127953334Y-107002857D02*
X128000953Y-106955238D01*
X128000953Y-106955238D02*
X128096191Y-106907619D01*
X144562380Y-77488095D02*
X145562380Y-77488095D01*
X145562380Y-77488095D02*
X144848095Y-77821428D01*
X144848095Y-77821428D02*
X145562380Y-78154761D01*
X145562380Y-78154761D02*
X144562380Y-78154761D01*
X144562380Y-78630952D02*
X145562380Y-78630952D01*
X145562380Y-78630952D02*
X145562380Y-78869047D01*
X145562380Y-78869047D02*
X145514761Y-79011904D01*
X145514761Y-79011904D02*
X145419523Y-79107142D01*
X145419523Y-79107142D02*
X145324285Y-79154761D01*
X145324285Y-79154761D02*
X145133809Y-79202380D01*
X145133809Y-79202380D02*
X144990952Y-79202380D01*
X144990952Y-79202380D02*
X144800476Y-79154761D01*
X144800476Y-79154761D02*
X144705238Y-79107142D01*
X144705238Y-79107142D02*
X144610000Y-79011904D01*
X144610000Y-79011904D02*
X144562380Y-78869047D01*
X144562380Y-78869047D02*
X144562380Y-78630952D01*
X144657619Y-80202380D02*
X144610000Y-80154761D01*
X144610000Y-80154761D02*
X144562380Y-80011904D01*
X144562380Y-80011904D02*
X144562380Y-79916666D01*
X144562380Y-79916666D02*
X144610000Y-79773809D01*
X144610000Y-79773809D02*
X144705238Y-79678571D01*
X144705238Y-79678571D02*
X144800476Y-79630952D01*
X144800476Y-79630952D02*
X144990952Y-79583333D01*
X144990952Y-79583333D02*
X145133809Y-79583333D01*
X145133809Y-79583333D02*
X145324285Y-79630952D01*
X145324285Y-79630952D02*
X145419523Y-79678571D01*
X145419523Y-79678571D02*
X145514761Y-79773809D01*
X145514761Y-79773809D02*
X145562380Y-79916666D01*
X145562380Y-79916666D02*
X145562380Y-80011904D01*
X145562380Y-80011904D02*
X145514761Y-80154761D01*
X145514761Y-80154761D02*
X145467142Y-80202380D01*
X144181428Y-80916666D02*
X144229047Y-80869047D01*
X144229047Y-80869047D02*
X144371904Y-80773809D01*
X144371904Y-80773809D02*
X144467142Y-80726190D01*
X144467142Y-80726190D02*
X144610000Y-80678571D01*
X144610000Y-80678571D02*
X144848095Y-80630952D01*
X144848095Y-80630952D02*
X145038571Y-80630952D01*
X145038571Y-80630952D02*
X145276666Y-80678571D01*
X145276666Y-80678571D02*
X145419523Y-80726190D01*
X145419523Y-80726190D02*
X145514761Y-80773809D01*
X145514761Y-80773809D02*
X145657619Y-80869047D01*
X145657619Y-80869047D02*
X145705238Y-80916666D01*
X144610000Y-81678571D02*
X144562380Y-81583333D01*
X144562380Y-81583333D02*
X144562380Y-81392857D01*
X144562380Y-81392857D02*
X144610000Y-81297619D01*
X144610000Y-81297619D02*
X144705238Y-81250000D01*
X144705238Y-81250000D02*
X145086190Y-81250000D01*
X145086190Y-81250000D02*
X145181428Y-81297619D01*
X145181428Y-81297619D02*
X145229047Y-81392857D01*
X145229047Y-81392857D02*
X145229047Y-81583333D01*
X145229047Y-81583333D02*
X145181428Y-81678571D01*
X145181428Y-81678571D02*
X145086190Y-81726190D01*
X145086190Y-81726190D02*
X144990952Y-81726190D01*
X144990952Y-81726190D02*
X144895714Y-81250000D01*
X144181428Y-82059524D02*
X144229047Y-82107143D01*
X144229047Y-82107143D02*
X144371904Y-82202381D01*
X144371904Y-82202381D02*
X144467142Y-82250000D01*
X144467142Y-82250000D02*
X144610000Y-82297619D01*
X144610000Y-82297619D02*
X144848095Y-82345238D01*
X144848095Y-82345238D02*
X145038571Y-82345238D01*
X145038571Y-82345238D02*
X145276666Y-82297619D01*
X145276666Y-82297619D02*
X145419523Y-82250000D01*
X145419523Y-82250000D02*
X145514761Y-82202381D01*
X145514761Y-82202381D02*
X145657619Y-82107143D01*
X145657619Y-82107143D02*
X145705238Y-82059524D01*
X165068095Y-100337619D02*
X165068095Y-99337619D01*
X165068095Y-99337619D02*
X165401428Y-100051904D01*
X165401428Y-100051904D02*
X165734761Y-99337619D01*
X165734761Y-99337619D02*
X165734761Y-100337619D01*
X166210952Y-100337619D02*
X166210952Y-99337619D01*
X166210952Y-99337619D02*
X166449047Y-99337619D01*
X166449047Y-99337619D02*
X166591904Y-99385238D01*
X166591904Y-99385238D02*
X166687142Y-99480476D01*
X166687142Y-99480476D02*
X166734761Y-99575714D01*
X166734761Y-99575714D02*
X166782380Y-99766190D01*
X166782380Y-99766190D02*
X166782380Y-99909047D01*
X166782380Y-99909047D02*
X166734761Y-100099523D01*
X166734761Y-100099523D02*
X166687142Y-100194761D01*
X166687142Y-100194761D02*
X166591904Y-100290000D01*
X166591904Y-100290000D02*
X166449047Y-100337619D01*
X166449047Y-100337619D02*
X166210952Y-100337619D01*
X167782380Y-100242380D02*
X167734761Y-100290000D01*
X167734761Y-100290000D02*
X167591904Y-100337619D01*
X167591904Y-100337619D02*
X167496666Y-100337619D01*
X167496666Y-100337619D02*
X167353809Y-100290000D01*
X167353809Y-100290000D02*
X167258571Y-100194761D01*
X167258571Y-100194761D02*
X167210952Y-100099523D01*
X167210952Y-100099523D02*
X167163333Y-99909047D01*
X167163333Y-99909047D02*
X167163333Y-99766190D01*
X167163333Y-99766190D02*
X167210952Y-99575714D01*
X167210952Y-99575714D02*
X167258571Y-99480476D01*
X167258571Y-99480476D02*
X167353809Y-99385238D01*
X167353809Y-99385238D02*
X167496666Y-99337619D01*
X167496666Y-99337619D02*
X167591904Y-99337619D01*
X167591904Y-99337619D02*
X167734761Y-99385238D01*
X167734761Y-99385238D02*
X167782380Y-99432857D01*
X146587619Y-100944523D02*
X146540000Y-100896904D01*
X146540000Y-100896904D02*
X146492380Y-100754047D01*
X146492380Y-100754047D02*
X146492380Y-100658809D01*
X146492380Y-100658809D02*
X146540000Y-100515952D01*
X146540000Y-100515952D02*
X146635238Y-100420714D01*
X146635238Y-100420714D02*
X146730476Y-100373095D01*
X146730476Y-100373095D02*
X146920952Y-100325476D01*
X146920952Y-100325476D02*
X147063809Y-100325476D01*
X147063809Y-100325476D02*
X147254285Y-100373095D01*
X147254285Y-100373095D02*
X147349523Y-100420714D01*
X147349523Y-100420714D02*
X147444761Y-100515952D01*
X147444761Y-100515952D02*
X147492380Y-100658809D01*
X147492380Y-100658809D02*
X147492380Y-100754047D01*
X147492380Y-100754047D02*
X147444761Y-100896904D01*
X147444761Y-100896904D02*
X147397142Y-100944523D01*
X146492380Y-101896904D02*
X146492380Y-101325476D01*
X146492380Y-101611190D02*
X147492380Y-101611190D01*
X147492380Y-101611190D02*
X147349523Y-101515952D01*
X147349523Y-101515952D02*
X147254285Y-101420714D01*
X147254285Y-101420714D02*
X147206666Y-101325476D01*
X147016190Y-102325476D02*
X147016190Y-103087381D01*
X146730476Y-103087381D02*
X146730476Y-102325476D01*
X146492380Y-104087380D02*
X146492380Y-103515952D01*
X146492380Y-103801666D02*
X147492380Y-103801666D01*
X147492380Y-103801666D02*
X147349523Y-103706428D01*
X147349523Y-103706428D02*
X147254285Y-103611190D01*
X147254285Y-103611190D02*
X147206666Y-103515952D01*
X147492380Y-104706428D02*
X147492380Y-104801666D01*
X147492380Y-104801666D02*
X147444761Y-104896904D01*
X147444761Y-104896904D02*
X147397142Y-104944523D01*
X147397142Y-104944523D02*
X147301904Y-104992142D01*
X147301904Y-104992142D02*
X147111428Y-105039761D01*
X147111428Y-105039761D02*
X146873333Y-105039761D01*
X146873333Y-105039761D02*
X146682857Y-104992142D01*
X146682857Y-104992142D02*
X146587619Y-104944523D01*
X146587619Y-104944523D02*
X146540000Y-104896904D01*
X146540000Y-104896904D02*
X146492380Y-104801666D01*
X146492380Y-104801666D02*
X146492380Y-104706428D01*
X146492380Y-104706428D02*
X146540000Y-104611190D01*
X146540000Y-104611190D02*
X146587619Y-104563571D01*
X146587619Y-104563571D02*
X146682857Y-104515952D01*
X146682857Y-104515952D02*
X146873333Y-104468333D01*
X146873333Y-104468333D02*
X147111428Y-104468333D01*
X147111428Y-104468333D02*
X147301904Y-104515952D01*
X147301904Y-104515952D02*
X147397142Y-104563571D01*
X147397142Y-104563571D02*
X147444761Y-104611190D01*
X147444761Y-104611190D02*
X147492380Y-104706428D01*
X147492380Y-105658809D02*
X147492380Y-105754047D01*
X147492380Y-105754047D02*
X147444761Y-105849285D01*
X147444761Y-105849285D02*
X147397142Y-105896904D01*
X147397142Y-105896904D02*
X147301904Y-105944523D01*
X147301904Y-105944523D02*
X147111428Y-105992142D01*
X147111428Y-105992142D02*
X146873333Y-105992142D01*
X146873333Y-105992142D02*
X146682857Y-105944523D01*
X146682857Y-105944523D02*
X146587619Y-105896904D01*
X146587619Y-105896904D02*
X146540000Y-105849285D01*
X146540000Y-105849285D02*
X146492380Y-105754047D01*
X146492380Y-105754047D02*
X146492380Y-105658809D01*
X146492380Y-105658809D02*
X146540000Y-105563571D01*
X146540000Y-105563571D02*
X146587619Y-105515952D01*
X146587619Y-105515952D02*
X146682857Y-105468333D01*
X146682857Y-105468333D02*
X146873333Y-105420714D01*
X146873333Y-105420714D02*
X147111428Y-105420714D01*
X147111428Y-105420714D02*
X147301904Y-105468333D01*
X147301904Y-105468333D02*
X147397142Y-105515952D01*
X147397142Y-105515952D02*
X147444761Y-105563571D01*
X147444761Y-105563571D02*
X147492380Y-105658809D01*
X147159047Y-106420714D02*
X146492380Y-106420714D01*
X147063809Y-106420714D02*
X147111428Y-106468333D01*
X147111428Y-106468333D02*
X147159047Y-106563571D01*
X147159047Y-106563571D02*
X147159047Y-106706428D01*
X147159047Y-106706428D02*
X147111428Y-106801666D01*
X147111428Y-106801666D02*
X147016190Y-106849285D01*
X147016190Y-106849285D02*
X146492380Y-106849285D01*
X147016190Y-107658809D02*
X147016190Y-107325476D01*
X146492380Y-107325476D02*
X147492380Y-107325476D01*
X147492380Y-107325476D02*
X147492380Y-107801666D01*
X144967619Y-100944523D02*
X144920000Y-100896904D01*
X144920000Y-100896904D02*
X144872380Y-100754047D01*
X144872380Y-100754047D02*
X144872380Y-100658809D01*
X144872380Y-100658809D02*
X144920000Y-100515952D01*
X144920000Y-100515952D02*
X145015238Y-100420714D01*
X145015238Y-100420714D02*
X145110476Y-100373095D01*
X145110476Y-100373095D02*
X145300952Y-100325476D01*
X145300952Y-100325476D02*
X145443809Y-100325476D01*
X145443809Y-100325476D02*
X145634285Y-100373095D01*
X145634285Y-100373095D02*
X145729523Y-100420714D01*
X145729523Y-100420714D02*
X145824761Y-100515952D01*
X145824761Y-100515952D02*
X145872380Y-100658809D01*
X145872380Y-100658809D02*
X145872380Y-100754047D01*
X145872380Y-100754047D02*
X145824761Y-100896904D01*
X145824761Y-100896904D02*
X145777142Y-100944523D01*
X145777142Y-101325476D02*
X145824761Y-101373095D01*
X145824761Y-101373095D02*
X145872380Y-101468333D01*
X145872380Y-101468333D02*
X145872380Y-101706428D01*
X145872380Y-101706428D02*
X145824761Y-101801666D01*
X145824761Y-101801666D02*
X145777142Y-101849285D01*
X145777142Y-101849285D02*
X145681904Y-101896904D01*
X145681904Y-101896904D02*
X145586666Y-101896904D01*
X145586666Y-101896904D02*
X145443809Y-101849285D01*
X145443809Y-101849285D02*
X144872380Y-101277857D01*
X144872380Y-101277857D02*
X144872380Y-101896904D01*
X145396190Y-102325476D02*
X145396190Y-103087381D01*
X145110476Y-103087381D02*
X145110476Y-102325476D01*
X144872380Y-104087380D02*
X144872380Y-103515952D01*
X144872380Y-103801666D02*
X145872380Y-103801666D01*
X145872380Y-103801666D02*
X145729523Y-103706428D01*
X145729523Y-103706428D02*
X145634285Y-103611190D01*
X145634285Y-103611190D02*
X145586666Y-103515952D01*
X145872380Y-104706428D02*
X145872380Y-104801666D01*
X145872380Y-104801666D02*
X145824761Y-104896904D01*
X145824761Y-104896904D02*
X145777142Y-104944523D01*
X145777142Y-104944523D02*
X145681904Y-104992142D01*
X145681904Y-104992142D02*
X145491428Y-105039761D01*
X145491428Y-105039761D02*
X145253333Y-105039761D01*
X145253333Y-105039761D02*
X145062857Y-104992142D01*
X145062857Y-104992142D02*
X144967619Y-104944523D01*
X144967619Y-104944523D02*
X144920000Y-104896904D01*
X144920000Y-104896904D02*
X144872380Y-104801666D01*
X144872380Y-104801666D02*
X144872380Y-104706428D01*
X144872380Y-104706428D02*
X144920000Y-104611190D01*
X144920000Y-104611190D02*
X144967619Y-104563571D01*
X144967619Y-104563571D02*
X145062857Y-104515952D01*
X145062857Y-104515952D02*
X145253333Y-104468333D01*
X145253333Y-104468333D02*
X145491428Y-104468333D01*
X145491428Y-104468333D02*
X145681904Y-104515952D01*
X145681904Y-104515952D02*
X145777142Y-104563571D01*
X145777142Y-104563571D02*
X145824761Y-104611190D01*
X145824761Y-104611190D02*
X145872380Y-104706428D01*
X145872380Y-105658809D02*
X145872380Y-105754047D01*
X145872380Y-105754047D02*
X145824761Y-105849285D01*
X145824761Y-105849285D02*
X145777142Y-105896904D01*
X145777142Y-105896904D02*
X145681904Y-105944523D01*
X145681904Y-105944523D02*
X145491428Y-105992142D01*
X145491428Y-105992142D02*
X145253333Y-105992142D01*
X145253333Y-105992142D02*
X145062857Y-105944523D01*
X145062857Y-105944523D02*
X144967619Y-105896904D01*
X144967619Y-105896904D02*
X144920000Y-105849285D01*
X144920000Y-105849285D02*
X144872380Y-105754047D01*
X144872380Y-105754047D02*
X144872380Y-105658809D01*
X144872380Y-105658809D02*
X144920000Y-105563571D01*
X144920000Y-105563571D02*
X144967619Y-105515952D01*
X144967619Y-105515952D02*
X145062857Y-105468333D01*
X145062857Y-105468333D02*
X145253333Y-105420714D01*
X145253333Y-105420714D02*
X145491428Y-105420714D01*
X145491428Y-105420714D02*
X145681904Y-105468333D01*
X145681904Y-105468333D02*
X145777142Y-105515952D01*
X145777142Y-105515952D02*
X145824761Y-105563571D01*
X145824761Y-105563571D02*
X145872380Y-105658809D01*
X145539047Y-106420714D02*
X144872380Y-106420714D01*
X145443809Y-106420714D02*
X145491428Y-106468333D01*
X145491428Y-106468333D02*
X145539047Y-106563571D01*
X145539047Y-106563571D02*
X145539047Y-106706428D01*
X145539047Y-106706428D02*
X145491428Y-106801666D01*
X145491428Y-106801666D02*
X145396190Y-106849285D01*
X145396190Y-106849285D02*
X144872380Y-106849285D01*
X145396190Y-107658809D02*
X145396190Y-107325476D01*
X144872380Y-107325476D02*
X145872380Y-107325476D01*
X145872380Y-107325476D02*
X145872380Y-107801666D01*
X143347619Y-100944523D02*
X143300000Y-100896904D01*
X143300000Y-100896904D02*
X143252380Y-100754047D01*
X143252380Y-100754047D02*
X143252380Y-100658809D01*
X143252380Y-100658809D02*
X143300000Y-100515952D01*
X143300000Y-100515952D02*
X143395238Y-100420714D01*
X143395238Y-100420714D02*
X143490476Y-100373095D01*
X143490476Y-100373095D02*
X143680952Y-100325476D01*
X143680952Y-100325476D02*
X143823809Y-100325476D01*
X143823809Y-100325476D02*
X144014285Y-100373095D01*
X144014285Y-100373095D02*
X144109523Y-100420714D01*
X144109523Y-100420714D02*
X144204761Y-100515952D01*
X144204761Y-100515952D02*
X144252380Y-100658809D01*
X144252380Y-100658809D02*
X144252380Y-100754047D01*
X144252380Y-100754047D02*
X144204761Y-100896904D01*
X144204761Y-100896904D02*
X144157142Y-100944523D01*
X144252380Y-101277857D02*
X144252380Y-101896904D01*
X144252380Y-101896904D02*
X143871428Y-101563571D01*
X143871428Y-101563571D02*
X143871428Y-101706428D01*
X143871428Y-101706428D02*
X143823809Y-101801666D01*
X143823809Y-101801666D02*
X143776190Y-101849285D01*
X143776190Y-101849285D02*
X143680952Y-101896904D01*
X143680952Y-101896904D02*
X143442857Y-101896904D01*
X143442857Y-101896904D02*
X143347619Y-101849285D01*
X143347619Y-101849285D02*
X143300000Y-101801666D01*
X143300000Y-101801666D02*
X143252380Y-101706428D01*
X143252380Y-101706428D02*
X143252380Y-101420714D01*
X143252380Y-101420714D02*
X143300000Y-101325476D01*
X143300000Y-101325476D02*
X143347619Y-101277857D01*
X143776190Y-102325476D02*
X143776190Y-103087381D01*
X143490476Y-103087381D02*
X143490476Y-102325476D01*
X143252380Y-104087380D02*
X143252380Y-103515952D01*
X143252380Y-103801666D02*
X144252380Y-103801666D01*
X144252380Y-103801666D02*
X144109523Y-103706428D01*
X144109523Y-103706428D02*
X144014285Y-103611190D01*
X144014285Y-103611190D02*
X143966666Y-103515952D01*
X144252380Y-104706428D02*
X144252380Y-104801666D01*
X144252380Y-104801666D02*
X144204761Y-104896904D01*
X144204761Y-104896904D02*
X144157142Y-104944523D01*
X144157142Y-104944523D02*
X144061904Y-104992142D01*
X144061904Y-104992142D02*
X143871428Y-105039761D01*
X143871428Y-105039761D02*
X143633333Y-105039761D01*
X143633333Y-105039761D02*
X143442857Y-104992142D01*
X143442857Y-104992142D02*
X143347619Y-104944523D01*
X143347619Y-104944523D02*
X143300000Y-104896904D01*
X143300000Y-104896904D02*
X143252380Y-104801666D01*
X143252380Y-104801666D02*
X143252380Y-104706428D01*
X143252380Y-104706428D02*
X143300000Y-104611190D01*
X143300000Y-104611190D02*
X143347619Y-104563571D01*
X143347619Y-104563571D02*
X143442857Y-104515952D01*
X143442857Y-104515952D02*
X143633333Y-104468333D01*
X143633333Y-104468333D02*
X143871428Y-104468333D01*
X143871428Y-104468333D02*
X144061904Y-104515952D01*
X144061904Y-104515952D02*
X144157142Y-104563571D01*
X144157142Y-104563571D02*
X144204761Y-104611190D01*
X144204761Y-104611190D02*
X144252380Y-104706428D01*
X143919047Y-105896904D02*
X143252380Y-105896904D01*
X143919047Y-105468333D02*
X143395238Y-105468333D01*
X143395238Y-105468333D02*
X143300000Y-105515952D01*
X143300000Y-105515952D02*
X143252380Y-105611190D01*
X143252380Y-105611190D02*
X143252380Y-105754047D01*
X143252380Y-105754047D02*
X143300000Y-105849285D01*
X143300000Y-105849285D02*
X143347619Y-105896904D01*
X143776190Y-106706428D02*
X143776190Y-106373095D01*
X143252380Y-106373095D02*
X144252380Y-106373095D01*
X144252380Y-106373095D02*
X144252380Y-106849285D01*
X141727619Y-100944523D02*
X141680000Y-100896904D01*
X141680000Y-100896904D02*
X141632380Y-100754047D01*
X141632380Y-100754047D02*
X141632380Y-100658809D01*
X141632380Y-100658809D02*
X141680000Y-100515952D01*
X141680000Y-100515952D02*
X141775238Y-100420714D01*
X141775238Y-100420714D02*
X141870476Y-100373095D01*
X141870476Y-100373095D02*
X142060952Y-100325476D01*
X142060952Y-100325476D02*
X142203809Y-100325476D01*
X142203809Y-100325476D02*
X142394285Y-100373095D01*
X142394285Y-100373095D02*
X142489523Y-100420714D01*
X142489523Y-100420714D02*
X142584761Y-100515952D01*
X142584761Y-100515952D02*
X142632380Y-100658809D01*
X142632380Y-100658809D02*
X142632380Y-100754047D01*
X142632380Y-100754047D02*
X142584761Y-100896904D01*
X142584761Y-100896904D02*
X142537142Y-100944523D01*
X142299047Y-101801666D02*
X141632380Y-101801666D01*
X142680000Y-101563571D02*
X141965714Y-101325476D01*
X141965714Y-101325476D02*
X141965714Y-101944523D01*
X142156190Y-102325476D02*
X142156190Y-103087381D01*
X141870476Y-103087381D02*
X141870476Y-102325476D01*
X141632380Y-104087380D02*
X141632380Y-103515952D01*
X141632380Y-103801666D02*
X142632380Y-103801666D01*
X142632380Y-103801666D02*
X142489523Y-103706428D01*
X142489523Y-103706428D02*
X142394285Y-103611190D01*
X142394285Y-103611190D02*
X142346666Y-103515952D01*
X142299047Y-104944523D02*
X141632380Y-104944523D01*
X142299047Y-104515952D02*
X141775238Y-104515952D01*
X141775238Y-104515952D02*
X141680000Y-104563571D01*
X141680000Y-104563571D02*
X141632380Y-104658809D01*
X141632380Y-104658809D02*
X141632380Y-104801666D01*
X141632380Y-104801666D02*
X141680000Y-104896904D01*
X141680000Y-104896904D02*
X141727619Y-104944523D01*
X142156190Y-105754047D02*
X142156190Y-105420714D01*
X141632380Y-105420714D02*
X142632380Y-105420714D01*
X142632380Y-105420714D02*
X142632380Y-105896904D01*
X140107619Y-100944523D02*
X140060000Y-100896904D01*
X140060000Y-100896904D02*
X140012380Y-100754047D01*
X140012380Y-100754047D02*
X140012380Y-100658809D01*
X140012380Y-100658809D02*
X140060000Y-100515952D01*
X140060000Y-100515952D02*
X140155238Y-100420714D01*
X140155238Y-100420714D02*
X140250476Y-100373095D01*
X140250476Y-100373095D02*
X140440952Y-100325476D01*
X140440952Y-100325476D02*
X140583809Y-100325476D01*
X140583809Y-100325476D02*
X140774285Y-100373095D01*
X140774285Y-100373095D02*
X140869523Y-100420714D01*
X140869523Y-100420714D02*
X140964761Y-100515952D01*
X140964761Y-100515952D02*
X141012380Y-100658809D01*
X141012380Y-100658809D02*
X141012380Y-100754047D01*
X141012380Y-100754047D02*
X140964761Y-100896904D01*
X140964761Y-100896904D02*
X140917142Y-100944523D01*
X141012380Y-101849285D02*
X141012380Y-101373095D01*
X141012380Y-101373095D02*
X140536190Y-101325476D01*
X140536190Y-101325476D02*
X140583809Y-101373095D01*
X140583809Y-101373095D02*
X140631428Y-101468333D01*
X140631428Y-101468333D02*
X140631428Y-101706428D01*
X140631428Y-101706428D02*
X140583809Y-101801666D01*
X140583809Y-101801666D02*
X140536190Y-101849285D01*
X140536190Y-101849285D02*
X140440952Y-101896904D01*
X140440952Y-101896904D02*
X140202857Y-101896904D01*
X140202857Y-101896904D02*
X140107619Y-101849285D01*
X140107619Y-101849285D02*
X140060000Y-101801666D01*
X140060000Y-101801666D02*
X140012380Y-101706428D01*
X140012380Y-101706428D02*
X140012380Y-101468333D01*
X140012380Y-101468333D02*
X140060000Y-101373095D01*
X140060000Y-101373095D02*
X140107619Y-101325476D01*
X140536190Y-102325476D02*
X140536190Y-103087381D01*
X140250476Y-103087381D02*
X140250476Y-102325476D01*
X140012380Y-104087380D02*
X140012380Y-103515952D01*
X140012380Y-103801666D02*
X141012380Y-103801666D01*
X141012380Y-103801666D02*
X140869523Y-103706428D01*
X140869523Y-103706428D02*
X140774285Y-103611190D01*
X140774285Y-103611190D02*
X140726666Y-103515952D01*
X140679047Y-104944523D02*
X140012380Y-104944523D01*
X140679047Y-104515952D02*
X140155238Y-104515952D01*
X140155238Y-104515952D02*
X140060000Y-104563571D01*
X140060000Y-104563571D02*
X140012380Y-104658809D01*
X140012380Y-104658809D02*
X140012380Y-104801666D01*
X140012380Y-104801666D02*
X140060000Y-104896904D01*
X140060000Y-104896904D02*
X140107619Y-104944523D01*
X140679047Y-105277857D02*
X140679047Y-105658809D01*
X140012380Y-105420714D02*
X140869523Y-105420714D01*
X140869523Y-105420714D02*
X140964761Y-105468333D01*
X140964761Y-105468333D02*
X141012380Y-105563571D01*
X141012380Y-105563571D02*
X141012380Y-105658809D01*
X138392380Y-100944523D02*
X138868571Y-100611190D01*
X138392380Y-100373095D02*
X139392380Y-100373095D01*
X139392380Y-100373095D02*
X139392380Y-100754047D01*
X139392380Y-100754047D02*
X139344761Y-100849285D01*
X139344761Y-100849285D02*
X139297142Y-100896904D01*
X139297142Y-100896904D02*
X139201904Y-100944523D01*
X139201904Y-100944523D02*
X139059047Y-100944523D01*
X139059047Y-100944523D02*
X138963809Y-100896904D01*
X138963809Y-100896904D02*
X138916190Y-100849285D01*
X138916190Y-100849285D02*
X138868571Y-100754047D01*
X138868571Y-100754047D02*
X138868571Y-100373095D01*
X138392380Y-101896904D02*
X138392380Y-101325476D01*
X138392380Y-101611190D02*
X139392380Y-101611190D01*
X139392380Y-101611190D02*
X139249523Y-101515952D01*
X139249523Y-101515952D02*
X139154285Y-101420714D01*
X139154285Y-101420714D02*
X139106666Y-101325476D01*
X138916190Y-102325476D02*
X138916190Y-103087381D01*
X138630476Y-103087381D02*
X138630476Y-102325476D01*
X139059047Y-103992142D02*
X138392380Y-103992142D01*
X139440000Y-103754047D02*
X138725714Y-103515952D01*
X138725714Y-103515952D02*
X138725714Y-104134999D01*
X138392380Y-104515952D02*
X139392380Y-104515952D01*
X138392380Y-105087380D02*
X138963809Y-104658809D01*
X139392380Y-105087380D02*
X138820952Y-104515952D01*
X139392380Y-105420714D02*
X139392380Y-106087380D01*
X139392380Y-106087380D02*
X138392380Y-105658809D01*
X167878333Y-110449048D02*
X167878333Y-111210953D01*
X167497380Y-110830000D02*
X168259285Y-110830000D01*
X165679523Y-97672380D02*
X165631904Y-97720000D01*
X165631904Y-97720000D02*
X165489047Y-97767619D01*
X165489047Y-97767619D02*
X165393809Y-97767619D01*
X165393809Y-97767619D02*
X165250952Y-97720000D01*
X165250952Y-97720000D02*
X165155714Y-97624761D01*
X165155714Y-97624761D02*
X165108095Y-97529523D01*
X165108095Y-97529523D02*
X165060476Y-97339047D01*
X165060476Y-97339047D02*
X165060476Y-97196190D01*
X165060476Y-97196190D02*
X165108095Y-97005714D01*
X165108095Y-97005714D02*
X165155714Y-96910476D01*
X165155714Y-96910476D02*
X165250952Y-96815238D01*
X165250952Y-96815238D02*
X165393809Y-96767619D01*
X165393809Y-96767619D02*
X165489047Y-96767619D01*
X165489047Y-96767619D02*
X165631904Y-96815238D01*
X165631904Y-96815238D02*
X165679523Y-96862857D01*
X166679523Y-97767619D02*
X166346190Y-97291428D01*
X166108095Y-97767619D02*
X166108095Y-96767619D01*
X166108095Y-96767619D02*
X166489047Y-96767619D01*
X166489047Y-96767619D02*
X166584285Y-96815238D01*
X166584285Y-96815238D02*
X166631904Y-96862857D01*
X166631904Y-96862857D02*
X166679523Y-96958095D01*
X166679523Y-96958095D02*
X166679523Y-97100952D01*
X166679523Y-97100952D02*
X166631904Y-97196190D01*
X166631904Y-97196190D02*
X166584285Y-97243809D01*
X166584285Y-97243809D02*
X166489047Y-97291428D01*
X166489047Y-97291428D02*
X166108095Y-97291428D01*
X167060476Y-97720000D02*
X167203333Y-97767619D01*
X167203333Y-97767619D02*
X167441428Y-97767619D01*
X167441428Y-97767619D02*
X167536666Y-97720000D01*
X167536666Y-97720000D02*
X167584285Y-97672380D01*
X167584285Y-97672380D02*
X167631904Y-97577142D01*
X167631904Y-97577142D02*
X167631904Y-97481904D01*
X167631904Y-97481904D02*
X167584285Y-97386666D01*
X167584285Y-97386666D02*
X167536666Y-97339047D01*
X167536666Y-97339047D02*
X167441428Y-97291428D01*
X167441428Y-97291428D02*
X167250952Y-97243809D01*
X167250952Y-97243809D02*
X167155714Y-97196190D01*
X167155714Y-97196190D02*
X167108095Y-97148571D01*
X167108095Y-97148571D02*
X167060476Y-97053333D01*
X167060476Y-97053333D02*
X167060476Y-96958095D01*
X167060476Y-96958095D02*
X167108095Y-96862857D01*
X167108095Y-96862857D02*
X167155714Y-96815238D01*
X167155714Y-96815238D02*
X167250952Y-96767619D01*
X167250952Y-96767619D02*
X167489047Y-96767619D01*
X167489047Y-96767619D02*
X167631904Y-96815238D01*
X152152380Y-77488095D02*
X153152380Y-77488095D01*
X153152380Y-77488095D02*
X152438095Y-77821428D01*
X152438095Y-77821428D02*
X153152380Y-78154761D01*
X153152380Y-78154761D02*
X152152380Y-78154761D01*
X152152380Y-78630952D02*
X153152380Y-78630952D01*
X152200000Y-79059523D02*
X152152380Y-79202380D01*
X152152380Y-79202380D02*
X152152380Y-79440475D01*
X152152380Y-79440475D02*
X152200000Y-79535713D01*
X152200000Y-79535713D02*
X152247619Y-79583332D01*
X152247619Y-79583332D02*
X152342857Y-79630951D01*
X152342857Y-79630951D02*
X152438095Y-79630951D01*
X152438095Y-79630951D02*
X152533333Y-79583332D01*
X152533333Y-79583332D02*
X152580952Y-79535713D01*
X152580952Y-79535713D02*
X152628571Y-79440475D01*
X152628571Y-79440475D02*
X152676190Y-79249999D01*
X152676190Y-79249999D02*
X152723809Y-79154761D01*
X152723809Y-79154761D02*
X152771428Y-79107142D01*
X152771428Y-79107142D02*
X152866666Y-79059523D01*
X152866666Y-79059523D02*
X152961904Y-79059523D01*
X152961904Y-79059523D02*
X153057142Y-79107142D01*
X153057142Y-79107142D02*
X153104761Y-79154761D01*
X153104761Y-79154761D02*
X153152380Y-79249999D01*
X153152380Y-79249999D02*
X153152380Y-79488094D01*
X153152380Y-79488094D02*
X153104761Y-79630951D01*
X153152380Y-80249999D02*
X153152380Y-80440475D01*
X153152380Y-80440475D02*
X153104761Y-80535713D01*
X153104761Y-80535713D02*
X153009523Y-80630951D01*
X153009523Y-80630951D02*
X152819047Y-80678570D01*
X152819047Y-80678570D02*
X152485714Y-80678570D01*
X152485714Y-80678570D02*
X152295238Y-80630951D01*
X152295238Y-80630951D02*
X152200000Y-80535713D01*
X152200000Y-80535713D02*
X152152380Y-80440475D01*
X152152380Y-80440475D02*
X152152380Y-80249999D01*
X152152380Y-80249999D02*
X152200000Y-80154761D01*
X152200000Y-80154761D02*
X152295238Y-80059523D01*
X152295238Y-80059523D02*
X152485714Y-80011904D01*
X152485714Y-80011904D02*
X152819047Y-80011904D01*
X152819047Y-80011904D02*
X153009523Y-80059523D01*
X153009523Y-80059523D02*
X153104761Y-80154761D01*
X153104761Y-80154761D02*
X153152380Y-80249999D01*
X151771428Y-81392856D02*
X151819047Y-81345237D01*
X151819047Y-81345237D02*
X151961904Y-81249999D01*
X151961904Y-81249999D02*
X152057142Y-81202380D01*
X152057142Y-81202380D02*
X152200000Y-81154761D01*
X152200000Y-81154761D02*
X152438095Y-81107142D01*
X152438095Y-81107142D02*
X152628571Y-81107142D01*
X152628571Y-81107142D02*
X152866666Y-81154761D01*
X152866666Y-81154761D02*
X153009523Y-81202380D01*
X153009523Y-81202380D02*
X153104761Y-81249999D01*
X153104761Y-81249999D02*
X153247619Y-81345237D01*
X153247619Y-81345237D02*
X153295238Y-81392856D01*
X152152380Y-81773809D02*
X152819047Y-81773809D01*
X152628571Y-81773809D02*
X152723809Y-81821428D01*
X152723809Y-81821428D02*
X152771428Y-81869047D01*
X152771428Y-81869047D02*
X152819047Y-81964285D01*
X152819047Y-81964285D02*
X152819047Y-82059523D01*
X151771428Y-82297619D02*
X151819047Y-82345238D01*
X151819047Y-82345238D02*
X151961904Y-82440476D01*
X151961904Y-82440476D02*
X152057142Y-82488095D01*
X152057142Y-82488095D02*
X152200000Y-82535714D01*
X152200000Y-82535714D02*
X152438095Y-82583333D01*
X152438095Y-82583333D02*
X152628571Y-82583333D01*
X152628571Y-82583333D02*
X152866666Y-82535714D01*
X152866666Y-82535714D02*
X153009523Y-82488095D01*
X153009523Y-82488095D02*
X153104761Y-82440476D01*
X153104761Y-82440476D02*
X153247619Y-82345238D01*
X153247619Y-82345238D02*
X153295238Y-82297619D01*
X155408095Y-100347619D02*
X155408095Y-99347619D01*
X155408095Y-99347619D02*
X155741428Y-100061904D01*
X155741428Y-100061904D02*
X156074761Y-99347619D01*
X156074761Y-99347619D02*
X156074761Y-100347619D01*
X156550952Y-100347619D02*
X156550952Y-99347619D01*
X156550952Y-99347619D02*
X156789047Y-99347619D01*
X156789047Y-99347619D02*
X156931904Y-99395238D01*
X156931904Y-99395238D02*
X157027142Y-99490476D01*
X157027142Y-99490476D02*
X157074761Y-99585714D01*
X157074761Y-99585714D02*
X157122380Y-99776190D01*
X157122380Y-99776190D02*
X157122380Y-99919047D01*
X157122380Y-99919047D02*
X157074761Y-100109523D01*
X157074761Y-100109523D02*
X157027142Y-100204761D01*
X157027142Y-100204761D02*
X156931904Y-100300000D01*
X156931904Y-100300000D02*
X156789047Y-100347619D01*
X156789047Y-100347619D02*
X156550952Y-100347619D01*
X157550952Y-100347619D02*
X157550952Y-99347619D01*
X158217618Y-99347619D02*
X158408094Y-99347619D01*
X158408094Y-99347619D02*
X158503332Y-99395238D01*
X158503332Y-99395238D02*
X158598570Y-99490476D01*
X158598570Y-99490476D02*
X158646189Y-99680952D01*
X158646189Y-99680952D02*
X158646189Y-100014285D01*
X158646189Y-100014285D02*
X158598570Y-100204761D01*
X158598570Y-100204761D02*
X158503332Y-100300000D01*
X158503332Y-100300000D02*
X158408094Y-100347619D01*
X158408094Y-100347619D02*
X158217618Y-100347619D01*
X158217618Y-100347619D02*
X158122380Y-100300000D01*
X158122380Y-100300000D02*
X158027142Y-100204761D01*
X158027142Y-100204761D02*
X157979523Y-100014285D01*
X157979523Y-100014285D02*
X157979523Y-99680952D01*
X157979523Y-99680952D02*
X158027142Y-99490476D01*
X158027142Y-99490476D02*
X158122380Y-99395238D01*
X158122380Y-99395238D02*
X158217618Y-99347619D01*
X147177619Y-78089523D02*
X147130000Y-78041904D01*
X147130000Y-78041904D02*
X147082380Y-77899047D01*
X147082380Y-77899047D02*
X147082380Y-77803809D01*
X147082380Y-77803809D02*
X147130000Y-77660952D01*
X147130000Y-77660952D02*
X147225238Y-77565714D01*
X147225238Y-77565714D02*
X147320476Y-77518095D01*
X147320476Y-77518095D02*
X147510952Y-77470476D01*
X147510952Y-77470476D02*
X147653809Y-77470476D01*
X147653809Y-77470476D02*
X147844285Y-77518095D01*
X147844285Y-77518095D02*
X147939523Y-77565714D01*
X147939523Y-77565714D02*
X148034761Y-77660952D01*
X148034761Y-77660952D02*
X148082380Y-77803809D01*
X148082380Y-77803809D02*
X148082380Y-77899047D01*
X148082380Y-77899047D02*
X148034761Y-78041904D01*
X148034761Y-78041904D02*
X147987142Y-78089523D01*
X147130000Y-78470476D02*
X147082380Y-78613333D01*
X147082380Y-78613333D02*
X147082380Y-78851428D01*
X147082380Y-78851428D02*
X147130000Y-78946666D01*
X147130000Y-78946666D02*
X147177619Y-78994285D01*
X147177619Y-78994285D02*
X147272857Y-79041904D01*
X147272857Y-79041904D02*
X147368095Y-79041904D01*
X147368095Y-79041904D02*
X147463333Y-78994285D01*
X147463333Y-78994285D02*
X147510952Y-78946666D01*
X147510952Y-78946666D02*
X147558571Y-78851428D01*
X147558571Y-78851428D02*
X147606190Y-78660952D01*
X147606190Y-78660952D02*
X147653809Y-78565714D01*
X147653809Y-78565714D02*
X147701428Y-78518095D01*
X147701428Y-78518095D02*
X147796666Y-78470476D01*
X147796666Y-78470476D02*
X147891904Y-78470476D01*
X147891904Y-78470476D02*
X147987142Y-78518095D01*
X147987142Y-78518095D02*
X148034761Y-78565714D01*
X148034761Y-78565714D02*
X148082380Y-78660952D01*
X148082380Y-78660952D02*
X148082380Y-78899047D01*
X148082380Y-78899047D02*
X148034761Y-79041904D01*
X147082380Y-79470476D02*
X148082380Y-79470476D01*
X148082380Y-79470476D02*
X147082380Y-80041904D01*
X147082380Y-80041904D02*
X148082380Y-80041904D01*
X146701428Y-80803809D02*
X146749047Y-80756190D01*
X146749047Y-80756190D02*
X146891904Y-80660952D01*
X146891904Y-80660952D02*
X146987142Y-80613333D01*
X146987142Y-80613333D02*
X147130000Y-80565714D01*
X147130000Y-80565714D02*
X147368095Y-80518095D01*
X147368095Y-80518095D02*
X147558571Y-80518095D01*
X147558571Y-80518095D02*
X147796666Y-80565714D01*
X147796666Y-80565714D02*
X147939523Y-80613333D01*
X147939523Y-80613333D02*
X148034761Y-80660952D01*
X148034761Y-80660952D02*
X148177619Y-80756190D01*
X148177619Y-80756190D02*
X148225238Y-80803809D01*
X147082380Y-81184762D02*
X147749047Y-81184762D01*
X147558571Y-81184762D02*
X147653809Y-81232381D01*
X147653809Y-81232381D02*
X147701428Y-81280000D01*
X147701428Y-81280000D02*
X147749047Y-81375238D01*
X147749047Y-81375238D02*
X147749047Y-81470476D01*
X146701428Y-81708572D02*
X146749047Y-81756191D01*
X146749047Y-81756191D02*
X146891904Y-81851429D01*
X146891904Y-81851429D02*
X146987142Y-81899048D01*
X146987142Y-81899048D02*
X147130000Y-81946667D01*
X147130000Y-81946667D02*
X147368095Y-81994286D01*
X147368095Y-81994286D02*
X147558571Y-81994286D01*
X147558571Y-81994286D02*
X147796666Y-81946667D01*
X147796666Y-81946667D02*
X147939523Y-81899048D01*
X147939523Y-81899048D02*
X148034761Y-81851429D01*
X148034761Y-81851429D02*
X148177619Y-81756191D01*
X148177619Y-81756191D02*
X148225238Y-81708572D01*
X170972380Y-99504285D02*
X170972380Y-99028095D01*
X170972380Y-99028095D02*
X170496190Y-98980476D01*
X170496190Y-98980476D02*
X170543809Y-99028095D01*
X170543809Y-99028095D02*
X170591428Y-99123333D01*
X170591428Y-99123333D02*
X170591428Y-99361428D01*
X170591428Y-99361428D02*
X170543809Y-99456666D01*
X170543809Y-99456666D02*
X170496190Y-99504285D01*
X170496190Y-99504285D02*
X170400952Y-99551904D01*
X170400952Y-99551904D02*
X170162857Y-99551904D01*
X170162857Y-99551904D02*
X170067619Y-99504285D01*
X170067619Y-99504285D02*
X170020000Y-99456666D01*
X170020000Y-99456666D02*
X169972380Y-99361428D01*
X169972380Y-99361428D02*
X169972380Y-99123333D01*
X169972380Y-99123333D02*
X170020000Y-99028095D01*
X170020000Y-99028095D02*
X170067619Y-98980476D01*
X170972380Y-99837619D02*
X169972380Y-100170952D01*
X169972380Y-100170952D02*
X170972380Y-100504285D01*
X169168095Y-119530476D02*
X169168095Y-120006666D01*
X168882380Y-119435238D02*
X169882380Y-119768571D01*
X169882380Y-119768571D02*
X168882380Y-120101904D01*
X169882380Y-120340000D02*
X169882380Y-120959047D01*
X169882380Y-120959047D02*
X169501428Y-120625714D01*
X169501428Y-120625714D02*
X169501428Y-120768571D01*
X169501428Y-120768571D02*
X169453809Y-120863809D01*
X169453809Y-120863809D02*
X169406190Y-120911428D01*
X169406190Y-120911428D02*
X169310952Y-120959047D01*
X169310952Y-120959047D02*
X169072857Y-120959047D01*
X169072857Y-120959047D02*
X168977619Y-120911428D01*
X168977619Y-120911428D02*
X168930000Y-120863809D01*
X168930000Y-120863809D02*
X168882380Y-120768571D01*
X168882380Y-120768571D02*
X168882380Y-120482857D01*
X168882380Y-120482857D02*
X168930000Y-120387619D01*
X168930000Y-120387619D02*
X168977619Y-120340000D01*
X169549047Y-121816190D02*
X168882380Y-121816190D01*
X169930000Y-121578095D02*
X169215714Y-121340000D01*
X169215714Y-121340000D02*
X169215714Y-121959047D01*
X165068095Y-90137619D02*
X165068095Y-89137619D01*
X165068095Y-89137619D02*
X165639523Y-90137619D01*
X165639523Y-90137619D02*
X165639523Y-89137619D01*
X166687142Y-90042380D02*
X166639523Y-90090000D01*
X166639523Y-90090000D02*
X166496666Y-90137619D01*
X166496666Y-90137619D02*
X166401428Y-90137619D01*
X166401428Y-90137619D02*
X166258571Y-90090000D01*
X166258571Y-90090000D02*
X166163333Y-89994761D01*
X166163333Y-89994761D02*
X166115714Y-89899523D01*
X166115714Y-89899523D02*
X166068095Y-89709047D01*
X166068095Y-89709047D02*
X166068095Y-89566190D01*
X166068095Y-89566190D02*
X166115714Y-89375714D01*
X166115714Y-89375714D02*
X166163333Y-89280476D01*
X166163333Y-89280476D02*
X166258571Y-89185238D01*
X166258571Y-89185238D02*
X166401428Y-89137619D01*
X166401428Y-89137619D02*
X166496666Y-89137619D01*
X166496666Y-89137619D02*
X166639523Y-89185238D01*
X166639523Y-89185238D02*
X166687142Y-89232857D01*
X156095238Y-104427619D02*
X156428571Y-105427619D01*
X156428571Y-105427619D02*
X156761904Y-104427619D01*
X157666666Y-105332380D02*
X157619047Y-105380000D01*
X157619047Y-105380000D02*
X157476190Y-105427619D01*
X157476190Y-105427619D02*
X157380952Y-105427619D01*
X157380952Y-105427619D02*
X157238095Y-105380000D01*
X157238095Y-105380000D02*
X157142857Y-105284761D01*
X157142857Y-105284761D02*
X157095238Y-105189523D01*
X157095238Y-105189523D02*
X157047619Y-104999047D01*
X157047619Y-104999047D02*
X157047619Y-104856190D01*
X157047619Y-104856190D02*
X157095238Y-104665714D01*
X157095238Y-104665714D02*
X157142857Y-104570476D01*
X157142857Y-104570476D02*
X157238095Y-104475238D01*
X157238095Y-104475238D02*
X157380952Y-104427619D01*
X157380952Y-104427619D02*
X157476190Y-104427619D01*
X157476190Y-104427619D02*
X157619047Y-104475238D01*
X157619047Y-104475238D02*
X157666666Y-104522857D01*
X158666666Y-105332380D02*
X158619047Y-105380000D01*
X158619047Y-105380000D02*
X158476190Y-105427619D01*
X158476190Y-105427619D02*
X158380952Y-105427619D01*
X158380952Y-105427619D02*
X158238095Y-105380000D01*
X158238095Y-105380000D02*
X158142857Y-105284761D01*
X158142857Y-105284761D02*
X158095238Y-105189523D01*
X158095238Y-105189523D02*
X158047619Y-104999047D01*
X158047619Y-104999047D02*
X158047619Y-104856190D01*
X158047619Y-104856190D02*
X158095238Y-104665714D01*
X158095238Y-104665714D02*
X158142857Y-104570476D01*
X158142857Y-104570476D02*
X158238095Y-104475238D01*
X158238095Y-104475238D02*
X158380952Y-104427619D01*
X158380952Y-104427619D02*
X158476190Y-104427619D01*
X158476190Y-104427619D02*
X158619047Y-104475238D01*
X158619047Y-104475238D02*
X158666666Y-104522857D01*
X153077380Y-114488095D02*
X153744047Y-115011904D01*
X153744047Y-114488095D02*
X153077380Y-115011904D01*
X163842380Y-77498095D02*
X164842380Y-77498095D01*
X164842380Y-77498095D02*
X164842380Y-77736190D01*
X164842380Y-77736190D02*
X164794761Y-77879047D01*
X164794761Y-77879047D02*
X164699523Y-77974285D01*
X164699523Y-77974285D02*
X164604285Y-78021904D01*
X164604285Y-78021904D02*
X164413809Y-78069523D01*
X164413809Y-78069523D02*
X164270952Y-78069523D01*
X164270952Y-78069523D02*
X164080476Y-78021904D01*
X164080476Y-78021904D02*
X163985238Y-77974285D01*
X163985238Y-77974285D02*
X163890000Y-77879047D01*
X163890000Y-77879047D02*
X163842380Y-77736190D01*
X163842380Y-77736190D02*
X163842380Y-77498095D01*
X163842380Y-79021904D02*
X163842380Y-78450476D01*
X163842380Y-78736190D02*
X164842380Y-78736190D01*
X164842380Y-78736190D02*
X164699523Y-78640952D01*
X164699523Y-78640952D02*
X164604285Y-78545714D01*
X164604285Y-78545714D02*
X164556666Y-78450476D01*
X164842380Y-79355238D02*
X164842380Y-80021904D01*
X164842380Y-80021904D02*
X163842380Y-79593333D01*
X154845238Y-91687619D02*
X155416666Y-91687619D01*
X155130952Y-92687619D02*
X155130952Y-91687619D01*
X155654762Y-91687619D02*
X156321428Y-92687619D01*
X156321428Y-91687619D02*
X155654762Y-92687619D01*
X156702381Y-92592380D02*
X156750000Y-92640000D01*
X156750000Y-92640000D02*
X156702381Y-92687619D01*
X156702381Y-92687619D02*
X156654762Y-92640000D01*
X156654762Y-92640000D02*
X156702381Y-92592380D01*
X156702381Y-92592380D02*
X156702381Y-92687619D01*
X157178571Y-92163809D02*
X157511904Y-92163809D01*
X157654761Y-92687619D02*
X157178571Y-92687619D01*
X157178571Y-92687619D02*
X157178571Y-91687619D01*
X157178571Y-91687619D02*
X157654761Y-91687619D01*
X158083333Y-92687619D02*
X158083333Y-91687619D01*
X158083333Y-91687619D02*
X158654761Y-92687619D01*
X158654761Y-92687619D02*
X158654761Y-91687619D01*
X173982380Y-78069523D02*
X174458571Y-77736190D01*
X173982380Y-77498095D02*
X174982380Y-77498095D01*
X174982380Y-77498095D02*
X174982380Y-77879047D01*
X174982380Y-77879047D02*
X174934761Y-77974285D01*
X174934761Y-77974285D02*
X174887142Y-78021904D01*
X174887142Y-78021904D02*
X174791904Y-78069523D01*
X174791904Y-78069523D02*
X174649047Y-78069523D01*
X174649047Y-78069523D02*
X174553809Y-78021904D01*
X174553809Y-78021904D02*
X174506190Y-77974285D01*
X174506190Y-77974285D02*
X174458571Y-77879047D01*
X174458571Y-77879047D02*
X174458571Y-77498095D01*
X174982380Y-78402857D02*
X173982380Y-79069523D01*
X174982380Y-79069523D02*
X173982380Y-78402857D01*
X174982380Y-79640952D02*
X174982380Y-79736190D01*
X174982380Y-79736190D02*
X174934761Y-79831428D01*
X174934761Y-79831428D02*
X174887142Y-79879047D01*
X174887142Y-79879047D02*
X174791904Y-79926666D01*
X174791904Y-79926666D02*
X174601428Y-79974285D01*
X174601428Y-79974285D02*
X174363333Y-79974285D01*
X174363333Y-79974285D02*
X174172857Y-79926666D01*
X174172857Y-79926666D02*
X174077619Y-79879047D01*
X174077619Y-79879047D02*
X174030000Y-79831428D01*
X174030000Y-79831428D02*
X173982380Y-79736190D01*
X173982380Y-79736190D02*
X173982380Y-79640952D01*
X173982380Y-79640952D02*
X174030000Y-79545714D01*
X174030000Y-79545714D02*
X174077619Y-79498095D01*
X174077619Y-79498095D02*
X174172857Y-79450476D01*
X174172857Y-79450476D02*
X174363333Y-79402857D01*
X174363333Y-79402857D02*
X174601428Y-79402857D01*
X174601428Y-79402857D02*
X174791904Y-79450476D01*
X174791904Y-79450476D02*
X174887142Y-79498095D01*
X174887142Y-79498095D02*
X174934761Y-79545714D01*
X174934761Y-79545714D02*
X174982380Y-79640952D01*
X137884761Y-78061904D02*
X137932380Y-77966666D01*
X137932380Y-77966666D02*
X137932380Y-77823809D01*
X137932380Y-77823809D02*
X137884761Y-77680952D01*
X137884761Y-77680952D02*
X137789523Y-77585714D01*
X137789523Y-77585714D02*
X137694285Y-77538095D01*
X137694285Y-77538095D02*
X137503809Y-77490476D01*
X137503809Y-77490476D02*
X137360952Y-77490476D01*
X137360952Y-77490476D02*
X137170476Y-77538095D01*
X137170476Y-77538095D02*
X137075238Y-77585714D01*
X137075238Y-77585714D02*
X136980000Y-77680952D01*
X136980000Y-77680952D02*
X136932380Y-77823809D01*
X136932380Y-77823809D02*
X136932380Y-77919047D01*
X136932380Y-77919047D02*
X136980000Y-78061904D01*
X136980000Y-78061904D02*
X137027619Y-78109523D01*
X137027619Y-78109523D02*
X137360952Y-78109523D01*
X137360952Y-78109523D02*
X137360952Y-77919047D01*
X136932380Y-78538095D02*
X137932380Y-78538095D01*
X137932380Y-78538095D02*
X136932380Y-79109523D01*
X136932380Y-79109523D02*
X137932380Y-79109523D01*
X136932380Y-79585714D02*
X137932380Y-79585714D01*
X137932380Y-79585714D02*
X137932380Y-79823809D01*
X137932380Y-79823809D02*
X137884761Y-79966666D01*
X137884761Y-79966666D02*
X137789523Y-80061904D01*
X137789523Y-80061904D02*
X137694285Y-80109523D01*
X137694285Y-80109523D02*
X137503809Y-80157142D01*
X137503809Y-80157142D02*
X137360952Y-80157142D01*
X137360952Y-80157142D02*
X137170476Y-80109523D01*
X137170476Y-80109523D02*
X137075238Y-80061904D01*
X137075238Y-80061904D02*
X136980000Y-79966666D01*
X136980000Y-79966666D02*
X136932380Y-79823809D01*
X136932380Y-79823809D02*
X136932380Y-79585714D01*
X168912380Y-78059523D02*
X169388571Y-77726190D01*
X168912380Y-77488095D02*
X169912380Y-77488095D01*
X169912380Y-77488095D02*
X169912380Y-77869047D01*
X169912380Y-77869047D02*
X169864761Y-77964285D01*
X169864761Y-77964285D02*
X169817142Y-78011904D01*
X169817142Y-78011904D02*
X169721904Y-78059523D01*
X169721904Y-78059523D02*
X169579047Y-78059523D01*
X169579047Y-78059523D02*
X169483809Y-78011904D01*
X169483809Y-78011904D02*
X169436190Y-77964285D01*
X169436190Y-77964285D02*
X169388571Y-77869047D01*
X169388571Y-77869047D02*
X169388571Y-77488095D01*
X169912380Y-78392857D02*
X168912380Y-79059523D01*
X169912380Y-79059523D02*
X168912380Y-78392857D01*
X168912380Y-79964285D02*
X168912380Y-79392857D01*
X168912380Y-79678571D02*
X169912380Y-79678571D01*
X169912380Y-79678571D02*
X169769523Y-79583333D01*
X169769523Y-79583333D02*
X169674285Y-79488095D01*
X169674285Y-79488095D02*
X169626666Y-79392857D01*
X168531428Y-80678571D02*
X168579047Y-80630952D01*
X168579047Y-80630952D02*
X168721904Y-80535714D01*
X168721904Y-80535714D02*
X168817142Y-80488095D01*
X168817142Y-80488095D02*
X168960000Y-80440476D01*
X168960000Y-80440476D02*
X169198095Y-80392857D01*
X169198095Y-80392857D02*
X169388571Y-80392857D01*
X169388571Y-80392857D02*
X169626666Y-80440476D01*
X169626666Y-80440476D02*
X169769523Y-80488095D01*
X169769523Y-80488095D02*
X169864761Y-80535714D01*
X169864761Y-80535714D02*
X170007619Y-80630952D01*
X170007619Y-80630952D02*
X170055238Y-80678571D01*
X168960000Y-81440476D02*
X168912380Y-81345238D01*
X168912380Y-81345238D02*
X168912380Y-81154762D01*
X168912380Y-81154762D02*
X168960000Y-81059524D01*
X168960000Y-81059524D02*
X169055238Y-81011905D01*
X169055238Y-81011905D02*
X169436190Y-81011905D01*
X169436190Y-81011905D02*
X169531428Y-81059524D01*
X169531428Y-81059524D02*
X169579047Y-81154762D01*
X169579047Y-81154762D02*
X169579047Y-81345238D01*
X169579047Y-81345238D02*
X169531428Y-81440476D01*
X169531428Y-81440476D02*
X169436190Y-81488095D01*
X169436190Y-81488095D02*
X169340952Y-81488095D01*
X169340952Y-81488095D02*
X169245714Y-81011905D01*
X168531428Y-81821429D02*
X168579047Y-81869048D01*
X168579047Y-81869048D02*
X168721904Y-81964286D01*
X168721904Y-81964286D02*
X168817142Y-82011905D01*
X168817142Y-82011905D02*
X168960000Y-82059524D01*
X168960000Y-82059524D02*
X169198095Y-82107143D01*
X169198095Y-82107143D02*
X169388571Y-82107143D01*
X169388571Y-82107143D02*
X169626666Y-82059524D01*
X169626666Y-82059524D02*
X169769523Y-82011905D01*
X169769523Y-82011905D02*
X169864761Y-81964286D01*
X169864761Y-81964286D02*
X170007619Y-81869048D01*
X170007619Y-81869048D02*
X170055238Y-81821429D01*
D12*
X119783571Y-112097142D02*
X121283571Y-112097142D01*
X121283571Y-112097142D02*
X120212142Y-112597142D01*
X120212142Y-112597142D02*
X121283571Y-113097142D01*
X121283571Y-113097142D02*
X119783571Y-113097142D01*
X120212142Y-113740000D02*
X120212142Y-114454286D01*
X119783571Y-113597143D02*
X121283571Y-114097143D01*
X121283571Y-114097143D02*
X119783571Y-114597143D01*
X119855000Y-115025714D02*
X119783571Y-115240000D01*
X119783571Y-115240000D02*
X119783571Y-115597142D01*
X119783571Y-115597142D02*
X119855000Y-115740000D01*
X119855000Y-115740000D02*
X119926428Y-115811428D01*
X119926428Y-115811428D02*
X120069285Y-115882857D01*
X120069285Y-115882857D02*
X120212142Y-115882857D01*
X120212142Y-115882857D02*
X120355000Y-115811428D01*
X120355000Y-115811428D02*
X120426428Y-115740000D01*
X120426428Y-115740000D02*
X120497857Y-115597142D01*
X120497857Y-115597142D02*
X120569285Y-115311428D01*
X120569285Y-115311428D02*
X120640714Y-115168571D01*
X120640714Y-115168571D02*
X120712142Y-115097142D01*
X120712142Y-115097142D02*
X120855000Y-115025714D01*
X120855000Y-115025714D02*
X120997857Y-115025714D01*
X120997857Y-115025714D02*
X121140714Y-115097142D01*
X121140714Y-115097142D02*
X121212142Y-115168571D01*
X121212142Y-115168571D02*
X121283571Y-115311428D01*
X121283571Y-115311428D02*
X121283571Y-115668571D01*
X121283571Y-115668571D02*
X121212142Y-115882857D01*
X121283571Y-116311428D02*
X121283571Y-117168571D01*
X119783571Y-116739999D02*
X121283571Y-116739999D01*
X120569285Y-117668570D02*
X120569285Y-118168570D01*
X119783571Y-118382856D02*
X119783571Y-117668570D01*
X119783571Y-117668570D02*
X121283571Y-117668570D01*
X121283571Y-117668570D02*
X121283571Y-118382856D01*
X119783571Y-119882856D02*
X120497857Y-119382856D01*
X119783571Y-119025713D02*
X121283571Y-119025713D01*
X121283571Y-119025713D02*
X121283571Y-119597142D01*
X121283571Y-119597142D02*
X121212142Y-119739999D01*
X121212142Y-119739999D02*
X121140714Y-119811428D01*
X121140714Y-119811428D02*
X120997857Y-119882856D01*
X120997857Y-119882856D02*
X120783571Y-119882856D01*
X120783571Y-119882856D02*
X120640714Y-119811428D01*
X120640714Y-119811428D02*
X120569285Y-119739999D01*
X120569285Y-119739999D02*
X120497857Y-119597142D01*
X120497857Y-119597142D02*
X120497857Y-119025713D01*
X117353571Y-113239999D02*
X118853571Y-113239999D01*
X118853571Y-113239999D02*
X117353571Y-114097142D01*
X117353571Y-114097142D02*
X118853571Y-114097142D01*
X118853571Y-115097143D02*
X118853571Y-115382857D01*
X118853571Y-115382857D02*
X118782142Y-115525714D01*
X118782142Y-115525714D02*
X118639285Y-115668571D01*
X118639285Y-115668571D02*
X118353571Y-115740000D01*
X118353571Y-115740000D02*
X117853571Y-115740000D01*
X117853571Y-115740000D02*
X117567857Y-115668571D01*
X117567857Y-115668571D02*
X117425000Y-115525714D01*
X117425000Y-115525714D02*
X117353571Y-115382857D01*
X117353571Y-115382857D02*
X117353571Y-115097143D01*
X117353571Y-115097143D02*
X117425000Y-114954286D01*
X117425000Y-114954286D02*
X117567857Y-114811428D01*
X117567857Y-114811428D02*
X117853571Y-114740000D01*
X117853571Y-114740000D02*
X118353571Y-114740000D01*
X118353571Y-114740000D02*
X118639285Y-114811428D01*
X118639285Y-114811428D02*
X118782142Y-114954286D01*
X118782142Y-114954286D02*
X118853571Y-115097143D01*
X117353571Y-116382857D02*
X118853571Y-116382857D01*
X118853571Y-116382857D02*
X118853571Y-116740000D01*
X118853571Y-116740000D02*
X118782142Y-116954286D01*
X118782142Y-116954286D02*
X118639285Y-117097143D01*
X118639285Y-117097143D02*
X118496428Y-117168572D01*
X118496428Y-117168572D02*
X118210714Y-117240000D01*
X118210714Y-117240000D02*
X117996428Y-117240000D01*
X117996428Y-117240000D02*
X117710714Y-117168572D01*
X117710714Y-117168572D02*
X117567857Y-117097143D01*
X117567857Y-117097143D02*
X117425000Y-116954286D01*
X117425000Y-116954286D02*
X117353571Y-116740000D01*
X117353571Y-116740000D02*
X117353571Y-116382857D01*
X118139285Y-117882857D02*
X118139285Y-118382857D01*
X117353571Y-118597143D02*
X117353571Y-117882857D01*
X117353571Y-117882857D02*
X118853571Y-117882857D01*
X118853571Y-117882857D02*
X118853571Y-118597143D01*
D11*
X166342380Y-78059523D02*
X166818571Y-77726190D01*
X166342380Y-77488095D02*
X167342380Y-77488095D01*
X167342380Y-77488095D02*
X167342380Y-77869047D01*
X167342380Y-77869047D02*
X167294761Y-77964285D01*
X167294761Y-77964285D02*
X167247142Y-78011904D01*
X167247142Y-78011904D02*
X167151904Y-78059523D01*
X167151904Y-78059523D02*
X167009047Y-78059523D01*
X167009047Y-78059523D02*
X166913809Y-78011904D01*
X166913809Y-78011904D02*
X166866190Y-77964285D01*
X166866190Y-77964285D02*
X166818571Y-77869047D01*
X166818571Y-77869047D02*
X166818571Y-77488095D01*
X167342380Y-78392857D02*
X166342380Y-79059523D01*
X167342380Y-79059523D02*
X166342380Y-78392857D01*
X167342380Y-79630952D02*
X167342380Y-79726190D01*
X167342380Y-79726190D02*
X167294761Y-79821428D01*
X167294761Y-79821428D02*
X167247142Y-79869047D01*
X167247142Y-79869047D02*
X167151904Y-79916666D01*
X167151904Y-79916666D02*
X166961428Y-79964285D01*
X166961428Y-79964285D02*
X166723333Y-79964285D01*
X166723333Y-79964285D02*
X166532857Y-79916666D01*
X166532857Y-79916666D02*
X166437619Y-79869047D01*
X166437619Y-79869047D02*
X166390000Y-79821428D01*
X166390000Y-79821428D02*
X166342380Y-79726190D01*
X166342380Y-79726190D02*
X166342380Y-79630952D01*
X166342380Y-79630952D02*
X166390000Y-79535714D01*
X166390000Y-79535714D02*
X166437619Y-79488095D01*
X166437619Y-79488095D02*
X166532857Y-79440476D01*
X166532857Y-79440476D02*
X166723333Y-79392857D01*
X166723333Y-79392857D02*
X166961428Y-79392857D01*
X166961428Y-79392857D02*
X167151904Y-79440476D01*
X167151904Y-79440476D02*
X167247142Y-79488095D01*
X167247142Y-79488095D02*
X167294761Y-79535714D01*
X167294761Y-79535714D02*
X167342380Y-79630952D01*
X165961428Y-80678571D02*
X166009047Y-80630952D01*
X166009047Y-80630952D02*
X166151904Y-80535714D01*
X166151904Y-80535714D02*
X166247142Y-80488095D01*
X166247142Y-80488095D02*
X166390000Y-80440476D01*
X166390000Y-80440476D02*
X166628095Y-80392857D01*
X166628095Y-80392857D02*
X166818571Y-80392857D01*
X166818571Y-80392857D02*
X167056666Y-80440476D01*
X167056666Y-80440476D02*
X167199523Y-80488095D01*
X167199523Y-80488095D02*
X167294761Y-80535714D01*
X167294761Y-80535714D02*
X167437619Y-80630952D01*
X167437619Y-80630952D02*
X167485238Y-80678571D01*
X166390000Y-81440476D02*
X166342380Y-81345238D01*
X166342380Y-81345238D02*
X166342380Y-81154762D01*
X166342380Y-81154762D02*
X166390000Y-81059524D01*
X166390000Y-81059524D02*
X166485238Y-81011905D01*
X166485238Y-81011905D02*
X166866190Y-81011905D01*
X166866190Y-81011905D02*
X166961428Y-81059524D01*
X166961428Y-81059524D02*
X167009047Y-81154762D01*
X167009047Y-81154762D02*
X167009047Y-81345238D01*
X167009047Y-81345238D02*
X166961428Y-81440476D01*
X166961428Y-81440476D02*
X166866190Y-81488095D01*
X166866190Y-81488095D02*
X166770952Y-81488095D01*
X166770952Y-81488095D02*
X166675714Y-81011905D01*
X165961428Y-81821429D02*
X166009047Y-81869048D01*
X166009047Y-81869048D02*
X166151904Y-81964286D01*
X166151904Y-81964286D02*
X166247142Y-82011905D01*
X166247142Y-82011905D02*
X166390000Y-82059524D01*
X166390000Y-82059524D02*
X166628095Y-82107143D01*
X166628095Y-82107143D02*
X166818571Y-82107143D01*
X166818571Y-82107143D02*
X167056666Y-82059524D01*
X167056666Y-82059524D02*
X167199523Y-82011905D01*
X167199523Y-82011905D02*
X167294761Y-81964286D01*
X167294761Y-81964286D02*
X167437619Y-81869048D01*
X167437619Y-81869048D02*
X167485238Y-81821429D01*
X130933333Y-124372619D02*
X130600000Y-123896428D01*
X130361905Y-124372619D02*
X130361905Y-123372619D01*
X130361905Y-123372619D02*
X130742857Y-123372619D01*
X130742857Y-123372619D02*
X130838095Y-123420238D01*
X130838095Y-123420238D02*
X130885714Y-123467857D01*
X130885714Y-123467857D02*
X130933333Y-123563095D01*
X130933333Y-123563095D02*
X130933333Y-123705952D01*
X130933333Y-123705952D02*
X130885714Y-123801190D01*
X130885714Y-123801190D02*
X130838095Y-123848809D01*
X130838095Y-123848809D02*
X130742857Y-123896428D01*
X130742857Y-123896428D02*
X130361905Y-123896428D01*
X131885714Y-124372619D02*
X131314286Y-124372619D01*
X131600000Y-124372619D02*
X131600000Y-123372619D01*
X131600000Y-123372619D02*
X131504762Y-123515476D01*
X131504762Y-123515476D02*
X131409524Y-123610714D01*
X131409524Y-123610714D02*
X131314286Y-123658333D01*
X155808095Y-97090952D02*
X155808095Y-97757619D01*
X155808095Y-97186190D02*
X155855714Y-97138571D01*
X155855714Y-97138571D02*
X155950952Y-97090952D01*
X155950952Y-97090952D02*
X156093809Y-97090952D01*
X156093809Y-97090952D02*
X156189047Y-97138571D01*
X156189047Y-97138571D02*
X156236666Y-97233809D01*
X156236666Y-97233809D02*
X156236666Y-97757619D01*
X156712857Y-97757619D02*
X156712857Y-96757619D01*
X157189047Y-97757619D02*
X157189047Y-96757619D01*
X157189047Y-96757619D02*
X157760475Y-97757619D01*
X157760475Y-97757619D02*
X157760475Y-96757619D01*
X158093809Y-96757619D02*
X158665237Y-96757619D01*
X158379523Y-97757619D02*
X158379523Y-96757619D01*
X159803333Y-110507380D02*
X159755714Y-110555000D01*
X159755714Y-110555000D02*
X159612857Y-110602619D01*
X159612857Y-110602619D02*
X159517619Y-110602619D01*
X159517619Y-110602619D02*
X159374762Y-110555000D01*
X159374762Y-110555000D02*
X159279524Y-110459761D01*
X159279524Y-110459761D02*
X159231905Y-110364523D01*
X159231905Y-110364523D02*
X159184286Y-110174047D01*
X159184286Y-110174047D02*
X159184286Y-110031190D01*
X159184286Y-110031190D02*
X159231905Y-109840714D01*
X159231905Y-109840714D02*
X159279524Y-109745476D01*
X159279524Y-109745476D02*
X159374762Y-109650238D01*
X159374762Y-109650238D02*
X159517619Y-109602619D01*
X159517619Y-109602619D02*
X159612857Y-109602619D01*
X159612857Y-109602619D02*
X159755714Y-109650238D01*
X159755714Y-109650238D02*
X159803333Y-109697857D01*
X160660476Y-109935952D02*
X160660476Y-110602619D01*
X160422381Y-109555000D02*
X160184286Y-110269285D01*
X160184286Y-110269285D02*
X160803333Y-110269285D01*
X154508221Y-110017380D02*
X154460602Y-110065000D01*
X154460602Y-110065000D02*
X154317745Y-110112619D01*
X154317745Y-110112619D02*
X154222507Y-110112619D01*
X154222507Y-110112619D02*
X154079650Y-110065000D01*
X154079650Y-110065000D02*
X153984412Y-109969761D01*
X153984412Y-109969761D02*
X153936793Y-109874523D01*
X153936793Y-109874523D02*
X153889174Y-109684047D01*
X153889174Y-109684047D02*
X153889174Y-109541190D01*
X153889174Y-109541190D02*
X153936793Y-109350714D01*
X153936793Y-109350714D02*
X153984412Y-109255476D01*
X153984412Y-109255476D02*
X154079650Y-109160238D01*
X154079650Y-109160238D02*
X154222507Y-109112619D01*
X154222507Y-109112619D02*
X154317745Y-109112619D01*
X154317745Y-109112619D02*
X154460602Y-109160238D01*
X154460602Y-109160238D02*
X154508221Y-109207857D01*
X154841555Y-109112619D02*
X155460602Y-109112619D01*
X155460602Y-109112619D02*
X155127269Y-109493571D01*
X155127269Y-109493571D02*
X155270126Y-109493571D01*
X155270126Y-109493571D02*
X155365364Y-109541190D01*
X155365364Y-109541190D02*
X155412983Y-109588809D01*
X155412983Y-109588809D02*
X155460602Y-109684047D01*
X155460602Y-109684047D02*
X155460602Y-109922142D01*
X155460602Y-109922142D02*
X155412983Y-110017380D01*
X155412983Y-110017380D02*
X155365364Y-110065000D01*
X155365364Y-110065000D02*
X155270126Y-110112619D01*
X155270126Y-110112619D02*
X154984412Y-110112619D01*
X154984412Y-110112619D02*
X154889174Y-110065000D01*
X154889174Y-110065000D02*
X154841555Y-110017380D01*
X169473333Y-110517380D02*
X169425714Y-110565000D01*
X169425714Y-110565000D02*
X169282857Y-110612619D01*
X169282857Y-110612619D02*
X169187619Y-110612619D01*
X169187619Y-110612619D02*
X169044762Y-110565000D01*
X169044762Y-110565000D02*
X168949524Y-110469761D01*
X168949524Y-110469761D02*
X168901905Y-110374523D01*
X168901905Y-110374523D02*
X168854286Y-110184047D01*
X168854286Y-110184047D02*
X168854286Y-110041190D01*
X168854286Y-110041190D02*
X168901905Y-109850714D01*
X168901905Y-109850714D02*
X168949524Y-109755476D01*
X168949524Y-109755476D02*
X169044762Y-109660238D01*
X169044762Y-109660238D02*
X169187619Y-109612619D01*
X169187619Y-109612619D02*
X169282857Y-109612619D01*
X169282857Y-109612619D02*
X169425714Y-109660238D01*
X169425714Y-109660238D02*
X169473333Y-109707857D01*
X170378095Y-109612619D02*
X169901905Y-109612619D01*
X169901905Y-109612619D02*
X169854286Y-110088809D01*
X169854286Y-110088809D02*
X169901905Y-110041190D01*
X169901905Y-110041190D02*
X169997143Y-109993571D01*
X169997143Y-109993571D02*
X170235238Y-109993571D01*
X170235238Y-109993571D02*
X170330476Y-110041190D01*
X170330476Y-110041190D02*
X170378095Y-110088809D01*
X170378095Y-110088809D02*
X170425714Y-110184047D01*
X170425714Y-110184047D02*
X170425714Y-110422142D01*
X170425714Y-110422142D02*
X170378095Y-110517380D01*
X170378095Y-110517380D02*
X170330476Y-110565000D01*
X170330476Y-110565000D02*
X170235238Y-110612619D01*
X170235238Y-110612619D02*
X169997143Y-110612619D01*
X169997143Y-110612619D02*
X169901905Y-110565000D01*
X169901905Y-110565000D02*
X169854286Y-110517380D01*
D10*
X158043000Y-122535000D02*
X158043000Y-123865000D01*
X156713000Y-122535000D02*
X158043000Y-122535000D01*
X155443000Y-122535000D02*
X137603000Y-122535000D01*
X137603000Y-122535000D02*
X137603000Y-125195000D01*
X155443000Y-125195000D02*
X137603000Y-125195000D01*
X175828000Y-122535000D02*
X175828000Y-123865000D01*
X174498000Y-122535000D02*
X175828000Y-122535000D01*
X173228000Y-122535000D02*
X160468000Y-122535000D01*
X160468000Y-122535000D02*
X160468000Y-125195000D01*
X173228000Y-125195000D02*
X160468000Y-125195000D01*
X173228000Y-74245000D02*
X155388000Y-74245000D01*
X155388000Y-74245000D02*
X155388000Y-76905000D01*
X173228000Y-76905000D02*
X155388000Y-76905000D01*
X153988000Y-74245000D02*
X153988000Y-75575000D01*
X152658000Y-74245000D02*
X153988000Y-74245000D01*
X151388000Y-74245000D02*
X128468000Y-74245000D01*
X128468000Y-74245000D02*
X128468000Y-76905000D01*
X151388000Y-76905000D02*
X128468000Y-76905000D01*
D12*
X178998000Y-90805000D02*
G75*
G03*
X178998000Y-90805000I-2000000J0D01*
G01*
D10*
X132090000Y-111900000D02*
X126890000Y-111900000D01*
X163020000Y-114160000D02*
X166620000Y-114160000D01*
X164820000Y-109710000D02*
G75*
G03*
X162981522Y-114148478I0J-2600000D01*
G01*
X166658478Y-114148478D02*
G75*
G03*
X164820000Y-109710000I-1838478J1838478D01*
G01*
D12*
X126998000Y-123365000D02*
G75*
G03*
X126998000Y-123365000I-2000000J0D01*
G01*
D10*
X151870113Y-111985000D02*
X152370113Y-111985000D01*
X152120113Y-111735000D02*
X152120113Y-112235000D01*
X154674888Y-110880000D02*
X154674888Y-116040000D01*
X154714888Y-110880000D02*
X154714888Y-116040000D01*
X154754888Y-110881000D02*
X154754888Y-116039000D01*
X154794888Y-110882000D02*
X154794888Y-116038000D01*
X154834888Y-110884000D02*
X154834888Y-116036000D01*
X154874888Y-110887000D02*
X154874888Y-116033000D01*
X154914888Y-110891000D02*
X154914888Y-112420000D01*
X154914888Y-114500000D02*
X154914888Y-116029000D01*
X154954888Y-110895000D02*
X154954888Y-112420000D01*
X154954888Y-114500000D02*
X154954888Y-116025000D01*
X154994888Y-110899000D02*
X154994888Y-112420000D01*
X154994888Y-114500000D02*
X154994888Y-116021000D01*
X155034888Y-110904000D02*
X155034888Y-112420000D01*
X155034888Y-114500000D02*
X155034888Y-116016000D01*
X155074888Y-110910000D02*
X155074888Y-112420000D01*
X155074888Y-114500000D02*
X155074888Y-116010000D01*
X155114888Y-110917000D02*
X155114888Y-112420000D01*
X155114888Y-114500000D02*
X155114888Y-116003000D01*
X155154888Y-110924000D02*
X155154888Y-112420000D01*
X155154888Y-114500000D02*
X155154888Y-115996000D01*
X155194888Y-110932000D02*
X155194888Y-112420000D01*
X155194888Y-114500000D02*
X155194888Y-115988000D01*
X155234888Y-110940000D02*
X155234888Y-112420000D01*
X155234888Y-114500000D02*
X155234888Y-115980000D01*
X155274888Y-110949000D02*
X155274888Y-112420000D01*
X155274888Y-114500000D02*
X155274888Y-115971000D01*
X155314888Y-110959000D02*
X155314888Y-112420000D01*
X155314888Y-114500000D02*
X155314888Y-115961000D01*
X155354888Y-110969000D02*
X155354888Y-112420000D01*
X155354888Y-114500000D02*
X155354888Y-115951000D01*
X155395888Y-110980000D02*
X155395888Y-112420000D01*
X155395888Y-114500000D02*
X155395888Y-115940000D01*
X155435888Y-110992000D02*
X155435888Y-112420000D01*
X155435888Y-114500000D02*
X155435888Y-115928000D01*
X155475888Y-111005000D02*
X155475888Y-112420000D01*
X155475888Y-114500000D02*
X155475888Y-115915000D01*
X155515888Y-111018000D02*
X155515888Y-112420000D01*
X155515888Y-114500000D02*
X155515888Y-115902000D01*
X155555888Y-111032000D02*
X155555888Y-112420000D01*
X155555888Y-114500000D02*
X155555888Y-115888000D01*
X155595888Y-111046000D02*
X155595888Y-112420000D01*
X155595888Y-114500000D02*
X155595888Y-115874000D01*
X155635888Y-111062000D02*
X155635888Y-112420000D01*
X155635888Y-114500000D02*
X155635888Y-115858000D01*
X155675888Y-111078000D02*
X155675888Y-112420000D01*
X155675888Y-114500000D02*
X155675888Y-115842000D01*
X155715888Y-111095000D02*
X155715888Y-112420000D01*
X155715888Y-114500000D02*
X155715888Y-115825000D01*
X155755888Y-111112000D02*
X155755888Y-112420000D01*
X155755888Y-114500000D02*
X155755888Y-115808000D01*
X155795888Y-111131000D02*
X155795888Y-112420000D01*
X155795888Y-114500000D02*
X155795888Y-115789000D01*
X155835888Y-111150000D02*
X155835888Y-112420000D01*
X155835888Y-114500000D02*
X155835888Y-115770000D01*
X155875888Y-111170000D02*
X155875888Y-112420000D01*
X155875888Y-114500000D02*
X155875888Y-115750000D01*
X155915888Y-111192000D02*
X155915888Y-112420000D01*
X155915888Y-114500000D02*
X155915888Y-115728000D01*
X155955888Y-111213000D02*
X155955888Y-112420000D01*
X155955888Y-114500000D02*
X155955888Y-115707000D01*
X155995888Y-111236000D02*
X155995888Y-112420000D01*
X155995888Y-114500000D02*
X155995888Y-115684000D01*
X156035888Y-111260000D02*
X156035888Y-112420000D01*
X156035888Y-114500000D02*
X156035888Y-115660000D01*
X156075888Y-111285000D02*
X156075888Y-112420000D01*
X156075888Y-114500000D02*
X156075888Y-115635000D01*
X156115888Y-111311000D02*
X156115888Y-112420000D01*
X156115888Y-114500000D02*
X156115888Y-115609000D01*
X156155888Y-111338000D02*
X156155888Y-112420000D01*
X156155888Y-114500000D02*
X156155888Y-115582000D01*
X156195888Y-111365000D02*
X156195888Y-112420000D01*
X156195888Y-114500000D02*
X156195888Y-115555000D01*
X156235888Y-111395000D02*
X156235888Y-112420000D01*
X156235888Y-114500000D02*
X156235888Y-115525000D01*
X156275888Y-111425000D02*
X156275888Y-112420000D01*
X156275888Y-114500000D02*
X156275888Y-115495000D01*
X156315888Y-111456000D02*
X156315888Y-112420000D01*
X156315888Y-114500000D02*
X156315888Y-115464000D01*
X156355888Y-111489000D02*
X156355888Y-112420000D01*
X156355888Y-114500000D02*
X156355888Y-115431000D01*
X156395888Y-111523000D02*
X156395888Y-112420000D01*
X156395888Y-114500000D02*
X156395888Y-115397000D01*
X156435888Y-111559000D02*
X156435888Y-112420000D01*
X156435888Y-114500000D02*
X156435888Y-115361000D01*
X156475888Y-111596000D02*
X156475888Y-112420000D01*
X156475888Y-114500000D02*
X156475888Y-115324000D01*
X156515888Y-111634000D02*
X156515888Y-112420000D01*
X156515888Y-114500000D02*
X156515888Y-115286000D01*
X156555888Y-111675000D02*
X156555888Y-112420000D01*
X156555888Y-114500000D02*
X156555888Y-115245000D01*
X156595888Y-111717000D02*
X156595888Y-112420000D01*
X156595888Y-114500000D02*
X156595888Y-115203000D01*
X156635888Y-111761000D02*
X156635888Y-112420000D01*
X156635888Y-114500000D02*
X156635888Y-115159000D01*
X156675888Y-111807000D02*
X156675888Y-112420000D01*
X156675888Y-114500000D02*
X156675888Y-115113000D01*
X156715888Y-111855000D02*
X156715888Y-112420000D01*
X156715888Y-114500000D02*
X156715888Y-115065000D01*
X156755888Y-111906000D02*
X156755888Y-112420000D01*
X156755888Y-114500000D02*
X156755888Y-115014000D01*
X156795888Y-111960000D02*
X156795888Y-112420000D01*
X156795888Y-114500000D02*
X156795888Y-114960000D01*
X156835888Y-112017000D02*
X156835888Y-112420000D01*
X156835888Y-114500000D02*
X156835888Y-114903000D01*
X156875888Y-112077000D02*
X156875888Y-112420000D01*
X156875888Y-114500000D02*
X156875888Y-114843000D01*
X156915888Y-112141000D02*
X156915888Y-112420000D01*
X156915888Y-114500000D02*
X156915888Y-114779000D01*
X156955888Y-112209000D02*
X156955888Y-112420000D01*
X156955888Y-114500000D02*
X156955888Y-114711000D01*
X156995888Y-112282000D02*
X156995888Y-114638000D01*
X157035888Y-112362000D02*
X157035888Y-114558000D01*
X157075888Y-112449000D02*
X157075888Y-114471000D01*
X157115888Y-112545000D02*
X157115888Y-114375000D01*
X157155888Y-112655000D02*
X157155888Y-114265000D01*
X157195888Y-112783000D02*
X157195888Y-114137000D01*
X157235888Y-112942000D02*
X157235888Y-113978000D01*
X157275888Y-113176000D02*
X157275888Y-113744000D01*
X157294888Y-113460000D02*
G75*
G03*
X157294888Y-113460000I-2620000J0D01*
G01*
D12*
X128238000Y-75565000D02*
G75*
G03*
X128238000Y-75565000I-2000000J0D01*
G01*
D10*
X175705000Y-83275000D02*
X175705000Y-84605000D01*
X174375000Y-83275000D02*
X175705000Y-83275000D01*
X173105000Y-83275000D02*
X170505000Y-83275000D01*
X173105000Y-83275000D02*
X173105000Y-85875000D01*
X170505000Y-83275000D02*
X170505000Y-88475000D01*
X175705000Y-85875000D02*
X175705000Y-88475000D01*
X173105000Y-85875000D02*
X175705000Y-85875000D01*
X175705000Y-88475000D02*
X170505000Y-88475000D01*
G36*
X113897003Y-113590017D02*
G01*
X113950167Y-113619983D01*
X113982650Y-113678812D01*
X113978495Y-113741522D01*
X113943720Y-113795871D01*
X113884344Y-113829615D01*
X113844489Y-113834961D01*
X113780256Y-113815168D01*
X113737025Y-113765191D01*
X113724933Y-113699139D01*
X113729770Y-113675356D01*
X113767933Y-113619350D01*
X113829183Y-113589521D01*
X113897003Y-113590017D01*
G37*
G36*
X113747469Y-117001007D02*
G01*
X113785233Y-117041919D01*
X113800076Y-117097253D01*
X113786965Y-117156845D01*
X113740865Y-117210524D01*
X113729736Y-117218110D01*
X113677169Y-117228130D01*
X113634356Y-117214423D01*
X113590112Y-117173067D01*
X113572233Y-117112752D01*
X113581638Y-117051029D01*
X113619243Y-117005447D01*
X113623309Y-117003124D01*
X113691816Y-116984687D01*
X113747469Y-117001007D01*
G37*
G36*
X111617502Y-114811026D02*
G01*
X111711365Y-114860042D01*
X111803831Y-114930210D01*
X111883263Y-115012100D01*
X111938024Y-115096282D01*
X111951039Y-115130659D01*
X111958028Y-115178211D01*
X111963508Y-115258926D01*
X111966823Y-115360374D01*
X111967494Y-115442412D01*
X111962088Y-115598963D01*
X111943864Y-115717117D01*
X111908460Y-115803289D01*
X111851510Y-115863893D01*
X111768651Y-115905343D01*
X111655518Y-115934054D01*
X111629853Y-115938665D01*
X111468113Y-115951214D01*
X111328816Y-115930806D01*
X111216404Y-115878479D01*
X111160985Y-115829134D01*
X111125778Y-115783891D01*
X111100895Y-115735115D01*
X111082003Y-115670367D01*
X111064766Y-115577204D01*
X111058027Y-115533614D01*
X111057701Y-115485900D01*
X111064292Y-115413032D01*
X111071334Y-115362881D01*
X111107803Y-115222757D01*
X111167588Y-115091119D01*
X111244871Y-114975140D01*
X111333835Y-114881990D01*
X111428663Y-114818843D01*
X111523539Y-114792871D01*
X111533877Y-114792591D01*
X111617502Y-114811026D01*
G37*
G36*
X112280735Y-111856999D02*
G01*
X112447448Y-111876844D01*
X112705085Y-111929741D01*
X112848849Y-111969073D01*
X112993776Y-112008723D01*
X113315333Y-112114167D01*
X113671569Y-112246448D01*
X113680638Y-112249990D01*
X113689587Y-112253485D01*
X113950159Y-112358301D01*
X114174023Y-112455200D01*
X114368485Y-112548206D01*
X114540847Y-112641345D01*
X114698413Y-112738642D01*
X114848486Y-112844121D01*
X114998369Y-112961808D01*
X115044578Y-113000256D01*
X115113889Y-113051629D01*
X115157367Y-113069436D01*
X115175567Y-113057298D01*
X115169044Y-113018841D01*
X115138353Y-112957686D01*
X115084051Y-112877457D01*
X115012047Y-112787974D01*
X114876072Y-112629987D01*
X114985986Y-112531352D01*
X115082856Y-112450664D01*
X115212336Y-112352081D01*
X115367395Y-112240245D01*
X115541000Y-112119799D01*
X115726121Y-111995385D01*
X115915723Y-111871645D01*
X116102776Y-111753221D01*
X116280247Y-111644756D01*
X116441104Y-111550892D01*
X116578315Y-111476271D01*
X116603992Y-111463218D01*
X116757254Y-111390952D01*
X116892736Y-111338966D01*
X117025164Y-111303579D01*
X117169265Y-111281109D01*
X117339765Y-111267876D01*
X117396017Y-111265250D01*
X117531795Y-111262586D01*
X117670108Y-111265104D01*
X117802368Y-111272091D01*
X117919983Y-111282835D01*
X118014364Y-111296624D01*
X118076920Y-111312745D01*
X118095640Y-111323276D01*
X118088758Y-111346749D01*
X118059093Y-111402607D01*
X118009933Y-111485819D01*
X117944565Y-111591354D01*
X117866277Y-111714182D01*
X117778356Y-111849273D01*
X117684089Y-111991597D01*
X117586764Y-112136122D01*
X117489667Y-112277819D01*
X117396087Y-112411658D01*
X117309311Y-112532606D01*
X117273777Y-112580921D01*
X117146052Y-112750147D01*
X117020155Y-112910528D01*
X116890512Y-113068536D01*
X116751545Y-113230644D01*
X116597680Y-113403323D01*
X116423342Y-113593046D01*
X116222954Y-113806283D01*
X116170908Y-113861108D01*
X115836340Y-114212961D01*
X115826535Y-115454706D01*
X115824359Y-115724682D01*
X115822313Y-115953429D01*
X115820203Y-116145318D01*
X115817834Y-116304719D01*
X115815015Y-116436003D01*
X115811549Y-116543542D01*
X115807243Y-116631707D01*
X115801904Y-116704868D01*
X115795337Y-116767396D01*
X115787348Y-116823662D01*
X115777743Y-116878038D01*
X115766329Y-116934894D01*
X115759380Y-116967998D01*
X115702029Y-117239546D01*
X115846255Y-117589664D01*
X115967859Y-117889455D01*
X116097313Y-118216906D01*
X116231126Y-118562700D01*
X116365810Y-118917519D01*
X116497875Y-119272042D01*
X116623833Y-119616953D01*
X116740193Y-119942931D01*
X116843467Y-120240660D01*
X116885339Y-120364727D01*
X116932459Y-120510613D01*
X116963048Y-120617137D01*
X116977809Y-120687154D01*
X116977442Y-120723521D01*
X116974651Y-120728138D01*
X116938898Y-120737414D01*
X116867497Y-120735849D01*
X116768720Y-120724865D01*
X116650841Y-120705884D01*
X116522132Y-120680328D01*
X116390866Y-120649618D01*
X116265317Y-120615177D01*
X116202505Y-120595427D01*
X115878126Y-120472638D01*
X115585245Y-120328391D01*
X115318432Y-120158438D01*
X115072252Y-119958528D01*
X114841275Y-119724414D01*
X114620067Y-119451845D01*
X114472243Y-119242050D01*
X114298912Y-118983160D01*
X114424306Y-118865838D01*
X114521269Y-118769941D01*
X114582730Y-118695942D01*
X114610995Y-118640240D01*
X114608367Y-118599232D01*
X114601521Y-118588797D01*
X114573824Y-118562644D01*
X114545610Y-118560529D01*
X114506987Y-118585859D01*
X114448592Y-118641515D01*
X114335355Y-118743825D01*
X114205534Y-118838488D01*
X114056053Y-118926573D01*
X113883831Y-119009147D01*
X113685792Y-119087278D01*
X113458856Y-119162035D01*
X113199946Y-119234486D01*
X112905982Y-119305699D01*
X112573887Y-119376741D01*
X112200582Y-119448681D01*
X112036535Y-119478393D01*
X111822141Y-119516990D01*
X111623774Y-119553462D01*
X111446732Y-119586791D01*
X111296316Y-119615957D01*
X111177824Y-119639944D01*
X111096555Y-119657731D01*
X111073205Y-119663531D01*
X111021903Y-119677263D01*
X111021903Y-118072088D01*
X111401845Y-118072088D01*
X111412563Y-118247489D01*
X111446669Y-118413260D01*
X111493399Y-118521568D01*
X111567643Y-118625011D01*
X111658368Y-118711643D01*
X111754543Y-118769522D01*
X111785727Y-118780313D01*
X111949459Y-118803988D01*
X112105924Y-118786459D01*
X112248583Y-118730461D01*
X112370899Y-118638732D01*
X112466330Y-118514006D01*
X112479182Y-118490163D01*
X112536323Y-118338580D01*
X112560679Y-118179850D01*
X112554633Y-118020917D01*
X112520570Y-117868723D01*
X112460874Y-117730210D01*
X112377929Y-117612323D01*
X112274121Y-117522002D01*
X112151832Y-117466193D01*
X112125330Y-117459775D01*
X111959319Y-117446561D01*
X111804951Y-117476211D01*
X111666633Y-117546569D01*
X111548775Y-117655476D01*
X111464555Y-117783281D01*
X111419264Y-117914225D01*
X111401845Y-118072088D01*
X111021903Y-118072088D01*
X111021903Y-117800971D01*
X111021903Y-117104600D01*
X113035219Y-117104600D01*
X113037215Y-117237220D01*
X113052812Y-117307984D01*
X113107321Y-117424670D01*
X113194829Y-117519055D01*
X113306895Y-117587868D01*
X113435078Y-117627841D01*
X113570936Y-117635703D01*
X113706030Y-117608185D01*
X113764083Y-117583509D01*
X113886788Y-117501656D01*
X113972561Y-117400472D01*
X114018643Y-117284536D01*
X114022274Y-117158429D01*
X114021877Y-117155713D01*
X113981696Y-117027125D01*
X113907771Y-116920244D01*
X113807650Y-116837425D01*
X113688878Y-116781023D01*
X113559005Y-116753392D01*
X113425576Y-116756888D01*
X113296140Y-116793866D01*
X113178243Y-116866679D01*
X113156694Y-116885767D01*
X113074793Y-116988476D01*
X113035219Y-117104600D01*
X111021903Y-117104600D01*
X111021903Y-115924678D01*
X111075254Y-115974799D01*
X111128050Y-116013960D01*
X111194703Y-116041277D01*
X111283351Y-116058416D01*
X111402133Y-116067045D01*
X111534769Y-116068931D01*
X111662067Y-116066636D01*
X111754823Y-116059441D01*
X111823958Y-116045993D01*
X111876930Y-116026549D01*
X111953536Y-115985218D01*
X111959319Y-115980393D01*
X112012153Y-115936310D01*
X112055051Y-115873493D01*
X112084500Y-115790433D01*
X112102768Y-115680797D01*
X112112126Y-115538251D01*
X112114836Y-115362609D01*
X112113367Y-115230371D01*
X112697332Y-115230371D01*
X112699644Y-115257156D01*
X112706924Y-115326530D01*
X112709157Y-115376334D01*
X112729508Y-115432245D01*
X112767092Y-115467921D01*
X112835524Y-115490573D01*
X112899818Y-115470227D01*
X112954573Y-115409468D01*
X112975210Y-115368323D01*
X112993148Y-115297385D01*
X113000986Y-115205516D01*
X112999254Y-115107819D01*
X112988481Y-115019395D01*
X112969195Y-114955347D01*
X112960241Y-114941129D01*
X112914082Y-114915132D01*
X112848849Y-114907734D01*
X112786675Y-114919112D01*
X112755847Y-114939483D01*
X112732857Y-114987898D01*
X112713360Y-115064275D01*
X112700479Y-115150979D01*
X112697332Y-115230371D01*
X112113367Y-115230371D01*
X112112996Y-115196987D01*
X112105616Y-115069174D01*
X112090704Y-114971516D01*
X112066268Y-114896360D01*
X112030316Y-114836050D01*
X111980855Y-114782934D01*
X111958950Y-114763754D01*
X111865226Y-114703278D01*
X111753934Y-114668567D01*
X111615495Y-114657217D01*
X111541753Y-114659093D01*
X111398939Y-114678647D01*
X111283936Y-114725315D01*
X111185785Y-114805402D01*
X111102406Y-114911851D01*
X111021903Y-115031390D01*
X111022052Y-113815892D01*
X113217359Y-113815892D01*
X113235455Y-113926164D01*
X113283552Y-114041602D01*
X113364930Y-114133935D01*
X113472126Y-114200537D01*
X113559005Y-114227002D01*
X113597675Y-114238782D01*
X113734114Y-114246044D01*
X113873979Y-114219695D01*
X113964437Y-114182672D01*
X114063478Y-114120999D01*
X114128589Y-114049083D01*
X114165323Y-113956957D01*
X114179238Y-113834650D01*
X114179803Y-113796158D01*
X114178578Y-113709601D01*
X114171265Y-113653043D01*
X114152408Y-113610887D01*
X114116550Y-113567536D01*
X114090279Y-113540271D01*
X113961852Y-113435954D01*
X113824256Y-113374946D01*
X113680638Y-113357909D01*
X113534151Y-113385506D01*
X113472981Y-113410353D01*
X113348893Y-113485145D01*
X113266132Y-113575049D01*
X113222889Y-113683990D01*
X113217359Y-113815892D01*
X111022052Y-113815892D01*
X111022080Y-113583849D01*
X111022212Y-112506959D01*
X111831654Y-112506959D01*
X111837279Y-112620171D01*
X111850261Y-112732668D01*
X111869643Y-112829398D01*
X111879565Y-112861999D01*
X111945868Y-112986327D01*
X112043735Y-113080931D01*
X112167964Y-113143066D01*
X112313356Y-113169982D01*
X112449744Y-113163112D01*
X112564063Y-113123232D01*
X112669827Y-113040408D01*
X112764184Y-112916940D01*
X112772730Y-112902705D01*
X112802229Y-112847942D01*
X112820561Y-112796913D01*
X112830319Y-112736075D01*
X112834091Y-112651884D01*
X112834560Y-112579435D01*
X112833176Y-112472317D01*
X112827063Y-112395693D01*
X112813287Y-112334491D01*
X112788910Y-112273640D01*
X112765872Y-112226907D01*
X112681529Y-112097850D01*
X112579827Y-112009756D01*
X112457278Y-111960147D01*
X112372964Y-111947869D01*
X112280735Y-111946902D01*
X112207853Y-111962278D01*
X112139139Y-111993664D01*
X112050685Y-112057575D01*
X111962676Y-112148698D01*
X111889002Y-112250673D01*
X111846299Y-112338597D01*
X111834341Y-112408083D01*
X111831654Y-112506959D01*
X111022212Y-112506959D01*
X111022257Y-112136307D01*
X111210186Y-112060402D01*
X111439924Y-111978263D01*
X111696843Y-111905180D01*
X111842729Y-111870911D01*
X112018082Y-111847804D01*
X112219051Y-111849656D01*
X112280735Y-111856999D01*
G37*
D12*
X178998000Y-118745000D02*
G75*
G03*
X178998000Y-118745000I-2000000J0D01*
G01*
X117000000Y-86750000D02*
G75*
G03*
X117000000Y-86750000I-2000000J0D01*
G01*
D10*
X129550000Y-111900000D02*
X124350000Y-111900000D01*
X137600000Y-122160000D02*
X137600000Y-120830000D01*
X138930000Y-122160000D02*
X137600000Y-122160000D01*
X140200000Y-122160000D02*
X147880000Y-122160000D01*
X147880000Y-122160000D02*
X147880000Y-116960000D01*
X137600000Y-119560000D02*
X137600000Y-116960000D01*
X137600000Y-116960000D02*
X147880000Y-116960000D01*
X135860000Y-125210000D02*
X129320000Y-125210000D01*
X135860000Y-124880000D02*
X135860000Y-125210000D01*
X135860000Y-122800000D02*
X135860000Y-122470000D01*
X135860000Y-122470000D02*
X129320000Y-122470000D01*
X129320000Y-125210000D02*
X129320000Y-124880000D01*
X129320000Y-122470000D02*
X129320000Y-122800000D01*
D12*
X117000000Y-108300000D02*
G75*
G03*
X117000000Y-108300000I-2000000J0D01*
G01*
%LPC*%
D13*
X156713000Y-123865000D03*
D14*
X154173000Y-123865000D03*
X151633000Y-123865000D03*
X149093000Y-123865000D03*
X146553000Y-123865000D03*
X144013000Y-123865000D03*
X141473000Y-123865000D03*
X138933000Y-123865000D03*
D13*
X174498000Y-123865000D03*
D14*
X171958000Y-123865000D03*
X169418000Y-123865000D03*
X166878000Y-123865000D03*
X164338000Y-123865000D03*
X161798000Y-123865000D03*
D13*
X174498000Y-75575000D03*
D14*
X171958000Y-75575000D03*
X169418000Y-75575000D03*
X166878000Y-75575000D03*
X164338000Y-75575000D03*
X161798000Y-75575000D03*
X159258000Y-75575000D03*
X156718000Y-75575000D03*
D13*
X152658000Y-75575000D03*
D14*
X150118000Y-75575000D03*
X147578000Y-75575000D03*
X145038000Y-75575000D03*
X142498000Y-75575000D03*
X139958000Y-75575000D03*
X137418000Y-75575000D03*
X134878000Y-75575000D03*
X132338000Y-75575000D03*
X129798000Y-75575000D03*
X136380000Y-115747500D03*
D15*
X176998000Y-90805000D03*
D14*
X163127500Y-107460000D03*
X160587500Y-107460000D03*
X136380000Y-120830000D03*
X136380000Y-118290000D03*
D13*
X163128000Y-89680000D03*
D14*
X160588000Y-92220000D03*
X160588000Y-89680000D03*
X163128000Y-92220000D03*
X160588000Y-94760000D03*
X163128000Y-94760000D03*
X163128000Y-97300000D03*
X160588000Y-99840000D03*
X163128000Y-99840000D03*
X160588000Y-102380000D03*
X163128000Y-102380000D03*
X160588000Y-104920000D03*
X163128000Y-104920000D03*
X160588000Y-97300000D03*
X160040000Y-115107500D03*
X160040000Y-112567500D03*
X130760000Y-118310000D03*
X130760000Y-115770000D03*
X130760000Y-113230000D03*
D16*
X163225000Y-112310000D03*
D17*
X164820000Y-112310000D03*
X166425000Y-112310000D03*
D15*
X124998000Y-123365000D03*
D18*
X153424888Y-113460000D03*
D19*
X155924888Y-113460000D03*
D15*
X126238000Y-75565000D03*
D14*
X148980000Y-114712500D03*
X169625000Y-115107500D03*
X169625000Y-112567500D03*
D13*
X174375000Y-84605000D03*
D14*
X174375000Y-87145000D03*
X171835000Y-84605000D03*
X171835000Y-87145000D03*
D15*
X176998000Y-118745000D03*
X115000000Y-86750000D03*
D14*
X128220000Y-118310000D03*
X125680000Y-118310000D03*
X128220000Y-115770000D03*
X125680000Y-115770000D03*
X128220000Y-113230000D03*
X125680000Y-113230000D03*
D13*
X175350000Y-96220000D03*
X175355000Y-99720000D03*
X175350000Y-103170000D03*
X175350000Y-106570000D03*
X175350000Y-109970000D03*
X175350000Y-113370000D03*
X138930000Y-120830000D03*
D14*
X138930000Y-118290000D03*
X141470000Y-120830000D03*
X141470000Y-118290000D03*
X144010000Y-120830000D03*
X144010000Y-118290000D03*
X146550000Y-120830000D03*
X146550000Y-118290000D03*
D19*
X136400000Y-123840000D03*
D20*
X128780000Y-123840000D03*
D15*
X115000000Y-108300000D03*
D14*
X149090000Y-118290000D03*
X151630000Y-118290000D03*
M02*
