%TF.GenerationSoftware,KiCad,Pcbnew,7.0.1*%
%TF.CreationDate,2023-06-16T17:14:34+02:00*%
%TF.ProjectId,Uno_shiefefefe - Copy,556e6f5f-7368-4696-9566-656665666520,rev?*%
%TF.SameCoordinates,Original*%
%TF.FileFunction,Profile,NP*%
%FSLAX46Y46*%
G04 Gerber Fmt 4.6, Leading zero omitted, Abs format (unit mm)*
G04 Created by KiCad (PCBNEW 7.0.1) date 2023-06-16 17:14:34*
%MOMM*%
%LPD*%
G01*
G04 APERTURE LIST*
%TA.AperFunction,Profile*%
%ADD10C,0.150000*%
%TD*%
G04 APERTURE END LIST*
D10*
X179578000Y-88519000D02*
X177038000Y-85979000D01*
X133975000Y-105950000D02*
X110990000Y-105950000D01*
X177038000Y-123825000D02*
X179578000Y-121285000D01*
X122955786Y-79470000D02*
X122975001Y-75000000D01*
X112988000Y-81500000D02*
X120955786Y-81470000D01*
X112990001Y-122199999D02*
X119810000Y-122200000D01*
X121810000Y-124200000D02*
G75*
G03*
X119810000Y-122200000I-2000000J0D01*
G01*
X177035800Y-75020000D02*
G75*
G03*
X175035786Y-73020000I-2000000J0D01*
G01*
X120955786Y-81469986D02*
G75*
G03*
X122955786Y-79470000I14J1999986D01*
G01*
X179578000Y-121285000D02*
X179578000Y-88519000D01*
X110990001Y-120199999D02*
G75*
G03*
X112990001Y-122199999I1999999J-1D01*
G01*
X175035786Y-126365786D02*
G75*
G03*
X177035786Y-124365786I14J1999986D01*
G01*
X112988000Y-81500000D02*
G75*
G03*
X110988000Y-83500000I0J-2000000D01*
G01*
X110990001Y-120199999D02*
X110990000Y-105950000D01*
X175035786Y-73020000D02*
X124975001Y-73000000D01*
X124975001Y-73000001D02*
G75*
G03*
X122975001Y-75000000I-1J-1999999D01*
G01*
X177035786Y-124365786D02*
X177038000Y-123825000D01*
X123814214Y-126320000D02*
X175035786Y-126365786D01*
X177038000Y-85979000D02*
X177035786Y-75020000D01*
X133975000Y-89100000D02*
X133975000Y-105950000D01*
X121814200Y-124320000D02*
G75*
G03*
X123814214Y-126320000I2000000J0D01*
G01*
X121810000Y-124200000D02*
X121814214Y-124320000D01*
X110988000Y-83500000D02*
X110990000Y-89100000D01*
X110990000Y-89100000D02*
X133975000Y-89100000D01*
M02*
